<svg xmlns="http://www.w3.org/2000/svg" viewBox="0 0 224.16 174.29"><defs><style>.cls-1{fill:#2f2e41;}.cls-2{fill:#99616a;}.cls-3{fill:#3491d4;}.cls-4{fill:#ffafaf;}.cls-5{fill:#c3c3c3;}.cls-6{fill:#eabd0f;}.cls-7{fill:#fff;}.cls-8{fill:#3f3d56;}.cls-9{fill:#2ec571;}.cls-10{fill:#dfdfdf;}</style></defs><g id="Layer_2" data-name="Layer 2"><g id="main"><polygon class="cls-1" points="161.71 32.27 145.29 32.27 145.29 6.07 161.71 11.31 161.71 32.27"/><polygon class="cls-2" points="164.63 165.29 161.24 165.37 159.35 150.15 164.35 150.03 164.63 165.29"/><path class="cls-1" d="M153,172.36h0a1,1,0,0,0,.91,1h6.72a6.09,6.09,0,0,1,3.36-3.8l.19,3.8h3.47l-.42-6.12s.93-3.27-1-4.94-.37-1.44-.37-1.44l-.75-3.79-5.25.62,0,5.94-2.54,5.9-3.73,1.85a1,1,0,0,0-.55,1Z"/><polygon class="cls-2" points="147.26 165.29 143.87 165.37 141.98 150.15 146.98 150.03 147.26 165.29"/><path class="cls-1" d="M135.64,172.36h0a1,1,0,0,0,.9,1h6.73a6.05,6.05,0,0,1,3.36-3.8l.19,3.8h3.46l-.42-6.12s.93-3.27-1-4.94-.37-1.44-.37-1.44l-.76-3.79-5.24.62,0,5.94-2.54,5.9-3.74,1.85a1,1,0,0,0-.54,1Z"/><path class="cls-1" d="M162.76,60.91,141.1,73.84l-4.89,19.91,2.45,61.48h10.72L151.76,96l4.75,59.21H167.4l2.76-66.49a26.38,26.38,0,0,0-1.73-14.29l-5.67-13.54Z"/><path class="cls-3" d="M157.87,21.44l-9.08-.7-2.45,4.89-7,1.75L137.61,49c3.45,9,5.62,17.55,3.49,24.8l26.55-1.4-4.43-12a28.25,28.25,0,0,1,2.33-10.37c2.45-5.94-1.39-21.31-1.39-21.31l-5.59-1.39-.7-5.94Z"/><path class="cls-2" d="M96.71,29.86a4.94,4.94,0,0,0,2.35-.46l8.41.8.26-4-8.56-.38a5.12,5.12,0,0,0-2.31-.6c-2-.06-3.69.93-3.73,2.21s1.56,2.38,3.58,2.44Z"/><path class="cls-3" d="M146.45,42.11s-.29-12.78-3.1-14.7c-1.15-.79-18.93-1-19.58-1-4-.41-6.83-2-10.2-2.17-8.19-.42-12.33,1.57-12.33,1.57l-.15,4.1,45.36,12.24Z"/><circle id="b" class="cls-2" cx="152.55" cy="13.16" r="7.25"/><path class="cls-1" d="M150.35,2.36c-1.56,1-2.7.28-3.81.77-2.18,1-5.85,7.78-5.52,10.63.47,4,1.95,4.2,1.9,7.09-.07,4.65-.44,4.63.52,6.26,1.06,1.8,7.05,1.31,8.17-1.14.22-.48-2.22-.29-4.92-6.63a9.88,9.88,0,0,1,0-7.33c.11-.3.16-2.39.39-2.16,2,2,3.18.55,4.41.38,2.52-.35,4.42,1.68,5.18.95.57-.54-.15-2,.12-2.08s1.27,1.46,1.91,3.16a6,6,0,0,1,.6,2.26c-.07,1.93-.56,7.41-1.43,9-1.89,3.47.49,4.78,2,4.53,1.19-.2,6.47.6,6.76,0s-.33-5.87-.95-10.85A23.38,23.38,0,0,0,157.26,2a4.21,4.21,0,0,0-.59-.44c-.25-.14-2.92-1.52-4.89-.41-.72.4-.6.73-1.43,1.25Z"/><polygon class="cls-4" points="59.76 170.95 55.74 170.95 53.82 155.43 59.76 155.43 59.76 170.95"/><path class="cls-1" d="M46,170.86h0a3.33,3.33,0,0,0-.19,1.14h0a1.36,1.36,0,0,0,1.36,1.36H59.61a.93.93,0,0,0,.93-.93v-.52a4,4,0,0,0-.65-3.48s-1.58,1.5-3.93-.85l-.7-1.26-5,3.68-2.79.34c-.61.08-1.15,0-1.46.52Z"/><polygon class="cls-4" points="76.73 170.95 72.7 170.95 70.79 155.43 76.73 155.43 76.73 170.95"/><path class="cls-1" d="M62.94,170.86h0a3.59,3.59,0,0,0-.19,1.14h0a1.36,1.36,0,0,0,1.37,1.36H76.58a.93.93,0,0,0,.93-.93v-.52a4,4,0,0,0-.65-3.48s-1.58,1.5-3.94-.85l-.69-1.26-5,3.68-2.78.34c-.61.08-1.15,0-1.47.52Z"/><polygon class="cls-1" points="77.53 72.96 48.01 72.62 44.95 91.96 52.42 158.8 62.2 158.8 64.46 96.54 68.53 159.99 78.55 159.99 83.12 87.72 77.53 72.96"/><path class="cls-5" d="M202.67,168.28a.77.77,0,0,0,.56-1.33l-.06-.21,0-.05a2.07,2.07,0,0,1,3.82,0,18.39,18.39,0,0,1,1.61,4.6,5.93,5.93,0,0,1-.11,2.1,24.39,24.39,0,0,0,2.24-10.18,23.36,23.36,0,0,0-.15-2.64c-.08-.72-.19-1.44-.34-2.14a24.68,24.68,0,0,0-4.92-10.52,6.56,6.56,0,0,1-2.74-2.85,4.81,4.81,0,0,1-.46-1.37,6.37,6.37,0,0,0,.4-2.15c.19-.28.52-.42.72-.7,1-1.37,2.41-1.13,3.14.74,1.55.78,1.57,2.08.61,3.33-.6.8-.69,1.88-1.22,2.73l.17.21a24.94,24.94,0,0,1,2.6,4.13,10.53,10.53,0,0,1,.62-4.83,17.69,17.69,0,0,1,2.69-3.87,2.13,2.13,0,0,1,3.79,1.05v0c-.15.08-.29.17-.43.26a1,1,0,0,0,.42,1.9h0a10.26,10.26,0,0,1-.27,1.55c1.26,4.86-1.46,6.63-5.33,6.71l-.25.13a26,26,0,0,1,.94,3.38,26.67,26.67,0,0,1,.43,3.07,24.31,24.31,0,0,1,0,3.91v-.05a6.39,6.39,0,0,1,2.18-3.69c1.68-1.38,4-1.88,5.86-3a1.19,1.19,0,0,1,1.83,1.16v0a7.18,7.18,0,0,0-.79.38c-.15.08-.29.17-.43.26a1,1,0,0,0,.42,1.9h.07a10.49,10.49,0,0,1-1.91,3c-.79,4.24-4.16,4.64-7.77,3.41h0a26,26,0,0,1-1.71,5h-6.12l-.06-.2a7.32,7.32,0,0,0,1.69-.1l-1.36-1.68,0,0-.69-.85h0a10.33,10.33,0,0,1,.3-2.6Z"/><path class="cls-5" d="M0,173.88a.4.4,0,0,0,.4.41H223.76a.41.41,0,0,0,0-.81H.4A.4.4,0,0,0,0,173.88Z"/><polygon class="cls-6" points="67.52 22.24 57.01 22.24 54.96 26.31 44.95 30.91 48.52 57.19 45.8 74.49 79.71 74.49 76.68 54.47 80.75 30.38 69.55 25.97 67.52 22.24"/><path class="cls-4" d="M102.68,85.92a6,6,0,0,1-.64-2.74l-4.93-8.63,4.18-2.22,4.55,9a5.9,5.9,0,0,1,1.76,2.18c1.05,2.14.8,4.41-.56,5.08s-3.31-.53-4.36-2.66Z"/><path class="cls-6" d="M70.2,29.22s3.33-3.42,7.06-1S94.59,54.92,94.59,54.92l10.49,20.94-7.4,3.45L88.74,59.26,70,39.06l.23-9.84Z"/><circle class="cls-4" cx="61.82" cy="10.77" r="9.49"/><path class="cls-1" d="M58.84,18.4c0,.93.07,1.39-.08,1.45-.43.17-6-3.1-6.61-5.27-.31-1,0-1-.27-3.93s-.45-2.78-.17-3.46S53,5.49,54.89,3.62c.72-.71,1.08-1.06,1.31-1.24.69-.56,3.26-2.62,5.62-2.36,1,.12.82.51,4.51,2.51.32.18.75.4,1.34.67a22.66,22.66,0,0,0,2.79,1c2.84,1.08,2,7.07,1.76,7.1s-.11-.76-.58-.83S71,11,70.57,11c-1,.06.12-.94-2.43-2.05-1-.43,1.77,1.51-.85,1.48-4.1,0-1.48.21-3,1-1.13.6-5.7-2.69-5.51-1.64.13.74.66,1,.59,1.78s-.68,1.67-1.21,1.7-.76-.65-.93-.59,0,.94.4,1.82c.49,1.13.78,1.14,1,2a7.3,7.3,0,0,1,.21,1.86Z"/><path class="cls-7" d="M133.61,83.13,72.49,67.58a7.33,7.33,0,0,1-5.29-8.89L74.81,28.8a7.31,7.31,0,0,1,8.89-5.28l61.12,15.55A7.32,7.32,0,0,1,150.11,48L142.5,77.85a7.31,7.31,0,0,1-8.89,5.28Z"/><path class="cls-8" d="M133.61,83.13,72.49,67.58a8,8,0,0,1-4.65-3.4,10.18,10.18,0,0,1-1.34-8.24l6.38-25.06A10.16,10.16,0,0,1,78,24.28a8,8,0,0,1,5.71-.76l61.12,15.55A7.32,7.32,0,0,1,150.11,48L142.5,77.85a7.31,7.31,0,0,1-8.89,5.28Zm-50.08-59C80,23.27,80.91,26.49,80,30h0a35.61,35.61,0,0,0,21.31,41.85c9,3.58,16.42,6.5,16.42,6.5a23.19,23.19,0,0,0,28.2-16.76l3.52-13.84a6.63,6.63,0,0,0-4.79-8.06L83.53,24.17Z"/><path class="cls-9" d="M112.13,47.73h0A6.39,6.39,0,0,0,105,42.16h0a6.38,6.38,0,0,0-5.58,7h-.1l1.54,12.68,11.67-1.42a7,7,0,0,0,1.12,0h0a6.39,6.39,0,0,0,5.57-7.11h0a6.38,6.38,0,0,0-7.11-5.57Z"/><path class="cls-5" d="M89.76,167.52h0a2.46,2.46,0,0,0-3.2-1.41h0a2.47,2.47,0,0,0-1.42,3.16l0,0,1.79,4.61,4.25-1.65a2.77,2.77,0,0,0,.41-.12h0a2.46,2.46,0,0,0,1.41-3.2h0a2.47,2.47,0,0,0-3.2-1.41Z"/><path class="cls-5" d="M184.77,167.52h0a2.47,2.47,0,0,0-3.2-1.41h0a2.46,2.46,0,0,0-1.43,3.16l0,0,1.78,4.61,4.25-1.65a3.31,3.31,0,0,0,.42-.12h0a2.48,2.48,0,0,0,1.41-3.2h0a2.47,2.47,0,0,0-3.2-1.41Z"/><circle class="cls-9" cx="107.12" cy="76.13" r="8.14"/><path class="cls-4" d="M70.1,43.11a5.91,5.91,0,0,1-2.64,1l-8,5.92-2.71-3.88,8.39-5.59a5.93,5.93,0,0,1,2-2c2-1.29,4.28-1.31,5.11,0s-.13,3.35-2.13,4.64Z"/><path class="cls-6" d="M51.4,29.3s-6.1-.68-7.12,1.69-3.05,26.13-3.05,26.13l3.39,5.77L66.87,46.05l-4.51-4.51-9.53,4.51L51.4,29.3Z"/><path class="cls-2" d="M139.86,37a5.94,5.94,0,0,0,2.36,1.53l6.47,7.55,3.5-3.18-6.94-7.32a5.87,5.87,0,0,0-1.46-2.4c-1.65-1.7-3.88-2.23-5-1.18s-.62,3.3,1,5Z"/><path class="cls-3" d="M161.17,27.67s6.1.7,6.57,3.24-2.85,26.15-2.85,26.15l-4.59,4.87L142.36,40.56l5.4-3.39,8.29,6.51,5.12-16Z"/><circle class="cls-10" cx="78.85" cy="49.99" r="5.09"/></g></g></svg>