<svg xmlns="http://www.w3.org/2000/svg" viewBox="0 0 282.92 174.25"><defs><style>.cls-1{fill:#e9e9e9;}.cls-2{fill:#eabd0f;}.cls-3{fill:#3491d4;}.cls-4{fill:#97616a;}.cls-5{fill:#2f2e41;}.cls-6{fill:#ddd;}.cls-7{fill:#2ec571;}.cls-8{fill:#3f3d56;}</style></defs><g id="Layer_2" data-name="Layer 2"><g id="main"><rect class="cls-1" x="225.76" y="165.08" width="10.39" height="9.17"/><path class="cls-2" d="M282.92,77a77,77,0,0,1-40.07,67.6c-.69.38-1.39.75-2.09,1.1a72.9,72.9,0,0,1-8,3.51q-1.63.62-3.3,1.14l-.32.11a76.88,76.88,0,0,1-65.37-8.95c-1.28-.84-2.54-1.71-3.77-2.63-.69-.51-1.38-1-2.05-1.58-1.91-1.52-3.75-3.12-5.5-4.82A77,77,0,1,1,282.92,77Z"/><path class="cls-3" d="M224.28,113l-1.73,6.56,6.59,31a77.39,77.39,0,0,1-53.93-2.77l5.15-21.59.17-11.71.56-38.6.14-.08h0L194.38,69,217,68.44l16.89,8.22-.13.48Z"/><path class="cls-4" d="M233.53,169.4a5.53,5.53,0,0,1,.68-7.79,6.3,6.3,0,0,1,.8-.55l-3.67-19.3,9.42,3.93,2,17.72a5.56,5.56,0,0,1-9.27,6Z"/><path class="cls-3" d="M230.48,77.26l2.42-.78s7.67,4.92,6.94,16.81c0,0,.29,6.16,0,10.26-.31,4.7,3.9,51.39,3.9,51.39H230.09l-5.85-42.28Z"/><path class="cls-4" d="M222.56,47.33a15.69,15.69,0,1,1-15.69-15.68h0a15.64,15.64,0,0,1,15.69,15.6Z"/><path class="cls-5" d="M191.24,26.26c1.84-4,5.39-3.17,8.5-1.83,3.94-.87,7.69-3.49,11.93-1.94,4.18,6.08,18.21,4.29,15.23,14.19,0,2.37,4.46,1,3.68,4.87C233,49,222,63.18,215.78,60.2c1.55-2.84,5.08-9.28-.28-9.92C204,61,214.31,29.83,199.81,38.9,195,43.29,188.43,30.66,191.24,26.26Z"/><path class="cls-6" d="M215.24,152.09l-25-5,6.42-32.42a69.7,69.7,0,0,0,25,5C214.82,129.71,211.71,140.49,215.24,152.09Z"/><path class="cls-5" d="M211.6,154l-25-5c-2.05-14.68-.18-25.74,6.42-32.41a69.68,69.68,0,0,0,25,4.95A89.43,89.43,0,0,0,211.6,154Z"/><path class="cls-4" d="M195,145a5.51,5.51,0,0,0-6.16-4.8,5.18,5.18,0,0,0-.95.2l-11.63-15.83-3.54,9.58,11.58,13.56A5.56,5.56,0,0,0,195,145Z"/><path class="cls-3" d="M184.59,76.66l-2.11-1.42S170,76.4,167.37,88c0,0-1.89,7-2.75,11-.45,2.06-6.39,22-6.39,22l20.14,22,5.5-8.26-5.5-13.75Z"/><rect class="cls-7" y="17.58" width="10.39" height="9.17"/><rect class="cls-7" x="22.32" y="75.36" width="10.39" height="9.17"/><rect class="cls-7" x="38.52" y="138.03" width="10.39" height="9.17"/><path class="cls-7" d="M38.59,17.62a1.17,1.17,0,0,0,0,2.33h84.82a1.17,1.17,0,0,0,0-2.33Z"/><path class="cls-7" d="M38.59,24.59a1.17,1.17,0,0,0,0,2.33H92.21a1.17,1.17,0,0,0,0-2.33H38.59Z"/><path class="cls-7" d="M27.59,101.08a1.16,1.16,0,1,0,0,2.32h84.82a1.15,1.15,0,0,0,1.15-1.16,1.16,1.16,0,0,0-1.15-1.16Z"/><path class="cls-7" d="M27.59,108.05a1.18,1.18,0,0,0-1.17,1.16,1.16,1.16,0,0,0,1.16,1.16H81.21a1.16,1.16,0,1,0,0-2.32H27.59Z"/><path class="cls-7" d="M75.89,160.69a1.16,1.16,0,0,0,0,2.32h84.82a1.15,1.15,0,0,0,1.15-1.16,1.16,1.16,0,0,0-1.15-1.16Z"/><path class="cls-7" d="M75.89,167.66a1.16,1.16,0,1,0,0,2.32h53.63a1.16,1.16,0,0,0,0-2.32H75.89Z"/><path class="cls-8" d="M4.89,22.13a.46.46,0,0,0-.17.9,17,17,0,0,1,3.87,1.31A18.17,18.17,0,0,1,18,34.91a.47.47,0,0,0,.57.27.45.45,0,0,0,.3-.57A18,18,0,0,0,17,30.69,19.08,19.08,0,0,0,4.89,22.13Z"/><path class="cls-8" d="M13.82,32.86c-.51-.29-.9.53-.39.82l2.91,1.64,1.51.85a3.53,3.53,0,0,0,1.21.57c1.21.14,1-1.51,1.05-2.26l.09-3.26c0-.59-.9-.52-.92.06l-.08,2.78c0,.48,0,1,0,1.45,0,.08,0,.16,0,.23s-.06.11,0,.09-.29-.14-.37-.18l-5-2.79Z"/><path class="cls-8" d="M27.61,79.91a19.17,19.17,0,0,0-11.77,9,18.65,18.65,0,0,0-1.68,4,.46.46,0,0,0,.89.25,18.17,18.17,0,0,1,9-10.93,16.83,16.83,0,0,1,3.82-1.46.46.46,0,0,0-.24-.89Z"/><path class="cls-8" d="M19.1,91l-4.79,3-.25.15c-.08,0-.17,0-.11.09s-.06-.34-.07-.42l-.09-1.39-.19-2.77c0-.58-.95-.59-.91,0l.22,3.26c.05.74-.09,2.27,1,2.21a3.31,3.31,0,0,0,1.4-.7l1.37-.84,2.85-1.76A.46.46,0,0,0,19.1,91Z"/><path class="cls-8" d="M43.38,142.24a18.24,18.24,0,0,1,11.22,8.62,17.81,17.81,0,0,1,1.58,3.77.45.45,0,0,0,.58.3.45.45,0,0,0,.3-.54,19.12,19.12,0,0,0-9.4-11.48,18.33,18.33,0,0,0-4-1.55.46.46,0,0,0-.24.88Z"/><path class="cls-8" d="M51.66,153.23,54.51,155l1.36.85a3.4,3.4,0,0,0,1.4.69c1.14.07,1-1.47,1-2.21l.22-3.25c0-.59-.88-.59-.92,0l-.18,2.77-.09,1.33c0,.1,0,.4-.07.48s0,0-.07-.07l-.29-.18-4.8-2.95c-.5-.31-1,.48-.46.79Z"/><circle class="cls-7" cx="20.79" cy="43.57" r="4.28"/><circle class="cls-7" cx="13.45" cy="105.73" r="4.28"/><circle class="cls-7" cx="59.61" cy="165.24" r="4.28"/></g></g></svg>