<svg xmlns="http://www.w3.org/2000/svg" viewBox="0 0 246.76 187.55"><defs><style>.cls-1{fill:#c3c3c3;}.cls-2{fill:#fff;}.cls-3{fill:#3491d4;}.cls-4{fill:#2ec571;}.cls-5{fill:#99616a;}.cls-6{fill:#2f2e41;}.cls-7{fill:#eabd0f;}</style></defs><g id="Layer_2" data-name="Layer 2"><g id="main"><path class="cls-1" d="M51.83,177.87a26,26,0,0,1-3.19,8.9l-.42.78H23.11c-.51-.23-1-.5-1.51-.78a21.28,21.28,0,0,1-1.91-1.22c-7.4-5.33-10.25-15.41-9-24.44.8-5.62,3.26-11.35,8.06-14.37a12.11,12.11,0,0,1,8.7-1.53l.23,0a9,9,0,0,1,6,4.23c2.29,4.06.93,9.09-.2,13.61S31.8,173,35.06,176.37a8.3,8.3,0,0,1,9.65-10.78c.23,0,.46.1.69.17a7.44,7.44,0,0,1,1.59.67C50.83,168.57,52.38,173.51,51.83,177.87Z"/><path class="cls-2" d="M34.22,186.77q.93.43,1.89.78H34.32c-.54-.24-1.07-.5-1.6-.78A22.15,22.15,0,0,1,26,181.41a17.83,17.83,0,0,1-2.77-4.53,20.1,20.1,0,0,1-1.42-5.81,41.32,41.32,0,0,1,.81-12.3,51.2,51.2,0,0,1,4-12c.21-.46.44-.91.68-1.36a.26.26,0,0,1,.18-.16.32.32,0,0,1,.23,0,.36.36,0,0,1,.14.48,50.64,50.64,0,0,0-4.26,11.6,44.65,44.65,0,0,0-1.26,12.08A19.12,19.12,0,0,0,25.73,180a21.27,21.27,0,0,0,8,6.56Z"/><path class="cls-2" d="M44.8,186.77a8.43,8.43,0,0,0,.55.78h-.83c-.18-.25-.35-.51-.52-.78a19.2,19.2,0,0,1-2.64-6.69A18.65,18.65,0,0,1,43,168.46a17.84,17.84,0,0,1,1.74-2.87c.23,0,.46.1.69.17A18.54,18.54,0,0,0,42,173.62a18,18,0,0,0,2.82,13.15Z"/><path class="cls-1" d="M246.28,11.79H164.51a.49.49,0,0,1,0-1h81.77a.49.49,0,0,1,0,1Z"/><path class="cls-1" d="M219.67,3.87H192.09a1.94,1.94,0,0,1,0-3.87h27.58a1.94,1.94,0,0,1,0,3.87Z"/><path class="cls-1" d="M190.82,95.75a2.08,2.08,0,0,1-.39-1.8,49.48,49.48,0,0,0,0-23,2.09,2.09,0,0,1,.4-1.79,2.06,2.06,0,0,1,1.62-.79h19.29a2.07,2.07,0,0,1,2.05,1.75,80.91,80.91,0,0,1,0,24.66,2.07,2.07,0,0,1-2.05,1.74H192.44A2,2,0,0,1,190.82,95.75Z"/><path class="cls-3" d="M217.15,62.57a81,81,0,0,1,0-24.67,2.08,2.08,0,0,1,2-1.74h19.29a2.08,2.08,0,0,1,2,2.58,49.35,49.35,0,0,0,0,23,2.08,2.08,0,0,1-2,2.58H219.2A2.08,2.08,0,0,1,217.15,62.57Z"/><path class="cls-4" d="M173.58,55.26a2.12,2.12,0,0,1-.4-1.83,50.43,50.43,0,0,0,0-23.37,2.1,2.1,0,0,1,.4-1.82,2.07,2.07,0,0,1,1.65-.8h19.6a2.12,2.12,0,0,1,2.09,1.77,82.32,82.32,0,0,1,0,25.07,2.13,2.13,0,0,1-2.09,1.78h-19.6A2.1,2.1,0,0,1,173.58,55.26Z"/><path class="cls-2" d="M191.05,38H180.72a1.45,1.45,0,0,1-1.45-1.45v-.62a1.45,1.45,0,0,1,1.45-1.45h10.33a1.45,1.45,0,0,1,1.45,1.45v.62A1.45,1.45,0,0,1,191.05,38Z"/><path class="cls-2" d="M191.05,44.07H180.72a1.45,1.45,0,0,1-1.45-1.45V42a1.45,1.45,0,0,1,1.45-1.45h10.33A1.45,1.45,0,0,1,192.5,42v.62A1.45,1.45,0,0,1,191.05,44.07Z"/><path class="cls-2" d="M207.76,77.78H197.64a1.45,1.45,0,0,1-1.45-1.45v-.57a1.45,1.45,0,0,1,1.45-1.45h10.12a1.45,1.45,0,0,1,1.45,1.45v.57A1.45,1.45,0,0,1,207.76,77.78Z"/><path class="cls-2" d="M207.76,85H197.64a1.45,1.45,0,0,1-1.45-1.45v-.57a1.45,1.45,0,0,1,1.45-1.45h10.12a1.45,1.45,0,0,1,1.45,1.45v.57A1.45,1.45,0,0,1,207.76,85Z"/><path class="cls-2" d="M207.76,92.11H197.64a1.45,1.45,0,0,1-1.45-1.45V90.1a1.46,1.46,0,0,1,1.45-1.46h10.12a1.46,1.46,0,0,1,1.45,1.46v.56A1.45,1.45,0,0,1,207.76,92.11Z"/><path class="cls-2" d="M232.91,48.69H222.78a1.45,1.45,0,0,1-1.45-1.45v-.56a1.46,1.46,0,0,1,1.45-1.46h10.13a1.46,1.46,0,0,1,1.45,1.46v.56A1.45,1.45,0,0,1,232.91,48.69Z"/><path class="cls-1" d="M68.58,138.82v1a6,6,0,0,0,6,6.05h43.55a6.05,6.05,0,0,0,6-6.05v-1a6,6,0,0,0-1.41-3.87,5.8,5.8,0,0,0-1-1s-23.94-.55-23.94-1.21H74.62A6,6,0,0,0,68.58,138.82Z"/><rect class="cls-1" x="93.6" y="145.6" width="6.29" height="40.64"/><path class="cls-1" d="M117.79,186c0,.68-9.53.26-21.29.26s-21.28.42-21.28-.26S84.75,180,96.5,180,117.79,185.34,117.79,186Z"/><path class="cls-5" d="M109.15,138a5.19,5.19,0,0,0-1.07-7.27,5.09,5.09,0,0,0-.78-.48L94,84.82l-10.15,5,16.3,43.08a5.23,5.23,0,0,0,9,5.12Z"/><path class="cls-3" d="M97,92.41,85.63,95.49a2.34,2.34,0,0,1-2.86-1.64,2,2,0,0,1-.06-.34L81.33,81.86a6.48,6.48,0,0,1,12.51-3.35l4.68,10.72a2.34,2.34,0,0,1-1.2,3.07l-.33.11Z"/><polygon class="cls-5" points="112.11 181.26 118.05 181.26 120.87 165.87 112.11 165.87 112.11 181.26"/><path class="cls-6" d="M110.6,179.32h11.68a7.44,7.44,0,0,1,7.45,7.44h0V187H110.6Z"/><path class="cls-6" d="M119,173h-.21l-8.21-.6a2.18,2.18,0,0,1-2-2.37,2.08,2.08,0,0,1,.12-.55l11-24.68a1.71,1.71,0,0,0-.1-1.35,1.68,1.68,0,0,0-1.07-.86c-5.16-1.35-18.42-4.94-29.89-9.15-4.92-1.8-8-4.41-9.2-7.74a10.94,10.94,0,0,1,.85-8.58l.07-.13,10.8,1,11.71,1,25.65,13.75a9.72,9.72,0,0,1,4.26,12.48L121,171.72A2.19,2.19,0,0,1,119,173Z"/><circle class="cls-5" cx="93.07" cy="57.26" r="11.88"/><polygon class="cls-5" points="108.73 180.77 114.66 180.77 117.48 165.39 108.73 165.39 108.73 180.77"/><path class="cls-6" d="M107.21,178.84H118.9a7.44,7.44,0,0,1,7.44,7.44h0v.24H107.22Z"/><path class="cls-6" d="M115.61,174.46h-.2l-8.21-.6a2.18,2.18,0,0,1-2-2.37,2.57,2.57,0,0,1,.12-.55l11-24.68a1.68,1.68,0,0,0-.1-1.35,1.59,1.59,0,0,0-1.07-.85c-5.16-1.35-18.42-5-29.89-9.16-4.92-1.8-8-4.4-9.2-7.74a10.9,10.9,0,0,1,.85-8.57l.08-.14,10.79,1,11.71,1,25.65,13.76a9.72,9.72,0,0,1,4.27,12.47L117.6,173.17A2.19,2.19,0,0,1,115.61,174.46Z"/><path class="cls-3" d="M96.73,75.88,84.15,71.53s-7.89,6.06-4.1,21.11A37.33,37.33,0,0,1,78.41,116a24.29,24.29,0,0,1-1.27,2.68s14,16.93,27.09,4.35L99.15,98.62S107.14,82.41,96.73,75.88Z"/><path class="cls-6" d="M94.54,69.55c-1.69-2.54-3-6-1.16-8.45s5.46-2,8.28-3.08c3.92-1.47,6.19-6.08,5.48-10.2a12.08,12.08,0,0,0-8-9,17.31,17.31,0,0,0-12.26.67A18.74,18.74,0,0,0,76.38,50.22a14.4,14.4,0,0,0,2.75,14.44c3.8,4,9.77,5.07,15.3,5"/><path class="cls-6" d="M83.49,48c-2.13,1.74-5.38,1-7.67-.56s-4.14-3.69-6.62-4.88c-4.36-2.11-9.64-.71-13.89,1.62s-8,5.56-12.49,7.39S32.6,53.44,29.21,50a12.45,12.45,0,0,0,18.24,14.7c4.92-3,7.63-9.28,13.15-10.93,3-.91,6.32-.18,9.41.62s6.3,1.66,9.41,1,6-3.47,5.62-6.63Z"/><path class="cls-7" d="M122.17,159a81.55,81.55,0,0,1,0-24.66,2.09,2.09,0,0,1,2-1.74h19.3a2,2,0,0,1,1.62.78,2.11,2.11,0,0,1,.39,1.8,49.48,49.48,0,0,0,0,23,2.09,2.09,0,0,1-.39,1.79,2.06,2.06,0,0,1-1.62.79h-19.3A2.09,2.09,0,0,1,122.17,159Z"/><path class="cls-2" d="M137.58,144.49H127.46A1.46,1.46,0,0,1,126,143v-.56a1.45,1.45,0,0,1,1.46-1.45h10.12a1.45,1.45,0,0,1,1.45,1.45V143A1.45,1.45,0,0,1,137.58,144.49Z"/><path class="cls-2" d="M137.58,150.46H127.46A1.45,1.45,0,0,1,126,149v-.57a1.45,1.45,0,0,1,1.46-1.45h10.12a1.45,1.45,0,0,1,1.45,1.45V149A1.45,1.45,0,0,1,137.58,150.46Z"/><path class="cls-5" d="M127.25,135.83a5.2,5.2,0,0,0-2.85-6.78,4.39,4.39,0,0,0-.87-.27L99.27,88.13l-8.59,7.35,26.55,37.65a5.23,5.23,0,0,0,10,2.7Z"/><path class="cls-3" d="M104.09,94.72l-10.23,5.81a2.33,2.33,0,0,1-3.18-.87,1.77,1.77,0,0,1-.15-.31L86.29,88.41A6.47,6.47,0,0,1,97.56,82l7.21,9.21a2.33,2.33,0,0,1-.4,3.28l-.28.19Z"/><path class="cls-1" d="M185.31,186.58a.49.49,0,0,1-.48.49H.48a.49.49,0,0,1,0-1H184.82a.49.49,0,0,1,.49.48Z"/></g></g></svg>