<svg xmlns="http://www.w3.org/2000/svg" viewBox="0 0 229.13 181.11"><defs><style>.cls-1{fill:#97616a;}.cls-2{fill:#2f2e41;}.cls-3{fill:#eabd0f;}.cls-4{fill:#c3c3c3;}.cls-5{fill:#fff;}.cls-6{fill:#2ec571;}.cls-7{fill:#3f3d56;}.cls-8{fill:#ffafaf;}.cls-9{fill:#3491d4;}.cls-10{fill:#019329;}</style></defs><g id="Layer_2" data-name="Layer 2"><g id="main"><polygon class="cls-1" points="144.07 165.06 140.61 165.06 138.96 151.71 144.07 151.71 144.07 165.06"/><path class="cls-2" d="M145,168.42H133.79v-.14a4.35,4.35,0,0,1,4.35-4.35H145Z"/><polygon class="cls-1" points="131.64 165.06 128.18 165.06 126.53 151.71 131.64 151.71 131.64 165.06"/><path class="cls-2" d="M132.53,168.42H121.36v-.14a4.35,4.35,0,0,1,4.35-4.35h6.82Z"/><path class="cls-1" d="M91.3,71.45a3.22,3.22,0,0,0,4.5.71,3.81,3.81,0,0,0,.43-.37l6.85,2.67,2.65-3.76L96,67.05a3.24,3.24,0,0,0-4.69,4.4Z"/><polygon class="cls-2" points="131.6 94.28 122.58 97.22 125.59 161.13 132.56 161.3 136.12 116.23 136.93 161.12 145.54 161.6 148.71 94.28 131.6 94.28"/><path class="cls-3" d="M125.51,56.61l23.16-5,2.58,19.94-2.15,9.53L150,95.53s-18.31,9.11-27.38,1.69c0,0,7.29-19.15,3.06-28.11Z"/><path class="cls-3" d="M129.52,59.43l-4-2.82s-.24-.33-3.58,3.58-10.12,10.12-10.12,10.12l-11.3-4.24-2.06,7.61,13.13,6.12,18.6-12.42Z"/><path class="cls-1" d="M150,103a3.22,3.22,0,0,0,1.53-4.28,3,3,0,0,0-.29-.49L155.12,92l-3.21-3.3-5.39,8.89A3.23,3.23,0,0,0,150,103Z"/><path class="cls-3" d="M145.06,55.51l3.61-3.93s4-1.4,7.31,5.84,7,21.93,7,21.93l-8.59,16.54-6.67-3,6.67-13.67L147.3,69.11Z"/><circle class="cls-1" cx="135.33" cy="43.35" r="7.52"/><path class="cls-2" d="M141.67,36.62a4.84,4.84,0,0,0-3-3.22,8.64,8.64,0,0,0-4.54-.29,29,29,0,0,0-7.17,2.58l1.78.85-2.46.14,1.9,1A3.31,3.31,0,0,0,126.92,41c.1.41.36.86.78.87s.77-.57,1.12-.93a2.21,2.21,0,0,1,1.88-.5c.67.09,1.3.35,2,.49a5.84,5.84,0,0,0,4.79-1.11l2.37,5.7a1.4,1.4,0,1,1,2.79-.29,1.34,1.34,0,0,1-.12.74,9.86,9.86,0,0,0,1.88-5.16,5,5,0,0,0-2.58-4.58"/><path class="cls-4" d="M54.54,151.82l-3.2,5,1.87-6.55a45.34,45.34,0,0,0-9.39-7.12s-6.72,11-4.91,17.82,6.47,8.08,11.45,6.76,8.38-4.77,6.57-11.56A12.15,12.15,0,0,0,54.54,151.82Z"/><path class="cls-5" d="M50.31,157.35l.09.34c1,3.89,1.16,7.1.45,9.58,0,0,0,.07,0,.11l-.16,0-.16-.05c.81-2.69.45-6.09-.44-9.48,0-.11,0-.22-.09-.33-.38-1.44-.86-2.87-1.37-4.24l-.12-.32c-.7-1.81-1.45-3.52-2.15-5l-.15-.31C45,145.13,44,143.38,43.74,143l-.05-.08.15-.09h0l.14-.09.15.26c.36.61,1.29,2.27,2.37,4.49,0,.1.1.21.14.31.57,1.19,1.18,2.53,1.75,4,.15.36.28.72.42,1.06l.12.33C49.49,154.61,50,156,50.31,157.35Z"/><path class="cls-5" d="M46.5,147.48l-.33.13a7.6,7.6,0,0,1-.92.3,9.18,9.18,0,0,1-4.07.16,3.09,3.09,0,0,0-.14.32,9.47,9.47,0,0,0,4.3-.15,8.62,8.62,0,0,0,1-.32l.32-.13a9.22,9.22,0,0,0,2.43-1.5l-.28-.21A9,9,0,0,1,46.5,147.48Z"/><path class="cls-5" d="M48.81,152.8l-.34.11-.11,0A9.28,9.28,0,0,1,40,151.06l-.12.34a9.58,9.58,0,0,0,8.56,1.87l.14,0,.34-.1a9.58,9.58,0,0,0,4.45-3l-.24-.25A9.16,9.16,0,0,1,48.81,152.8Z"/><path class="cls-5" d="M50.31,157.35l-.35.12-.37.1a9.26,9.26,0,0,1-10.3-4.16c0,.16-.08.31-.11.46a9.58,9.58,0,0,0,10.5,4l.37-.1.35-.11a9.6,9.6,0,0,0,5.31-4.61,3.87,3.87,0,0,0-.21-.34A9.23,9.23,0,0,1,50.31,157.35Z"/><path class="cls-4" d="M179.45,152.34l-3.15,5,1.84-6.46a44.69,44.69,0,0,0-9.26-7s-6.61,10.87-4.83,17.56,6.38,8,11.28,6.66,8.26-4.7,6.48-11.39A12.13,12.13,0,0,0,179.45,152.34Z"/><path class="cls-5" d="M175.28,157.8l.09.33c1,3.83,1.15,7,.44,9.44l0,.1-.17,0-.16,0c.81-2.65.45-6-.42-9.34l-.09-.33c-.38-1.42-.85-2.82-1.36-4.18l-.12-.31c-.68-1.79-1.42-3.47-2.11-4.91l-.15-.31c-1.18-2.44-2.17-4.18-2.4-4.56l0-.08.14-.08h0l.15-.09s0,.09.14.25c.35.6,1.27,2.24,2.33,4.43l.15.31c.56,1.17,1.15,2.49,1.72,3.89.14.35.28.7.41,1l.12.31C174.47,155.1,174.92,156.48,175.28,157.8Z"/><path class="cls-5" d="M171.52,148.07l-.32.13c-.3.11-.6.21-.91.29a9.06,9.06,0,0,1-4,.16c-.05.1-.09.21-.14.31a9.34,9.34,0,0,0,4.24-.14c.33-.09.65-.19,1-.31l.32-.13a9.13,9.13,0,0,0,2.39-1.49l-.27-.21A9,9,0,0,1,171.52,148.07Z"/><path class="cls-5" d="M173.8,153.32l-.34.1-.1,0a9.09,9.09,0,0,1-8.23-1.85l-.12.35a9.48,9.48,0,0,0,8.44,1.83l.13,0,.34-.1a9.43,9.43,0,0,0,4.39-3l-.24-.25A9,9,0,0,1,173.8,153.32Z"/><path class="cls-5" d="M175.28,157.8l-.34.11-.36.1a9.15,9.15,0,0,1-10.16-4.09c0,.15-.08.3-.11.45a9.46,9.46,0,0,0,10.35,4l.37-.1.34-.11a9.46,9.46,0,0,0,5.24-4.55l-.21-.33A9.16,9.16,0,0,1,175.28,157.8Z"/><path class="cls-6" d="M114.14,29.08c0-11.87-8.27-21.49-18.48-21.49S77.18,17.21,77.18,29.08c0,10.76,6.81,19.68,15.69,21.24v2a1.43,1.43,0,0,0,1.44,1.44H97a1.43,1.43,0,0,0,1.44-1.44v-2C107.33,48.76,114.14,39.84,114.14,29.08Z"/><path class="cls-7" d="M92.42,52.06a5.48,5.48,0,0,1,4.36-1.46,5.15,5.15,0,0,1,3.86,2.52,5.39,5.39,0,0,1,.5,4.5,10.43,10.43,0,0,1-2.58,3.82c-1.11,1.17-2.31,2.24-3.36,3.47a16.32,16.32,0,0,0,2.1,23.26q.49.4,1,.78c.41.28.79-.39.39-.67a15.85,15.85,0,0,1-6-8.21,15.65,15.65,0,0,1,3.38-15c1.1-1.22,2.34-2.31,3.44-3.53a10.17,10.17,0,0,0,2.43-4,6.17,6.17,0,0,0-.63-4.68,6,6,0,0,0-3.83-2.87,6.36,6.36,0,0,0-4.7.82,6.27,6.27,0,0,0-1,.75c-.36.35.19.89.54.55Z"/><path class="cls-6" d="M42.93,20.08C37.27,7.08,23.63.49,12.45,5.35s-15.66,19.34-10,32.34C7.58,49.48,19.28,56,29.75,53.49l1,2.21a1.72,1.72,0,0,0,2.27.9l3-1.29A1.73,1.73,0,0,0,36.83,53l-1-2.22C44.85,44.88,48.06,31.87,42.93,20.08Z"/><path class="cls-7" d="M30,55.53A6.6,6.6,0,0,1,34,51.91a6.16,6.16,0,0,1,5.21.58,6.5,6.5,0,0,1,3.09,4.4,12.06,12.06,0,0,1-1,6.23,57.39,57.39,0,0,0-2.25,6.2,19.6,19.6,0,0,0,4.08,17.35,19.87,19.87,0,0,0,9.56,6.1q.67.2,1.38.33c.48.1.69-.64.2-.74a19,19,0,0,1-10.07-5.65,18.62,18.62,0,0,1-4.89-11.23,18.89,18.89,0,0,1,.58-6.31c.58-2.17,1.57-4.21,2.32-6.32A11.82,11.82,0,0,0,43,56.53,7.26,7.26,0,0,0,39.82,52a7,7,0,0,0-5.32-1,7.51,7.51,0,0,0-4.56,3.12,8.12,8.12,0,0,0-.65,1.24c-.19.46.56.66.74.21Z"/><polygon class="cls-8" points="200.88 177.09 205.03 177.09 207 161.08 200.88 161.08 200.88 177.09"/><path class="cls-2" d="M199.82,175.73H208a5.21,5.21,0,0,1,5.21,5.21v.17H199.82Z"/><polygon class="cls-8" points="176.31 173.56 180.27 174.81 186.98 160.14 181.14 158.29 176.31 173.56"/><path class="cls-2" d="M175.71,172l7.8,2.46h0A5.21,5.21,0,0,1,186.9,181l-.05.16-12.76-4Z"/><path class="cls-2" d="M185.66,104l-2.3,6.5-.07,35.07-6.53,24,8,2.23,8.85-22.64,2.84-19.88,3.75,20L199.7,173h8.41l.64-36.63a80.24,80.24,0,0,0-5.3-30.12h0Z"/><polygon class="cls-9" points="182.91 77.66 196.51 77.66 202.19 83.34 203.89 106.83 183.35 110.13 176.76 87.72 180.35 78.2 182.91 77.66"/><polygon class="cls-9" points="178.03 87.95 157.09 80.07 156.54 76.81 169.75 65.64 174.14 68.94 166.18 77.66 180.35 78.2 178.03 87.95"/><circle class="cls-8" cx="172.29" cy="66.83" r="3.39"/><path class="cls-2" d="M180.14,71.09l1.53-6.9a9.47,9.47,0,0,1,18.49,4.08v0l-1.53,6.9a1.28,1.28,0,0,1-1.52,1l-16-3.55A1.28,1.28,0,0,1,180.14,71.09Z"/><circle class="cls-8" cx="188.75" cy="67.02" r="6.94" transform="translate(-11.2 55.18) rotate(-16.16)"/><path class="cls-2" d="M179.36,64.26a7.49,7.49,0,0,1,8.93-5.69l1.38.3a7.5,7.5,0,0,1,5.69,8.94l0,.14-2.91-.65-.38-3L191.22,67l-1.5-.34-.19-1.52-.42,1.39-9.78-2.17Z"/><path class="cls-2" d="M186.37,74.59a1.25,1.25,0,0,1,.19-1.32c2.08-2.46,5.26-7.14,3.25-10.91l-.14-.27,7.88,1.74-2.62,11.85-7.45-.33a.83.83,0,0,1-.22,0A1.27,1.27,0,0,1,186.37,74.59Z"/><polygon class="cls-9" points="195.97 77.8 218.12 80.95 219.35 84.01 208.89 97.78 203.88 95.52 209.77 85.27 195.82 87.82 195.97 77.8"/><path class="cls-6" d="M229.13,33.16c0-14.17-9.89-25.67-22.08-25.67S185,19,185,33.16c0,12.86,8.13,23.5,18.74,25.37V61a1.72,1.72,0,0,0,1.72,1.73h3.23A1.72,1.72,0,0,0,210.39,61V58.53C221,56.66,229.13,46,229.13,33.16Z"/><path class="cls-7" d="M203.13,60.55a6.64,6.64,0,0,1,5.29-1.76,6.25,6.25,0,0,1,4.59,3,6.5,6.5,0,0,1,.7,5.4,12.16,12.16,0,0,1-3,4.57c-1.33,1.41-2.79,2.7-4.06,4.17a19.46,19.46,0,0,0,2.41,27.83c.39.31.78.61,1.19.89s.79-.38.39-.66a18.7,18.7,0,0,1-3.2-27.8c1.31-1.45,2.78-2.75,4.1-4.2a12.23,12.23,0,0,0,2.95-4.76,7.31,7.31,0,0,0-.67-5.55,7.09,7.09,0,0,0-4.49-3.46,7.5,7.5,0,0,0-5.62.94,7.05,7.05,0,0,0-1.14.9c-.36.34.19.89.54.54Z"/><circle class="cls-8" cx="205.8" cy="98.31" r="3.39"/><path class="cls-7" d="M170.52,67.78a.6.6,0,0,1-.84.06.68.68,0,0,1,0-1c.73-.88,1.95.05,2.11.92a2.2,2.2,0,0,1-1,2.2,2.4,2.4,0,0,1-2.65-.35,2.87,2.87,0,0,1,.57-4.62,4,4,0,0,1,3.47.16,28.63,28.63,0,0,1,3.28,2.06,18.38,18.38,0,0,0,7.92,2.7c.5,0,.49-.72,0-.77a18,18,0,0,1-4.55-1.09,20.38,20.38,0,0,1-4.09-2.25,9,9,0,0,0-4.22-1.88,3.67,3.67,0,0,0-3.37,1.47,3.73,3.73,0,0,0-.56,3.28A3.46,3.46,0,0,0,169.2,71a2.84,2.84,0,0,0,3-1.38,2.61,2.61,0,0,0-.32-3.21,2,2,0,0,0-2-.54,1.75,1.75,0,0,0-1.19,1.5,1.38,1.38,0,0,0,2.5.84c.27-.42-.4-.8-.67-.38Z"/><polygon class="cls-3" points="16.48 109.16 15.46 110.43 11.86 108.31 12.88 107.03 16.48 109.16"/><polygon class="cls-3" points="20.23 114.64 21.13 115.98 17.35 117.86 16.45 116.52 20.23 114.64"/><polygon class="cls-3" points="24.14 108.81 25.94 108.88 25.76 112.63 23.96 112.57 24.14 108.81"/><polygon class="cls-3" points="58.83 7.52 57.81 8.79 54.21 6.67 55.23 5.39 58.83 7.52"/><polygon class="cls-3" points="62.58 13 63.48 14.34 59.7 16.22 58.8 14.88 62.58 13"/><polygon class="cls-3" points="66.49 7.17 68.29 7.24 68.11 10.99 66.31 10.93 66.49 7.17"/><polygon class="cls-10" points="158.67 20.86 157.65 22.14 154.06 20.01 155.07 18.74 158.67 20.86"/><polygon class="cls-10" points="162.42 26.35 163.32 27.69 159.54 29.57 158.64 28.23 162.42 26.35"/><polygon class="cls-10" points="166.33 20.52 168.13 20.58 167.95 24.34 166.16 24.27 166.33 20.52"/><polygon class="cls-10" points="128.13 2.13 127.11 3.4 123.51 1.28 124.53 0 128.13 2.13"/><polygon class="cls-10" points="131.88 7.61 132.78 8.95 129 10.83 128.1 9.49 131.88 7.61"/><polygon class="cls-10" points="135.79 1.78 137.59 1.85 137.41 5.6 135.61 5.54 135.79 1.78"/><rect class="cls-3" x="159.57" y="97.84" width="1.8" height="4.36" transform="translate(-12.82 175.69) rotate(-55.52)"/><rect class="cls-3" x="162.91" y="107.85" width="4.36" height="1.8" transform="translate(-32.26 97.11) rotate(-30)"/><rect class="cls-3" x="169.07" y="101.43" width="4.36" height="1.8" transform="translate(61.99 269.24) rotate(-87.65)"/><polygon class="cls-8" points="82.88 165.26 85.99 164.78 83.85 139.93 76.92 141.22 82.88 165.26"/><path class="cls-2" d="M81.93,164.37l6.12-1h0a4,4,0,0,1,4.51,3.3l0,.13-10,1.55Z"/><polygon class="cls-8" points="50.19 164.95 53.34 165.08 57.16 143.01 50.23 143.01 50.19 164.95"/><path class="cls-2" d="M49.44,163.89l6.19.26h0a4,4,0,0,1,3.77,4.12v.13L49.26,168Z"/><path class="cls-8" d="M56.38,93a3.58,3.58,0,0,0-.45-.09l2-16,6.65-14.08a3.87,3.87,0,0,0-6.74-3.78h0a30.61,30.61,0,0,0-3.9,8.62L51.1,77.78l2,17.32A2.56,2.56,0,1,0,56.38,93Z"/><path class="cls-2" d="M60.42,78.27,52,68.66l4.16-9.79a5.34,5.34,0,0,1,9.93,3.93Z"/><circle class="cls-8" cx="67.69" cy="43.97" r="7.63"/><path class="cls-2" d="M69,34.7H64c-3.23,0-5.85,2.95-5.85,6.58l.23,8.82a38.31,38.31,0,0,1,10.14,2.71l.46-2,.91,2.59c.81.39,1.61.82,2.4,1.28-.92-4.35-1.3-8.69-.67-12.06h1.67V40.83l.57,1.83h3a8,8,0,0,0-8-8Z"/><path class="cls-2" d="M85,141.28l-.71.17-.6-11.14L79.36,96.94l-5-12.7,2.44-8.86s2.82-6.16-4.24-10.91L66.91,55c-3.9-2.55-7.11-.89-8.82,3.45a27.14,27.14,0,0,0-2,13.49C57.68,83,59,84.24,59,84.24s-9.63,10.65-7.57,24.25l-1.15,35.22-1.05,0-.11,2.8,9.15.37.11-2.8-.76,0,3.3-14,4.88-18.48,8.47,22.59,2.85,9-.94.23.66,2.72L85.69,144Z"/><path class="cls-8" d="M91.32,78a2.42,2.42,0,0,0-.27.36L77.57,69.48,67.94,57.24a3.87,3.87,0,0,0-6.39,4.34h0a30.85,30.85,0,0,0,6,7.35l7.79,7,16.41,5.91a2.57,2.57,0,1,0-.4-3.81Z"/><path class="cls-2" d="M79.92,67.83,67.56,71.05,60.67,63a5.34,5.34,0,0,1,8-7.12Z"/><path class="cls-4" d="M175.66,168.66H9.52a.3.3,0,0,1-.3-.31.29.29,0,0,1,.3-.3H175.66a.3.3,0,0,1,.31.3.31.31,0,0,1-.31.31Z"/></g></g></svg>