<svg xmlns="http://www.w3.org/2000/svg" viewBox="0 0 221 66.25"><defs><style>.cls-1{fill:none;stroke:#eabd0f;stroke-linecap:round;stroke-linejoin:round;stroke-width:2px;}.cls-2{fill:#eabd0f;}</style></defs><g id="Layer_2" data-name="Layer 2"><g id="main"><line class="cls-1" x1="1" y1="32.64" x2="65" y2="32.64"/><line class="cls-1" x1="156" y1="32.64" x2="220" y2="32.64"/><path class="cls-2" d="M102.55,54c2.31,2.15,1.9,3.95,1.75,4.11s-1.92.7-4.22-1.45S96,50.29,96,50.29A23.25,23.25,0,0,1,102.55,54Z"/><path class="cls-2" d="M99.82,61.94c3.1-.6,3.7-2.34,3.66-2.56s-1.25-1.6-4.35-1-6.85,3.18-6.85,3.18A23,23,0,0,0,99.82,61.94Z"/><path class="cls-2" d="M95.67,51.4c1.4,2.63.49,4.11.3,4.22S94,55.65,92.64,53a21.54,21.54,0,0,1-1.75-6.93A21.77,21.77,0,0,1,95.67,51.4Z"/><path class="cls-2" d="M90.77,57.7c3,.41,4-1,4.07-1.17s-.63-1.82-3.59-2.23a21.69,21.69,0,0,0-7.12.73A21.69,21.69,0,0,0,90.77,57.7Z"/><path class="cls-2" d="M90.11,47.48c.6,2.69-.58,3.78-.77,3.82s-1.72-.44-2.32-3.13a20.1,20.1,0,0,1,.15-6.6A20.09,20.09,0,0,1,90.11,47.48Z"/><path class="cls-2" d="M84.2,51.88c2.53,1.09,3.83.14,3.9,0S88,50.06,85.47,49A20,20,0,0,0,79,47.87,20.18,20.18,0,0,0,84.2,51.88Z"/><path class="cls-2" d="M86,42.51c0,2.53-1.22,3.3-1.4,3.3s-1.47-.72-1.52-3.25a18.58,18.58,0,0,1,1.36-5.92A18.7,18.7,0,0,1,86,42.51Z"/><path class="cls-2" d="M79.85,45.38c2.07,1.45,3.41.84,3.52.69s.22-1.62-1.85-3.08a18.55,18.55,0,0,0-5.66-2.19A18.27,18.27,0,0,0,79.85,45.38Z"/><path class="cls-2" d="M83.39,37.72c-.66,2.28-2,2.62-2.16,2.57s-1.12-1-.46-3.33A17.06,17.06,0,0,1,83.61,32,17.54,17.54,0,0,1,83.39,37.72Z"/><path class="cls-2" d="M77.11,38.6c1.45,1.87,2.83,1.69,3,1.59s.65-1.39-.81-3.27A17.28,17.28,0,0,0,74.8,33.4,17.17,17.17,0,0,0,77.11,38.6Z"/><path class="cls-2" d="M82.43,32.3c-1,2.06-2.32,2.16-2.47,2.09s-.89-1.18.1-3.24a16.79,16.79,0,0,1,3.5-4.22A16.61,16.61,0,0,1,82.43,32.3Z"/><path class="cls-2" d="M76.32,32.11c1.08,2,2.41,2.07,2.56,2s.84-1.21-.24-3.23A16.58,16.58,0,0,0,75,26.8,16.73,16.73,0,0,0,76.32,32.11Z"/><path class="cls-2" d="M82,27.16c-1.21,1.63-2.38,1.5-2.5,1.41s-.58-1.17.62-2.8a14.87,14.87,0,0,1,3.75-3.1A14.71,14.71,0,0,1,82,27.16Z"/><path class="cls-2" d="M76.7,26c.6,1.94,1.76,2.2,1.9,2.16s.93-.92.32-2.86a14.89,14.89,0,0,0-2.53-4.15A14.83,14.83,0,0,0,76.7,26Z"/><path class="cls-2" d="M82.9,22.14c-1.31,1.34-2.37,1.07-2.46,1s-.39-1.15.92-2.49a13.61,13.61,0,0,1,3.82-2.36A13.71,13.71,0,0,1,82.9,22.14Z"/><path class="cls-2" d="M78.21,20.4c.31,1.85,1.33,2.23,1.46,2.21s1-.72.66-2.57a13.69,13.69,0,0,0-1.78-4.11A13.37,13.37,0,0,0,78.21,20.4Z"/><path class="cls-2" d="M84.46,17.54c-1.33.94-2.19.56-2.26.46s-.15-1,1.17-2A11.87,11.87,0,0,1,87,14.59,11.81,11.81,0,0,1,84.46,17.54Z"/><path class="cls-2" d="M80.72,15.34c0,1.63.79,2.11.91,2.11s.94-.47,1-2.09a11.77,11.77,0,0,0-.89-3.78A11.64,11.64,0,0,0,80.72,15.34Z"/><path class="cls-2" d="M86.34,13.57c-1.31.67-2,.21-2.08.12s0-.95,1.31-1.63A10.78,10.78,0,0,1,89,11.25,10.67,10.67,0,0,1,86.34,13.57Z"/><path class="cls-2" d="M83.27,11.11c-.22,1.45.44,2,.55,2s.9-.3,1.13-1.75a10.92,10.92,0,0,0-.31-3.51A10.8,10.8,0,0,0,83.27,11.11Z"/><path class="cls-2" d="M88.76,10.45c-1.28.42-1.87-.11-1.9-.2S87,9.39,88.28,9a9.88,9.88,0,0,1,3.23-.24A10,10,0,0,1,88.76,10.45Z"/><path class="cls-2" d="M86.33,7.77c-.41,1.29.11,1.87.2,1.91s.87-.14,1.28-1.43A9.76,9.76,0,0,0,88,5,10,10,0,0,0,86.33,7.77Z"/><path class="cls-2" d="M91.43,7.63c-1.16.21-1.61-.32-1.62-.4S90,6.5,91.19,6.3A8.55,8.55,0,0,1,94,6.48,8.7,8.7,0,0,1,91.43,7.63Z"/><path class="cls-2" d="M89.66,5c-.52,1.06-.14,1.63-.06,1.66s.76,0,1.27-1.07a8.46,8.46,0,0,0,.59-2.76A8.53,8.53,0,0,0,89.66,5Z"/><path class="cls-2" d="M94.76,5.06c-1,.09-1.32-.39-1.33-.46s.24-.59,1.23-.68A7.19,7.19,0,0,1,97,4.28,7.12,7.12,0,0,1,94.76,5.06Z"/><path class="cls-2" d="M93.47,2.74c-.51.85-.23,1.36-.17,1.4s.64,0,1.15-.81a7.42,7.42,0,0,0,.69-2.27A7.2,7.2,0,0,0,93.47,2.74Z"/><path class="cls-2" d="M97.78,3.42c-.88-.12-1.08-.6-1.07-.66s.33-.48,1.2-.36a6.46,6.46,0,0,1,2,.79A6.4,6.4,0,0,1,97.78,3.42Z"/><path class="cls-2" d="M97.11,1.14c-.62.64-.47,1.14-.43,1.18s.55.17,1.17-.47A6.57,6.57,0,0,0,98.91,0,6.47,6.47,0,0,0,97.11,1.14Z"/><path class="cls-2" d="M99.38.9c-.66.32-.7.75-.68.8s.39.29,1,0A5.23,5.23,0,0,0,101.11.53,5.46,5.46,0,0,0,99.38.9Z"/><path class="cls-2" d="M114.45,54c-2.31,2.15-1.9,3.95-1.75,4.11s1.92.7,4.22-1.45,4.13-6.33,4.13-6.33A23.25,23.25,0,0,0,114.45,54Z"/><path class="cls-2" d="M117.18,61.94c-3.1-.6-3.7-2.34-3.66-2.56s1.25-1.6,4.35-1,6.85,3.18,6.85,3.18A23,23,0,0,1,117.18,61.94Z"/><path class="cls-2" d="M121.33,51.4c-1.4,2.63-.49,4.11-.3,4.22s1.93,0,3.33-2.61a21.54,21.54,0,0,0,1.75-6.93A21.77,21.77,0,0,0,121.33,51.4Z"/><path class="cls-2" d="M126.23,57.7c-3,.41-4-1-4.07-1.17s.63-1.82,3.59-2.23a21.69,21.69,0,0,1,7.12.73A21.69,21.69,0,0,1,126.23,57.7Z"/><path class="cls-2" d="M126.89,47.48c-.6,2.69.58,3.78.77,3.82s1.72-.44,2.32-3.13a20.1,20.1,0,0,0-.15-6.6A20.09,20.09,0,0,0,126.89,47.48Z"/><path class="cls-2" d="M132.8,51.88c-2.53,1.09-3.83.14-3.9,0s.11-1.78,2.63-2.87a20,20,0,0,1,6.51-1.1A20.18,20.18,0,0,1,132.8,51.88Z"/><path class="cls-2" d="M131,42.51c0,2.53,1.22,3.3,1.4,3.3s1.47-.72,1.52-3.25a18.58,18.58,0,0,0-1.36-5.92A18.7,18.7,0,0,0,131,42.51Z"/><path class="cls-2" d="M137.15,45.38c-2.07,1.45-3.41.84-3.52.69s-.22-1.62,1.85-3.08a18.55,18.55,0,0,1,5.66-2.19A18.27,18.27,0,0,1,137.15,45.38Z"/><path class="cls-2" d="M133.61,37.72c.66,2.28,2,2.62,2.16,2.57s1.12-1,.47-3.33A17.24,17.24,0,0,0,133.39,32,17.24,17.24,0,0,0,133.61,37.72Z"/><path class="cls-2" d="M139.89,38.6c-1.45,1.87-2.83,1.69-3,1.59s-.65-1.39.81-3.27a17.28,17.28,0,0,1,4.46-3.52A17.17,17.17,0,0,1,139.89,38.6Z"/><path class="cls-2" d="M134.57,32.3c1,2.06,2.32,2.16,2.47,2.09s.89-1.18-.1-3.24a16.79,16.79,0,0,0-3.5-4.22A16.61,16.61,0,0,0,134.57,32.3Z"/><path class="cls-2" d="M140.68,32.11c-1.08,2-2.41,2.07-2.56,2s-.84-1.21.24-3.23A16.58,16.58,0,0,1,142,26.8,16.73,16.73,0,0,1,140.68,32.11Z"/><path class="cls-2" d="M135,27.16c1.21,1.63,2.38,1.5,2.5,1.41s.58-1.17-.62-2.8a14.87,14.87,0,0,0-3.75-3.1A14.71,14.71,0,0,0,135,27.16Z"/><path class="cls-2" d="M140.3,26c-.6,1.94-1.76,2.2-1.9,2.16s-.93-.92-.32-2.86a14.89,14.89,0,0,1,2.53-4.15A14.83,14.83,0,0,1,140.3,26Z"/><path class="cls-2" d="M134.1,22.14c1.31,1.34,2.37,1.07,2.46,1s.39-1.15-.92-2.49a13.61,13.61,0,0,0-3.82-2.36A13.71,13.71,0,0,0,134.1,22.14Z"/><path class="cls-2" d="M138.79,20.4c-.31,1.85-1.33,2.23-1.46,2.21s-1-.72-.66-2.57a13.61,13.61,0,0,1,1.79-4.11A13.48,13.48,0,0,1,138.79,20.4Z"/><path class="cls-2" d="M132.54,17.54c1.33.94,2.19.56,2.26.46s.15-1-1.17-2A11.87,11.87,0,0,0,130,14.59,11.81,11.81,0,0,0,132.54,17.54Z"/><path class="cls-2" d="M136.28,15.34c0,1.63-.79,2.11-.91,2.11s-.94-.47-1-2.09a11.77,11.77,0,0,1,.89-3.78A11.64,11.64,0,0,1,136.28,15.34Z"/><path class="cls-2" d="M130.66,13.57c1.31.67,2,.21,2.08.12s0-.95-1.31-1.63a10.78,10.78,0,0,0-3.43-.81A10.67,10.67,0,0,0,130.66,13.57Z"/><path class="cls-2" d="M133.73,11.11c.22,1.45-.44,2-.55,2s-.9-.3-1.13-1.75a10.92,10.92,0,0,1,.31-3.51A10.8,10.8,0,0,1,133.73,11.11Z"/><path class="cls-2" d="M128.24,10.45c1.29.42,1.87-.11,1.91-.2S130,9.39,128.73,9a9.94,9.94,0,0,0-3.24-.24A10,10,0,0,0,128.24,10.45Z"/><path class="cls-2" d="M130.67,7.77c.42,1.29-.11,1.87-.2,1.91s-.87-.14-1.28-1.43A9.76,9.76,0,0,1,129,5,10,10,0,0,1,130.67,7.77Z"/><path class="cls-2" d="M125.57,7.63c1.16.21,1.61-.32,1.62-.4s-.22-.73-1.38-.93a8.55,8.55,0,0,0-2.81.18A8.7,8.7,0,0,0,125.57,7.63Z"/><path class="cls-2" d="M127.34,5c.52,1.06.14,1.63.06,1.66s-.76,0-1.27-1.07a8.46,8.46,0,0,1-.59-2.76A8.53,8.53,0,0,1,127.34,5Z"/><path class="cls-2" d="M122.24,5.06c1,.09,1.32-.39,1.33-.46s-.24-.59-1.23-.68a7.19,7.19,0,0,0-2.34.36A7.12,7.12,0,0,0,122.24,5.06Z"/><path class="cls-2" d="M123.53,2.74c.51.85.23,1.36.17,1.4s-.64,0-1.14-.81a7.26,7.26,0,0,1-.7-2.27A7.2,7.2,0,0,1,123.53,2.74Z"/><path class="cls-2" d="M119.22,3.42c.88-.12,1.08-.6,1.07-.66s-.33-.48-1.2-.36a6.46,6.46,0,0,0-2,.79A6.4,6.4,0,0,0,119.22,3.42Z"/><path class="cls-2" d="M119.89,1.14c.62.64.47,1.14.43,1.18s-.55.17-1.17-.47A6.57,6.57,0,0,1,118.09,0,6.47,6.47,0,0,1,119.89,1.14Z"/><path class="cls-2" d="M117.62.9c.67.32.7.75.68.8s-.39.29-1,0A5.23,5.23,0,0,1,115.89.53,5.46,5.46,0,0,1,117.62.9Z"/><path class="cls-2" d="M103.8,58.94a16.62,16.62,0,0,1,4.19,3,15.48,15.48,0,0,1,3.07,4.35,3.19,3.19,0,0,0,1.17-.48s-3.45-5.64-8.2-7.18C104,58.59,103.74,58.51,103.8,58.94Z"/><path class="cls-2" d="M113,58.94a16.46,16.46,0,0,0-4.18,3,15.28,15.28,0,0,0-3.07,4.35,3.19,3.19,0,0,1-1.17-.48s3.44-5.64,8.2-7.18C112.76,58.59,113,58.51,113,58.94Z"/><path class="cls-2" d="M121.18,14.16v1.56c-.13.62-.22,1.26-.4,1.85a9.9,9.9,0,0,1-2.32,3.85c-1.1,1.21-2.24,2.36-3.36,3.55a2.69,2.69,0,0,0-.34.58c-.5,1.11-.94,2.28-1.5,3.32a34.17,34.17,0,0,1-1.84,2.91,4.08,4.08,0,0,0-.55,3,3.26,3.26,0,0,0,1.58,2.6c.79.43,1.61.77,2.42,1.13.19.09.27.2.26.51,0,1.32,0,2.65,0,4v.63H101.29a.29.29,0,0,1,0-.09q0-2.34,0-4.68a.43.43,0,0,1,.18-.3c.54-.25,1.1-.43,1.63-.72a9.29,9.29,0,0,0,1.58-1.06,4.5,4.5,0,0,0,.4-4.85c-.28-.41-.55-.86-.83-1.27a20.92,20.92,0,0,1-2.59-5.07,2.17,2.17,0,0,0-.38-.67c-1.12-1.19-2.26-2.34-3.36-3.55a10.35,10.35,0,0,1-2.05-3.14,8.41,8.41,0,0,1-.1-6.35c.83-2.12,2.13-3.2,3.82-3.21h17.29c1.92,0,3.58,1.78,4.14,4.42C121.07,13.45,121.12,13.81,121.18,14.16Zm-4.36-2.93a65.59,65.59,0,0,1-.89,9.77l.63-.65a13.21,13.21,0,0,0,2.29-3,5.24,5.24,0,0,0,.54-3.12c-.21-1.71-1.36-3.09-2.57-3ZM100.46,21a66,66,0,0,1-.9-9.77c-1-.1-2,.87-2.41,2.26a5.19,5.19,0,0,0,.53,4.14A17.15,17.15,0,0,0,100.46,21Z"/><polygon class="cls-2" points="109.81 47.79 112.47 48.13 110.59 50.03 111.09 52.66 108.7 51.46 106.35 52.75 106.76 50.1 104.81 48.27 107.44 47.84 108.58 45.41 109.81 47.79"/><polygon class="cls-2" points="116.7 47.01 118.39 47.22 117.19 48.44 117.51 50.11 115.99 49.35 114.49 50.17 114.75 48.48 113.5 47.31 115.19 47.04 115.91 45.49 116.7 47.01"/><polygon class="cls-2" points="101.98 47.04 103.68 47.25 102.48 48.47 102.8 50.14 101.27 49.38 99.78 50.2 100.03 48.51 98.79 47.35 100.47 47.07 101.2 45.52 101.98 47.04"/></g></g></svg>