<svg xmlns="http://www.w3.org/2000/svg" viewBox="0 0 619.75 478.5"><defs><style>.cls-1,.cls-13{fill:none;stroke-miterlimit:10;}.cls-1{stroke:#3491d4;stroke-width:2px;}.cls-2{font-size:16px;}.cls-2,.cls-5,.cls-7{fill:#373737;}.cls-2,.cls-5{font-family:Roboto-Bold, Roboto;font-weight:700;}.cls-3{fill:#eabd0f;}.cls-4{letter-spacing:-0.01em;}.cls-5{font-size:48px;}.cls-6{letter-spacing:0.02em;}.cls-7{font-size:21px;font-family:Roboto-Regular, Roboto;}.cls-8{letter-spacing:-0.01em;}.cls-9{letter-spacing:-0.01em;}.cls-10{letter-spacing:-0.01em;}.cls-11{letter-spacing:-0.01em;}.cls-12{fill:#c3c3c3;}.cls-13{stroke:#3f3d56;}.cls-14{fill:#ffb1b1;}.cls-15{fill:#2f2e41;}.cls-16{fill:#c9c6da;}.cls-17{fill:#3491d4;}.cls-18{fill:#2ec571;}</style></defs><g id="Layer_2" data-name="Layer 2"><g id="text"><rect class="cls-1" x="317.06" y="417.5" width="279" height="60" rx="30"/><text class="cls-2" transform="translate(417.09 455.08)">Contact Us</text><rect class="cls-3" x="15.06" y="418.5" width="279" height="60" rx="30"/><text class="cls-2" transform="translate(66.41 456.08)">Download Sponsor <tspan class="cls-4" x="138.98" y="0">F</tspan><tspan x="147.58" y="0">orm</tspan></text><text class="cls-5" transform="translate(105.63 293.74)">Suppo<tspan class="cls-6" x="137.55" y="0">r</tspan><tspan x="156.23" y="0">t Our Cause</tspan></text><text class="cls-7" transform="translate(17.28 343.85)">Suppo<tspan class="cls-6" x="59.58" y="0">r</tspan><tspan x="67.19" y="0">t us in our goals </tspan><tspan class="cls-8" x="220.9" y="0">t</tspan><tspan x="227.55" y="0">o </tspan><tspan class="cls-9" x="244.73" y="0">r</tspan><tspan x="251.64" y="0">each out </tspan><tspan class="cls-8" x="337.56" y="0">t</tspan><tspan x="344.21" y="0">o and unlock mo</tspan><tspan class="cls-9" x="498.89" y="0">r</tspan><tspan x="505.8" y="0">e hidden</tspan><tspan x="42.35" y="23">he</tspan><tspan class="cls-8" x="65.05" y="23">r</tspan><tspan x="71.95" y="23">oes or contact us </tspan><tspan class="cls-8" x="238.85" y="23">t</tspan><tspan x="245.5" y="23">o disc</tspan><tspan class="cls-10" x="301.44" y="23">o</tspan><tspan class="cls-11" x="313.26" y="23">v</tspan><tspan x="323.3" y="23">er mo</tspan><tspan class="cls-9" x="377.11" y="23">r</tspan><tspan x="384.02" y="23">e about our team </tspan><tspan x="206.45" y="46">and our p</tspan><tspan class="cls-8" x="294.14" y="46">r</tspan><tspan x="301.04" y="46">ocesses</tspan></text><ellipse class="cls-12" cx="314.33" cy="225.69" rx="87.49" ry="13.29"/><path class="cls-12" d="M345.73,39.48a20.42,20.42,0,0,1,20.4-19.35c.62,0,1.23,0,1.84.08a27.14,27.14,0,0,1,46.91,0c.51,0,1-.06,1.55-.06a20.43,20.43,0,0,1,20.4,19.35"/><path class="cls-13" d="M350,37.91a20.42,20.42,0,0,1,20.39-19.36c.62,0,1.24,0,1.84.09a27.14,27.14,0,0,1,46.91,0c.52,0,1-.07,1.55-.07a20.43,20.43,0,0,1,20.4,19.36"/><path class="cls-12" d="M205.13,95.52A13.48,13.48,0,0,1,218.6,82.74a12.1,12.1,0,0,1,1.21.06,17.9,17.9,0,0,1,31,0c.34,0,.68,0,1,0a13.47,13.47,0,0,1,13.46,12.78"/><path class="cls-13" d="M207.94,94.48A13.48,13.48,0,0,1,221.4,81.7c.41,0,.82,0,1.22.06a17.9,17.9,0,0,1,31,0c.34,0,.68,0,1,0a13.49,13.49,0,0,1,13.47,12.78"/><path class="cls-12" d="M187,30.9A18.09,18.09,0,0,1,205,13.77c.55,0,1.09,0,1.63.08a24,24,0,0,1,41.52,0c.46,0,.91-.06,1.38-.06a18.08,18.08,0,0,1,18,17.13"/><path class="cls-13" d="M190.72,29.51a18.08,18.08,0,0,1,18.05-17.13c.55,0,1.1,0,1.63.07a24,24,0,0,1,41.53,0c.45,0,.91,0,1.37,0a18.09,18.09,0,0,1,18.06,17.13"/><path class="cls-3" d="M311.3,61c7-3.71,15.61-2.82,23-.1S348.48,68,355.69,71.24a78.68,78.68,0,0,0,69.84-3c1.91,4.63-.29,9.85-2.68,14.25s-5.12,9.16-4.23,14.08c1.13,6.31,7.67,10.17,10.25,16,2.46,5.56,1,12-1,17.76s-4.63,11.5-4.39,17.58,4.55,12.55,10.63,12.65c-9,1.27-18.23,2.53-27.22,1s-17.86-6.45-21.93-14.62c-2-4.08-2.76-8.75-5.11-12.66-4-6.65-11.79-9.87-19.15-12.32s-15.26-4.81-20.38-10.64c-4.89-5.56-6.35-13.22-8.88-20.17a64,64,0,0,0-21.73-29.21"/><polygon class="cls-14" points="329.88 202.18 331.07 210.53 337.04 209.94 336.44 201.29 329.88 202.18"/><polygon class="cls-14" points="301.54 202.18 300.35 210.53 294.38 209.94 294.98 201.29 301.54 202.18"/><path class="cls-15" d="M292.89,115.68a22,22,0,0,0-4.18,16.11C289.91,141.63,292,164,292,164l1.49,39.67,9.54-.59,1.49-33.71,4.78-27.14,12.82,31.62s6.27,29.53,6.56,29.53,8.95-.9,8.95-.9l-4.17-34.9S326.89,116.88,323,116,292.89,115.68,292.89,115.68Z"/><path class="cls-15" d="M337.63,208.75s-5.37-3.58-7.46.59-.29,7.16-.29,7.16,1.79,1.19.89,2.39-1.19,8.94,6.56,7.75,3.88-9.24,3.88-9.24Z"/><path class="cls-15" d="M293.78,208.75s5.37-3.58,7.46.59.3,7.16.3,7.16-1.79,1.19-.89,2.39,1.19,8.94-6.57,7.75-3.87-9.24-3.87-9.24Z"/><path class="cls-14" d="M300.2,57.67s2.68,7.45.59,11.63,3.29,9,3.29,9,14-7.16,12.22-10.74-4.77-8.35-4.17-11.33Z"/><circle class="cls-14" cx="305.42" cy="50.96" r="9.54"/><path class="cls-16" d="M298.56,68.85s9.57,8,16.72-3.32l7.44,4.22,3.88,45.34s-21.78,12.52-32.22,1.79l1.49-42.06Z"/><path class="cls-17" d="M321.78,117.77l0,0A.12.12,0,0,0,321.78,117.77Z"/><path class="cls-17" d="M328.67,68.32,317,64.17a2.2,2.2,0,0,1-.46-.23l0,0A2.14,2.14,0,0,0,313.32,65c-.07.17-.14.34-.23.52-.5,1-3.1,2.93-5.22,3.87l-2.45-.64c-2.77-.7-3.86-4.37-3.86-4.37l-13.44,8.94,3.83,22s-3.92,16.28-.7,20.16c4.62,5.56,11.9,5.56,11.9,5.56l0-.06c8.53,1.39,18.5-3.31,18.61-3.22l5.53-5.39a2.12,2.12,0,0,0,.65-1.47l.13-5.07,2-35.39A2.11,2.11,0,0,0,328.67,68.32Z"/><path class="cls-14" d="M291.1,119.86l3.88,2.68s-4.92,5.22-5.82,4.33a2.45,2.45,0,0,1-.74-1.94l-.9-2.09Z"/><path class="cls-14" d="M316.88,119.28l-1.32,2.07s-3.88,1.79-3,3,8.35,3.88,9.84,1.2l1.49-2.69Z"/><path class="cls-17" d="M288.86,73.18h0a1.41,1.41,0,0,0-1.2,1.19L284.4,95.45a1.16,1.16,0,0,1,0,.18c-.17.63-1.19,4.74.18,13.49,1,6.25,1.94,11.07,2.5,13.65a1.42,1.42,0,0,0,2.21.86l3.94-2.83a1.42,1.42,0,0,0,.5-1.67l-2.46-6.39a1.5,1.5,0,0,1-.08-.7l3.77-27.57a1.4,1.4,0,0,0-.11-.78L290.35,74A1.42,1.42,0,0,0,288.86,73.18Z"/><path class="cls-17" d="M328.6,68.66h0a4.08,4.08,0,0,1,2.69,1.49c1.62,2,4.51,6.1,5.15,10.34.75,5,.66,17.87.61,21.8a4.14,4.14,0,0,1-.63,2.14l-10.78,17.11a4.11,4.11,0,0,1-5.87,1.14l-.93-.68a4.1,4.1,0,0,1-1.18-5.34l7.86-13.91a4.1,4.1,0,0,0,.42-2.93L321.5,80.5a4.08,4.08,0,0,1,.17-2.37l2.59-6.86A4.09,4.09,0,0,1,328.6,68.66Z"/><path class="cls-15" d="M314.52,42.32a11.16,11.16,0,0,0-6.34-4.85L306.24,39l.75-1.81a9.44,9.44,0,0,0-1.92-.11l-1.74,2.24.72-2.17a11.08,11.08,0,0,0-7.62,4.53A9.83,9.83,0,0,0,296,52.6c.6-1.85,1.33-3.57,1.93-5.42a5.2,5.2,0,0,0,1.42,0l.73-1.7.2,1.63c2.26-.2,5.62-.63,7.76-1l-.21-1.25,1.25,1c.66-.15,1-.29,1-.39,1.6,2.57,3.18,4.21,4.77,6.78C315.49,48.64,316.56,45.63,314.52,42.32Z"/><ellipse class="cls-14" cx="313.99" cy="50.66" rx="0.65" ry="1.29"/><path class="cls-18" d="M264.87,207.11a1.4,1.4,0,0,1-1-2.43l.1-.38,0-.09a3.76,3.76,0,0,0-4.93-2,3.72,3.72,0,0,0-2,2c-1.14,2.74-2.59,5.48-2.94,8.37a11.2,11.2,0,0,0,.19,3.83,44.77,44.77,0,0,1-4.06-18.54,42.81,42.81,0,0,1,.27-4.81c.15-1.31.35-2.61.61-3.9A45.12,45.12,0,0,1,260,170a12,12,0,0,0,5-5.19,8.92,8.92,0,0,0,.83-2.51,6,6,0,0,1-.73.07h-.26a1.37,1.37,0,0,1-1.45-1.32,1.35,1.35,0,0,1,.31-.94l.31-.39.49-.59.05-.06.55-.68a4.11,4.11,0,0,0-1.32-1.27,4.62,4.62,0,0,0-5.7,1.33,7.22,7.22,0,0,0-1.12,6.08,15.83,15.83,0,0,0,2.22,5l-.3.38a46.26,46.26,0,0,0-4.75,7.52,18.89,18.89,0,0,0-1.12-8.78c-1.08-2.61-3.11-4.8-4.89-7a3.88,3.88,0,0,0-6.91,1.9v.1q.39.22.78.48a1.9,1.9,0,0,1-.77,3.46h0a19.08,19.08,0,0,0,10.2,15l.46.24a46.28,46.28,0,0,0-2.49,11.75,43.28,43.28,0,0,0,0,7.11v-.09a11.72,11.72,0,0,0-4-6.71c-3.06-2.51-7.38-3.43-10.67-5.45a2.18,2.18,0,0,0-3,.66,2.14,2.14,0,0,0-.32,1.46v.09a12.54,12.54,0,0,1,1.43.69q.41.22.78.48a1.91,1.91,0,0,1-.77,3.46h-.12a18.9,18.9,0,0,0,3.49,5.46,19.5,19.5,0,0,0,14.14,6.2h0a46.58,46.58,0,0,0,3.12,9.1h11.13c0-.12.07-.25.11-.38a12.25,12.25,0,0,1-3.08-.18c.83-1,1.65-2,2.48-3.05l0-.06,1.26-1.55h0a18.74,18.74,0,0,0-.54-4.72Z"/></g></g></svg>