<svg xmlns="http://www.w3.org/2000/svg" viewBox="0 0 38.99 39"><defs><style>.cls-1{fill:#2ec571;}</style></defs><g id="Layer_2" data-name="Layer 2"><g id="text"><path class="cls-1" d="M29.68,39A10.74,10.74,0,0,1,28,38.47,55.49,55.49,0,0,1,.45,11a3.66,3.66,0,0,1,.89-4.61Q3.67,4.18,6,2.07C7.25,1,8.19,1.22,9,2.62c1.68,2.84,3.42,5.64,5.18,8.43a1.56,1.56,0,0,1,.18,1.75c-.56,1.1-1,2.25-1.58,3.37a.79.79,0,0,0,.07,1,59,59,0,0,0,8.91,8.9.77.77,0,0,0,1,.09c1.16-.56,2.35-1.07,3.52-1.63a1.34,1.34,0,0,1,1.46.13q4.34,2.7,8.71,5.35c1.14.68,1.46,1.68.59,2.69-1.55,1.8-3.17,3.54-4.81,5.27A3.71,3.71,0,0,1,29.68,39ZM7.34,3.14C5.72,4.62,4.16,6,2.62,7.47a2.1,2.1,0,0,0-.54,3A53.8,53.8,0,0,0,13.93,27a54.28,54.28,0,0,0,14.64,9.94A2,2,0,0,0,31,36.76c1.64-1.64,3.18-3.37,4.77-5.07a2.22,2.22,0,0,0-.25-.24c-2.77-1.7-5.54-3.4-8.33-5.06a1.09,1.09,0,0,0-.85,0c-1.21.53-2.4,1.11-3.58,1.7a1.16,1.16,0,0,1-1.38-.13A60,60,0,0,1,11,17.57a1.18,1.18,0,0,1-.11-1.45c.58-1.13,1.09-2.29,1.66-3.43a1,1,0,0,0-.13-1.15C11.21,9.64,10,7.73,8.79,5.79,8.28,5,7.86,4.1,7.34,3.14Z"/><path class="cls-1" d="M21.15,0a18.69,18.69,0,0,1,17,13.47A30.62,30.62,0,0,1,39,18.62c.11,1-.21,1.45-.83,1.4-.87-.06-.82-.73-.83-1.35a16.66,16.66,0,0,0-4.11-11,16.74,16.74,0,0,0-12.75-6c-1.06,0-1.54-.28-1.46-.88.11-.89.81-.83,1.46-.83Z"/><path class="cls-1" d="M33,18.4c0,.14,0,.46,0,.77,0,.53-.31.86-.85.85s-.78-.34-.83-.87A19.27,19.27,0,0,0,31,16.4,11,11,0,0,0,20.48,7.71c-.66,0-1.41.1-1.5-.85-.06-.62.45-.88,1.57-.86A12.8,12.8,0,0,1,33,18.4Z"/><path class="cls-1" d="M20.71,12A6.79,6.79,0,0,1,27,19c0,.57-.2,1-.84,1.05s-.86-.45-.88-1.06A5.06,5.06,0,0,0,20,13.68c-.58,0-1-.2-1-.83s.43-.86,1-.84Z"/></g></g></svg>