<svg xmlns="http://www.w3.org/2000/svg" xmlns:xlink="http://www.w3.org/1999/xlink" viewBox="0 0 1479 693"><defs><style>.cls-1{fill:url(#linear-gradient);}.cls-2{fill:#c3c3c3;}.cls-3{fill:#2ec571;}.cls-4{fill:none;stroke:#3f3d56;stroke-miterlimit:10;}.cls-5{fill:#3491d4;}.cls-6{fill:#bd9806;}.cls-7{fill:#ff6580;}.cls-8{fill:#2f2e41;}.cls-9{fill:#99616a;}.cls-10{fill:#f4b7b7;}.cls-11{fill:#eabd0f;}.cls-12{font-size:16px;}.cls-12,.cls-14,.cls-15{fill:#373737;}.cls-12,.cls-14{font-family:Roboto-Bold, Roboto;font-weight:700;}.cls-13{letter-spacing:0.02em;}.cls-14{font-size:48px;}.cls-15{font-size:21px;font-family:Roboto-Regular, Roboto;}.cls-16{letter-spacing:-0.02em;}.cls-17{letter-spacing:-0.01em;}.cls-18{letter-spacing:-0.01em;}.cls-19{letter-spacing:-0.03em;}.cls-20{letter-spacing:-0.01em;}.cls-21{letter-spacing:-0.01em;}</style><linearGradient id="linear-gradient" x1="740.69" y1="16.46" x2="738.32" y2="674.67" gradientUnits="userSpaceOnUse"><stop offset="0" stop-color="#dae5e8" stop-opacity="0"/><stop offset="0.02" stop-color="#dae5e8" stop-opacity="0.03"/><stop offset="0.05" stop-color="#dae5e8" stop-opacity="0.12"/><stop offset="0.08" stop-color="#dae5e8" stop-opacity="0.26"/><stop offset="0.12" stop-color="#dae5e8" stop-opacity="0.45"/><stop offset="0.17" stop-color="#dae5e8" stop-opacity="0.7"/><stop offset="0.21" stop-color="#dae5e8"/><stop offset="0.21" stop-color="#dae5e8"/><stop offset="0.27" stop-color="#d2e3e9" stop-opacity="0.81"/><stop offset="0.33" stop-color="#cbe0ea" stop-opacity="0.62"/><stop offset="0.39" stop-color="#c4deeb" stop-opacity="0.46"/><stop offset="0.46" stop-color="#bedceb" stop-opacity="0.31"/><stop offset="0.54" stop-color="#b9dbec" stop-opacity="0.2"/><stop offset="0.62" stop-color="#b6d9ec" stop-opacity="0.11"/><stop offset="0.71" stop-color="#b3d9ed" stop-opacity="0.05"/><stop offset="0.82" stop-color="#b1d8ed" stop-opacity="0.01"/><stop offset="1" stop-color="#b1d8ed" stop-opacity="0"/></linearGradient></defs><g id="Layer_2" data-name="Layer 2"><g id="main"><rect class="cls-1" width="1479" height="693"/></g><g id="text"><ellipse class="cls-2" cx="726.24" cy="258.18" rx="84.38" ry="12.82"/><path class="cls-3" d="M779.25,212.8a6.21,6.21,0,1,0,.83-11.9l.16,3.19-1.51-2.74a6.2,6.2,0,0,0-3.19,3.5,6,6,0,0,0-.36,1.68A6.22,6.22,0,0,0,779.25,212.8Z"/><path class="cls-4" d="M786.73,249.84c-.53-2.72,1.78-5.12,4.06-6.69s5-3.1,5.73-5.76c1.12-3.82-2.21-7.31-4.81-10.33a37.42,37.42,0,0,1-4.93-7.32,10,10,0,0,1-1.17-3.33,11.54,11.54,0,0,1,.88-5q2.75-8.05,5.86-16"/><path class="cls-4" d="M779.51,212a6.21,6.21,0,1,0,.83-11.91l.15,3.2L779,200.53a6.18,6.18,0,0,0-3.18,3.5,6,6,0,0,0-.36,1.68A6.2,6.2,0,0,0,779.51,212Z"/><path class="cls-3" d="M786,194.32a6.21,6.21,0,0,1,4.47-3.93l.51,3,.95-3.19a6.2,6.2,0,1,1-6.3,6.11,6.39,6.39,0,0,1,.37-2Z"/><path class="cls-4" d="M786.31,193.23a6.22,6.22,0,0,1,4.47-3.94l.51,3,1-3.19a6.21,6.21,0,1,1-6.3,6.11A6.33,6.33,0,0,1,786.31,193.23Z"/><path class="cls-3" d="M790.62,227.12a6.2,6.2,0,0,0,5.49-11l-.72,2.45-.52-3.07h0a6.2,6.2,0,1,0-4.24,11.66Z"/><path class="cls-4" d="M790.92,226a6.2,6.2,0,0,0,5.49-11l-.73,2.45-.52-3.08h0A6.2,6.2,0,1,0,790.92,226Z"/><path class="cls-3" d="M784.16,237.43a6.2,6.2,0,1,0,1.2-4.86l2.76,4.16-3.77-2.21A6.11,6.11,0,0,0,784.16,237.43Z"/><path class="cls-4" d="M784.42,236.61a6.19,6.19,0,1,0,1.19-4.86l2.77,4.16-3.78-2.21A6.23,6.23,0,0,0,784.42,236.61Z"/><path class="cls-2" d="M767.08,74.79a17.44,17.44,0,0,1,17.41-16.52c.53,0,1.06,0,1.58.07a23.17,23.17,0,0,1,40,0c.44,0,.88,0,1.33,0a17.43,17.43,0,0,1,17.41,16.52"/><path class="cls-4" d="M770.71,73.45a17.44,17.44,0,0,1,17.42-16.52c.53,0,1,0,1.57.07a23.17,23.17,0,0,1,40,0c.43,0,.87,0,1.32,0a17.43,17.43,0,0,1,17.41,16.52"/><path class="cls-2" d="M640.37,157.68a17.44,17.44,0,0,1,17.41-16.53c.53,0,1.06,0,1.57.08a23.16,23.16,0,0,1,40,0c.44,0,.88-.06,1.33-.06a17.45,17.45,0,0,1,17.41,16.53"/><path class="cls-4" d="M644,156.34a17.44,17.44,0,0,1,17.41-16.53c.53,0,1.06,0,1.58.08a23.16,23.16,0,0,1,40,0c.44,0,.88-.06,1.33-.06a17.43,17.43,0,0,1,17.41,16.53"/><path class="cls-2" d="M603.4,70.32A17.43,17.43,0,0,1,620.81,53.8c.53,0,1.06,0,1.57.07a23.16,23.16,0,0,1,40,0c.44,0,.88-.05,1.33-.05a17.44,17.44,0,0,1,17.41,16.52"/><path class="cls-4" d="M607,69a17.44,17.44,0,0,1,17.41-16.52c.53,0,1.06,0,1.58.07a23.16,23.16,0,0,1,40,0c.44,0,.88,0,1.33,0A17.43,17.43,0,0,1,684.8,69"/><path class="cls-5" d="M680.11,105.69s31.34,15.57,37,13.4,7.57-21.39,7.57-21.39l-23.13-4.33Z"/><path class="cls-6" d="M680.11,105.69s31.34,15.57,37,13.4,7.57-21.39,7.57-21.39l-23.13-4.33Z"/><rect class="cls-7" x="724.53" y="82.46" width="20.53" height="17.94"/><rect class="cls-8" x="724.53" y="82.46" width="20.53" height="17.94"/><path class="cls-9" d="M705.83,158.86s-.86,18.81,5,18.38,0-17.73,0-17.73Z"/><path class="cls-10" d="M729.82,85.16s1.3,8.21-1.08,9.29-3.89,2-3.89,2l5.41,3.67,9.94.65,2.59-1.94,2.38-2.16s-3.89-.87-3.89-2.81-.22-7.79-.22-7.79Z"/><path class="cls-9" d="M729.82,85.16s1.3,8.21-1.08,9.29-3.89,2-3.89,2l5.41,3.67,9.94.65,2.59-1.94,2.38-2.16s-3.89-.87-3.89-2.81-.22-7.79-.22-7.79Z"/><path class="cls-9" d="M716.21,162.11s-6.27,20.1-6.27,34.8c0,0-10.38,23.34-9.94,34.8l-2.6,15.77,3.68,1.3,2.81-2.38s.86-8.43,3.67-12.53,9.3-23.56,9.3-23.56,17.29-36.32,16.64-41.5S716.21,162.11,716.21,162.11Z"/><path class="cls-9" d="M754.46,157.57s4.11,1.94-1.72,36.53c0,0,3.24,22.91.43,35.44l-.43,12.54H748.2l-.87-1.3s-.21-11.24-1.73-14.26S742.79,206,742.79,206s-6.91-35.66-5.4-38.69S754.46,157.57,754.46,157.57Z"/><path class="cls-8" d="M696.75,243.81s1.52,3.46,4.33,2.59a16.86,16.86,0,0,1,3.45-.86s-1.94,9.94-1.29,14.7-.43,7.78-4.76,7.78-5-5.19-5-5.19l2-12.32Z"/><path class="cls-8" d="M746.47,238.41s1.51,3,3.89,2.37a6.31,6.31,0,0,0,3.24-1.73s-.22,6.71.65,9.73,2.81,11.67-1.73,12.11a5.84,5.84,0,0,1-6-3.46Z"/><circle class="cls-9" cx="735.66" cy="81.27" r="9.51"/><path class="cls-5" d="M753.17,98.34s-7.54-3-10.25-2.56a11.09,11.09,0,0,1-8.56,2.56c-5.18-.64-7.21-3.13-7.21-3.13s-14,3.13-13.1,4.43,4.75,22.48,4.75,22.48,2.59,18.37-.43,24.64-4.54,16.64-3.24,17.51,15.77,4.75,17.5,5.83,2.38-2.59,3.46-1.94,3.46,1.73,5,.86,16.21-8.64,15.78-10.16-6.05-19.88-8-23.55-.43-11.46.65-13,3.25-3.25,3.68-7.57S753.17,98.34,753.17,98.34Z"/><path class="cls-5" d="M714.52,99a7.46,7.46,0,0,0-2.42,4.13c-.65,2.81-1.51,25.29-1.51,25.29s-8,30.91-6.27,31.56,6.7,1.94,7.35,1.29,8-26.8,7.35-29.61.86-11,.86-11Z"/><path class="cls-9" d="M754.46,139.2s-11.67-5.84-13-1.95,12.32,8,12.32,8,4.75-1.73,4.75-2.81S754.46,139.2,754.46,139.2Z"/><path class="cls-5" d="M750.79,99.21l2.38-.87s1.29-.86,2.81,2.38S773.92,123,770.89,129s-13,18.37-13.4,17.5-5.4-7.34-4.54-8,10.81-9.51,9.51-10.81-6.7-12.32-9.72-12.75S750.79,99.21,750.79,99.21Z"/><path class="cls-11" d="M725.18,80.94s-33-13.25-61.49-26c0,0-14.92-3.67-22.7,3.24,0,0,6.49-.86,6.49,2.81,0,0,5.62,7.35-11.89,8.65-12.2.9-17.05,8.2-18.87,12.55a17.71,17.71,0,0,1-7.15,8.4,18,18,0,0,1-17.43,1.09s.41.63,1.17,1.66C607,111.88,658.15,128,676.2,113.65c11.16-8.87,28.84-20.09,41.52-14.44,19.89,8.86,23.56,5,23.56,5l.86-2.38s-19.23-5.18-19.67-11.89S725.18,80.94,725.18,80.94Z"/><path class="cls-11" d="M744.41,82.67a9.92,9.92,0,0,1,5.52,7.89s5,9.73-.65,12.11-6.7,1.73-6.7,1.73v-1.08s6-3.68,4.75-6.49S744.41,82.67,744.41,82.67Z"/><path class="cls-11" d="M736.09,110.23s1.52-3.89,1.08-3.89,1.76-2.39,2.61-1.52,2.36,3.47.64,4.12S736.09,110.23,736.09,110.23Z"/><path class="cls-11" d="M746.74,107.92s-4-1.34-3.93-.91-2.46-1.66-1.63-2.54,3.37-2.51,4.09-.81S746.74,107.92,746.74,107.92Z"/><path class="cls-5" d="M740.42,102a2.38,2.38,0,0,1,3.14.63c1.18,1.75-1.42,4.77-3.14,4.77s-1.73-3.67-1.73-3.67Z"/><path class="cls-11" d="M740.42,102a2.38,2.38,0,0,1,3.14.63c1.18,1.75-1.42,4.77-3.14,4.77s-1.73-3.67-1.73-3.67Z"/><path class="cls-8" d="M727.41,65.75A11.46,11.46,0,0,0,724.49,69a13.1,13.1,0,0,0-.93,2.26c-.88,2.51-3,5.06-2.13,7.56a3.54,3.54,0,0,1,.44,2.19c-.21.64-.86,1-1.32,1.5a6.07,6.07,0,0,0-1.23,4.07,12,12,0,0,0,3.1,7.75,12,12,0,0,1,1.06,1.2,2.83,2.83,0,0,1,.33,2.32l2.57-.54a20.88,20.88,0,0,1,.08,2.85,2.66,2.66,0,0,0,2.83-1.82,7.58,7.58,0,0,0,.7,2,10.08,10.08,0,0,0,1.7-3.16,9,9,0,0,0,.31-4.55,19.32,19.32,0,0,0-1.1-3.24c-.91-2.29-1.65-4.64-2.39-7a10,10,0,0,1-.66-3.76l.91-.1a4.63,4.63,0,0,1,.29-1.47,5.53,5.53,0,0,1,1.53.57l1-2.66a6,6,0,0,0,2.64,1.34l3.62,1.14,0-.71A18.68,18.68,0,0,0,743.07,80a1.17,1.17,0,0,1-.26-.93c.9,1.6.54,3.59,0,5.33s-1.28,3.53-1.06,5.35c.16,1.36.86,2.66.73,4-.06.67-.33,1.31-.41,2-.19,1.6.65,3.12,1.46,4.51l1.57-2.17a8.47,8.47,0,0,1,2-2.14,18.06,18.06,0,0,0,2.61-1.5c1.3-1.23,1.14-3.33.71-5.08a9.09,9.09,0,0,1-.41-2.82c.14-1.61,1.26-2.94,1.89-4.43a7.72,7.72,0,0,0-.43-6.77c-.78-1.34-2-2.43-2.7-3.79s-1-3-2-4.16A7.12,7.12,0,0,0,745,66,21.93,21.93,0,0,0,735.64,63,10.81,10.81,0,0,0,727.41,65.75Z"/><rect class="cls-11" x="580.81" y="432.22" width="279" height="60" rx="30"/><text class="cls-12" transform="translate(680.99 469.8)">Suppo<tspan class="cls-13" x="45.85" y="0">r</tspan><tspan x="52.08" y="0">t us</tspan></text><text class="cls-14" transform="translate(516.07 326.24)">Suppo<tspan class="cls-13" x="137.55" y="0">r</tspan><tspan x="156.23" y="0">t Our Cause</tspan></text><text class="cls-15" transform="translate(458.3 376.35)"><tspan class="cls-16">W</tspan><tspan x="18.31" y="0">e want </tspan><tspan class="cls-17" x="85.49" y="0">t</tspan><tspan x="92.14" y="0">o </tspan><tspan class="cls-18" x="109.32" y="0">r</tspan><tspan x="116.23" y="0">each out </tspan><tspan class="cls-17" x="202.15" y="0">t</tspan><tspan x="208.8" y="0">o and unlock mo</tspan><tspan class="cls-18" x="363.48" y="0">r</tspan><tspan x="370.39" y="0">e hidden he</tspan><tspan class="cls-17" x="477.67" y="0">r</tspan><tspan x="484.57" y="0">oes. </tspan><tspan class="cls-19" x="-32.82" y="26">Y</tspan><tspan x="-20.88" y="26">our suppo</tspan><tspan class="cls-13" x="72.93" y="26">r</tspan><tspan x="80.54" y="26">t can go a long w</tspan><tspan class="cls-20" x="238.8" y="26">a</tspan><tspan x="250.07" y="26">y in helping us achi</tspan><tspan class="cls-21" x="427" y="26">ev</tspan><tspan x="448.03" y="26">e our goals.</tspan></text></g></g></svg>