<svg xmlns="http://www.w3.org/2000/svg" xmlns:xlink="http://www.w3.org/1999/xlink" viewBox="0 0 1479 693"><defs><style>.cls-1{fill:url(#linear-gradient);}.cls-14,.cls-2{fill:none;stroke-miterlimit:10;}.cls-2{stroke:#3491d4;stroke-width:2px;}.cls-3{font-size:16px;}.cls-3,.cls-6,.cls-8{fill:#373737;}.cls-3,.cls-6{font-family:Roboto-Bold, Roboto;font-weight:700;}.cls-4{fill:#eabd0f;}.cls-5{letter-spacing:-0.01em;}.cls-6{font-size:48px;}.cls-7{letter-spacing:0.02em;}.cls-8{font-size:21px;font-family:Roboto-Regular, Roboto;}.cls-9{letter-spacing:-0.01em;}.cls-10{letter-spacing:-0.01em;}.cls-11{letter-spacing:-0.01em;}.cls-12{letter-spacing:-0.01em;}.cls-13{fill:#c3c3c3;}.cls-14{stroke:#3f3d56;}.cls-15{fill:#ffb1b1;}.cls-16{fill:#2f2e41;}.cls-17{fill:#c9c6da;}.cls-18{fill:#3491d4;}.cls-19{fill:#2ec571;}</style><linearGradient id="linear-gradient" x1="740.69" y1="16.46" x2="738.32" y2="674.67" gradientUnits="userSpaceOnUse"><stop offset="0" stop-color="#dae5e8" stop-opacity="0"/><stop offset="0.02" stop-color="#dae5e8" stop-opacity="0.03"/><stop offset="0.05" stop-color="#dae5e8" stop-opacity="0.12"/><stop offset="0.08" stop-color="#dae5e8" stop-opacity="0.26"/><stop offset="0.12" stop-color="#dae5e8" stop-opacity="0.45"/><stop offset="0.17" stop-color="#dae5e8" stop-opacity="0.7"/><stop offset="0.21" stop-color="#dae5e8"/><stop offset="0.21" stop-color="#dae5e8"/><stop offset="0.27" stop-color="#d2e3e9" stop-opacity="0.81"/><stop offset="0.33" stop-color="#cbe0ea" stop-opacity="0.62"/><stop offset="0.39" stop-color="#c4deeb" stop-opacity="0.46"/><stop offset="0.46" stop-color="#bedceb" stop-opacity="0.31"/><stop offset="0.54" stop-color="#b9dbec" stop-opacity="0.2"/><stop offset="0.62" stop-color="#b6d9ec" stop-opacity="0.11"/><stop offset="0.71" stop-color="#b3d9ed" stop-opacity="0.05"/><stop offset="0.82" stop-color="#b1d8ed" stop-opacity="0.01"/><stop offset="1" stop-color="#b1d8ed" stop-opacity="0"/></linearGradient></defs><g id="Layer_2" data-name="Layer 2"><g id="text"><rect class="cls-1" width="1479" height="693"/><rect class="cls-2" x="727.5" y="450" width="279" height="60" rx="30"/><text class="cls-3" transform="translate(827.52 487.58)">Contact Us</text><rect class="cls-4" x="425.5" y="451" width="279" height="60" rx="30"/><text class="cls-3" transform="translate(481.37 488.58)">Download Spnsor <tspan class="cls-5" x="129.93" y="0">F</tspan><tspan x="138.53" y="0">orm</tspan></text><text class="cls-6" transform="translate(516.07 326.24)">Suppo<tspan class="cls-7" x="137.55" y="0">r</tspan><tspan x="156.23" y="0">t Our Cause</tspan></text><text class="cls-8" transform="translate(427.72 376.35)">Suppo<tspan class="cls-7" x="59.58" y="0">r</tspan><tspan x="67.19" y="0">t us in our goals </tspan><tspan class="cls-9" x="220.9" y="0">t</tspan><tspan x="227.55" y="0">o </tspan><tspan class="cls-10" x="244.73" y="0">r</tspan><tspan x="251.64" y="0">each out </tspan><tspan class="cls-9" x="337.56" y="0">t</tspan><tspan x="344.21" y="0">o and unlock mo</tspan><tspan class="cls-10" x="498.89" y="0">r</tspan><tspan x="505.8" y="0">e hidden</tspan><tspan x="42.35" y="23">he</tspan><tspan class="cls-9" x="65.05" y="23">r</tspan><tspan x="71.95" y="23">oes or contact us </tspan><tspan class="cls-9" x="238.85" y="23">t</tspan><tspan x="245.5" y="23">o disc</tspan><tspan class="cls-11" x="301.44" y="23">o</tspan><tspan class="cls-12" x="313.26" y="23">v</tspan><tspan x="323.3" y="23">er mo</tspan><tspan class="cls-10" x="377.11" y="23">r</tspan><tspan x="384.02" y="23">e about our team </tspan><tspan x="206.45" y="46">and our p</tspan><tspan class="cls-9" x="294.14" y="46">r</tspan><tspan x="301.04" y="46">ocesses</tspan></text><ellipse class="cls-13" cx="724.77" cy="258.19" rx="87.49" ry="13.29"/><path class="cls-13" d="M756.17,72a20.42,20.42,0,0,1,20.4-19.35c.62,0,1.23,0,1.84.08a27.14,27.14,0,0,1,46.91,0c.51,0,1-.06,1.55-.06A20.42,20.42,0,0,1,847.26,72"/><path class="cls-14" d="M760.42,70.41a20.44,20.44,0,0,1,20.4-19.36c.62,0,1.23,0,1.84.09a27.14,27.14,0,0,1,46.91,0c.51,0,1-.07,1.55-.07a20.43,20.43,0,0,1,20.4,19.36"/><path class="cls-13" d="M615.57,128A13.47,13.47,0,0,1,629,115.24c.41,0,.82,0,1.22.06a17.9,17.9,0,0,1,31,0c.34,0,.68,0,1,0A13.48,13.48,0,0,1,675.7,128"/><path class="cls-14" d="M618.38,127a13.48,13.48,0,0,1,13.46-12.78c.41,0,.82,0,1.22.06a17.91,17.91,0,0,1,31,0c.34,0,.68,0,1,0A13.5,13.5,0,0,1,678.51,127"/><path class="cls-13" d="M597.39,63.4a18.08,18.08,0,0,1,18.06-17.13c.55,0,1.09,0,1.63.08a24,24,0,0,1,41.52,0c.45,0,.91-.06,1.37-.06A18.08,18.08,0,0,1,678,63.4"/><path class="cls-14" d="M601.16,62a18.07,18.07,0,0,1,18.05-17.13c.55,0,1.09,0,1.63.07a24,24,0,0,1,41.53,0c.45,0,.91,0,1.37,0a18.07,18.07,0,0,1,18,17.13"/><path class="cls-4" d="M721.74,93.5c7-3.71,15.61-2.82,23-.1s14.14,7.08,21.35,10.34a78.68,78.68,0,0,0,69.84-3c1.91,4.63-.29,9.85-2.68,14.25s-5.12,9.16-4.23,14.08c1.13,6.31,7.67,10.17,10.25,16,2.45,5.56,1,12-1,17.76s-4.64,11.5-4.4,17.58,4.56,12.55,10.64,12.65c-9,1.27-18.24,2.53-27.22,1s-17.87-6.45-21.93-14.62c-2-4.08-2.77-8.75-5.11-12.66-4-6.65-11.79-9.87-19.16-12.32s-15.25-4.81-20.38-10.64c-4.88-5.56-6.34-13.22-8.87-20.17a64,64,0,0,0-21.73-29.21"/><polygon class="cls-15" points="740.31 234.68 741.51 243.03 747.47 242.44 746.88 233.79 740.31 234.68"/><polygon class="cls-15" points="711.98 234.68 710.78 243.03 704.82 242.44 705.41 233.79 711.98 234.68"/><path class="cls-16" d="M703.33,148.18a22,22,0,0,0-4.18,16.11c1.19,9.84,3.28,32.21,3.28,32.21l1.49,39.67,9.55-.59L715,201.87l4.77-27.14,12.83,31.62s6.26,29.53,6.56,29.53,9-.9,9-.9l-4.18-34.9s-6.56-50.7-10.44-51.6S703.33,148.18,703.33,148.18Z"/><path class="cls-16" d="M748.07,241.25s-5.37-3.58-7.46.59-.3,7.16-.3,7.16,1.79,1.19.9,2.39-1.19,8.94,6.56,7.75,3.88-9.24,3.88-9.24Z"/><path class="cls-16" d="M704.22,241.25s5.37-3.58,7.46.59.3,7.16.3,7.16-1.79,1.19-.9,2.39,1.2,8.94-6.56,7.75-3.88-9.24-3.88-9.24Z"/><path class="cls-15" d="M710.64,90.17s2.68,7.45.59,11.63,3.28,9,3.28,9,14-7.16,12.23-10.74-4.77-8.35-4.17-11.33Z"/><circle class="cls-15" cx="715.85" cy="83.46" r="9.54"/><path class="cls-17" d="M709,101.35s9.58,8,16.72-3.32l7.45,4.22L737,147.59s-21.77,12.52-32.21,1.79l1.49-42.06Z"/><path class="cls-18" d="M732.21,150.27l0,0S732.22,150.27,732.21,150.27Z"/><path class="cls-18" d="M739.1,100.82l-11.67-4.15a2.82,2.82,0,0,1-.46-.23l0,0a2.15,2.15,0,0,0-3.2,1.09,4.61,4.61,0,0,1-.23.52c-.49,1-3.1,2.93-5.22,3.87l-2.45-.64c-2.76-.7-3.85-4.37-3.85-4.37l-13.45,8.94,3.84,22s-3.92,16.28-.7,20.16c4.62,5.56,11.9,5.56,11.9,5.56v-.06c8.54,1.39,18.51-3.31,18.61-3.22l5.54-5.39a2.17,2.17,0,0,0,.65-1.47l.12-5.07,2-35.39A2.11,2.11,0,0,0,739.1,100.82Z"/><path class="cls-15" d="M701.54,152.36l3.88,2.68s-4.93,5.22-5.82,4.33a2.45,2.45,0,0,1-.75-1.94l-.89-2.09Z"/><path class="cls-15" d="M727.31,151.78,726,153.85s-3.88,1.79-3,3,8.36,3.88,9.85,1.2l1.49-2.69Z"/><path class="cls-18" d="M699.3,105.68h0a1.41,1.41,0,0,0-1.2,1.19L694.84,128a1.16,1.16,0,0,1,0,.18c-.18.63-1.19,4.74.18,13.49,1,6.25,1.94,11.07,2.5,13.65a1.42,1.42,0,0,0,2.21.86l3.94-2.83a1.44,1.44,0,0,0,.5-1.67l-2.46-6.39a1.28,1.28,0,0,1-.08-.7L705.36,117a1.32,1.32,0,0,0-.12-.78l-4.45-9.7A1.42,1.42,0,0,0,699.3,105.68Z"/><path class="cls-18" d="M739,101.16h0a4.08,4.08,0,0,1,2.69,1.49c1.62,2,4.51,6.1,5.15,10.34.75,5,.66,17.87.61,21.8a4.14,4.14,0,0,1-.63,2.14L736.08,154a4.11,4.11,0,0,1-5.87,1.14l-.93-.68a4.09,4.09,0,0,1-1.18-5.34L736,135.25a4.06,4.06,0,0,0,.43-2.93L731.94,113a4.17,4.17,0,0,1,.16-2.37l2.6-6.86A4.08,4.08,0,0,1,739,101.16Z"/><path class="cls-16" d="M725,74.82A11.21,11.21,0,0,0,718.61,70l-1.94,1.56.76-1.81a9.52,9.52,0,0,0-1.92-.11l-1.74,2.24.72-2.17a11.08,11.08,0,0,0-7.62,4.53,9.81,9.81,0,0,0-.41,10.89c.6-1.85,1.33-3.57,1.93-5.42a5.2,5.2,0,0,0,1.42,0l.73-1.7.2,1.63c2.26-.2,5.61-.63,7.76-1l-.21-1.25,1.25,1c.65-.15,1-.29,1-.39,1.6,2.57,3.18,4.21,4.77,6.78C725.92,81.14,727,78.13,725,74.82Z"/><ellipse class="cls-15" cx="724.43" cy="83.16" rx="0.65" ry="1.29"/><path class="cls-19" d="M675.31,239.61a1.4,1.4,0,0,1-1-2.43l.1-.38,0-.09a3.77,3.77,0,0,0-7,0c-1.13,2.74-2.58,5.48-2.94,8.37a11.2,11.2,0,0,0,.2,3.83,44.61,44.61,0,0,1-4.06-18.54,42.81,42.81,0,0,1,.27-4.81c.14-1.31.35-2.61.61-3.9a45.12,45.12,0,0,1,9-19.14,12,12,0,0,0,5-5.19,9.26,9.26,0,0,0,.83-2.51,6,6,0,0,1-.73.07h-.26a1.37,1.37,0,0,1-1.45-1.32,1.35,1.35,0,0,1,.31-.94l.31-.39.48-.59.06-.06.55-.68a4.11,4.11,0,0,0-1.32-1.27,4.64,4.64,0,0,0-5.71,1.33,7.29,7.29,0,0,0-1.12,6.08,16.08,16.08,0,0,0,2.23,5l-.3.38a44.94,44.94,0,0,0-4.75,7.52,18.77,18.77,0,0,0-1.13-8.78c-1.08-2.61-3.1-4.8-4.88-7a3.88,3.88,0,0,0-6.91,1.9v.1c.26.15.52.31.77.48a1.9,1.9,0,0,1,.53,2.64,1.93,1.93,0,0,1-1.29.82h0a18,18,0,0,0,.5,2.83,19.46,19.46,0,0,0,9.7,12.21l.46.24a46.3,46.3,0,0,0-2.5,11.75,44.42,44.42,0,0,0,0,7.11v-.09a11.61,11.61,0,0,0-4-6.71c-3.05-2.51-7.37-3.43-10.66-5.45a2.18,2.18,0,0,0-3,.66,2.15,2.15,0,0,0-.33,1.46l0,.09a12.54,12.54,0,0,1,1.43.69l.78.48a1.91,1.91,0,0,1-.77,3.46h-.12a19.08,19.08,0,0,0,3.48,5.46,19.51,19.51,0,0,0,14.14,6.2h0a46.55,46.55,0,0,0,3.11,9.1H675c0-.12.07-.25.11-.38a12.22,12.22,0,0,1-3.08-.18l2.48-3.05.05-.06,1.26-1.55h0a18.74,18.74,0,0,0-.54-4.72Z"/></g></g></svg>