<svg xmlns="http://www.w3.org/2000/svg" viewBox="0 0 619.75 451.72"><defs><style>.cls-1{fill:#c3c3c3;}.cls-2{fill:#2ec571;}.cls-3{fill:none;stroke:#3f3d56;stroke-miterlimit:10;}.cls-4{fill:#3491d4;}.cls-5{fill:#bd9806;}.cls-6{fill:#ff6580;}.cls-7{fill:#2f2e41;}.cls-8{fill:#99616a;}.cls-9{fill:#f4b7b7;}.cls-10{fill:#eabd0f;}.cls-11{font-size:16px;}.cls-11,.cls-13,.cls-14{fill:#373737;}.cls-11,.cls-13{font-family:Roboto-Bold, Roboto;font-weight:700;}.cls-12{letter-spacing:0.02em;}.cls-13{font-size:48px;}.cls-14{font-size:21px;font-family:Roboto-Regular, Roboto;}.cls-15{letter-spacing:-0.02em;}.cls-16{letter-spacing:-0.01em;}.cls-17{letter-spacing:-0.01em;}.cls-18{letter-spacing:-0.03em;}.cls-19{letter-spacing:-0.01em;}.cls-20{letter-spacing:-0.01em;}</style></defs><g id="Layer_2" data-name="Layer 2"><g id="text"><ellipse class="cls-1" cx="315.81" cy="217.68" rx="84.38" ry="12.82"/><path class="cls-2" d="M368.82,172.3a6.21,6.21,0,1,0,.82-11.9l.16,3.19-1.51-2.74a6.23,6.23,0,0,0-3.19,3.5,6.36,6.36,0,0,0-.35,1.68A6.2,6.2,0,0,0,368.82,172.3Z"/><path class="cls-3" d="M376.29,209.34c-.53-2.72,1.78-5.12,4.07-6.69s4.95-3.1,5.72-5.76c1.12-3.82-2.21-7.31-4.81-10.33a36.94,36.94,0,0,1-4.92-7.32,10,10,0,0,1-1.18-3.33,11.4,11.4,0,0,1,.89-5q2.73-8.05,5.85-16"/><path class="cls-3" d="M369.07,171.48a6.21,6.21,0,1,0,.83-11.91l.15,3.2L368.54,160a6.22,6.22,0,0,0-3.18,3.5,6,6,0,0,0-.36,1.68A6.22,6.22,0,0,0,369.07,171.48Z"/><path class="cls-2" d="M375.54,153.82a6.19,6.19,0,0,1,4.46-3.93l.51,3,.95-3.19a6.2,6.2,0,1,1-6.3,6.11,6.13,6.13,0,0,1,.38-2Z"/><path class="cls-3" d="M375.88,152.73a6.21,6.21,0,0,1,4.46-3.94l.51,3,.95-3.19a6.21,6.21,0,1,1-6.29,6.11A6.07,6.07,0,0,1,375.88,152.73Z"/><path class="cls-2" d="M380.18,186.62a6.2,6.2,0,0,0,5.5-11L385,178l-.52-3.07h0a6.21,6.21,0,1,0-4.25,11.66Z"/><path class="cls-3" d="M380.48,185.51a6.2,6.2,0,0,0,5.49-11l-.73,2.45-.51-3.08h0a6.2,6.2,0,1,0-4.23,11.66Z"/><path class="cls-2" d="M373.73,196.93a6.19,6.19,0,1,0,1.19-4.86l2.77,4.16L373.91,194A6.1,6.1,0,0,0,373.73,196.93Z"/><path class="cls-3" d="M374,196.11a6.2,6.2,0,1,0,5-7.18,6.12,6.12,0,0,0-3.84,2.32l2.76,4.16-3.78-2.21A6.23,6.23,0,0,0,374,196.11Z"/><path class="cls-1" d="M356.64,34.29a17.44,17.44,0,0,1,17.42-16.52c.53,0,1.05,0,1.57.07a23.18,23.18,0,0,1,40.05,0c.43,0,.87-.05,1.32-.05a17.43,17.43,0,0,1,17.41,16.52"/><path class="cls-3" d="M360.28,33a17.43,17.43,0,0,1,17.41-16.52c.53,0,1.05,0,1.57.07a23.17,23.17,0,0,1,40.05,0c.44,0,.88-.05,1.32-.05A17.43,17.43,0,0,1,438,33"/><path class="cls-1" d="M229.93,117.18a17.45,17.45,0,0,1,17.42-16.53c.53,0,1.05,0,1.57.08a23.17,23.17,0,0,1,40.05,0c.43,0,.87-.06,1.32-.06a17.44,17.44,0,0,1,17.41,16.53"/><path class="cls-3" d="M233.56,115.84A17.44,17.44,0,0,1,251,99.31c.53,0,1.05,0,1.57.08a23.17,23.17,0,0,1,40.05,0q.64-.06,1.32-.06a17.43,17.43,0,0,1,17.41,16.53"/><path class="cls-1" d="M193,29.82A17.44,17.44,0,0,1,210.38,13.3c.53,0,1.05,0,1.57.07a23.17,23.17,0,0,1,40.05,0c.43,0,.87,0,1.32,0a17.43,17.43,0,0,1,17.41,16.52"/><path class="cls-3" d="M196.59,28.48A17.44,17.44,0,0,1,214,12c.53,0,1.05,0,1.57.07a23.17,23.17,0,0,1,40,0c.43,0,.87,0,1.32,0a17.43,17.43,0,0,1,17.41,16.52"/><path class="cls-4" d="M269.67,65.19s31.34,15.57,37,13.4S314.2,57.2,314.2,57.2l-23.13-4.33Z"/><path class="cls-5" d="M269.67,65.19s31.34,15.57,37,13.4S314.2,57.2,314.2,57.2l-23.13-4.33Z"/><rect class="cls-6" x="314.09" y="41.96" width="20.53" height="17.94"/><rect class="cls-7" x="314.09" y="41.96" width="20.53" height="17.94"/><path class="cls-8" d="M295.39,118.36s-.86,18.81,5,18.38,0-17.73,0-17.73Z"/><path class="cls-9" d="M319.39,44.66s1.29,8.21-1.08,9.29-3.89,1.95-3.89,1.95l5.4,3.67,9.94.65,2.6-1.94,2.37-2.16s-3.89-.87-3.89-2.81-.21-7.79-.21-7.79Z"/><path class="cls-8" d="M319.39,44.66s1.29,8.21-1.08,9.29-3.89,1.95-3.89,1.95l5.4,3.67,9.94.65,2.6-1.94,2.37-2.16s-3.89-.87-3.89-2.81-.21-7.79-.21-7.79Z"/><path class="cls-8" d="M305.77,121.61s-6.27,20.1-6.27,34.8c0,0-10.37,23.34-9.94,34.8L287,207l3.67,1.3,2.81-2.38s.86-8.43,3.67-12.53,9.3-23.56,9.3-23.56,17.29-36.32,16.64-41.5S305.77,121.61,305.77,121.61Z"/><path class="cls-8" d="M344,117.07s4.1,1.94-1.73,36.53c0,0,3.24,22.91.43,35.44l-.43,12.54h-4.54l-.87-1.3S336.68,189,335.17,186s-2.81-20.54-2.81-20.54-6.92-35.66-5.41-38.69S344,117.07,344,117.07Z"/><path class="cls-7" d="M286.32,203.31s1.51,3.46,4.32,2.59a16.79,16.79,0,0,1,3.46-.86s-2,9.94-1.3,14.7-.43,7.78-4.75,7.78-5-5.19-5-5.19L285,210Z"/><path class="cls-7" d="M336,197.91s1.51,3,3.89,2.37a6.31,6.31,0,0,0,3.24-1.73s-.21,6.71.65,9.73,2.81,11.67-1.73,12.11a5.84,5.84,0,0,1-6.05-3.46Z"/><circle class="cls-8" cx="325.22" cy="40.77" r="9.51"/><path class="cls-4" d="M342.73,57.84s-7.53-3-10.25-2.56a11.08,11.08,0,0,1-8.55,2.56c-5.19-.64-7.22-3.13-7.22-3.13s-14,3.13-13.1,4.43,4.75,22.48,4.75,22.48,2.6,18.37-.43,24.64-4.54,16.64-3.24,17.51,15.78,4.75,17.51,5.83,2.37-2.59,3.45-1.94,3.46,1.73,5,.86,16.21-8.64,15.77-10.16-6-19.88-8-23.55-.43-11.46.65-13,3.24-3.25,3.67-7.57S342.73,57.84,342.73,57.84Z"/><path class="cls-4" d="M304.08,58.47a7.46,7.46,0,0,0-2.42,4.13c-.65,2.81-1.51,25.29-1.51,25.29s-8,30.91-6.27,31.56,6.7,1.94,7.35,1.29,8-26.8,7.35-29.61.86-11,.86-11Z"/><path class="cls-8" d="M344,98.7s-11.67-5.84-13-2,12.32,8,12.32,8,4.75-1.73,4.75-2.81S344,98.7,344,98.7Z"/><path class="cls-4" d="M340.35,58.71l2.38-.87s1.3-.86,2.81,2.38,17.94,22.26,14.91,28.32-13,18.37-13.4,17.5-5.4-7.34-4.54-8,10.81-9.51,9.51-10.81-6.7-12.32-9.72-12.75S340.35,58.71,340.35,58.71Z"/><path class="cls-10" d="M314.74,40.44s-33-13.25-61.49-26c0,0-14.92-3.67-22.7,3.24,0,0,6.49-.86,6.49,2.81,0,0,5.62,7.35-11.89,8.65-12.19.9-17.05,8.2-18.87,12.55a17.69,17.69,0,0,1-7.14,8.4,18,18,0,0,1-17.43,1.09s.4.63,1.17,1.66c13.72,18.54,64.84,34.67,82.89,20.31,11.15-8.87,28.84-20.09,41.51-14.44,19.89,8.86,23.56,5,23.56,5l.87-2.38S312.47,56.12,312,49.41,314.74,40.44,314.74,40.44Z"/><path class="cls-10" d="M334,42.17a9.92,9.92,0,0,1,5.51,7.89s5,9.73-.65,12.11-6.7,1.73-6.7,1.73V62.82s6.05-3.68,4.75-6.49S334,42.17,334,42.17Z"/><path class="cls-10" d="M325.65,69.73s1.52-3.89,1.09-3.89,1.75-2.39,2.6-1.52,2.37,3.47.64,4.12S325.65,69.73,325.65,69.73Z"/><path class="cls-10" d="M336.31,67.42s-3.95-1.34-3.94-.91-2.46-1.66-1.63-2.54,3.37-2.51,4.09-.81S336.31,67.42,336.31,67.42Z"/><path class="cls-4" d="M330,61.52a2.39,2.39,0,0,1,3.15.63c1.17,1.75-1.42,4.77-3.15,4.77s-1.73-3.67-1.73-3.67Z"/><path class="cls-10" d="M330,61.52a2.39,2.39,0,0,1,3.15.63c1.17,1.75-1.42,4.77-3.15,4.77s-1.73-3.67-1.73-3.67Z"/><path class="cls-7" d="M317,25.25a11.65,11.65,0,0,0-2.93,3.29,14.9,14.9,0,0,0-.93,2.26c-.87,2.51-3.05,5.06-2.13,7.56a3.54,3.54,0,0,1,.44,2.19c-.21.64-.86,1-1.32,1.5a6.12,6.12,0,0,0-1.23,4.07,12.07,12.07,0,0,0,3.1,7.75,10.84,10.84,0,0,1,1.06,1.2,2.83,2.83,0,0,1,.34,2.32l2.56-.54A22.62,22.62,0,0,1,316,59.7a2.66,2.66,0,0,0,2.82-1.82,7.58,7.58,0,0,0,.7,1.95,10.1,10.1,0,0,0,1.71-3.16,9,9,0,0,0,.3-4.55,19.32,19.32,0,0,0-1.1-3.24c-.91-2.29-1.65-4.64-2.39-7a9.81,9.81,0,0,1-.65-3.76l.91-.1a4.37,4.37,0,0,1,.29-1.47,5.59,5.59,0,0,1,1.52.57l1.05-2.66a6,6,0,0,0,2.64,1.34L327.45,37l0-.71a18.63,18.63,0,0,0,5.15,3.23,1.13,1.13,0,0,1-.25-.93c.89,1.6.53,3.59,0,5.33s-1.28,3.53-1.06,5.35c.17,1.36.86,2.66.73,4-.06.67-.32,1.31-.4,2-.2,1.6.64,3.12,1.45,4.51l1.58-2.17a8.25,8.25,0,0,1,2-2.14,18.06,18.06,0,0,0,2.61-1.5c1.31-1.23,1.14-3.33.72-5.08a8.81,8.81,0,0,1-.42-2.82c.14-1.61,1.26-2.94,1.89-4.43a7.72,7.72,0,0,0-.43-6.77c-.78-1.34-2-2.43-2.7-3.79s-1-3-2-4.16a7,7,0,0,0-1.7-1.35,21.93,21.93,0,0,0-9.39-3.06A10.77,10.77,0,0,0,317,25.25Z"/><rect class="cls-10" x="170.38" y="391.72" width="279" height="60" rx="30"/><text class="cls-11" transform="translate(270.55 429.3)">Suppo<tspan class="cls-12" x="45.85" y="0">r</tspan><tspan x="52.08" y="0">t us</tspan></text><text class="cls-13" transform="translate(105.63 285.74)">Suppo<tspan class="cls-12" x="137.55" y="0">r</tspan><tspan x="156.23" y="0">t Our Cause</tspan></text><text class="cls-14" transform="translate(47.86 335.85)"><tspan class="cls-15">W</tspan><tspan x="18.31" y="0">e want </tspan><tspan class="cls-16" x="85.49" y="0">t</tspan><tspan x="92.14" y="0">o </tspan><tspan class="cls-17" x="109.32" y="0">r</tspan><tspan x="116.23" y="0">each out </tspan><tspan class="cls-16" x="202.15" y="0">t</tspan><tspan x="208.8" y="0">o and unlock mo</tspan><tspan class="cls-17" x="363.48" y="0">r</tspan><tspan x="370.39" y="0">e hidden he</tspan><tspan class="cls-16" x="477.67" y="0">r</tspan><tspan x="484.57" y="0">oes. </tspan><tspan class="cls-18" x="-32.82" y="26">Y</tspan><tspan x="-20.88" y="26">our suppo</tspan><tspan class="cls-12" x="72.93" y="26">r</tspan><tspan x="80.54" y="26">t can go a long w</tspan><tspan class="cls-19" x="238.8" y="26">a</tspan><tspan x="250.07" y="26">y in helping us achi</tspan><tspan class="cls-20" x="427" y="26">ev</tspan><tspan x="448.03" y="26">e our goals.</tspan></text></g></g></svg>