<svg xmlns="http://www.w3.org/2000/svg" viewBox="0 0 263.96 227.17"><defs><style>.cls-1{fill:#c3c3c3;}.cls-2{fill:#dfdfdf;}.cls-3{fill:#2f2e41;}.cls-4{fill:#2ec571;}.cls-5{fill:#99616a;}.cls-6{fill:#ffafaf;}.cls-7{fill:#3491d4;}.cls-8{fill:#fff;}.cls-9{fill:#eabd0f;}</style></defs><g id="Layer_2" data-name="Layer 2"><g id="main"><path class="cls-1" d="M97.94,101.77l.32-.19c.27-1.3.55-2.6.82-3.9a4,4,0,0,0,6-.6A101.16,101.16,0,0,0,88.21,71.84a9.09,9.09,0,0,1-.13-12.07l.07-.09A43.15,43.15,0,0,0,99,54.18C87.55,35.74,65.67,21.09,60.46,0,44.81,16.81,43.05,22.73,27.4,39.54c0,0-14.82,13.37-18,20.56.79.82,7.83,2.8,8.1,4.43,5.36.43,14.66-5.46,14.66-5.46S11.85,80.71,5.69,94a5.09,5.09,0,0,0-.62,3.81A2.08,2.08,0,0,0,7.63,99a10.87,10.87,0,0,0-2.42,3.46,9.42,9.42,0,0,0,11.63-1.17l-2.57,4.81h0A7,7,0,0,1,18.75,115a7.11,7.11,0,0,1-1.88,3c-5.33,5-10.19,10.16-12,13.58-1.68,3.23,15.55,7.12,19.42,7s7.49-1.86,11-3.53a8.14,8.14,0,0,0,.88,4.62,14.79,14.79,0,0,0,11.33-1.83c-.2,4.32,7.23,6,8.93,2-.64,2.34,2.45,3.78,4.83,4.2,6.8,1.21,15,1.95,19.44-3.36,5.09,5.14,14.42,5,19.49-.08a2,2,0,0,0,1.39,2.61c1.33.27,2.62-.52,3.75-1.27l15.33-10.25L97.14,115.74A8.16,8.16,0,0,1,97.94,101.77Z"/><path class="cls-1" d="M58.47,227H55.14c-1.57-37.79-2.71-74,0-95.93h3.33Z"/><path class="cls-1" d="M238.3,219.09a1.08,1.08,0,0,0,.78-1.86l-.08-.3,0-.07a2.89,2.89,0,0,1,3.78-1.53,2.92,2.92,0,0,1,1.54,1.55c.87,2.1,2,4.2,2.25,6.41a8.56,8.56,0,0,1-.15,2.94A34.31,34.31,0,0,0,249.56,212a34.76,34.76,0,0,0-.2-3.68c-.12-1-.27-2-.47-3A34.71,34.71,0,0,0,242,190.69a9.12,9.12,0,0,1-3.83-4,6.78,6.78,0,0,1-.64-1.92,5.07,5.07,0,0,0,.56,0h.2a1.06,1.06,0,0,0,.87-1.73l-.24-.3-.37-.45,0,0-.42-.52a3.12,3.12,0,0,1,1-1,3.55,3.55,0,0,1,4.37,1,5.57,5.57,0,0,1,.86,4.65,12.45,12.45,0,0,1-1.71,3.81,3.25,3.25,0,0,1,.23.29,34.43,34.43,0,0,1,3.64,5.75,14.51,14.51,0,0,1,.86-6.72,24,24,0,0,1,3.75-5.4,3,3,0,0,1,5.29,1.46v.07c-.2.12-.4.24-.59.37a1.45,1.45,0,0,0-.4,2,1.42,1.42,0,0,0,1,.63h0a14.51,14.51,0,0,1-.39,2.17,14.88,14.88,0,0,1-7.42,9.35l-.36.18a35.16,35.16,0,0,1,1.91,9,34.19,34.19,0,0,1,0,5.45v-.07a8.87,8.87,0,0,1,3-5.14c2.34-1.92,5.64-2.63,8.17-4.18a1.67,1.67,0,0,1,2.31.51,1.7,1.7,0,0,1,.25,1.12v.07a9.26,9.26,0,0,0-1.1.53c-.2.11-.4.23-.59.36a1.45,1.45,0,0,0,.58,2.65h.09a14.43,14.43,0,0,1-2.66,4.18,14.91,14.91,0,0,1-10.83,4.75h0a35.61,35.61,0,0,1-2.38,7h-8.53a2.45,2.45,0,0,1-.08-.29,9.34,9.34,0,0,0,2.36-.14c-.64-.77-1.27-1.56-1.9-2.33l0-.05-1-1.19h0a14.2,14.2,0,0,1,.42-3.61Z"/><path class="cls-1" d="M35.83,219.09a1.08,1.08,0,0,1-.78-1.86l.08-.3,0-.07a2.89,2.89,0,0,0-3.78-1.53,2.92,2.92,0,0,0-1.54,1.55c-.87,2.1-2,4.2-2.25,6.41a8.56,8.56,0,0,0,.15,2.94A34.31,34.31,0,0,1,24.57,212a34.76,34.76,0,0,1,.2-3.68c.12-1,.27-2,.47-3a34.71,34.71,0,0,1,6.86-14.67,9.12,9.12,0,0,0,3.83-4,6.78,6.78,0,0,0,.64-1.92,5.07,5.07,0,0,1-.56,0h-.2a1.06,1.06,0,0,1-.87-1.73l.24-.3.37-.45,0,0,.42-.52a3.12,3.12,0,0,0-1-1,3.55,3.55,0,0,0-4.37,1,5.57,5.57,0,0,0-.86,4.65,12.45,12.45,0,0,0,1.71,3.81,3.25,3.25,0,0,0-.23.29,34.43,34.43,0,0,0-3.64,5.75,14.51,14.51,0,0,0-.86-6.72,24.28,24.28,0,0,0-3.74-5.4,3,3,0,0,0-5.3,1.46v.07c.2.12.4.24.59.37a1.45,1.45,0,0,1,.4,2,1.42,1.42,0,0,1-1,.63h0a14.51,14.51,0,0,0,.39,2.17,14.86,14.86,0,0,0,7.43,9.35l.35.18a35.16,35.16,0,0,0-1.91,9,34.19,34.19,0,0,0,0,5.45v-.07a8.87,8.87,0,0,0-3-5.14c-2.34-1.92-5.64-2.63-8.17-4.18a1.67,1.67,0,0,0-2.31.51,1.7,1.7,0,0,0-.25,1.12v.07a9.26,9.26,0,0,1,1.1.53c.2.11.4.23.59.36a1.45,1.45,0,0,1-.58,2.65h-.09A14.43,14.43,0,0,0,13.87,215a14.91,14.91,0,0,0,10.83,4.75h0a35.61,35.61,0,0,0,2.38,7h8.53a2.45,2.45,0,0,0,.08-.29,9.26,9.26,0,0,1-2.35-.14l1.89-2.33,0-.05,1-1.19h0a13.76,13.76,0,0,0-.42-3.61Z"/><rect class="cls-2" x="177.17" y="178.7" width="2.38" height="49.17" transform="translate(-62.11 79.55) rotate(-21.51)"/><rect class="cls-2" x="141.35" y="202.09" width="49.17" height="2.38" transform="translate(-84.03 283.13) rotate(-68.49)"/><ellipse class="cls-1" cx="171.22" cy="182.26" rx="15.73" ry="6.08"/><path class="cls-3" d="M184.35,184.84l-25.17-3a8.91,8.91,0,1,1,2.13-17.7h0l25.16,3a8.91,8.91,0,1,1-2.12,17.7Z"/><path class="cls-4" d="M179.41,121.56l3.69,3.57,4.72,2.1c-.42.28-2.59,29.53.21,30.75,2.38,1-.05,1.89,0,4.3s.39,7.38.39,7.38c-13.09,5-18.17,5.53-25.78-3.12a2.14,2.14,0,0,1,1.44-2.26c1.69-.65-.89-4.94.49-5.45s.23-6.41.23-6.41l-2.93-13.34-.71-2,3.7-11.35,4.18-1,2.06-3.66Z"/><path class="cls-5" d="M130.1,148.57a3.56,3.56,0,0,1,5.34,1l12.4-2.21-2.59,6-11.38,1.18a3.56,3.56,0,0,1-3.77-6Z"/><path class="cls-4" d="M142.92,153.83c1.09,1.13,2.16,1,3.21-.17l14.75-.82.05-.09c0-.09,3.16-6,5.92-11.5.42-.84.84-1.68,1.23-2.49.17-.35.34-.69.5-1,1.1-2.27,2-4.18,2.31-5.19a10.45,10.45,0,0,0,0-7l0,0,0,0a5.3,5.3,0,0,0-6.56,1,37.6,37.6,0,0,0-8.31,15.11l-.89,3.19-9.13,2.27a1.61,1.61,0,0,0-2.37.58Z"/><polygon class="cls-6" points="157.25 214.33 160.39 217.19 172.91 206.46 168.28 202.24 157.25 214.33"/><path class="cls-3" d="M157.39,212.58l.88.8,4.72,1.74.57,3.09h0a5.33,5.33,0,0,1,.34,7.52l-.11.12-10.11-9.21Z"/><path class="cls-3" d="M181,181l-2.7-5.22a9.27,9.27,0,0,1,10.07-8.9c2.94.3,5.63,2,6.59,7,2.45,12.68-27.21,37.77-27.21,37.77l-5.15-3.46-.12-3.45,3-1.71.11-2.94,2.87-1.23Z"/><circle class="cls-5" cx="173.02" cy="111.56" r="8.09"/><polygon class="cls-6" points="179.53 213.53 175.99 215.87 165.29 203.33 170.52 199.88 179.53 213.53"/><path class="cls-3" d="M182.7,216.37l-11.42,7.53-.1-.14a5.33,5.33,0,0,1,1.52-7.38h0l1-2.95,4.93-1,1-.66Z"/><path class="cls-3" d="M163.35,180.45l3.34-5.44a9.26,9.26,0,0,0-8.57-10.35c-2.94-.17-5.87,1.13-7.58,5.85-4.41,12.14,21,41.54,21,41.54l5.63-2.61.65-3.39-2.72-2.16.35-2.91-2.64-1.67Z"/><path class="cls-3" d="M175.78,113.49l0-.32A.59.59,0,0,0,175.78,113.49Z"/><path class="cls-3" d="M182.74,109.74a7.47,7.47,0,0,0-5.29-5.6,4.7,4.7,0,0,0-3.37-2.24,9.18,9.18,0,0,0-3.86.61l-2.31.76c-.63.21-1.4.69-1.19,1.32a.8.8,0,0,0-1.09.34.79.79,0,0,0,0,.81c-.3-.37-1-.13-1.13.31a1.65,1.65,0,0,0,.27,1.35,6.18,6.18,0,0,0,7.05,2.71,4.55,4.55,0,0,1,2.34-.48,2.19,2.19,0,0,1,1.48,1.59,5.82,5.82,0,0,1,.13,2,1,1,0,0,1,1.25-.5,1.46,1.46,0,0,1,.62,1.63,19.2,19.2,0,0,1-2,3.46,4.09,4.09,0,0,0-.9,1.63l4.13-.64.08.08C181.15,117.17,183.28,112.4,182.74,109.74Z"/><path class="cls-5" d="M162.93,166.7a3.54,3.54,0,0,1,4.6-2,3.25,3.25,0,0,1,.56.28l9.77-8,.65,6.51-9.38,6.55a3.56,3.56,0,0,1-6.2-3.4Z"/><path class="cls-4" d="M178.38,164.76c1.18.42,2.09.11,2.46-1.69l11.08-7.58v-.1c1.45-.11,1.12-21.47-1.1-22.51a10.46,10.46,0,0,0-3.39-6.08l0,0h-.06a5.3,5.3,0,0,0-5.24,4.08,37.65,37.65,0,0,0,.07,17.25l.77,3.22-4.83,4.09c-1.34-.35-1.93.19-1.83,1.55Z"/><rect class="cls-1" x="91.45" y="181.91" width="2.22" height="45.88" transform="translate(-68.66 48.2) rotate(-21.51)"/><rect class="cls-1" x="58.03" y="203.73" width="45.88" height="2.22" transform="translate(-139.3 205.06) rotate(-68.49)"/><ellipse class="cls-1" cx="85.9" cy="185.22" rx="14.68" ry="5.67"/><path class="cls-6" d="M77,119.85a7.94,7.94,0,0,0,9.09,6.59,5.42,5.42,0,0,0,.7-.14,7.94,7.94,0,0,0,5.89-9,7.84,7.84,0,0,0-.51-1.82A7.94,7.94,0,0,0,77,119.85Z"/><polygon class="cls-6" points="119.03 220.28 122.6 219.22 120.24 204.64 114.97 206.21 119.03 220.28"/><path class="cls-6" d="M97.94,214.53l.66.56q.66.57,1.32,1.11l.68.55h0l.36.15.77-1.33.35-.62.5-.87.91-1.6,4.8-8.4L103.24,202l-.32.77h0l-.16.38-3,7.17-.62,1.47,0,0-.37.88-.32.76-.36.84Z"/><path class="cls-3" d="M71.51,178.16c.25.59.51,1.17.77,1.76.48,1.08,1,2.16,1.5,3.22h0a6.89,6.89,0,0,0,1.14,1.15l0,.05a5.25,5.25,0,0,0,1,.6l.4.17c.47.2.94.37,1.41.54.84.29,1.68.53,2.51.74l.21.05a40.58,40.58,0,0,0,10.55.82c1.8-.06,3.65-.17,5.56-.29l1.89-.12h.15l2.77-.14c1.19-.06,2.41-.1,3.68-.12l-.36,1.72a13.15,13.15,0,0,1-1.45,3.78,6.86,6.86,0,0,0-.9,5.28l.23,1.3a4.23,4.23,0,0,0-.15,3.78l.06.14-5,8.38-.32.54,1.81.29,2.22.36,3.78.59,7.17-10.06.35-.48v0l2.76-21.08a5.46,5.46,0,0,0,0-.57,6.47,6.47,0,0,0-1.74-4.68,6.26,6.26,0,0,0-4.38-2l-1.9-.05-3.89-.11-2.74-.08h0l-8.07-.23-.2-2.4-.1-.06-3.14-1.75-10.85-6,0,0-.71-.4-.11.14-.1.11a23.14,23.14,0,0,0-2.49,3.94,66,66,0,0,0-3.07,7c0,.1-.07.2-.1.28l0,0s0,.06,0,.07A7,7,0,0,0,71.51,178.16Z"/><path class="cls-3" d="M72.25,170.35a3.68,3.68,0,0,1,.21-.45,33.17,33.17,0,0,1,1.89-3.2c.77-1.18,1.68-2.43,2.73-3.77.51-.64,1.06-1.32,1.63-2l.9-1.07,0,0,.08-.11L90.9,163l3.26,1.23.81,2.16,0,.54h0l-.06,1.45h0l-.07,1.92h0l6.43.18,6.62.19,3.56.1a6.26,6.26,0,0,1,4.38,2,6.47,6.47,0,0,1,1.74,4.68,4.53,4.53,0,0,1,0,.52l2,8.32a50.91,50.91,0,0,1,1.4,15.21l1.19,8.1-.35,0-5.18-.33-1.37-.09L113,204.36q-.39-.83-.72-1.68a25.27,25.27,0,0,1-.89-2.84l-4-16.32h-1.51c-2.31,0-4.52,0-6.63-.13a77.69,77.69,0,0,1-17.8-2.65c-1.43-.41-2.81-.86-4.12-1.37-.49-.18-1-.37-1.43-.57l-.32-.14a6.28,6.28,0,0,1-3.71-4.75A6.4,6.4,0,0,1,72.25,170.35Z"/><path class="cls-3" d="M118.33,217.85l3.86-1.15.61-.18.54,2.35,6.06,2.38a1.5,1.5,0,0,1,.86,1.95,1.53,1.53,0,0,1-1.06.92l-6.53,1.53L121,223.59l.1,2.42-2.45.58-1.26-8.46Z"/><polygon class="cls-3" points="97.61 210.96 97.29 211.5 97.52 211.54 97.61 210.96"/><path class="cls-3" d="M98.75,211.86l3.55,1.9.56.3-1.26,2.05,2.63,5.95a1.51,1.51,0,0,1-2.17,1.9l-5.71-3.51.26-2.63L95,219.61l-2.16-1.32,5.06-6.89Z"/><path class="cls-6" d="M132.34,165.76A2.71,2.71,0,0,1,129,164a2.63,2.63,0,0,1-.1-.47l-9.39-2L123,158l8.37,2.47a2.72,2.72,0,0,1,.93,5.32Z"/><path class="cls-7" d="M96,161.37,78.69,146.56a6.81,6.81,0,0,1-.75-9.61h0a6.81,6.81,0,0,1,9.61-.75,7.32,7.32,0,0,1,.87.89l12.73,15.74,17.07,4.61-.44,5.64Z"/><path class="cls-7" d="M75.81,146.16l-.37,13.45c-5,8.53-5.63,12.68-4.23,14.89l23.45-7.89.35-.83-1.59-5.71,2-6.2c.34-.65,5-4.63.64-12.17l-8.87-11.95-3.2-.26a8,8,0,0,1-5.07,5.19C74.12,139.06,74.82,139.77,75.81,146.16Z"/><path class="cls-3" d="M93.72,114.12a2.72,2.72,0,0,1-1.47,1.58,12.21,12.21,0,0,0-1.75-1.38,10.42,10.42,0,0,1,.66,1.71h0a9.15,9.15,0,0,1-3.36-.4l.15.14A4.63,4.63,0,0,1,85.29,120c-.88.4-2,.68-2.25,1.62s.53,1.58,1.22,2.08,1.51,1,1.62,1.89c.19,1.38-1.58,2.25-1.88,3.61-.27,1.17.63,2.28,1.62,2.94a12.94,12.94,0,0,1,2.92,2c1.35,1.63.92,4.22-.48,5.81a4.45,4.45,0,0,1-.48.49,13,13,0,0,0-3-2.73,10.42,10.42,0,0,1,.66,1.71,11.29,11.29,0,0,1,.42,2.32,15.78,15.78,0,0,1-3.14,1.09,30.48,30.48,0,0,1-8.35.86,15.22,15.22,0,0,1-3.8-.54,12.72,12.72,0,0,0,.48-5.55,11.05,11.05,0,0,1-3.17,4.21,5.44,5.44,0,0,1-2.15-3.65,7.88,7.88,0,0,1,1.72-5,16,16,0,0,0,2.58-4.69c.64-2.53-.34-5.17-.46-7.78a11.94,11.94,0,0,1,11.35-12.51c.3,0,.6,0,.9,0a24.38,24.38,0,0,1,4.4.67l2.34.51a16.56,16.56,0,0,1,2.83.8,4.8,4.8,0,0,1,2,1.5A2.77,2.77,0,0,1,93.72,114.12Z"/><path class="cls-1" d="M196.67,163.42h-134v-.15a6.06,6.06,0,0,1,6.07-6.06H190.6a6.07,6.07,0,0,1,6.07,6.06Z"/><polygon class="cls-1" points="215.31 225.81 213.25 226.66 196.43 162.49 198.49 161.64 215.31 225.81"/><polygon class="cls-1" points="184.84 225.81 186.9 226.66 203.72 162.49 201.66 161.64 184.84 225.81"/><polygon class="cls-1" points="83.01 225.81 80.94 226.66 64.12 162.49 66.19 161.64 83.01 225.81"/><polygon class="cls-1" points="52.53 225.81 54.6 226.66 71.42 162.49 69.35 161.64 52.53 225.81"/><path class="cls-7" d="M153.7,152.51a.9.9,0,0,0-.56-1.13l-.12,0h-.14l-5.71-.15a.94.94,0,0,0-.68.29l-.24,0a1.35,1.35,0,1,0-.07,2.7h0a1.53,1.53,0,0,0,.6-.12l.52,5.61a.88.88,0,0,0,.84.65l3.7.09a.89.89,0,0,0,.87-.6Zm-7.51,1.26a1,1,0,0,1,.05-1.93h0a.94.94,0,0,0,0,.47l.38,1.34A.89.89,0,0,1,146.19,153.77Z"/><path class="cls-8" d="M153,151.35c-.12.7-1.49,1.19-3.13,1.1s-2.75-.6-3-1.23a1.07,1.07,0,0,1,.25,0l5.71.15Z"/><path class="cls-7" d="M134.71,150.29a.9.9,0,0,0-.57-1.13l-.11,0h-.14l-5.71-.15a.92.92,0,0,0-.68.29l-.24,0a1.35,1.35,0,0,0-.07,2.7,1.45,1.45,0,0,0,.59-.12l.53,5.61a.88.88,0,0,0,.84.65l3.7.09a.89.89,0,0,0,.87-.6Zm-7.51,1.26a1,1,0,0,1,0-1.93h0a.94.94,0,0,0,0,.47l.38,1.34A.89.89,0,0,1,127.2,151.55Z"/><path class="cls-8" d="M134,149.13c-.13.7-1.49,1.19-3.13,1.1s-2.75-.6-3-1.23a1.07,1.07,0,0,1,.25,0l5.71.15Z"/><path class="cls-6" d="M131.91,159.75a2.7,2.7,0,0,1-3.54-1.43,1.9,1.9,0,0,1-.15-.46l-9.55-1,3.18-3.85,8.58,1.57a2.72,2.72,0,0,1,1.48,5.2Z"/><path class="cls-7" d="M95.29,158.28,76.5,145.37a6.82,6.82,0,0,1-1.76-9.48h0a6.82,6.82,0,0,1,9.48-1.76,8.14,8.14,0,0,1,1,.8l14.31,14.32L117,152l.15,5.65Z"/><path class="cls-1" d="M261.77,227.08.35,227.17a.36.36,0,0,1,0-.71l261.42-.09a.36.36,0,0,1,0,.71Z"/><circle class="cls-9" cx="145.72" cy="29.38" r="10.59"/><path class="cls-1" d="M169.43,24.37A5.29,5.29,0,0,0,165,20.68h-.06l-.1,0a13.22,13.22,0,0,0-8.5,1.85,16.68,16.68,0,0,1-8.19,2.34h0a5.23,5.23,0,0,0-4.68,3.77.6.6,0,0,0,.27.67,2.73,2.73,0,0,0,1.11.57c.87.18,1.76.35,2.64.51,1.73.3,3.47.54,5.22.73a76,76,0,0,0,10.67.4,8,8,0,0,0,3.42-.6,5.06,5.06,0,0,0,2-1.71A5.75,5.75,0,0,0,169.43,24.37Z"/><path class="cls-1" d="M209.84,63.07a5.09,5.09,0,0,0,2,1.71,8.25,8.25,0,0,0,3.41.6A77.67,77.67,0,0,0,225.9,65c1.75-.19,3.48-.44,5.21-.74.89-.15,1.77-.32,2.65-.51a2.72,2.72,0,0,0,1.11-.56.6.6,0,0,0,.27-.67,5.24,5.24,0,0,0-4.68-3.78h-.05a16.54,16.54,0,0,1-8.19-2.33,13.24,13.24,0,0,0-8.51-1.85l-.09,0a.16.16,0,0,0-.07,0,5.24,5.24,0,0,0-4.43,3.68A5.8,5.8,0,0,0,209.84,63.07Z"/><path class="cls-1" d="M147.42,38.49A5.29,5.29,0,0,0,143,34.8h-.07l-.09,0a13.2,13.2,0,0,0-8.5,1.85A16.58,16.58,0,0,1,126.13,39h-.06a5.24,5.24,0,0,0-4.68,3.77.62.62,0,0,0,.28.67,2.64,2.64,0,0,0,1.1.57c.88.18,1.77.35,2.65.51,1.73.3,3.47.54,5.21.73a77.8,77.8,0,0,0,10.68.41,8.14,8.14,0,0,0,3.42-.61,5.06,5.06,0,0,0,2-1.71A5.79,5.79,0,0,0,147.42,38.49Z"/></g></g></svg>