<svg xmlns="http://www.w3.org/2000/svg" viewBox="0 0 265.28 248.99"><defs><style>.cls-1{fill:#c3c3c3;}.cls-2{fill:none;stroke:#3f3d56;stroke-miterlimit:10;}.cls-3{fill:#eabd0f;}.cls-4{fill:#ffb1b1;}.cls-5{fill:#2f2e41;}.cls-6{fill:#c9c6da;}.cls-7{fill:#3491d4;}.cls-8{fill:#2ec571;}</style></defs><g id="Layer_2" data-name="Layer 2"><g id="text"><ellipse class="cls-1" cx="132.72" cy="235.14" rx="91.16" ry="13.85"/><path class="cls-1" d="M165.44,41.12A21.28,21.28,0,0,1,186.69,21q1,0,1.92.09a28.26,28.26,0,0,1,48.87,0c.54,0,1.07-.07,1.62-.07a21.28,21.28,0,0,1,21.25,20.17"/><path class="cls-2" d="M169.87,39.48a21.28,21.28,0,0,1,21.25-20.17c.65,0,1.29,0,1.92.09a28.29,28.29,0,0,1,48.88,0c.53,0,1.07-.07,1.61-.07a21.28,21.28,0,0,1,21.25,20.17"/><path class="cls-1" d="M18.94,99.5A14,14,0,0,1,33,86.19c.43,0,.85,0,1.27.06a18.66,18.66,0,0,1,32.26,0c.35,0,.7,0,1.06,0a14,14,0,0,1,14,13.31"/><path class="cls-2" d="M21.87,98.42a14,14,0,0,1,14-13.31q.63,0,1.26.06a18.66,18.66,0,0,1,32.26,0c.36,0,.71,0,1.07,0a14,14,0,0,1,14,13.31"/><path class="cls-1" d="M0,32.18A18.83,18.83,0,0,1,18.81,14.33c.58,0,1.14,0,1.7.07a25,25,0,0,1,43.27,0c.47,0,1-.05,1.43-.05A18.83,18.83,0,0,1,84,32.18"/><path class="cls-2" d="M3.92,30.73A18.85,18.85,0,0,1,22.74,12.88c.57,0,1.13,0,1.69.08a25,25,0,0,1,43.27,0c.47,0,1-.06,1.43-.06A18.83,18.83,0,0,1,87.94,30.73"/><path class="cls-3" d="M129.56,63.54c7.28-3.87,16.26-2.94,24-.11s14.73,7.38,22.24,10.78A82,82,0,0,0,248.58,71c2,4.82-.3,10.27-2.79,14.85s-5.33,9.54-4.41,14.67c1.18,6.57,8,10.59,10.68,16.7,2.56,5.8,1,12.54-1.07,18.51s-4.83,12-4.58,18.31,4.75,13.08,11.08,13.18c-9.4,1.32-19,2.64-28.36,1s-18.62-6.73-22.85-15.24c-2.11-4.25-2.88-9.11-5.32-13.19-4.16-6.94-12.29-10.29-20-12.84s-15.9-5-21.24-11.09c-5.09-5.79-6.61-13.76-9.24-21a66.71,66.71,0,0,0-22.64-30.43"/><polygon class="cls-4" points="148.92 210.64 150.16 219.34 156.38 218.72 155.75 209.71 148.92 210.64"/><polygon class="cls-4" points="119.39 210.64 118.15 219.34 111.93 218.72 112.56 209.71 119.39 210.64"/><path class="cls-5" d="M110.38,120.51A23,23,0,0,0,106,137.29c1.24,10.26,3.42,33.57,3.42,33.57L111,212.19l10-.62,1.55-35.12,5-28.28,13.37,33s6.52,30.76,6.83,30.76S157,211,157,211l-4.35-36.36s-6.84-52.83-10.88-53.77S110.38,120.51,110.38,120.51Z"/><path class="cls-5" d="M157,217.48s-5.6-3.73-7.77.62-.31,7.46-.31,7.46,1.86,1.24.93,2.48-1.24,9.33,6.84,8.08,4-9.63,4-9.63Z"/><path class="cls-5" d="M111.31,217.48s5.6-3.73,7.77.62.31,7.46.31,7.46-1.86,1.24-.93,2.48,1.24,9.33-6.84,8.08-4-9.63-4-9.63Z"/><path class="cls-4" d="M118,60.06s2.8,7.77.63,12.13S122,81.51,122,81.51s14.61-7.46,12.75-11.19-5-8.7-4.35-11.81Z"/><circle class="cls-4" cx="123.43" cy="53.07" r="9.95"/><path class="cls-6" d="M116.28,71.72s10,8.3,17.43-3.46l7.75,4.39,4,47.24s-22.69,13-33.57,1.87l1.56-43.83Z"/><path class="cls-7" d="M140.48,122.69l0,0Z"/><path class="cls-7" d="M147.66,71.16,135.5,66.84a2.16,2.16,0,0,1-.48-.24l0,0a2.24,2.24,0,0,0-3.33,1.13,3.68,3.68,0,0,1-.24.55c-.51,1-3.23,3-5.44,4l-2.55-.67c-2.88-.72-4-4.55-4-4.55l-14,9.31,4,22.93s-4.09,17-.73,21c4.82,5.8,12.4,5.8,12.4,5.8l0-.07c8.89,1.45,19.27-3.44,19.39-3.35l5.77-5.61a2.29,2.29,0,0,0,.67-1.54l.13-5.28,2.08-36.88A2.22,2.22,0,0,0,147.66,71.16Z"/><path class="cls-4" d="M108.51,124.86l4,2.8s-5.12,5.44-6.06,4.51a2.56,2.56,0,0,1-.77-2l-.93-2.18Z"/><path class="cls-4" d="M135.37,124.26,134,126.42s-4,1.86-3.11,3.1,8.7,4,10.26,1.25l1.55-2.8Z"/><path class="cls-7" d="M106.18,76.23h0a1.47,1.47,0,0,0-1.25,1.23l-3.39,22c0,.07,0,.13,0,.19-.19.65-1.25,4.94.18,14,1,6.51,2,11.54,2.6,14.23a1.48,1.48,0,0,0,2.31.89l4.11-2.95a1.48,1.48,0,0,0,.51-1.73l-2.56-6.66a1.4,1.4,0,0,1-.08-.73L112.5,88a1.63,1.63,0,0,0-.12-.82l-4.65-10.11A1.46,1.46,0,0,0,106.18,76.23Z"/><path class="cls-7" d="M147.59,71.51h0a4.31,4.31,0,0,1,2.8,1.56c1.69,2.1,4.7,6.36,5.36,10.77.79,5.23.69,18.62.64,22.72a4.29,4.29,0,0,1-.65,2.23L144.5,126.61a4.27,4.27,0,0,1-6.11,1.19l-1-.7a4.27,4.27,0,0,1-1.23-5.57L144.37,107a4.3,4.3,0,0,0,.45-3.06l-4.63-20.12a4.25,4.25,0,0,1,.17-2.47l2.7-7.15A4.29,4.29,0,0,1,147.59,71.51Z"/><path class="cls-5" d="M132.92,44.08A11.66,11.66,0,0,0,126.31,39l-2,1.62.78-1.88a10.29,10.29,0,0,0-2-.12L121.26,41l.75-2.26a11.53,11.53,0,0,0-7.94,4.72c-2.31,3.34-2.7,8-.43,11.34.63-1.92,1.39-3.72,2-5.64a5.64,5.64,0,0,0,1.48,0l.76-1.78.21,1.7c2.36-.2,5.85-.65,8.09-1.07L126,46.7l1.3,1.08c.68-.15,1.09-.3,1.06-.41,1.66,2.68,3.3,4.39,5,7.07C133.92,50.66,135,47.52,132.92,44.08Z"/><ellipse class="cls-4" cx="132.37" cy="52.76" rx="0.67" ry="1.35"/><path class="cls-8" d="M81.18,215.77a1.45,1.45,0,0,1-1.52-1.39,1.47,1.47,0,0,1,.46-1.14l.1-.4,0-.09a3.92,3.92,0,0,0-7.23,0c-1.18,2.85-2.69,5.7-3.06,8.71a11.44,11.44,0,0,0,.2,4,46.58,46.58,0,0,1-4.23-19.33,44.28,44.28,0,0,1,.28-5c.15-1.36.36-2.71.64-4.06a47.07,47.07,0,0,1,9.33-19.94,12.54,12.54,0,0,0,5.21-5.41,9.55,9.55,0,0,0,.87-2.61l-.77.07h-.27a1.44,1.44,0,0,1-1.51-1.38,1.47,1.47,0,0,1,.32-1l.33-.41.51-.62,0-.06.57-.71a4.12,4.12,0,0,0-1.37-1.32,4.81,4.81,0,0,0-5.94,1.39,7.56,7.56,0,0,0-1.17,6.33,16.72,16.72,0,0,0,2.32,5.17l-.32.39A47.65,47.65,0,0,0,70,184.86a19.68,19.68,0,0,0-1.18-9.15c-1.12-2.71-3.23-5-5.09-7.35a4,4,0,0,0-7.2,2v.1c.28.16.55.32.81.5a2,2,0,0,1-.8,3.6h0a19.81,19.81,0,0,0,.52,2.95,20.32,20.32,0,0,0,10.11,12.72l.48.24A48.49,48.49,0,0,0,65,202.72a45.7,45.7,0,0,0,0,7.4V210a12.09,12.09,0,0,0-4.14-7c-3.18-2.61-7.68-3.58-11.11-5.68a2.27,2.27,0,0,0-3.14.69,2.21,2.21,0,0,0-.34,1.52v.09a13.62,13.62,0,0,1,1.49.72c.28.16.55.32.81.5a2,2,0,0,1,.55,2.75,2,2,0,0,1-1.35.86h-.12a19.69,19.69,0,0,0,3.63,5.69A20.28,20.28,0,0,0,66,216.65h0a48.88,48.88,0,0,0,3.24,9.48h11.6l.12-.39a13.27,13.27,0,0,1-3.21-.19l2.58-3.18.05-.06,1.32-1.62h0a19.41,19.41,0,0,0-.57-4.92Z"/></g></g></svg>