<svg xmlns="http://www.w3.org/2000/svg" viewBox="0 0 32.27 32.27"><defs><style>.cls-1{fill:none;stroke:#fff;stroke-miterlimit:10;stroke-width:2px;}.cls-2{fill:#efefef;}</style></defs><g id="Layer_2" data-name="Layer 2"><g id="main"><circle class="cls-1" cx="16.13" cy="16.13" r="15.13"/><path class="cls-2" d="M19.05,13.88a9.19,9.19,0,0,1-1.74,0s0-1.49,0-1.86a1.52,1.52,0,0,1,.71-1.33,4.54,4.54,0,0,1,2.92-.6S21,8,21,7.79s.12-.76,0-.94c-.27-.5-1.85-.17-2.33-.1a7.65,7.65,0,0,0-2.27.57,4.83,4.83,0,0,0-2.65,4.06c-.08.59-.13,2.42-.13,2.42-.54,0-2.42.15-2.42.15v1.44c0,.49,0,1.93,0,1.93h2.36c0,.2.06,4.11.07,4.48.06,1.81,0,3.22,0,4.59l3.64,0c.07-1.61-.07-6-.08-6.46a17.53,17.53,0,0,0,.05-2.51s1.83-.06,1.95-.06c.7,0,1.26,0,1.87,0,0-.1,0-2.37,0-3.36A17.73,17.73,0,0,0,19.05,13.88Z"/></g></g></svg>