<svg xmlns="http://www.w3.org/2000/svg" viewBox="0 0 177.41 177.78"><defs><style>.cls-1{fill:#eabd0f;}.cls-2{fill:#99616a;}.cls-3{fill:#3491d4;}.cls-4{fill:#2f2e41;}</style></defs><g id="Layer_2" data-name="Layer 2"><g id="main"><path class="cls-1" d="M88.71,0A88.7,88.7,0,0,0,37.09,160.8a86.22,86.22,0,0,0,8,5.15l1.6.88a88.71,88.71,0,0,0,73.67,4.74c2.53-1,5-2.06,7.42-3.25A88.7,88.7,0,0,0,88.71,0Z"/><polygon class="cls-2" points="99.14 129.44 103.4 102.85 74.68 91.15 70.43 131.56 99.14 129.44"/><path class="cls-3" d="M128,168.73c-2.46,1.2-5,2.29-7.53,3.25a88.85,88.85,0,0,1-15.76,4.36,91.25,91.25,0,0,1-16.12,1.44A90.27,90.27,0,0,1,67,175.16c-2.75-.68-5.53-1.5-8.27-2.46l-.86-.31a88.34,88.34,0,0,1-9.93-4.31c-.44-.21-.87-.43-1.3-.67s-1-.5-1.43-.77-1.22-.68-1.82-1c-2-1.17-4-2.44-5.94-3.76l-.12-.09-.34-.23c.07-.37.14-.71.2-1,.24-1.18.39-1.83.39-1.83l12.86-26.56,3.58-7.4,1.75-.72,13.2-5.42h32.25l10.17,4.2s.06.2.16.57a335.56,335.56,0,0,0,16.11,44.52l.39.85Z"/><circle class="cls-2" cx="91.88" cy="82.11" r="29.28"/><path class="cls-3" d="M55.77,123.76l-.05.25-8.93,42.45-.07.37-.13.58c-.48-.24-1-.5-1.43-.77s-1.22-.68-1.82-1c-2-1.17-4-2.44-5.94-3.76l-.12-.09-.34-.23c-1.45-1-2.88-2.08-4.26-3.18l0,0a88,88,0,0,1-7.14-6.42c-1.48-1.48-2.89-3-4.24-4.55l.2-.86,0-.08.26-1.1a25,25,0,0,1,19.63-18.81l12.87-2.46Z"/><path class="cls-3" d="M147,156.32A89.18,89.18,0,0,1,134.83,165c-.42.26-.85.5-1.27.75-1.82,1.05-3.68,2-5.56,2.95-2.46,1.2-5,2.29-7.53,3.25l-.19-.93-10.09-47.94,1.31.25,13.08,2.51a25,25,0,0,1,19.64,18.81l2.5,10.6.25,1Z"/><path class="cls-4" d="M125.61,89.94c-.76,2.84-4.59,15.51-14.39,18.18-1.93.53-6.52,1.13-5.3,0l.81-.76c10.64-10,15-16.12,13-29.69C118.46,69,104.13,61.18,96.07,60.4a13.47,13.47,0,0,0-10.61,3.79c-4.72,4.88-3.94,19.87-6.57,28.68a11.26,11.26,0,0,1-3,5.43c-.85.72-1.39-.2-1.79-1.7-.85-3.21-1.07-9.07-2.27-7.42-3.49,4.81-.17,11.18.84,13.63.2.51.42,1,.63,1.45h0c.12.27.25.53.37.78h0c3.35,6.84,7.38,9.29,10.93,13.55a26,26,0,0,1,3.89,6.2,27.45,27.45,0,0,1,1.79,5.31c2,8.78-.38,16.76-1,18.93-1.37,4.52-3.72,12.28-10.6,16.66-8.65,5.5-16.55.65-20.32,5.88l-.14.18a5.89,5.89,0,0,0-.37.64,88.34,88.34,0,0,1-9.93-4.31c-.44-.21-.87-.43-1.3-.67s-1-.5-1.43-.77c0-.36,0-.73,0-1.1a77,77,0,0,1,1.72-20.3,109.2,109.2,0,0,1,3.56-13.11,42.31,42.31,0,0,1,3.85-8.08A36.43,36.43,0,0,1,59,118c4.1-4.29,7.75-6.08,8.33-10.61.83-6.46-5.9-8.4-8.33-18.18-1.66-6.68-3.39-16.31-1.71-22.8,1.59-6.13,3-11.45,7.58-16.67,1.1-1.24,10.2-9.93,20.74-11.36,4.85-.65,9.18,5.56,15,6.9,6.75,1.54,10.62,2.42,14.39,5.3,6.38,4.88,8.18,12.17,9.85,18.94,1.31,5.3,3,12.15.76,20.45Z"/></g></g></svg>