<svg xmlns="http://www.w3.org/2000/svg" viewBox="0 0 144.86 33.52"><defs><style>.cls-1{fill:none;stroke:#fff;stroke-miterlimit:10;stroke-width:2px;}.cls-2{fill:#efefef;}.cls-3{fill:#2ec571;}</style></defs><g id="Layer_2" data-name="Layer 2"><g id="main"><circle class="cls-1" cx="129.15" cy="16.39" r="14.71"/><path class="cls-2" d="M132.44,13.7a4.44,4.44,0,0,0-6-.71c-1.37.85-2,3.09-1.74,4.47a3.48,3.48,0,0,0,.12.56,4.43,4.43,0,0,0,6.62,2.39,4.75,4.75,0,0,0,2-4.39A5.07,5.07,0,0,0,132.44,13.7Zm-.55,3.59a2.84,2.84,0,0,1-5.34.56,3,3,0,0,1,.07-2.4,2.72,2.72,0,0,1,3.49-1.4A3.11,3.11,0,0,1,131.89,17.29Z"/><path class="cls-2" d="M134.38,11.25c-.69-.37-1.26-.21-1.49.36A1,1,0,0,0,134,13.15,1.1,1.1,0,0,0,134.38,11.25Z"/><path class="cls-2" d="M137.75,13.64a6.11,6.11,0,0,0-1.34-4.18,5.41,5.41,0,0,0-3.08-1.38,39.7,39.7,0,0,0-8.65,0A4.62,4.62,0,0,0,121,10.55a10.45,10.45,0,0,0-.52,4c0,1,0,2.05,0,3.07a14.87,14.87,0,0,0,.61,5.06,3,3,0,0,0,.56.92,4,4,0,0,0,1.93,1.35,11.73,11.73,0,0,0,3.35.23c2.59,0,5.6.54,8.08-.43,2-.8,2.76-2.74,2.71-4.76,0-1.12,0-2.23,0-3.34C137.72,15.71,137.78,14.67,137.75,13.64Zm-1.49,3.94c0,1,.06,1.87,0,2.64-.14,1.75-.48,2.73-2.45,3.2a15.05,15.05,0,0,1-4.29.2c-1-.05-2.05-.05-3.08,0a4.92,4.92,0,0,1-2.57-.4c-1.89-1-1.94-4.52-1.87-6.5,0-.43,0-.85,0-1.26-.06-2.51.5-5.75,3.36-5.83,2.23-.06,4.45-.16,6.67-.08a4.62,4.62,0,0,1,2.9.79C136.73,11.87,136.27,15.52,136.26,17.58Z"/><circle class="cls-1" cx="91.09" cy="16.76" r="15.13"/><path class="cls-2" d="M94,14.51a10.11,10.11,0,0,1-1.74,0s0-1.49,0-1.86A1.55,1.55,0,0,1,93,11.31a4.57,4.57,0,0,1,2.92-.59s0-2.13.06-2.3.12-.76,0-1c-.27-.49-1.85-.16-2.33-.09A7.65,7.65,0,0,0,91.42,8,4.83,4.83,0,0,0,88.76,12c-.07.59-.13,2.42-.13,2.42-.54.05-2.42.15-2.42.15V16c0,.49,0,1.93,0,1.93l2.37,0c0,.21,0,4.12.07,4.49.06,1.81,0,3.22,0,4.59l3.65,0c.07-1.61-.08-6-.08-6.46a16.22,16.22,0,0,0,0-2.51s1.84-.06,2-.06c.71,0,1.27,0,1.87,0,0-.09,0-2.37,0-3.35A17.87,17.87,0,0,0,94,14.51Z"/><path class="cls-1" d="M32.33,16.67A15.67,15.67,0,1,0,1,16.67v.19a15.67,15.67,0,0,0,31.33,0v-.19Z"/><path class="cls-2" d="M23.64,13.62a3.5,3.5,0,0,0-.57-1.53,2,2,0,0,0-1.45-.65c-2-.15-2.72-.15-2.72-.15H16.56c-1.26,0-3,0-5,.15a2,2,0,0,0-1.44.65,3.5,3.5,0,0,0-.57,1.53,24,24,0,0,0-.15,2.49v1.17a23.73,23.73,0,0,0,.15,2.49,3.46,3.46,0,0,0,.57,1.53,2.36,2.36,0,0,0,1.59.66c1.15.12,4.91.15,4.91.15s3,0,5.05-.15a2,2,0,0,0,1.45-.66,3.46,3.46,0,0,0,.57-1.53s.14-1.24.14-2.49V16.11C23.78,14.87,23.64,13.62,23.64,13.62Z"/><polygon class="cls-3" points="14.3 19.97 20.06 16.52 14.3 13.06 14.3 19.97"/><circle class="cls-1" cx="54.28" cy="16.5" r="14.89"/><path class="cls-2" d="M56.09,15.15l6.43-7.31H61l-5.58,6.35L51,7.84H45.81l6.74,9.6L45.81,25.1h1.53l5.89-6.7,4.7,6.7h5.15ZM54,17.52l-.68-.95L47.89,9h2.33l4.39,6.13.68,1L61,24H58.65Z"/></g></g></svg>