<svg xmlns="http://www.w3.org/2000/svg" viewBox="0 0 204.07 183.16"><defs><style>.cls-1{fill:#c3c3c3;}.cls-2{fill:#2ec571;}.cls-3{fill:none;stroke:#3f3d56;stroke-miterlimit:10;}.cls-4{fill:#3491d4;}.cls-5{fill:#bd9806;}.cls-6{fill:#ff6580;}.cls-7{fill:#2f2e41;}.cls-8{fill:#99616a;}.cls-9{fill:#f4b7b7;}.cls-10{fill:#eabd0f;}</style></defs><g id="Layer_2" data-name="Layer 2"><g id="main"><ellipse class="cls-1" cx="106.5" cy="172.97" rx="67.01" ry="10.18"/><path class="cls-2" d="M148.6,136.93a4.93,4.93,0,1,0,3.36-9.26,5,5,0,0,0-2.71-.19l.13,2.54-1.2-2.17a4.89,4.89,0,0,0-2.53,2.77,4.73,4.73,0,0,0-.29,1.33A4.93,4.93,0,0,0,148.6,136.93Z"/><path class="cls-3" d="M154.53,166.35c-.42-2.16,1.42-4.07,3.23-5.31s3.93-2.47,4.55-4.57c.89-3-1.76-5.81-3.82-8.21a29.58,29.58,0,0,1-3.91-5.81,7.93,7.93,0,0,1-.94-2.65,9.22,9.22,0,0,1,.7-4q2.17-6.41,4.65-12.7"/><path class="cls-3" d="M148.8,136.28a4.93,4.93,0,1,0,.66-9.45l.12,2.54-1.2-2.18a4.91,4.91,0,0,0-2.53,2.78,4.71,4.71,0,0,0-.28,1.33A4.91,4.91,0,0,0,148.8,136.28Z"/><path class="cls-2" d="M153.93,122.26a4.91,4.91,0,0,1,3.55-3.12l.4,2.41.76-2.53a4.93,4.93,0,1,1-5,4.85,4.67,4.67,0,0,1,.29-1.61Z"/><path class="cls-3" d="M154.2,121.39a4.91,4.91,0,0,1,3.55-3.12l.4,2.41.76-2.53a4.93,4.93,0,1,1-5,4.85A5.2,5.2,0,0,1,154.2,121.39Z"/><path class="cls-2" d="M157.62,148.31a4.92,4.92,0,0,0,4.36-8.76l-.57,1.94-.41-2.44h0a4.93,4.93,0,0,0-3.37,9.26Z"/><path class="cls-3" d="M157.86,147.43a4.93,4.93,0,0,0,4.36-8.77l-.58,2-.41-2.44h0a4.93,4.93,0,1,0-3.36,9.26Z"/><path class="cls-2" d="M152.49,156.5a4.94,4.94,0,1,0,.95-3.86l2.2,3.3-3-1.75A5,5,0,0,0,152.49,156.5Z"/><path class="cls-3" d="M152.7,155.84a4.92,4.92,0,1,0,1-3.86l2.19,3.31-3-1.76A4.89,4.89,0,0,0,152.7,155.84Z"/><path class="cls-1" d="M138.93,27.34a13.85,13.85,0,0,1,13.83-13.13c.42,0,.83,0,1.25.06a18.39,18.39,0,0,1,31.8,0c.35,0,.7,0,1.05,0a13.85,13.85,0,0,1,13.83,13.13"/><path class="cls-3" d="M141.81,26.27a13.86,13.86,0,0,1,13.83-13.12c.42,0,.84,0,1.25.06a18.4,18.4,0,0,1,31.8,0c.35,0,.7,0,1.05,0a13.84,13.84,0,0,1,13.83,13.12"/><path class="cls-1" d="M38.3,93.16A13.84,13.84,0,0,1,52.13,80c.42,0,.84,0,1.25.06a18.39,18.39,0,0,1,31.8,0c.35,0,.7,0,1,0a13.84,13.84,0,0,1,13.83,13.12"/><path class="cls-3" d="M41.18,92.1A13.86,13.86,0,0,1,55,79c.42,0,.84,0,1.25.06a18.4,18.4,0,0,1,31.81,0c.34,0,.69,0,1.05,0A13.84,13.84,0,0,1,102.94,92.1"/><path class="cls-1" d="M8.94,23.79A13.85,13.85,0,0,1,22.77,10.66c.42,0,.84,0,1.25.06a18.39,18.39,0,0,1,31.8,0c.35,0,.7-.05,1-.05A13.85,13.85,0,0,1,70.7,23.79"/><path class="cls-3" d="M11.82,22.72A13.85,13.85,0,0,1,25.65,9.6c.42,0,.84,0,1.25.06a18.41,18.41,0,0,1,31.81,0c.34,0,.69,0,1,0A13.85,13.85,0,0,1,73.59,22.72"/><path class="cls-4" d="M69.86,51.88S94.75,64.24,99.21,62.52s6-17,6-17L86.85,42.09Z"/><path class="cls-5" d="M69.86,51.88S94.75,64.24,99.21,62.52s6-17,6-17L86.85,42.09Z"/><rect class="cls-6" x="105.14" y="33.42" width="16.31" height="14.25"/><rect class="cls-7" x="105.14" y="33.42" width="16.31" height="14.25"/><path class="cls-8" d="M90.29,94.1S89.6,109,94.24,108.69s0-14.07,0-14.07Z"/><path class="cls-9" d="M109.34,35.57s1,6.52-.86,7.38-3.09,1.55-3.09,1.55l4.29,2.91,7.9.52,2.06-1.55,1.89-1.71s-3.09-.69-3.09-2.23-.17-6.18-.17-6.18Z"/><path class="cls-8" d="M109.34,35.57s1,6.52-.86,7.38-3.09,1.55-3.09,1.55l4.29,2.91,7.9.52,2.06-1.55,1.89-1.71s-3.09-.69-3.09-2.23-.17-6.18-.17-6.18Z"/><path class="cls-8" d="M98.53,96.68s-5,16-5,27.63c0,0-8.24,18.54-7.9,27.64l-2.06,12.53,2.92,1,2.23-1.89s.69-6.69,2.92-10S99,135,99,135s13.73-28.84,13.22-33S98.53,96.68,98.53,96.68Z"/><path class="cls-8" d="M128.91,93.07s3.26,1.55-1.37,29c0,0,2.57,18.2.34,28.15l-.34,10h-3.61l-.69-1s-.17-8.93-1.37-11.33-2.23-16.31-2.23-16.31-5.49-28.32-4.29-30.72S128.91,93.07,128.91,93.07Z"/><path class="cls-7" d="M83.08,161.56s1.2,2.75,3.43,2.06a13.34,13.34,0,0,1,2.75-.68s-1.55,7.89-1,11.67-.35,6.18-3.78,6.18-4-4.12-4-4.12l1.55-9.79Z"/><path class="cls-7" d="M122.56,157.27s1.2,2.4,3.09,1.89a5.11,5.11,0,0,0,2.57-1.37s-.17,5.32.52,7.72,2.23,9.27-1.38,9.61a4.63,4.63,0,0,1-4.8-2.74Z"/><circle class="cls-8" cx="113.98" cy="32.48" r="7.55"/><path class="cls-4" d="M127.88,46s-6-2.35-8.14-2A8.82,8.82,0,0,1,113,46c-4.12-.51-5.74-2.49-5.74-2.49S96.12,46,96.81,47.07s3.78,17.85,3.78,17.85,2.06,14.59-.35,19.57-3.6,13.22-2.57,13.9,12.53,3.78,13.9,4.64,1.89-2.06,2.75-1.55,2.74,1.38,4,.69,12.87-6.87,12.53-8.07S126,78.31,124.45,75.39s-.35-9.09.51-10.3,2.58-2.57,2.92-6S127.88,46,127.88,46Z"/><path class="cls-4" d="M97.19,46.54a5.9,5.9,0,0,0-1.92,3.28c-.52,2.23-1.21,20.08-1.21,20.08s-6.35,24.55-5,25.06,5.32,1.55,5.83,1,6.35-21.28,5.84-23.52.68-8.75.68-8.75Z"/><path class="cls-8" d="M128.91,78.48s-9.27-4.63-10.3-1.54,9.78,6.35,9.78,6.35,3.78-1.37,3.78-2.23S128.91,78.48,128.91,78.48Z"/><path class="cls-4" d="M126,46.73l1.89-.69s1-.69,2.23,1.89S144.36,65.61,142,70.41,131.66,85,131.31,84.32,127,78.48,127.71,78s8.58-7.56,7.55-8.59-5.32-9.78-7.72-10.12S126,46.73,126,46.73Z"/><path class="cls-10" d="M105.65,32.22S79.48,21.7,56.82,11.57c0,0-11.85-2.92-18,2.57,0,0,5.15-.68,5.15,2.24,0,0,4.47,5.83-9.44,6.86-9.68.72-13.54,6.52-15,10a14.06,14.06,0,0,1-5.68,6.67A14.28,14.28,0,0,1,0,40.75s.32.49.93,1.32C11.83,56.79,52.42,69.6,66.76,58.2c8.86-7.05,22.9-16,33-11.47,15.79,7,18.71,3.94,18.71,3.94l.68-1.88s-15.27-4.12-15.62-9.44S105.65,32.22,105.65,32.22Z"/><path class="cls-10" d="M120.93,33.6a7.83,7.83,0,0,1,4.37,6.26s4,7.73-.51,9.61-5.32,1.38-5.32,1.38V50s4.8-2.92,3.77-5.15S120.93,33.6,120.93,33.6Z"/><path class="cls-10" d="M114.32,55.48s1.2-3.09.86-3.09,1.39-1.9,2.07-1.21,1.87,2.76.5,3.27S114.32,55.48,114.32,55.48Z"/><path class="cls-10" d="M122.78,53.65s-3.14-1.07-3.13-.73-2-1.31-1.29-2,2.67-2,3.24-.64S122.78,53.65,122.78,53.65Z"/><path class="cls-4" d="M117.75,49a1.9,1.9,0,0,1,2.5.5c.93,1.39-1.13,3.79-2.5,3.79s-1.37-2.92-1.37-2.92Z"/><path class="cls-10" d="M117.75,49a1.9,1.9,0,0,1,2.5.5c.93,1.39-1.13,3.79-2.5,3.79s-1.37-2.92-1.37-2.92Z"/><path class="cls-7" d="M107.43,20.15a9.24,9.24,0,0,0-2.33,2.62,12.25,12.25,0,0,0-.74,1.79c-.69,2-2.42,4-1.69,6A2.71,2.71,0,0,1,103,32.3c-.17.51-.68.81-1,1.2a4.89,4.89,0,0,0-1,3.23,9.66,9.66,0,0,0,2.47,6.16,6.88,6.88,0,0,1,.84,1,2.26,2.26,0,0,1,.27,1.84l2-.43a15.61,15.61,0,0,1,.07,2.27,2.11,2.11,0,0,0,2.24-1.45,6.3,6.3,0,0,0,.56,1.54,7.9,7.9,0,0,0,1.36-2.5,7.18,7.18,0,0,0,.24-3.62,15.59,15.59,0,0,0-.88-2.57c-.72-1.82-1.31-3.69-1.89-5.55a7.52,7.52,0,0,1-.52-3l.72-.07a3.34,3.34,0,0,1,.23-1.17,4.42,4.42,0,0,1,1.21.45l.83-2.11a4.71,4.71,0,0,0,2.1,1.06l2.88.91v-.57a14.83,14.83,0,0,0,4.1,2.57.91.91,0,0,1-.2-.74,5.47,5.47,0,0,1,0,4.24,10.45,10.45,0,0,0-.84,4.24c.13,1.08.69,2.11.58,3.19,0,.54-.25,1-.32,1.58a6,6,0,0,0,1.16,3.57l1.25-1.71a6.62,6.62,0,0,1,1.58-1.71,15,15,0,0,0,2.07-1.18c1-1,.9-2.65.56-4a7.46,7.46,0,0,1-.33-2.24c.12-1.28,1-2.34,1.51-3.52a6.14,6.14,0,0,0-.35-5.38c-.62-1.06-1.56-1.92-2.14-3s-.81-2.36-1.61-3.3a5.79,5.79,0,0,0-1.34-1.07A17.48,17.48,0,0,0,114,17.94,8.52,8.52,0,0,0,107.43,20.15Z"/></g></g></svg>