<svg xmlns="http://www.w3.org/2000/svg" viewBox="0 0 173.04 173.56"><defs><style>.cls-1{fill:#c3c3c3;}.cls-2{fill:#3f3d56;}.cls-3{fill:#fff;}.cls-4{fill:#c5c5c5;}.cls-5{fill:#3491d4;}.cls-6{fill:#eabd0f;}.cls-7{fill:#2ec571;}.cls-8{fill:#ffb1b1;}.cls-9{fill:#2f2e41;}</style></defs><g id="Layer_2" data-name="Layer 2"><g id="main"><path id="fa3b9e12-7275-481e-bee9-64fd9595a50d-4325" class="cls-1" d="M16.64,146.21l-1.52-6a77.06,77.06,0,0,0-8.28-3L6.64,140l-.78-3.08C2.37,136,0,135.51,0,135.51S3.21,147.7,9.93,157l7.84,1.37-6.09.88a33.79,33.79,0,0,0,2.72,2.89c9.79,9.08,20.69,13.24,24.34,9.3s-1.3-14.5-11.09-23.58A41.73,41.73,0,0,0,17,141Z"/><path id="bde08021-c30f-4979-a9d8-cb90b72b5ca2-4326" class="cls-1" d="M31.13,139.68l1.81-5.93a75.85,75.85,0,0,0-5.56-6.82l-1.6,2.29.92-3c-2.47-2.66-4.28-4.26-4.28-4.26S18.86,134,19.8,145.47l6,5.23-5.67-2.39a32.31,32.31,0,0,0,.84,3.88c3.68,12.83,10.86,22,16,20.54s6.37-13.08,2.69-25.92a41.45,41.45,0,0,0-5.58-11.37Z"/><path id="b3ac2088-de9b-4f7f-bc99-0ed9705c1a9d-4327" class="cls-2" d="M120.75,41.12h-1v-26A15.08,15.08,0,0,0,104.72,0H49.55A15.08,15.08,0,0,0,34.47,15.07V158A15.07,15.07,0,0,0,49.55,173h55.17A15.07,15.07,0,0,0,119.8,158V59.65h1Z"/><path id="b2715b96-3117-487c-acc0-20904544b5b7-4328" class="cls-3" d="M105.33,3.92h-7.2a5.35,5.35,0,0,1-4.95,7.37H61.57a5.35,5.35,0,0,1-5.35-5.35,5.2,5.2,0,0,1,.4-2H49.89A11.26,11.26,0,0,0,38.63,15.18h0V157.85A11.26,11.26,0,0,0,49.89,169.1h55.44a11.26,11.26,0,0,0,11.26-11.25h0V15.18A11.26,11.26,0,0,0,105.33,3.92Z"/><path id="b06d66ec-6c84-45dd-8c27-1263a6253192-4329" class="cls-4" d="M70.55,60.75a5.68,5.68,0,0,1,2.84-4.92,5.68,5.68,0,1,0,0,9.84A5.67,5.67,0,0,1,70.55,60.75Z"/><path id="e73810fe-4cf4-40cc-8c7c-ca544ce30bd4-4330" class="cls-4" d="M77.69,60.75a5.68,5.68,0,0,1,2.84-4.92,5.68,5.68,0,1,0,0,9.84A5.67,5.67,0,0,1,77.69,60.75Z"/><circle id="a4813fcf-056e-4514-bb8b-e6506f49341f" class="cls-5" cx="84.67" cy="60.75" r="5.68"/><path id="bbe451c3-febc-41ba-8083-4c8307a2e73e-4331" class="cls-4" d="M94.16,78.49H61.05a1.19,1.19,0,0,1-1.19-1.18V44.2A1.19,1.19,0,0,1,61.05,43H94.16a1.19,1.19,0,0,1,1.19,1.19V77.31A1.19,1.19,0,0,1,94.16,78.49Zm-33.11-35a.71.71,0,0,0-.71.71V77.31a.71.71,0,0,0,.71.71H94.16a.71.71,0,0,0,.71-.71V44.2a.71.71,0,0,0-.71-.71Z"/><rect id="bb28937d-932f-4fdf-befe-f406e51091fe" class="cls-4" x="50.78" y="103.87" width="50.77" height="0.48"/><circle id="fcef55fc-4968-45b2-93bb-1a1080c85fc7" class="cls-6" cx="52.38" cy="99.3" r="1.6"/><rect id="ff33d889-4c74-4b91-85ef-b4882cc8fe76" class="cls-4" x="50.78" y="119.9" width="50.77" height="0.48"/><circle id="e8fa0310-b872-4adf-aedd-0c6eda09f3b8" class="cls-6" cx="52.38" cy="115.33" r="1.6"/><path class="cls-7" d="M100.62,138.16h-16a1,1,0,0,1-1-1v-5.63a1,1,0,0,1,1-1h16a1,1,0,0,1,1,1v5.63A1,1,0,0,1,100.62,138.16Z"/><circle id="e12ee00d-aa4a-4413-a013-11d20b7f97f7" class="cls-6" cx="57.61" cy="99.3" r="1.6"/><circle id="f58f497e-6949-45c8-be5f-eee2aa0f6586" class="cls-6" cx="62.84" cy="99.3" r="1.6"/><circle id="b4d4939a-c6e6-4f4d-ba6c-e8b05485017d" class="cls-6" cx="57.61" cy="115.33" r="1.6"/><circle id="aff120b1-519b-4e96-ac87-836aa55663de" class="cls-6" cx="62.84" cy="115.33" r="1.6"/><path id="f1094013-1297-477a-ac57-08eac07c4bd5-4332" class="cls-1" d="M172.4,173.56H5.59c-.35,0-.64-.13-.64-.28s.29-.28.64-.28H172.4c.35,0,.64.12.64.28S172.75,173.56,172.4,173.56Z"/><path class="cls-8" d="M131.19,113.71a3.3,3.3,0,0,1,.32.18l10.42-4.44.38-2.75,4.16,0-.25,6.29-13.75,3.64a2.31,2.31,0,0,1-.1.28,2.38,2.38,0,1,1-1.18-3.18Z"/><polygon class="cls-8" points="147.98 170.76 145.13 170.76 143.78 159.78 147.98 159.78 147.98 170.76"/><path class="cls-9" d="M143.1,170h5.49v3.46h-9A3.46,3.46,0,0,1,143.1,170Z"/><polygon class="cls-8" points="159.06 169.96 156.23 170.24 153.8 159.44 157.98 159.02 159.06 169.96"/><path class="cls-9" d="M154.12,169.62l5.47-.53h0l.34,3.44h0l-8.91.88h0A3.46,3.46,0,0,1,154.12,169.62Z"/><circle class="cls-8" cx="148.78" cy="89.34" r="5.71"/><path class="cls-9" d="M144.5,168.54a1,1,0,0,1-1-.86c-1.47-8.18-6.29-34.94-6.41-35.68V130a.31.31,0,0,1,.07-.2l.63-.89a.36.36,0,0,1,.27-.15c3.63-.17,15.51-.67,16.09,0h0c.57.72.37,2.9.32,3.34v0l5.34,34.15a1,1,0,0,1-.87,1.19l-3.33.55a1,1,0,0,1-1.17-.72c-1-3.29-4.49-14.38-5.69-18.67a.11.11,0,0,0-.14-.08.12.12,0,0,0-.09.11c.06,4.09.21,14.53.26,18.13v.39a1,1,0,0,1-.95,1.05l-3.21.29Z"/><path id="ae7af94f-88d7-4204-9f07-e3651de85c05-4333" class="cls-5" d="M145.16,97.29a4.78,4.78,0,0,0-1.94,2.79,26.55,26.55,0,0,0-1.13,6.31l-.36,6.41-4.48,17c3.88,3.28,6.12,2.54,11.33-.15s5.82.9,5.82.9l1-14.47,1.5-15.8a7.76,7.76,0,0,0-1.13-1.09A11.55,11.55,0,0,0,146,97.1Z"/><path class="cls-8" d="M143.7,117.15a2.21,2.21,0,0,1,.35.16l10.3-5.16.17-2.79,4.25-.29.23,6.36L145.23,120a2.44,2.44,0,1,1-1.82-2.93,1.4,1.4,0,0,1,.29.09Z"/><path id="a6768b0e-63d0-4b31-8462-9b2e0b00f0fd-4334" class="cls-5" d="M156.86,100.35c2.54.9,3,10.59,3,10.59-3-1.64-6.56,1-6.56,1s-.74-2.53-1.64-5.81a5.7,5.7,0,0,1,1.19-5.37A4.09,4.09,0,0,1,156.86,100.35Z"/><path id="bfd7963f-0cf8-4885-9d3a-2c00bccda2e3-4335" class="cls-9" d="M153.89,90.85c-.71-.57-1.68.47-1.68.47l-.57-5.12a20.21,20.21,0,0,1-5.83-.14c-2.27-.57-2.63,2.06-2.63,2.06a19,19,0,0,1-.07-3.2c.14-1.28,2-2.56,5.26-3.41s5,2.84,5,2.84C155.62,85.49,154.6,91.42,153.89,90.85Z"/></g></g></svg>