<svg xmlns="http://www.w3.org/2000/svg" viewBox="0 0 31.42 31.42"><defs><style>.cls-1{fill:none;stroke:#fff;stroke-miterlimit:10;stroke-width:2px;}.cls-2{fill:#efefef;}</style></defs><g id="Layer_2" data-name="Layer 2"><g id="main"><circle class="cls-1" cx="15.71" cy="15.71" r="14.71"/><path class="cls-2" d="M19,13a4.44,4.44,0,0,0-6-.71c-1.37.85-1.94,3.08-1.74,4.47a3.5,3.5,0,0,0,.13.56A4.42,4.42,0,0,0,18,19.73a4.76,4.76,0,0,0,2-4.39A5.12,5.12,0,0,0,19,13Zm-.56,3.58a2.83,2.83,0,0,1-5.33.57,3,3,0,0,1,.07-2.4,2.72,2.72,0,0,1,3.49-1.4A3.08,3.08,0,0,1,18.44,16.6Z"/><path class="cls-2" d="M20.94,10.57c-.69-.37-1.26-.22-1.49.35a1,1,0,0,0,1.09,1.55A1.1,1.1,0,0,0,20.94,10.57Z"/><path class="cls-2" d="M24.31,13A6.14,6.14,0,0,0,23,8.77,5.43,5.43,0,0,0,19.88,7.4a39,39,0,0,0-8.64,0A4.63,4.63,0,0,0,7.55,9.86a10.73,10.73,0,0,0-.51,4c0,1,0,2.05,0,3.07A14.57,14.57,0,0,0,7.66,22a2.85,2.85,0,0,0,.56.93,4,4,0,0,0,1.93,1.35,11.71,11.71,0,0,0,3.35.23c2.59,0,5.6.53,8.07-.43,2-.8,2.77-2.75,2.71-4.76,0-1.12,0-2.23,0-3.34C24.28,15,24.34,14,24.31,13ZM22.82,16.9c0,1,.05,1.87,0,2.63-.14,1.76-.48,2.73-2.45,3.2a15,15,0,0,1-4.28.21c-1-.05-2.06-.05-3.09,0a5,5,0,0,1-2.56-.4C8.54,21.5,8.49,18,8.55,16c0-.43,0-.85,0-1.27-.06-2.51.5-5.74,3.36-5.82,2.22-.06,4.44-.16,6.67-.08a4.63,4.63,0,0,1,2.9.78C23.29,11.19,22.83,14.83,22.82,16.9Z"/></g></g></svg>