<svg xmlns="http://www.w3.org/2000/svg" viewBox="0 0 193.77 181.89"><defs><style>.cls-1{fill:#efba41;}.cls-2{fill:#986fa2;}.cls-3{fill:#c94646;}.cls-4{fill:#00a4c7;}.cls-5{fill:#9b6da2;}.cls-6{fill:#9fc463;}.cls-7{fill:#00a6c4;}.cls-8{fill:#9fc262;}</style></defs><g id="Layer_2" data-name="Layer 2"><g id="main"><path class="cls-1" d="M56.64,87.27a2.64,2.64,0,0,1-1.08.81.9.9,0,0,1-1.12-.51,1.19,1.19,0,0,1,.08-.72,18.37,18.37,0,0,1,1.82-3.92q.15-.25.3-.48a11.89,11.89,0,0,1-1-.93,10.85,10.85,0,0,1-1.21-1.58,37.06,37.06,0,0,1-2.89,3.84c-.36.43-1,.89-1.44.6s-.42-.72-.43-1.13c0-.62,0-1.23,0-1.85.15-.86.29-1.73.44-2.59a5.74,5.74,0,0,0,0-2.91c-.19-.52-.66-1-1.21-.94s-.82.75-1,1.31c-1.1,4.4-1.36,9-2.48,13.39A54.36,54.36,0,0,0,44.15,95a9,9,0,0,0,.62,5.37c1,1.93,2.88,3.22,4.71,4.37a150.23,150.23,0,0,0,13.28,7.45c.81.4,1.85.78,2.57.23a1.94,1.94,0,0,0,.29-2.37A7.27,7.27,0,0,0,62,106.8a26,26,0,0,1-4.37-2.29,2.47,2.47,0,0,1-.91-1.11c-.38-1.16.72-2.25,1.74-2.92,3.75-2.46,8-4.16,11.57-6.85,1-.72,2-1.92,1.49-3a1.94,1.94,0,0,0-1.88-1,6,6,0,0,0-2.16.63c-2.29,1-4.61,1.87-7,2.64a3,3,0,0,1-1.55.2,1,1,0,0,1-.84-1.14,1.54,1.54,0,0,1,.4-.61l4.54-4.94a32.18,32.18,0,0,1-3.71-2Z"/><path class="cls-2" d="M51.91,68.31a4.29,4.29,0,0,1-2.57.36,2.05,2.05,0,0,1-1.63-1.81A3.31,3.31,0,0,1,48.5,65,86.35,86.35,0,0,0,55.63,53.1a7.31,7.31,0,0,0,1-3.21,1.47,1.47,0,0,0-.27-1A1.22,1.22,0,0,0,55,48.65a2.85,2.85,0,0,0-1.13.9c-2.24,2.62-3.12,6.31-5.77,8.51a1.13,1.13,0,0,1-.52.27c-.69.11-1-.91-.79-1.6a16.65,16.65,0,0,1,1.27-3.27,34.66,34.66,0,0,0,2.66-8.91A1.92,1.92,0,0,0,50.53,43a1.31,1.31,0,0,0-1.7-.1,3.4,3.4,0,0,0-1.09,1.5c-1.76,4-2.05,8.66-4.67,12.15a.85.85,0,0,1-.41.36c-.54.16-.81-.64-.77-1.2.23-2.67,1.45-5.16,1.85-7.8.12-.79.1-1.75-.58-2.17a1.47,1.47,0,0,0-1.75.36,4.09,4.09,0,0,0-.87,1.71,55.42,55.42,0,0,0-2,8.6,2.7,2.7,0,0,1-.36,1.21A.92.92,0,0,1,37,58a1.28,1.28,0,0,1-.49-1,10.8,10.8,0,0,1-.07-2.41,9,9,0,0,0,.06-2.2,2,2,0,0,0-1.32-1.61c-2.23-.51-1.63,3.88-1.66,4.92q-.12,4.08-.26,8.14c-.12,3.91-.1,8.23,2.49,11.16a3.89,3.89,0,0,0,1.62,1.15,5.28,5.28,0,0,0,3.38-.43L52,71.57A10.63,10.63,0,0,1,52.59,68Z"/><path class="cls-3" d="M130.43,107.31a20,20,0,0,0-3.85,2.68,20.54,20.54,0,0,1-8.36,3.74c-.39.08-.91.08-1.08-.29a.86.86,0,0,1,0-.59,12.08,12.08,0,0,1,1.59-3.39,7.66,7.66,0,0,0,1.6-3,1.14,1.14,0,0,0-.25-1,1.16,1.16,0,0,0-.72-.24,4.56,4.56,0,0,0-3.31,1.54,19,19,0,0,0-2.16,3.07,32.59,32.59,0,0,1-9.06,9.4c-1.29.88-3.73,1.84-3.84,3.64-.15,2.49,2.51,2.74,4.33,2.57l4.9-.45a35.62,35.62,0,0,0,7.48-1.23,20.5,20.5,0,0,0,10.58-8.24,5.59,5.59,0,0,0,1.15-2.89,7.12,7.12,0,0,1,0-2.21c.33-1,1.52-1.56,1.76-2.59a.58.58,0,0,0-.11-.54C130.94,107.13,130.65,107.21,130.43,107.31Z"/><path class="cls-4" d="M96.47,98.75a3.61,3.61,0,0,0-1.23.74c-3.21,2.71-5.58,6.3-8.71,9.08a1.48,1.48,0,0,1-1.3.52,1,1,0,0,1-.64-1.06,3.15,3.15,0,0,1,.46-1.25q2.24-4.05,4.46-8.12a28,28,0,0,0,1.86-3.86c-1.11-.5-2.25-.94-3.4-1.34L80.8,105.19c-.22.36-.56.78-1,.69s-.54-.6-.55-1a12.61,12.61,0,0,1,1.27-4.6,29.69,29.69,0,0,0,1.27-4.19,4.44,4.44,0,0,0,.12-2,1.69,1.69,0,0,0-1.4-1.33c-.87-.07-1.53.74-2,1.49a16.94,16.94,0,0,0-1.8,4.61c-.43,1.83-.61,3.86-1.84,5.29a1,1,0,0,1-.42.33c-.5.15-.91-.44-1-1-.41-1.52-.11-3.16-.42-4.7-.19-.92-1.34-2.76-2.44-1.64-.64.65-.25,3-.28,3.77l-.42,11.44a22.12,22.12,0,0,0,.17,4.81,7.51,7.51,0,0,0,2.12,4.24,8,8,0,0,0,5.63,1.8,45.08,45.08,0,0,0,6-.83,33.21,33.21,0,0,1,9.18-.12c1.12.14,2.42.28,3.2-.53s.43-2.61-.63-3.36a6,6,0,0,0-3.73-.77,9.26,9.26,0,0,1-2.52-.11,2.54,2.54,0,0,1-1.88-1.55c-.33-1,.29-2.13.91-3a56.22,56.22,0,0,1,6.06-7.35,22.09,22.09,0,0,0,2.44-2.76c-.07-.45-.15-.91-.21-1.37A26,26,0,0,1,96.47,98.75Z"/><path class="cls-5" d="M141.23,55.05a6,6,0,0,0,1-.12c0-.12,0-.24,0-.36a18.77,18.77,0,0,0-.91-4,20.14,20.14,0,0,0-1.16-2.7,3.28,3.28,0,0,1-1.1,1.21,1.22,1.22,0,0,1-1.67-.36,1.66,1.66,0,0,1,0-1.1,15.52,15.52,0,0,1,1-2.53,18.77,18.77,0,0,0-2.5-2.62l-.48-.3-3.87,3.13a1.43,1.43,0,0,1-1,.44,1,1,0,0,1-.72-1,2.53,2.53,0,0,1,.5-1.25c.61-1,1.27-1.95,2-2.89a38.91,38.91,0,0,0-4.49-1.53c-6.67-1.9-13.74-2.8-20.07-5.5l-.06.11c-.42.77-1.06,1.66-1.93,1.54a1.52,1.52,0,0,1-1.17-1.44,3.65,3.65,0,0,1,.32-1.53v0l-.6-.33a7.29,7.29,0,0,0-2.26-1,2.09,2.09,0,0,0-2.19.82c-.55.92,0,2.09.62,2.95a16.6,16.6,0,0,0,7.64,5.84c2,.75,4.53,1.46,5,3.56a3.39,3.39,0,0,1,0,1.27,5.13,5.13,0,0,1-.31,1c-.82,1.85-2.57,3.09-4.3,4.16a65.41,65.41,0,0,1-12.64,6L87,63.16l-.11.08a2.49,2.49,0,0,0,.56,1.05c1.08,1.22,3,1.08,4.61.72l1.36-.32A48.14,48.14,0,0,1,100.73,62c1.12-.54,2.21-1.14,3.28-1.78h0l.33-.2a7.5,7.5,0,0,1,3.49-1.49,3,3,0,0,1,.89.13,2.09,2.09,0,0,1,1.62,2.11,3.11,3.11,0,0,1-1,1.6,22.51,22.51,0,0,1-1.68,1.55,4.09,4.09,0,0,1-.1.61,3,3,0,0,1-.39.9,7.16,7.16,0,0,1-2.52,2.13c-2.41,1.44-4.94,2.67-7.48,3.89l-.66.32c-.55.43-1.09.88-1.6,1.35-.23.21-.46.44-.68.67a5.37,5.37,0,0,0-1.8,4A2.5,2.5,0,0,0,93,79.23h0a1.93,1.93,0,0,0,.36.28,2.14,2.14,0,0,0,1,.29,4.74,4.74,0,0,0,1.92-.56c.41-.2.8-.4,1.18-.61,4-2.16,7.62-5.07,11.32-7.79h0c1.21-.9,2.44-1.77,3.7-2.59l1-.66c.83-.59,2.16-1.08,2.7-.22a1.41,1.41,0,0,1,.16.54,2.24,2.24,0,0,1-.27,1.73,6,6,0,0,1-.36.6c-3.14,4.46-7.61,7.84-10.82,12.26-.57.79-1.11,1.8-.67,2.68l0,0c.54,1,1.85.9,3,.46a6.46,6.46,0,0,0,.84-.4,32.34,32.34,0,0,0,5-3.74,55.61,55.61,0,0,0,6.49-7.06,3.15,3.15,0,0,1,1.74-1.37,1.3,1.3,0,0,1,.34,0,2.1,2.1,0,0,1,1.65,1.08,4.15,4.15,0,0,1,.39,2.35c-.29,4-3,7.36-4.13,11.22l.43-.44,2.24-2.23c.72-.72,1.68-1.51,2.66-1.19a2.44,2.44,0,0,1,.09.54c.52-1,1-2,1.54-3q2-3.85,4.33-7.52.54-.86,1.11-1.68c.55-.93,1.16-1.84,1.8-2.71.53-.7,1.08-1.37,1.66-2,1.26-1.65,2.54-3.28,3.8-5a15.74,15.74,0,0,0,2.17-4,15.76,15.76,0,0,1-1.68.09,1.71,1.71,0,0,1-1-.22,1.36,1.36,0,0,1-.18-1.8A4.47,4.47,0,0,1,141.23,55.05Z"/><path class="cls-1" d="M142.64,86.07a44,44,0,0,1-11.59,4.66,5.42,5.42,0,0,0-1.81.59,1.7,1.7,0,0,0-.86,1.59c.18,1.08,1.54,1.4,2.63,1.42a26.7,26.7,0,0,0,5.28-.44c.67-.13,1.65,0,1.68.63a1.14,1.14,0,0,1-.14.5c-2.11,4.63-6.94,7.32-10.29,11.18a1.3,1.3,0,0,0-.36.66.93.93,0,0,0,.81.91,2.57,2.57,0,0,0,1.3-.25,26.13,26.13,0,0,0,6.34-3.54c.28.77-.5,1.47-1.13,2a9.05,9.05,0,0,0-2,2.35.74.74,0,0,0-.14.62c.11.28.47.31.76.31,2.59,0,5.27,0,7.64-1.08,3.33-1.47,5.49-4.69,7.47-7.74a51.27,51.27,0,0,0,4-6.85c.93-2.08,1.57-4.61.38-6.56C150.51,83.65,145.55,84.54,142.64,86.07Z"/><path class="cls-1" d="M135.54,42.14,139,39.38a2.12,2.12,0,0,1,1.75-.68c-.07,2.12-1.1,4-2,6l-.21.45a19.19,19.19,0,0,1,1.78,2.77l.14-.22.31-.48a34.63,34.63,0,0,1,3.7-4.82c.23-.26.6-.53.89-.33s.2.5.16.77l-1,5.45a3.87,3.87,0,0,0,.07,2.29,1.37,1.37,0,0,0,1.89.72,2,2,0,0,0,.59-1q1.53-4.83,3.07-9.66c.57-1.8,1.15-3.59,1.62-5.41a17,17,0,0,0,.72-4.9,7.36,7.36,0,0,0-1.63-4.6,11.58,11.58,0,0,0-2.59-2c-5.5-3.48-11.05-7-17.12-9.33a2.43,2.43,0,0,0-1.64-.21,1.56,1.56,0,0,0-.94,1.55,2.93,2.93,0,0,0,.78,1.74c1.36,1.63,3.48,2.36,5.36,3.36,1.28.69,2.62,1.78,2.63,3.25a3.24,3.24,0,0,1-1.44,2.48,11.19,11.19,0,0,1-2.69,1.26,39.89,39.89,0,0,0-7.35,3.71,8.59,8.59,0,0,0-2.69,2.39c-.53.82-.72,2,0,2.65a2.53,2.53,0,0,0,2.32,0l7-2.23c1-.33,4.17-1.91,4.39,0,.17,1.44-1.9,3.08-2.69,4-.55.64-1.08,1.29-1.59,2l-.27.36a23.23,23.23,0,0,1,3.15,1.59Z"/><path class="cls-3" d="M129.86,44.74a1,1,0,0,0,.72,1,1.45,1.45,0,0,0,1-.44l3.87-3.13a23.83,23.83,0,0,0-3.15-1.59c-.7.93-1.36,1.89-2,2.89A2.7,2.7,0,0,0,129.86,44.74Z"/><path class="cls-3" d="M137.49,47.63a1.66,1.66,0,0,0,0,1.1,1.22,1.22,0,0,0,1.67.36,3.36,3.36,0,0,0,1.1-1.21,18.66,18.66,0,0,0-1.78-2.77A16,16,0,0,0,137.49,47.63Z"/><path class="cls-3" d="M161.2,54.79c-.25-1.8-.74-3.84-2.34-4.72s-3.77-.14-5.52.66a42.91,42.91,0,0,1-5.71,2.46,54.48,54.48,0,0,1-5.28,1.73h-.08a5.17,5.17,0,0,1-1,.11,4.53,4.53,0,0,0-2.71,1.57,1.37,1.37,0,0,0,.18,1.81,1.78,1.78,0,0,0,1,.22,15.77,15.77,0,0,0,1.68-.1l.56-.06a16,16,0,0,0,2.16-.46A3.28,3.28,0,0,1,146,57.8a2,2,0,0,1,1.21,2.1,5.85,5.85,0,0,1-.91,2.43,56.13,56.13,0,0,1-5,7.89,24.89,24.89,0,0,0-2.42,3.2,8.53,8.53,0,0,0-1,3c-.07.48,0,1.1.46,1.24a.89.89,0,0,0,.51-.05A6.07,6.07,0,0,0,141.7,75q2.25-3.1,4.65-6.13c.31-.38.82-.81,1.23-.53a.94.94,0,0,1,.27.91,16.46,16.46,0,0,1-.83,3.46c-.85,2.65-1.69,5.29-2.53,7.94a3.66,3.66,0,0,0-.26,1.7,1.28,1.28,0,0,0,1.13,1.13c.64,0,1.09-.63,1.37-1.2,2.09-4.07,2.8-8.89,5.73-12.4a23.89,23.89,0,0,1-.61,9.41,2.2,2.2,0,0,0-.1,1,.68.68,0,0,0,.76.53.88.88,0,0,0,.36-.27c1.22-1.33,1.6-3.2,2-5a54.73,54.73,0,0,1,2.12-7c.12-.31.29-.67.61-.74a.74.74,0,0,1,.59.18,2.47,2.47,0,0,1,.62,1.81l.39,6c.89.12,1.38-1,1.54-1.87A60.3,60.3,0,0,0,161.2,54.79Z"/><path class="cls-6" d="M109.17,17.45a1.29,1.29,0,0,1,.89-.36.9.9,0,0,1,.7.86,2.61,2.61,0,0,1-.28,1.16c-1.6,3.85-3.79,8.87-5.39,12.71l-.15.39v0l.49.22c.77.41,1.56.77,2.36,1.11l.1-.19c1.93-3.52,4.39-8.08,6.29-11.55.3-.54.77-1.17,1.38-1,.78.17.75,1.29.52,2.05q-1.2,4-2.38,8.07a4,4,0,0,0-.25,1.6,1.37,1.37,0,0,0,.92,1.21c.92.24,1.63-.8,2-1.68l4.43-10.17A3.53,3.53,0,0,1,122,24.7c0,1.06-.19,2.12-.08,3.17.07.68.36,1.45,1,1.62a1.34,1.34,0,0,0,1.44-.79,4,4,0,0,0,.3-1.73l.2-11.76a22.53,22.53,0,0,0-.61-7.06,7.84,7.84,0,0,0-4.49-5.21,8.56,8.56,0,0,0-3.3-.38,53.27,53.27,0,0,0-6.49,1,50.43,50.43,0,0,1-8.32.72,6.64,6.64,0,0,0-2.08.21,2.13,2.13,0,0,0-1.45,1.39A2.13,2.13,0,0,0,99.25,8a6.52,6.52,0,0,0,2.53.64l3.78.43a3.91,3.91,0,0,1,1.67.66c.36.31,1,.49.93,1-.47,3.2-3,5.68-5.29,7.91a20.29,20.29,0,0,0-4.49,5.5c.2.87.45,1.74.63,2.6A82,82,0,0,1,109.17,17.45Z"/><path class="cls-3" d="M104.93,32.24a3.5,3.5,0,0,0-.32,1.53,1.49,1.49,0,0,0,1.16,1.44c.88.12,1.51-.77,1.94-1.54l.06-.1c-.8-.35-1.59-.73-2.35-1.11Z"/><path class="cls-7" d="M75.13,39.75a35.38,35.38,0,0,1,2.59-2.89,2.12,2.12,0,0,1,.8-.55.7.7,0,0,1,.82.37,1,1,0,0,1,0,.56c-1,3.46-4.18,6.35-3.9,9.94a1.29,1.29,0,0,0,.2.69c.47.67,1.53.2,2.13-.36,2.33-2.19,3.87-5,5.54-7.78s3.61-5.45,6.38-7a3.19,3.19,0,0,1,2.95-.41,2.6,2.6,0,0,1,1.23,2,13.5,13.5,0,0,1-.08,2.46,9.25,9.25,0,0,0,1.92,6.57,3.65,3.65,0,0,0,1.72,1.25,1.93,1.93,0,0,0,2-.47c.66-.76.43-1.89.21-2.87A27.53,27.53,0,0,1,99,32.55a27,27,0,0,0,.32-3.91,11.17,11.17,0,0,0-.28-1.9c-.18-.86-.43-1.73-.63-2.59a8.49,8.49,0,0,1-.15-4.41c.69-2.38,5-4.2,2.58-6.89a5.9,5.9,0,0,0-2.06-1.35,9,9,0,0,0-6.68-.66,13.68,13.68,0,0,0-3.61,2.42c-5.54,4.56-12,7.87-18,11.84a3.58,3.58,0,0,0-1.77,2c-.08.41.08,1,.5,1a.91.91,0,0,0,.46-.1c2.1-.86,3.77-2.8,6-3,.11,1-.81,1.87-1.6,2.56a21.14,21.14,0,0,0-4.77,6,4.84,4.84,0,0,0-.75,3.35,4.69,4.69,0,0,0,2.21-1.65,40.7,40.7,0,0,1,5-4.58c.59-.46,1.62-.81,1.93-.13.2.41-.09.88-.36,1.24-1.21,1.6-2.5,3.15-3.64,4.79a1.56,1.56,0,0,1,.56.12C75.3,37.17,75.38,38.6,75.13,39.75Z"/><path class="cls-1" d="M46,41c4,.22,7.52-2.46,11.25-3.94A19.41,19.41,0,0,1,64,35.69a5.79,5.79,0,0,0,1.66-.18,1.58,1.58,0,0,0,1.11-1.13,1.53,1.53,0,0,0-.81-1.5,4.08,4.08,0,0,0-1.75-.44,27.57,27.57,0,0,0-6.54.33,1.17,1.17,0,0,1-1-.12c-.39-.36-.15-1,.12-1.44a36.13,36.13,0,0,1,8.41-9.61,3.89,3.89,0,0,0,1.06-1.08,1.3,1.3,0,0,0,0-1.44,1.12,1.12,0,0,0-1-.36l-.76.61c-.24.22-.57.45-.88.33a.36.36,0,0,1-.14-.11c-.63.43-1.44.78-2,1.22-.82.62-1.54,1.35-2.3,2,.42-1.54,1.83-3.16,2.66-4.53a1.5,1.5,0,0,0,.33-1.2c-.16-.51-.77-.7-1.29-.76a12.8,12.8,0,0,0-7.66,2.1C47,22,42.08,28.45,41.67,35.63a5.56,5.56,0,0,0,.86,3.79A4.69,4.69,0,0,0,46,41Z"/><path class="cls-3" d="M64.48,19.36c.24-.21.5-.41.75-.61a36,36,0,0,1,12.25-6.56,1.19,1.19,0,0,1,.85,0c.64.3.3,1.29-.17,1.81-1.56,1.76-3.75,3.32-4,5.66a1.09,1.09,0,0,0,.15.77c.36.47,1.11.22,1.6-.09C81.5,16.78,84,9.57,89.82,6.46a10.36,10.36,0,0,0,3.35-2.11A2.53,2.53,0,0,0,91.63.11C85-.52,78.4,1.56,72.54,4.67a8.22,8.22,0,0,0-3.28,2.62c-.52.81-.76,1.8-1.34,2.57-.36.51-.88.93-1.27,1.44a2,2,0,0,0-.48,1.8c.15.46.55.89.43,1.36a1.21,1.21,0,0,1-.34.52c-1.1,1.17-2.56,2.16-3,3.72a.92.92,0,0,0,.15.89.28.28,0,0,0,.13.11C63.9,19.81,64.23,19.58,64.48,19.36Z"/><path class="cls-3" d="M92.17,95.16c.74.36,1.78.65,2.24,0a1.53,1.53,0,0,0,.18-1A9.85,9.85,0,0,0,90.48,87a21.08,21.08,0,0,0-7.14-3,2.84,2.84,0,0,1-1.69-.76c-.83-1,.17-2.48,1.17-3.33,4.06-3.45,8.89-5.74,13.71-8.06l.66-.32c2.52-1.22,5.07-2.46,7.48-3.89a7.37,7.37,0,0,0,2.53-2.13,3.25,3.25,0,0,0,.38-.9,2.51,2.51,0,0,0,.1-.61,2.2,2.2,0,0,0-.48-1.6,3.65,3.65,0,0,0-3.09-.87,20.07,20.07,0,0,0-3.37.55,47.75,47.75,0,0,0-7.32,2.69,58.19,58.19,0,0,1-6.73,2.56,2.17,2.17,0,0,1-2-.16,1.48,1.48,0,0,1-.14-1.74,4.2,4.2,0,0,1,1.31-1.31l1.08-.81.11-.08,8.93-6.65L97,55.7h0a21,21,0,0,0,4.76-4.4c1-1.36,1.48-3.41.26-4.53a2.81,2.81,0,0,0-2.62-.47A8.52,8.52,0,0,0,97,47.61L82.28,57.85a4.49,4.49,0,0,1-1.89.91,1.54,1.54,0,0,1-1.71-.93,2.2,2.2,0,0,1,.56-1.76c3.16-4.51,7.49-8.07,11-12.29.75-.89,1.49-2.13.89-3.12a2,2,0,0,0-2.26-.7,5.89,5.89,0,0,0-2.12,1.38L73.2,53.29c-.42.36-.94.76-1.48.6s-.81-1-.8-1.64C71,47.89,74,44.16,75.09,40a.71.71,0,0,1,0-.2c.25-1.15.17-2.57-.88-3a1.38,1.38,0,0,0-.56-.12,2.17,2.17,0,0,0-1.45.57A6,6,0,0,0,71,38.94,165.4,165.4,0,0,1,53.9,65.56,8.55,8.55,0,0,0,52.56,68a10.64,10.64,0,0,0-.6,3.58,16,16,0,0,0,1.69,6.94A13.45,13.45,0,0,0,54.46,80a11.53,11.53,0,0,0,1.2,1.58q.47.5,1,.93a20.35,20.35,0,0,0,1.73,1.33l1,.64a34.78,34.78,0,0,0,3.72,2c7.74,3.5,16.75,4.25,24.92,7.07,1.15.39,2.29.84,3.4,1.33C91.64,94.91,91.9,95,92.17,95.16Z"/><path class="cls-8" d="M121.38,89.85a1.21,1.21,0,0,1-.31-.09A1.84,1.84,0,0,1,120,88.39a3.09,3.09,0,0,1,0-1l-.43.44-3.11,3.11c-.84.83-2,1.74-3.08,1.32l5.3-9a6.13,6.13,0,0,0,1-2.49,2.09,2.09,0,0,0-1.22-2.19c-1.2-.39-2.32.77-2.93,1.87-1.11,2-1.72,4.24-2.82,6.25a14.86,14.86,0,0,1-10.41,7.43.72.72,0,0,1-1-.71,43.38,43.38,0,0,1-.18-5A10.19,10.19,0,0,0,99,82.85c-.6-.75-1.56-1.47-2.43-1.09a1.73,1.73,0,0,0-.87,1.58,6.87,6.87,0,0,0,.4,1.85c1.27,4.36.32,9,.4,13.55a23.4,23.4,0,0,0,.17,2.64l.21,1.37a8.64,8.64,0,0,1-.1,4.63,21.08,21.08,0,0,1-2,3.14,3.44,3.44,0,0,0-.36,3.54,3.74,3.74,0,0,0,2.38,1.36c3.24.79,7.25.84,9.74-1.6a53.17,53.17,0,0,1,8.89-7.44c3.49-2.2,7.6-3.82,9.91-7.22a.59.59,0,0,0,.13-.36c0-.34-.54-.32-.86-.21l-3,1.09a.94.94,0,0,1-.66.06c-.49-.22-.2-1,.16-1.37,1.08-1.22,2.35-2.29,3.4-3.55a8.14,8.14,0,0,0,2-4.39.88.88,0,0,0-.14-.65c-.27-.29-.76-.1-1.08.12-2.7,1.82-4.36,5-7.23,6.49-.22.11-.53.2-.67,0a.51.51,0,0,1,0-.49,11.94,11.94,0,0,1,2.13-2.79,44.84,44.84,0,0,0,2.91-3.54A1.56,1.56,0,0,1,121.38,89.85Z"/><path class="cls-3" d="M122.24,85.11,120,87.34a3.09,3.09,0,0,0,0,1,1.86,1.86,0,0,0,1.07,1.37,1.11,1.11,0,0,0,.31.09,1.52,1.52,0,0,0,1.05-.27c.47-.63.93-1.27,1.37-1.93A5.57,5.57,0,0,0,125,84.46a2.53,2.53,0,0,0-.09-.55C123.92,83.59,123,84.38,122.24,85.11Z"/><path class="cls-5" d="M38.87,181.51H37.52v-10h1.35V176l3.83-4.45h1.64l-4.14,4.69,4.6,5.28H43l-4.08-4.89Z"/><path class="cls-5" d="M54.1,171.33a5.13,5.13,0,0,1,5.22,5.3,5.2,5.2,0,1,1-5.22-5.3Zm-3.72,5.18a3.67,3.67,0,0,0,3.74,3.86,3.59,3.59,0,0,0,3.78-3.84,3.64,3.64,0,0,0-3.73-3.86A3.72,3.72,0,0,0,50.38,176.51Z"/><path class="cls-5" d="M63.24,181.51v-10.2l7.38,7.55v-7.32h1.26v10.35l-7.37-7.47v7.09Z"/><path class="cls-5" d="M75.57,181.51v-10.2L83,178.86v-7.32H84.2v10.35l-7.35-7.47v7.09Z"/><path class="cls-5" d="M93,171.54v1.21H89.25v2.68h3.61v1.24H89.25v3.6H93v1.27H87.89v-10Z"/><path class="cls-5" d="M102.43,171.33a5.64,5.64,0,0,1,2.63.69v1.39a4.52,4.52,0,0,0-2.52-.78,3.68,3.68,0,0,0-3.77,3.93,3.61,3.61,0,0,0,3.77,3.87,4.94,4.94,0,0,0,2.55-.82V181a5.68,5.68,0,0,1-2.6.73,5.22,5.22,0,0,1-.06-10.43Z"/><path class="cls-5" d="M110.9,181.51v-8.69h-2.16v-1.28h5.7v1.28h-2.18v8.69Z"/><path class="cls-5" d="M118.55,181.51v-10h1.35v10Z"/><path class="cls-5" d="M129,171.33a5.13,5.13,0,0,1,5.22,5.3,5.2,5.2,0,1,1-5.22-5.3Zm-3.73,5.18a3.68,3.68,0,0,0,3.74,3.86,3.58,3.58,0,0,0,3.78-3.84,3.64,3.64,0,0,0-3.73-3.86A3.72,3.72,0,0,0,125.25,176.51Z"/><path class="cls-5" d="M138.12,181.51v-10.2l7.38,7.55v-7.32h1.25v10.35l-7.35-7.47v7.09Z"/><path class="cls-5" d="M154.43,171.33a3.44,3.44,0,0,1,2.5,1.11l-.74.88a2.74,2.74,0,0,0-1.8-.82,1.5,1.5,0,0,0-1.67,1.44,1.6,1.6,0,0,0,1.28,1.47c.55.18,1,.37,1.53.61a2.9,2.9,0,0,1,1.94,2.74,3.11,3.11,0,0,1-3.2,3,4.15,4.15,0,0,1-3.27-1.59l.92-.84a3.1,3.1,0,0,0,2.3,1.21,1.77,1.77,0,0,0,2-1.68c0-.92-.69-1.38-1.48-1.71l-1.45-.57a2.67,2.67,0,0,1-1.86-2.49A2.81,2.81,0,0,1,154.43,171.33Z"/><path class="cls-3" d="M3.88,162.13H.18V134.89H7c4.73,0,8.5,3,8.5,7.86,0,5.05-3.61,8-7.26,8H3.88Zm0-14.61H6.55c3.55,0,5.23-2,5.23-4.73,0-2.49-1.93-4.41-5-4.41H3.87Z"/><path class="cls-3" d="M4.06,162.31H0v-27.6H7c5.11,0,8.69,3.31,8.69,8,0,5.31-3.83,8.18-7.44,8.18H4.06ZM.36,162H3.7V150.57H8.29c3.43,0,7.07-2.74,7.07-7.82,0-4.52-3.42-7.68-8.32-7.68H.36ZM6.55,147.7H3.7v-9.5H6.76c3.06,0,5.2,1.88,5.2,4.59,0,3.06-2,4.91-5.41,4.91Zm-2.49-.36H6.55c3.16,0,5.05-1.7,5.05-4.55,0-2.49-2-4.23-4.84-4.23H4.06Z"/><path class="cls-3" d="M39.86,134.31c8.32,0,14.25,6.37,14.25,14.48a13.94,13.94,0,0,1-14.22,14,14.23,14.23,0,0,1-.37-28.45ZM29.68,148.5c0,6.19,4.38,10.53,10.21,10.53,6.3,0,10.31-4.2,10.31-10.49C50.2,142.63,46.29,138,40,138a10.14,10.14,0,0,0-10.35,10.5Z"/><path class="cls-3" d="M39.89,163a14.4,14.4,0,0,1-.34-28.79h.31c8.23,0,14.42,6.29,14.42,14.65A14.11,14.11,0,0,1,39.89,163Zm0-28.44a13.81,13.81,0,0,0-13.94,13.7v.3a14,14,0,1,0,13.94-14Zm0,24.71c-6,0-10.39-4.5-10.39-10.71A10.24,10.24,0,0,1,40,137.84c6.1,0,10.35,4.41,10.35,10.71C50.38,155,46.26,159.22,39.89,159.22Zm.14-21a9.9,9.9,0,0,0-10.17,10.31c0,6,4.22,10.35,10,10.35C46,158.86,50,154.81,50,148.55,50,142.46,45.91,138.2,40,138.2Z"/><path class="cls-3" d="M73.74,134.31a9.38,9.38,0,0,1,6.83,3l-2,2.42a7.55,7.55,0,0,0-4.91-2.24c-3,0-4.55,2-4.55,4s1.49,3.37,3.48,4c1.53.5,2.67,1,4.2,1.67,3.24,1.36,5.3,3.95,5.3,7.47,0,4.62-4.13,8.11-8.75,8.11-3.88,0-6.47-1.64-8.93-4.33l2.53-2.31a8.38,8.38,0,0,0,6.25,3.31c2.92,0,5.38-1.75,5.38-4.59,0-2.49-1.89-3.77-4.06-4.66-1.49-.6-2.52-1-3.94-1.56-3-1.22-5.09-3.53-5.09-6.8C65.46,137.27,69.16,134.31,73.74,134.31Z"/><path class="cls-3" d="M73.32,163c-3.55,0-6.26-1.31-9.06-4.39l-.12-.14,2.8-2.57.12.16a8.28,8.28,0,0,0,6.11,3.24c2.58,0,5.19-1.51,5.19-4.4,0-2.55-2.1-3.74-3.94-4.49-.84-.36-1.54-.62-2.26-.9l-1.68-.67c-3.36-1.34-5.2-3.81-5.2-7,0-4.45,3.56-7.68,8.46-7.68a9.53,9.53,0,0,1,7,3.08l.12.11-2.27,2.71-.14-.16a7.44,7.44,0,0,0-4.77-2.16c-3,0-4.37,2-4.37,3.8,0,2.41,2.1,3.44,3.36,3.85s2.12.78,3.2,1.24l1,.43c3.44,1.45,5.41,4.22,5.41,7.64C82.25,159.23,78.24,163,73.32,163Zm-8.66-4.51c2.68,2.89,5.29,4.15,8.66,4.15,4.72,0,8.57-3.56,8.57-7.94,0-3.31-1.85-5.9-5.19-7.3l-1-.41c-1.09-.47-2-.86-3.18-1.24-2.32-.75-3.6-2.24-3.6-4.19s1.48-4.17,4.73-4.17a7.49,7.49,0,0,1,4.9,2.17l1.8-2.14a9.1,9.1,0,0,0-6.58-2.85c-4.69,0-8.11,3.07-8.11,7.32,0,3,1.77,5.34,5,6.62l1.69.67c.72.28,1.41.55,2.26.9,1.94.79,4.17,2.06,4.17,4.82s-2.33,4.77-5.55,4.77a8.68,8.68,0,0,1-6.28-3.22Z"/><path class="cls-3" d="M92.44,162.13V134.89h3.7v27.24Z"/><path class="cls-3" d="M96.32,162.31H92.26v-27.6h4.06Zm-3.7-.36H96V135.07H92.62Z"/><path class="cls-3" d="M112.15,162.13V138.41h-5.91v-3.52h15.58v3.52h-6v23.72Z"/><path class="cls-3" d="M116,162.31H112V138.59h-5.9v-3.88H122v3.88h-6Zm-3.69-.36h3.33V138.23h6v-3.16H106.42v3.16h5.91Z"/><path class="cls-3" d="M133.05,162.13V134.89h3.71v27.24Z"/><path class="cls-3" d="M136.94,162.31h-4.07v-27.6h4.07Zm-3.69-.36h3.33V135.07h-3.33Z"/><path class="cls-3" d="M150.77,134.89l7.61,19.48,7.5-19.48h4.06l-11.54,28.5-11.77-28.5Z"/><path class="cls-3" d="M158.42,163.85l-.17-.41-11.88-28.73h4.52l.05.12,7.44,19,7.38-19.16h4.45l-.11.25Zm-11.5-28.78,11.49,27.83,11.26-27.83H166l-7.63,19.8-7.73-19.8Z"/><path class="cls-3" d="M193.59,134.89v3.31H183.47v7.29h9.85v3.38h-9.85v9.82H193.6v3.44H179.76V134.89Z"/><path class="cls-3" d="M193.77,162.31H179.58v-27.6h14.19v3.67H183.64v6.93h9.85v3.74h-9.85v9.45h10.13ZM179.94,162h13.47v-3.09H183.27V148.68h9.85v-3h-9.85V138h10.14v-3H179.94Z"/></g></g></svg>