<svg xmlns="http://www.w3.org/2000/svg" viewBox="0 0 193.15 181.31"><defs><style>.cls-1{fill:#646464;}</style></defs><g id="Layer_2" data-name="Layer 2"><g id="main"><path class="cls-1" d="M56.46,87a2.53,2.53,0,0,1-1.08.8.89.89,0,0,1-1.12-.5,1.32,1.32,0,0,1,.08-.71,18.56,18.56,0,0,1,1.8-3.92l.3-.47c-.33-.29-.65-.6-.95-.92a12.39,12.39,0,0,1-1.2-1.58,34.52,34.52,0,0,1-2.88,3.83c-.36.43-.94.88-1.43.6A1.31,1.31,0,0,1,49.55,83c0-.61,0-1.22,0-1.84.15-.86.29-1.72.44-2.58a5.93,5.93,0,0,0,0-2.9c-.19-.52-.66-1-1.21-.94s-.81.75-1,1.3c-1.11,4.39-1.36,9-2.48,13.35-.45,1.77-1,3.5-1.32,5.31a8.94,8.94,0,0,0,.62,5.34c1,1.94,2.88,3.21,4.7,4.37a151.65,151.65,0,0,0,13.23,7.42c.82.4,1.85.78,2.57.23a1.94,1.94,0,0,0,.29-2.37,7.34,7.34,0,0,0-3.6-3.23,26.11,26.11,0,0,1-4.35-2.29,2.44,2.44,0,0,1-.91-1.1c-.38-1.16.72-2.24,1.74-2.91,3.73-2.46,8-4.15,11.53-6.83,1-.72,2-1.91,1.49-3a2,2,0,0,0-1.88-1,6,6,0,0,0-2.16.63q-3.41,1.48-7,2.63a2.84,2.84,0,0,1-1.55.2,1,1,0,0,1-.83-1.14,1.49,1.49,0,0,1,.39-.6l4.53-4.93a31.17,31.17,0,0,1-3.7-2Z"/><path class="cls-1" d="M51.74,68.07a4.16,4.16,0,0,1-2.55.35,2,2,0,0,1-1.64-1.79,3.32,3.32,0,0,1,.8-1.83,87.2,87.2,0,0,0,7.11-11.9,7.52,7.52,0,0,0,1-3.19,1.52,1.52,0,0,0-.27-1,1.22,1.22,0,0,0-1.34-.27,3,3,0,0,0-1.12.89C51.48,52,50.6,55.66,48,57.84a1,1,0,0,1-.51.28c-.69.11-1-.9-.8-1.6a17.52,17.52,0,0,1,1.28-3.26,34.66,34.66,0,0,0,2.64-8.86,1.89,1.89,0,0,0-.21-1.55,1.31,1.31,0,0,0-1.7-.11,3.35,3.35,0,0,0-1.07,1.5c-1.76,3.95-2.05,8.63-4.68,12.11a.83.83,0,0,1-.41.35c-.53.17-.81-.63-.76-1.19.22-2.66,1.42-5.15,1.84-7.78.12-.78.09-1.74-.58-2.16a1.46,1.46,0,0,0-1.75.36,4.17,4.17,0,0,0-.87,1.7,55.82,55.82,0,0,0-2,8.57A2.84,2.84,0,0,1,38,57.4a.91.91,0,0,1-1.1.36,1.24,1.24,0,0,1-.5-1,11.32,11.32,0,0,1-.07-2.4,8.84,8.84,0,0,0,.06-2.18,2,2,0,0,0-1.31-1.61c-2.22-.51-1.63,3.86-1.66,4.9-.09,2.71-.17,5.41-.25,8.12-.13,3.89-.11,8.2,2.47,11.12a3.9,3.9,0,0,0,1.61,1.17,5.2,5.2,0,0,0,3.38-.44l11.17-4.11a10.55,10.55,0,0,1,.59-3.56Z"/><path class="cls-1" d="M130,107a20.41,20.41,0,0,0-3.83,2.67,20.53,20.53,0,0,1-8.33,3.73c-.39.08-.91.09-1.08-.28a.86.86,0,0,1,0-.59,12.08,12.08,0,0,1,1.59-3.39,7.69,7.69,0,0,0,1.59-3,.93.93,0,0,0-.54-1.18,1.07,1.07,0,0,0-.43-.06,4.56,4.56,0,0,0-3.3,1.54,18.29,18.29,0,0,0-2.15,3.06,32.44,32.44,0,0,1-9,9.34c-1.28.88-3.71,1.84-3.82,3.64-.16,2.48,2.49,2.73,4.31,2.56l4.9-.45a35.45,35.45,0,0,0,7.45-1.23,20.39,20.39,0,0,0,10.54-8.21,5.55,5.55,0,0,0,1.15-2.88,7.06,7.06,0,0,1,0-2.2c.33-1,1.52-1.56,1.75-2.58a.58.58,0,0,0-.1-.54C130.52,106.78,130.23,106.86,130,107Z"/><path class="cls-1" d="M96.16,98.43a3.61,3.61,0,0,0-1.23.74c-3.2,2.7-5.55,6.27-8.68,9a1.51,1.51,0,0,1-1.3.52,1,1,0,0,1-.63-1.08,3,3,0,0,1,.45-1.24q2.24-4,4.45-8.1a27.84,27.84,0,0,0,1.86-3.85c-1.11-.49-2.24-.93-3.39-1.33Q84.1,99,80.54,104.85c-.22.36-.56.77-1,.68s-.52-.6-.53-1a12.69,12.69,0,0,1,1.26-4.58,29.69,29.69,0,0,0,1.27-4.19,4.54,4.54,0,0,0,.11-2,1.68,1.68,0,0,0-1.39-1.33c-.86-.07-1.52.74-2,1.49a16.81,16.81,0,0,0-1.8,4.59c-.43,1.83-.6,3.85-1.83,5.28a1.1,1.1,0,0,1-.42.32c-.5.15-.91-.44-1-.94-.4-1.52-.11-3.15-.42-4.69-.18-.91-1.33-2.75-2.43-1.64-.64.65-.25,2.95-.28,3.76L69.69,112a22.67,22.67,0,0,0,.17,4.8A7.54,7.54,0,0,0,72,121a8,8,0,0,0,5.61,1.79,44.79,44.79,0,0,0,6-.83,33.38,33.38,0,0,1,9.15-.12c1.11.14,2.42.28,3.19-.53s.43-2.6-.62-3.35a6,6,0,0,0-3.72-.76,8.88,8.88,0,0,1-2.52-.12,2.55,2.55,0,0,1-1.87-1.53c-.34-1,.29-2.13.91-3a57.16,57.16,0,0,1,6-7.33,22.64,22.64,0,0,0,2.44-2.74c-.07-.46-.15-.92-.21-1.37A25.64,25.64,0,0,1,96.16,98.43Z"/><path class="cls-1" d="M140.78,54.86a5.15,5.15,0,0,0,1-.11c0-.12,0-.24,0-.36a18.82,18.82,0,0,0-.91-4,18.19,18.19,0,0,0-1.16-2.69,3.26,3.26,0,0,1-1.09,1.21,1.22,1.22,0,0,1-1.66-.36,1.67,1.67,0,0,1,0-1.08A17.36,17.36,0,0,1,138,45a17.64,17.64,0,0,0-2.49-2.62l-.48-.3-3.86,3.12a1.42,1.42,0,0,1-1,.44,1,1,0,0,1-.72-1,2.53,2.53,0,0,1,.5-1.25c.61-1,1.26-1.94,2-2.87a41.53,41.53,0,0,0-4.48-1.54c-6.65-1.89-13.69-2.79-20-5.47l-.06.1c-.42.77-1.06,1.65-1.93,1.54a1.52,1.52,0,0,1-1.16-1.44,3.5,3.5,0,0,1,.32-1.53v0c-.2-.1-.4-.2-.6-.32a7.47,7.47,0,0,0-2.25-1,2.1,2.1,0,0,0-2.19.82c-.54.92,0,2.08.63,2.94a16.54,16.54,0,0,0,7.61,5.82c2,.75,4.51,1.46,5,3.55a3.39,3.39,0,0,1,0,1.27,5,5,0,0,1-.31,1c-.81,1.85-2.56,3.09-4.28,4.15a65.27,65.27,0,0,1-12.6,6L86.69,63l-.11.07a2.63,2.63,0,0,0,.55,1.06c1.08,1.21,3,1.08,4.6.72.45-.1.91-.21,1.36-.33a48.49,48.49,0,0,1,7.3-2.67c1.11-.54,2.2-1.13,3.26-1.78h0l.34-.2a7.23,7.23,0,0,1,3.47-1.48,2.7,2.7,0,0,1,.89.13,2.08,2.08,0,0,1,1.61,2.1,3,3,0,0,1-1,1.59,18.91,18.91,0,0,1-1.67,1.55,3.23,3.23,0,0,1-.1.61,3.32,3.32,0,0,1-.38.89,7.25,7.25,0,0,1-2.52,2.13c-2.41,1.44-4.93,2.66-7.46,3.88l-.66.32c-.54.43-1.08.87-1.58,1.34-.23.21-.46.44-.68.67a5.34,5.34,0,0,0-1.8,4A2.47,2.47,0,0,0,92.68,79h0a1.93,1.93,0,0,0,.36.28,2.11,2.11,0,0,0,1,.29A4.6,4.6,0,0,0,96,79c.4-.19.79-.39,1.18-.6,4-2.16,7.59-5,11.28-7.77h0c1.21-.89,2.43-1.76,3.68-2.57l1-.66c.83-.59,2.16-1.08,2.69-.22a1.26,1.26,0,0,1,.16.54,2.16,2.16,0,0,1-.27,1.72,5.8,5.8,0,0,1-.36.59c-3.12,4.46-7.58,7.82-10.77,12.23-.56.78-1.1,1.8-.66,2.66l0,0c.54,1,1.84.89,3,.46a8.09,8.09,0,0,0,.84-.4,31.71,31.71,0,0,0,5-3.74,54.54,54.54,0,0,0,6.47-7,3.17,3.17,0,0,1,1.74-1.36,1.84,1.84,0,0,1,.33,0,2.12,2.12,0,0,1,1.65,1.08,4.2,4.2,0,0,1,.39,2.34c-.3,4-3,7.35-4.12,11.18l.43-.43,2.23-2.23c.72-.71,1.68-1.51,2.65-1.18a2.34,2.34,0,0,1,.09.54c.52-1,1-2,1.54-3q2-3.84,4.31-7.5c.36-.57.73-1.12,1.11-1.68.56-.92,1.15-1.83,1.8-2.7.52-.69,1.07-1.37,1.65-2,1.25-1.65,2.53-3.27,3.78-4.94a15.25,15.25,0,0,0,2.17-4,15.43,15.43,0,0,1-1.67.09,1.86,1.86,0,0,1-1-.21,1.35,1.35,0,0,1-.17-1.8A4.41,4.41,0,0,1,140.78,54.86Z"/><path class="cls-1" d="M142.18,85.79a44.08,44.08,0,0,1-11.56,4.64,5.32,5.32,0,0,0-1.79.59,1.68,1.68,0,0,0-.86,1.59c.17,1.07,1.53,1.39,2.61,1.41a26.43,26.43,0,0,0,5.26-.43c.68-.12,1.65,0,1.68.63a1.29,1.29,0,0,1-.14.5c-2.11,4.62-6.92,7.3-10.26,11.14a1.3,1.3,0,0,0-.36.66.93.93,0,0,0,.81.91,2.61,2.61,0,0,0,1.29-.24,26.25,26.25,0,0,0,6.33-3.54c.28.77-.5,1.46-1.13,2a9,9,0,0,0-2,2.34.74.74,0,0,0-.14.62c.11.27.47.31.76.31,2.59,0,5.25,0,7.62-1.08,3.31-1.47,5.47-4.67,7.44-7.72a49.93,49.93,0,0,0,4-6.83c.93-2.07,1.56-4.59.39-6.53C150,83.38,145.08,84.24,142.18,85.79Z"/><path class="cls-1" d="M135.1,42l3.4-2.75a2.18,2.18,0,0,1,1.75-.68c-.07,2.12-1.1,4-2,5.95L138,45a18.22,18.22,0,0,1,1.77,2.76l.14-.22.31-.48a35.21,35.21,0,0,1,3.71-4.81c.23-.25.6-.52.88-.32s.21.49.16.76L144,48.09a3.92,3.92,0,0,0,.06,2.28,1.37,1.37,0,0,0,1.89.72,1.91,1.91,0,0,0,.58-1q1.53-4.81,3.07-9.62c.57-1.8,1.14-3.6,1.61-5.4a16.83,16.83,0,0,0,.72-4.89,7.35,7.35,0,0,0-1.62-4.58,11.25,11.25,0,0,0-2.59-2c-5.48-3.47-11-7-17.07-9.3a2.39,2.39,0,0,0-1.63-.21,1.56,1.56,0,0,0-.93,1.53,3,3,0,0,0,.78,1.73c1.36,1.63,3.47,2.35,5.34,3.36,1.28.68,2.61,1.76,2.62,3.23a3.23,3.23,0,0,1-1.43,2.48,11.27,11.27,0,0,1-2.68,1.25,40.31,40.31,0,0,0-7.33,3.7,8.63,8.63,0,0,0-2.68,2.38c-.53.82-.72,2,0,2.65a2.52,2.52,0,0,0,2.32,0l7-2.23c1-.33,4.16-1.9,4.38,0,.17,1.44-1.89,3.07-2.68,4-.55.64-1.08,1.29-1.58,2l-.27.36A23.65,23.65,0,0,1,135.06,42Z"/><path class="cls-1" d="M129.44,44.59a1,1,0,0,0,.72,1,1.44,1.44,0,0,0,1-.45L135.05,42a23.59,23.59,0,0,0-3.14-1.57c-.69.93-1.35,1.89-2,2.87A2.75,2.75,0,0,0,129.44,44.59Z"/><path class="cls-1" d="M137,47.47a1.67,1.67,0,0,0,0,1.08,1.21,1.21,0,0,0,1.66.36,3.34,3.34,0,0,0,1.09-1.21A18.22,18.22,0,0,0,138,44.94,16.49,16.49,0,0,0,137,47.47Z"/><path class="cls-1" d="M160.68,54.6c-.25-1.79-.74-3.82-2.33-4.7s-3.76-.13-5.51.67A45.37,45.37,0,0,1,147.15,53c-1.51.45-3.53,1.39-5.26,1.72h-.08a6,6,0,0,1-1,.11,4.43,4.43,0,0,0-2.7,1.56,1.37,1.37,0,0,0,.17,1.8,1.87,1.87,0,0,0,1,.22,15.43,15.43,0,0,0,1.67-.1l.56,0a15.53,15.53,0,0,0,2.15-.47,3.28,3.28,0,0,1,1.87-.2,2,2,0,0,1,1.21,2.09,6,6,0,0,1-.91,2.42,56.45,56.45,0,0,1-5,7.87,24.84,24.84,0,0,0-2.41,3.18,9,9,0,0,0-1,3c-.07.48,0,1.1.46,1.24a1,1,0,0,0,.52,0,6.35,6.35,0,0,0,2.89-2.62c1.5-2.07,3-4.11,4.63-6.1.31-.39.82-.81,1.23-.53a.94.94,0,0,1,.27.91,16.37,16.37,0,0,1-.83,3.45L144,80.4a3.62,3.62,0,0,0-.26,1.69,1.27,1.27,0,0,0,1.13,1.13c.58,0,1.08-.63,1.36-1.2,2.09-4,2.79-8.86,5.72-12.35a23.89,23.89,0,0,1-.61,9.37,2.08,2.08,0,0,0-.1,1,.66.66,0,0,0,.76.52.8.8,0,0,0,.36-.27c1.21-1.32,1.59-3.18,2-4.93a55.81,55.81,0,0,1,2.12-6.92c.12-.31.29-.67.61-.72a.71.71,0,0,1,.59.19,2.46,2.46,0,0,1,.62,1.8l.39,6c.88.13,1.37-1,1.53-1.85A60.36,60.36,0,0,0,160.68,54.6Z"/><path class="cls-1" d="M108.81,17.4a1.34,1.34,0,0,1,.89-.36.91.91,0,0,1,.7.86,2.76,2.76,0,0,1-.29,1.16c-1.59,3.83-3.77,8.84-5.36,12.67l-.15.38v0l.49.23c.76.4,1.55.76,2.34,1.1l.11-.2c1.92-3.5,4.37-8,6.26-11.5.3-.54.77-1.17,1.38-1,.78.17.75,1.28.52,2.05-.79,2.68-1.59,5.36-2.38,8a4.08,4.08,0,0,0-.25,1.59,1.38,1.38,0,0,0,.93,1.21c.92.24,1.62-.8,2-1.67l4.42-10.14a3.51,3.51,0,0,1,1.19,2.82c0,1.06-.19,2.11-.08,3.17a1.69,1.69,0,0,0,1,1.6,1.36,1.36,0,0,0,1.44-.79,4,4,0,0,0,.29-1.72l.2-11.72a22.73,22.73,0,0,0-.61-7,7.71,7.71,0,0,0-4.46-5.2,8.75,8.75,0,0,0-3.29-.39,53.12,53.12,0,0,0-6.48,1,50.07,50.07,0,0,1-8.29.72,6.85,6.85,0,0,0-2.07.21,2.09,2.09,0,0,0-1.44,1.39A2.08,2.08,0,0,0,98.93,8a6.29,6.29,0,0,0,2.52.63l3.77.41a4,4,0,0,1,1.66.66c.36.3,1,.49.93,1-.47,3.19-3,5.66-5.28,7.91a20.12,20.12,0,0,0-4.47,5.47c.2.87.45,1.74.63,2.59A82,82,0,0,1,108.81,17.4Z"/><path class="cls-1" d="M104.59,32.11a3.53,3.53,0,0,0-.32,1.53,1.51,1.51,0,0,0,1.16,1.44c.87.11,1.51-.77,1.93-1.54l.06-.1c-.79-.34-1.58-.72-2.34-1.11Z"/><path class="cls-1" d="M74.88,39.61a35.12,35.12,0,0,1,2.59-2.87,1.86,1.86,0,0,1,.8-.55.68.68,0,0,1,.81.36.93.93,0,0,1,0,.57c-1,3.45-4.16,6.33-3.88,9.91a1.34,1.34,0,0,0,.19.68c.48.67,1.54.2,2.13-.36,2.33-2.18,3.86-5,5.52-7.76s3.6-5.42,6.36-7a3.23,3.23,0,0,1,2.94-.4,2.59,2.59,0,0,1,1.22,2,12.65,12.65,0,0,1-.07,2.46,9.22,9.22,0,0,0,1.91,6.55,3.72,3.72,0,0,0,1.71,1.24,1.93,1.93,0,0,0,2-.47c.65-.75.43-1.88.21-2.85a27.2,27.2,0,0,1-.62-8.72A26.74,26.74,0,0,0,99,28.54a11,11,0,0,0-.28-1.9c-.18-.85-.43-1.72-.63-2.58a8.42,8.42,0,0,1-.15-4.39c.69-2.37,5-4.2,2.57-6.88a5.81,5.81,0,0,0-2-1.33,9,9,0,0,0-6.66-.67,13.47,13.47,0,0,0-3.6,2.42c-5.53,4.54-12,7.84-17.9,11.8a3.58,3.58,0,0,0-1.77,2c-.08.42.08,1,.5,1a.9.9,0,0,0,.46-.09c2.09-.86,3.75-2.79,6-3,.12,1-.8,1.87-1.59,2.55a21.39,21.39,0,0,0-4.75,6,4.8,4.8,0,0,0-.75,3.32,4.63,4.63,0,0,0,2.2-1.63,39.75,39.75,0,0,1,5-4.57c.59-.46,1.61-.81,1.92-.14.2.42-.09.88-.36,1.24-1.2,1.6-2.49,3.14-3.63,4.78a1.38,1.38,0,0,1,.56.12C75.06,37.05,75.14,38.47,74.88,39.61Z"/><path class="cls-1" d="M45.86,40.85c4,.22,7.49-2.46,11.21-3.93a19.23,19.23,0,0,1,6.74-1.35,5.69,5.69,0,0,0,1.65-.18,1.58,1.58,0,0,0,1.12-1.13,1.55,1.55,0,0,0-.81-1.49A3.8,3.8,0,0,0,64,32.34a26.8,26.8,0,0,0-6.51.32,1.2,1.2,0,0,1-1-.12c-.39-.36-.15-1,.12-1.44A36,36,0,0,1,65,21.53a4.15,4.15,0,0,0,1-1.08,1.26,1.26,0,0,0,0-1.44,1.13,1.13,0,0,0-1-.36c-.26.21-.51.41-.75.62s-.58.45-.89.33a.47.47,0,0,1-.13-.11c-.64.42-1.44.77-2,1.21-.81.62-1.53,1.35-2.29,2,.42-1.53,1.82-3.15,2.66-4.51A1.53,1.53,0,0,0,62,17c-.16-.5-.76-.69-1.29-.75C58,16,55.36,17,53,18.36c-6.19,3.62-11.1,10-11.5,17.16a5.51,5.51,0,0,0,.86,3.78A4.65,4.65,0,0,0,45.86,40.85Z"/><path class="cls-1" d="M64.27,19.29l.75-.61a36.05,36.05,0,0,1,12.21-6.53,1.19,1.19,0,0,1,.85,0c.64.3.29,1.28-.17,1.79-1.56,1.77-3.74,3.32-4,5.65a1.09,1.09,0,0,0,.15.77c.36.47,1.1.22,1.6-.1,5.54-3.5,8.06-10.69,13.83-13.79a10.57,10.57,0,0,0,3.34-2.1A2.52,2.52,0,0,0,91.33.11c-6.57-.62-13.19,1.44-19,4.55a8.21,8.21,0,0,0-3.26,2.61c-.52.81-.77,1.8-1.34,2.56-.37.51-.88.92-1.27,1.44a2,2,0,0,0-.47,1.8c.14.46.54.88.43,1.35a1.31,1.31,0,0,1-.34.52c-1.08,1.16-2.55,2.16-3,3.71a1,1,0,0,0,.15.89l.14.11C63.7,19.74,64,19.51,64.27,19.29Z"/><path class="cls-1" d="M91.87,94.84c.74.36,1.78.66,2.23,0a1.53,1.53,0,0,0,.19-1,9.82,9.82,0,0,0-4.11-7.19,20.93,20.93,0,0,0-7.11-3,2.86,2.86,0,0,1-1.68-.75c-.83-1,.17-2.48,1.17-3.33,4-3.43,8.85-5.72,13.66-8l.66-.32c2.53-1.22,5.05-2.46,7.46-3.88a7.4,7.4,0,0,0,2.51-2.13,3.71,3.71,0,0,0,.39-.89,3.21,3.21,0,0,0,.09-.61,2.2,2.2,0,0,0-.48-1.6,3.62,3.62,0,0,0-3.08-.86,19.3,19.3,0,0,0-3.36.55,47.81,47.81,0,0,0-7.3,2.67A55.29,55.29,0,0,1,86.41,67a2.12,2.12,0,0,1-2-.16,1.48,1.48,0,0,1-.15-1.73,4.54,4.54,0,0,1,1.31-1.31l1.08-.8.11-.07,8.9-6.64,1.08-.81h0a20.69,20.69,0,0,0,4.75-4.39c1-1.35,1.48-3.4.26-4.51a2.79,2.79,0,0,0-2.61-.47,8.11,8.11,0,0,0-2.42,1.31L82,57.64a4.4,4.4,0,0,1-1.88.91,1.55,1.55,0,0,1-1.71-.93A2.21,2.21,0,0,1,79,55.87c3.16-4.5,7.47-8,11-12.25.74-.89,1.48-2.12.89-3.12a2,2,0,0,0-2.26-.69,5.91,5.91,0,0,0-2.11,1.37L73,53.1c-.41.35-.93.75-1.47.6s-.81-1-.8-1.64c0-4.34,3.06-8.06,4.15-12.26a1.18,1.18,0,0,0,0-.2c.26-1.14.18-2.56-.87-3a1.38,1.38,0,0,0-.56-.12A2.23,2.23,0,0,0,72,37a6.09,6.09,0,0,0-1.2,1.77A164.36,164.36,0,0,1,53.73,65.33a8.55,8.55,0,0,0-1.34,2.44,10.48,10.48,0,0,0-.6,3.56,15.87,15.87,0,0,0,1.69,6.92,15.2,15.2,0,0,0,.8,1.42,12.39,12.39,0,0,0,1.2,1.58c.31.32.63.63,1,.92a18.35,18.35,0,0,0,1.72,1.33c.32.22.65.43,1,.63a31.25,31.25,0,0,0,3.7,2c7.72,3.49,16.71,4.24,24.85,7.05,1.15.39,2.28.83,3.39,1.33Z"/><path class="cls-1" d="M121,89.55a1.09,1.09,0,0,1-.31-.08,1.9,1.9,0,0,1-1.06-1.37,3.08,3.08,0,0,1,0-1l-.43.44-3.1,3.1c-.83.83-2,1.74-3.06,1.31l5.28-9a6,6,0,0,0,1-2.47,2.06,2.06,0,0,0-1.21-2.18c-1.2-.39-2.31.76-2.92,1.86-1.11,2-1.72,4.22-2.81,6.22A14.87,14.87,0,0,1,102,93.79a1,1,0,0,1-.59,0,.91.91,0,0,1-.38-.68,40.82,40.82,0,0,1-.18-5,10.22,10.22,0,0,0-2.18-5.54c-.6-.75-1.56-1.46-2.43-1.08a1.7,1.7,0,0,0-.86,1.57,6.43,6.43,0,0,0,.39,1.84c1.27,4.35.32,9,.4,13.51a23.08,23.08,0,0,0,.18,2.63c.06.45.13.91.21,1.37a8.67,8.67,0,0,1-.11,4.61,21.53,21.53,0,0,1-2,3.14,3.43,3.43,0,0,0-.36,3.52,3.72,3.72,0,0,0,2.37,1.36c3.23.78,7.23.83,9.69-1.59A53.3,53.3,0,0,1,115,106c3.49-2.19,7.58-3.8,9.88-7.21a.59.59,0,0,0,.13-.36c0-.34-.54-.32-.86-.21l-3,1.08a.86.86,0,0,1-.65.06c-.49-.22-.21-1,.15-1.36,1.08-1.21,2.34-2.29,3.39-3.54a8,8,0,0,0,2-4.38.86.86,0,0,0-.14-.64c-.27-.29-.76-.11-1.08.12-2.69,1.82-4.35,5-7.21,6.47-.21.11-.52.19-.66,0a.52.52,0,0,1,0-.5,11.79,11.79,0,0,1,2.12-2.77c1-1.13,2-2.32,2.91-3.54A1.53,1.53,0,0,1,121,89.55Z"/><path class="cls-1" d="M121.84,84.83l-2.23,2.22a3.08,3.08,0,0,0,0,1,1.89,1.89,0,0,0,1.07,1.37,1,1,0,0,0,.3.08,1.51,1.51,0,0,0,1-.26c.47-.63.93-1.27,1.37-1.93a5.54,5.54,0,0,0,1.18-3.18,2.54,2.54,0,0,0-.09-.54C123.52,83.32,122.57,84.1,121.84,84.83Z"/><path class="cls-1" d="M38.75,180.92H37.4V171h1.35v4.44l3.8-4.44h1.64l-4.13,4.67,4.58,5.27H42.8L38.73,176Z"/><path class="cls-1" d="M53.93,170.77a5.11,5.11,0,0,1,5.2,5.28,5.18,5.18,0,1,1-5.2-5.28ZM50.21,176a3.66,3.66,0,0,0,3.73,3.84A3.57,3.57,0,0,0,57.71,176,3.63,3.63,0,0,0,54,172.12,3.71,3.71,0,0,0,50.21,176Z"/><path class="cls-1" d="M63,180.92V170.76l7.37,7.51V171h1.25v10.33l-7.34-7.45v7.08Z"/><path class="cls-1" d="M75.33,180.92V170.76l7.36,7.51V171h1.24v10.33l-7.33-7.45v7.08Z"/><path class="cls-1" d="M92.67,171v1.2H89v2.66h3.59v1.23H89v3.6h3.7v1.26h-5V171Z"/><path class="cls-1" d="M102.1,170.77a5.57,5.57,0,0,1,2.62.69v1.39a4.43,4.43,0,0,0-2.51-.78A3.67,3.67,0,0,0,98.45,176a3.61,3.61,0,0,0,3.76,3.86,5,5,0,0,0,2.54-.82v1.41a5.52,5.52,0,0,1-2.6.72A5,5,0,0,1,97.07,176,5,5,0,0,1,102.1,170.77Z"/><path class="cls-1" d="M110.54,180.92v-8.66h-2.15V171h5.68v1.28H111.9v8.66Z"/><path class="cls-1" d="M118.16,180.92V171h1.35v9.94Z"/><path class="cls-1" d="M128.56,170.77a5.12,5.12,0,0,1,5.21,5.28,5.18,5.18,0,1,1-5.21-5.28ZM124.85,176a3.66,3.66,0,0,0,3.73,3.84,3.57,3.57,0,0,0,3.76-3.83,3.63,3.63,0,0,0-3.71-3.84,3.7,3.7,0,0,0-3.78,3.83Z"/><path class="cls-1" d="M137.67,180.92V170.76l7.36,7.51V171h1.25v10.33L139,173.86v7.08Z"/><path class="cls-1" d="M153.93,170.77a3.49,3.49,0,0,1,2.5,1.1l-.75.89a2.7,2.7,0,0,0-1.79-.82,1.5,1.5,0,0,0-1.67,1.45,1.59,1.59,0,0,0,1.28,1.47c.56.18,1,.38,1.53.61A2.88,2.88,0,0,1,157,178.2a3.08,3.08,0,0,1-3.19,3,4.14,4.14,0,0,1-3.26-1.58l.92-.84a3.08,3.08,0,0,0,2.29,1.21,1.77,1.77,0,0,0,2-1.68c0-.91-.69-1.38-1.48-1.7l-1.44-.57a2.64,2.64,0,0,1-1.86-2.48A2.81,2.81,0,0,1,153.93,170.77Z"/><path class="cls-1" d="M3.87,161.6H.18V134.45H7c4.72,0,8.48,3,8.48,7.83,0,5-3.6,8-7.24,8H3.87Zm0-14.57H6.53c3.54,0,5.21-2,5.21-4.71,0-2.48-1.92-4.4-5-4.4H3.86Z"/><path class="cls-1" d="M4.05,161.78H0V134.27H7c5.1,0,8.65,3.3,8.65,8,0,5.3-3.81,8.16-7.4,8.16H4.05Zm-3.69-.36H3.69V150.08H8.27c3.41,0,7-2.73,7-7.8,0-4.5-3.41-7.65-8.29-7.65H.36Zm6.17-14.2H3.69v-9.48H6.74c3,0,5.18,1.88,5.18,4.58,0,3.07-2,4.9-5.39,4.9Zm-2.48-.36H6.53c3.14,0,5-1.7,5-4.53,0-2.48-2-4.22-4.82-4.22H4.05Z"/><path class="cls-1" d="M39.73,133.88c8.29,0,14.21,6.35,14.21,14.43a13.9,13.9,0,0,1-14.18,13.93,14.18,14.18,0,0,1-.37-28.36ZM29.59,148c0,6.16,4.36,10.49,10.17,10.49C46,158.52,50,154.33,50,148.06c0-5.88-3.9-10.49-10.14-10.49A10.1,10.1,0,0,0,29.59,148Z"/><path class="cls-1" d="M39.76,162.42a14.35,14.35,0,0,1-.34-28.7h.31a14.35,14.35,0,1,1,0,28.7Zm0-28.35a13.78,13.78,0,0,0-13.9,13.66v.3a14,14,0,1,0,13.9-14Zm0,24.63c-6,0-10.36-4.49-10.36-10.67a10.21,10.21,0,0,1,10.5-10.64c6.09,0,10.32,4.39,10.32,10.67C50.22,154.53,46.12,158.7,39.76,158.7Zm.14-20.95A9.86,9.86,0,0,0,29.77,148c0,6,4.2,10.31,10,10.31,6.14,0,10.1-4,10.1-10.28,0-6.07-4.1-10.31-10-10.31Z"/><path class="cls-1" d="M73.51,133.88a9.33,9.33,0,0,1,6.79,3l-2,2.42a7.51,7.51,0,0,0-4.89-2.24c-3,0-4.54,2-4.54,4s1.49,3.37,3.48,4c1.52.5,2.65,1,4.18,1.67,3.23,1.35,5.28,3.94,5.28,7.44,0,4.61-4.11,8.09-8.72,8.09-3.86,0-6.47-1.64-8.9-4.32l2.52-2.3a8.34,8.34,0,0,0,6.24,3.29c2.9,0,5.35-1.73,5.35-4.57,0-2.48-1.88-3.76-4-4.64-1.49-.6-2.52-1-3.93-1.56-3-1.2-5.07-3.51-5.07-6.77C65.25,136.83,68.93,133.88,73.51,133.88Z"/><path class="cls-1" d="M73.08,162.42c-3.54,0-6.24-1.31-9-4.38l-.12-.14,2.79-2.55.12.15c.61.75,2.82,3.24,6.11,3.24,2.57,0,5.18-1.51,5.18-4.4,0-2.54-2.1-3.72-3.93-4.47L72,149l-1.72-.67c-3.34-1.34-5.18-3.8-5.18-6.94,0-4.44,3.55-7.66,8.44-7.66a9.54,9.54,0,0,1,6.94,3.07l.11.12-2.26,2.69-.14-.15a7.38,7.38,0,0,0-4.75-2.18c-3,0-4.36,2-4.36,3.79,0,2.4,2.1,3.43,3.35,3.84s2.11.78,3.19,1.24l1,.43A8.11,8.11,0,0,1,82,154.16C82,158.71,78,162.42,73.08,162.42Zm-8.63-4.49c2.68,2.89,5.27,4.13,8.63,4.13,4.71,0,8.54-3.54,8.54-7.91,0-3.3-1.84-5.89-5.17-7.28l-1-.43a32.91,32.91,0,0,0-3.16-1.23C70,144.46,68.69,143,68.69,141s1.47-4.15,4.72-4.15A7.47,7.47,0,0,1,78.28,139l1.8-2.13a9.15,9.15,0,0,0-6.56-2.84c-4.67,0-8.08,3.07-8.08,7.3,0,3,1.76,5.32,5,6.6l1.68.67c.72.27,1.41.55,2.25.89,1.94.79,4.16,2.06,4.16,4.81s-2.33,4.75-5.54,4.75a8.62,8.62,0,0,1-6.25-3.21Z"/><path class="cls-1" d="M92.14,161.6V134.45h3.69V161.6Z"/><path class="cls-1" d="M96,161.78H92V134.27H96Zm-3.69-.36h3.33V134.63H92.32Z"/><path class="cls-1" d="M111.78,161.6V138H105.9v-3.51h15.52V138h-6V161.6Z"/><path class="cls-1" d="M115.65,161.78H111.6V138.14h-5.88v-3.87h15.89v3.87h-6Zm-3.69-.36h3.33V137.78h5.95v-3.15H106.08v3.15H112Z"/><path class="cls-1" d="M132.63,161.6V134.45h3.68V161.6Z"/><path class="cls-1" d="M136.49,161.78h-4.06V134.27h4.06Zm-3.68-.36h3.32V134.63h-3.32Z"/><path class="cls-1" d="M150.28,134.45l7.59,19.41,7.48-19.41h4l-11.49,28.4-11.73-28.4Z"/><path class="cls-1" d="M157.91,163.34l-.17-.41L145.9,134.28h4.51l0,.12,7.42,19,7.35-19.11h4.44l-.11.25Zm-11.46-28.71,11.46,27.73,11.22-27.73h-3.66l-7.6,19.74-7.71-19.74Z"/><path class="cls-1" d="M193,134.45v3.3h-10.1V145h9.82v3.37h-9.82v9.78H193v3.44H179.17V134.45Z"/><path class="cls-1" d="M193.15,161.78H179V134.27h14.15v3.66H183v6.9h9.82v3.73H183V158h10.11Zm-13.79-.36h13.42v-3.07h-10.1V148.2h9.82v-3h-9.82v-7.63h10.1v-2.94H179.36Z"/></g></g></svg>