<svg xmlns="http://www.w3.org/2000/svg" viewBox="0 0 45.83 34.37"><defs><style>.cls-1{fill:#2ec571;}</style></defs><g id="Layer_2" data-name="Layer 2"><g id="text"><path class="cls-1" d="M40.83,28.68c0,.91-.68,1.37-1.31,1.09a2.9,2.9,0,0,1-.58-.41l-9.4-7.82c-.2-.17-.49-.34-.55-.56s-.13-.84.06-1a1.81,1.81,0,0,1,1.08-.3c.16,0,.35.21.51.34q4.77,4,9.53,7.93A4.88,4.88,0,0,1,40.83,28.68Z"/><path class="cls-1" d="M45.83,29.9c-.08.22-.15.44-.22.66a5.34,5.34,0,0,1-5.1,3.8q-17.58,0-35.17,0A5.27,5.27,0,0,1,0,29Q0,17.2,0,5.37A5.26,5.26,0,0,1,5.34,0q17.6,0,35.17,0a5.33,5.33,0,0,1,5.1,3.79c.07.23.14.45.22.67Zm-23,2.55c5.7,0,11.39-.06,17.09,0a3.7,3.7,0,0,0,4-4c-.08-7.52,0-15,0-22.55,0-2.66-1.29-4-3.94-4H5.86c-2.65,0-3.93,1.3-3.93,4V28.44c0,2.73,1.26,4,4,4Z"/><path class="cls-1" d="M22.73,20.78A4,4,0,0,1,20,19.72L5.12,6.39c-.51-.45-.79-1-.29-1.54s1-.34,1.55.11L20.89,18c1.34,1.21,2.32,1.19,3.67,0L38.86,5.11c.18-.16.37-.42.56-.43a1.79,1.79,0,0,1,1.16.23c.2.2.13.76,0,1.11s-.39.44-.61.63L25.63,19.58A4.22,4.22,0,0,1,22.73,20.78Z"/><path class="cls-1" d="M15.67,19.4c.29.23.69.39.78.66a1.3,1.3,0,0,1-.12,1,6.12,6.12,0,0,1-1.13,1L6.55,29.29a1.78,1.78,0,0,1-.89.53c-.32,0-.88-.25-.92-.47a1.5,1.5,0,0,1,.31-1.23C6.62,26.71,8.27,25.39,9.89,24l4.81-4C15,19.82,15.28,19.66,15.67,19.4Z"/></g></g></svg>