<svg xmlns="http://www.w3.org/2000/svg" viewBox="0 0 177.41 177.41"><defs><style>.cls-1{fill:#eabd0f;}.cls-2{fill:#99616a;}.cls-3{fill:#2f2e41;}.cls-4{fill:#3491d4;}</style></defs><g id="Layer_2" data-name="Layer 2"><g id="main"><path class="cls-1" d="M88.71,0A88.7,88.7,0,0,0,37.09,160.8a86.22,86.22,0,0,0,8,5.15l1.6.88a88.71,88.71,0,0,0,73.67,4.74c2.53-1,5-2.06,7.42-3.25A88.7,88.7,0,0,0,88.71,0Z"/><circle class="cls-2" cx="91.43" cy="88.24" r="28.37"/><polygon class="cls-2" points="67.95 122.96 73.87 107.85 104.42 103.25 107.7 136.7 76.82 137.36 67.95 122.96"/><path class="cls-3" d="M120.07,93.47c-.36,1.48-1.11,5-2.27,5-1,0-1.86-15.22-.91-17.74,1.09-2.9-1.77-6.56-3.93-8.44-3.88-3.38-12.49,3.88-21.24.59l-3-1.18c-8.5-3.4-9-3.49-9.44-3.54-4.12-.41-9.15,3-11.21,7.08s-.35,7.94-2.36,18.29c-.23,1.2-.6,2.92-1.18,2.95-1.06,0-2.09-5.6-2.36-7.08-1.13-6.2-2.22-12.17,0-18.88.24-.73,1.74-3.45,4.72-8.85C71.24,53.9,73.4,50,74,49.29c4.48-5,12.63-9.63,19.47-7.67,3.46,1,2.84,2.58,7.08,4.13,7.56,2.76,14.13-.62,15.34,1.77.64,1.26-1.15,2.3-1.18,4.72,0,4.14,5.19,5.34,8.26,9.44,1.65,2.2,4.47,2.23-2.92,31.79Z"/><path class="cls-4" d="M155.22,147.92c-1.15,1.29-2.33,2.55-3.56,3.78A87.41,87.41,0,0,1,35.09,158l0,0q-3.08-2.49-6-5.28l.12-.86c.27-1.9.57-3.72.9-5.39C32.87,132.74,69,118.35,69.9,118h0s4.65,17.13,24.55,16.91C108,134.73,105.4,118,105.4,118l.47.1c3.92.83,31.11,6.81,41.83,15,3.27,2.48,5.62,7.77,7.3,14.08C155.08,147.38,155.15,147.65,155.22,147.92Z"/></g></g></svg>