<svg xmlns="http://www.w3.org/2000/svg" viewBox="0 0 326.2 196.38"><defs><style>.cls-1{fill:#c3c3c3;}.cls-2{fill:#fff;}.cls-3{fill:#f7b1b1;}.cls-4{fill:#2f2e41;}.cls-5{fill:#3491d4;}.cls-6{fill:#ffafaf;}.cls-7{fill:#2ec571;}.cls-8{fill:#99616a;}.cls-9{fill:#eabd0f;}</style></defs><g id="Layer_2" data-name="Layer 2"><g id="text"><path class="cls-1" d="M4,157.11c1.25-10,7.46-19.88,17-23.14a46.49,46.49,0,0,0,0,31.93c1.47,4,3.51,8.23,2.13,12.23a10.4,10.4,0,0,1-5.31,5.59A30.44,30.44,0,0,1,10.3,186l-.5.42C5.71,177.22,2.76,167.13,4,157.11Z"/><path class="cls-2" d="M21.1,134.16a39.75,39.75,0,0,0-9.88,22.37,17.23,17.23,0,0,0,.2,5.36,9.72,9.72,0,0,0,2.44,4.55A20.34,20.34,0,0,1,17,170.22a6,6,0,0,1,.3,4.9,15.67,15.67,0,0,1-3.46,5.16C12.3,182,10.66,183.75,10,186c-.08.28-.5.14-.42-.14,1.14-3.95,5-6.19,6.81-9.75a6.1,6.1,0,0,0,.41-5.34,15.61,15.61,0,0,0-3.13-3.89,10.56,10.56,0,0,1-2.55-4.37,15.67,15.67,0,0,1-.4-5.33,38.57,38.57,0,0,1,2.82-11.72,40.39,40.39,0,0,1,7.27-11.65c.19-.22.48.12.29.33Z"/><path class="cls-1" d="M50.12,151.86l-.45.3A44.19,44.19,0,0,0,44,156.59l-.41.38A46.89,46.89,0,0,0,33.4,170.9a44.28,44.28,0,0,0-2.49,6.45c-.92,3.06-1.68,6.44-3.5,8.94a8.69,8.69,0,0,1-.61.75H10.35l-.11-.06-.66,0c0-.11.05-.23.08-.35s0-.13.05-.2l0-.13s0,0,0,0l0-.12c.16-.67.33-1.34.51-2h0a67.38,67.38,0,0,1,5.63-14.79c.08-.14.15-.28.24-.42a42.81,42.81,0,0,1,3.9-5.91,37.41,37.41,0,0,1,2.55-2.93,32,32,0,0,1,8-6c5.9-3.12,12.74-4.31,19-2.41Z"/><path class="cls-2" d="M50.09,152.07A39.72,39.72,0,0,0,28.73,164a17,17,0,0,0-3.07,4.4,9.71,9.71,0,0,0-.79,5.1,20.24,20.24,0,0,1,.24,4.91,6,6,0,0,1-2.72,4.1,15.8,15.8,0,0,1-5.87,2c-2.27.43-4.63.85-6.52,2.26-.23.18-.48-.19-.26-.36,3.3-2.47,7.71-2,11.31-3.69a6.06,6.06,0,0,0,3.55-4,15.79,15.79,0,0,0-.16-5,10.6,10.6,0,0,1,.59-5,16,16,0,0,1,2.89-4.5,38.58,38.58,0,0,1,9.31-7.66,40.25,40.25,0,0,1,12.82-4.92C50.33,151.57,50.36,152,50.09,152.07Z"/><path class="cls-2" d="M72.34,154.78A3.39,3.39,0,0,0,75,156.57c.28,0,.2.47-.08.44A3.77,3.77,0,0,1,72,155a.23.23,0,0,1,0-.31.22.22,0,0,1,.31.06Z"/><path class="cls-1" d="M325.76,140.38c-1.92-15.39-11.46-30.56-26.14-35.57a71.48,71.48,0,0,1,0,49.07c-2.26,6.1-5.4,12.65-3.28,18.8,1.32,3.83,4.55,6.76,8.16,8.59s7.62,2.7,11.57,3.56l.78.64C323.14,171.29,327.67,155.77,325.76,140.38Z"/><path class="cls-2" d="M299.48,105.1a61.06,61.06,0,0,1,15.18,34.38,26.19,26.19,0,0,1-.3,8.24,15.14,15.14,0,0,1-3.75,7c-1.69,1.85-3.64,3.56-4.85,5.8a9.27,9.27,0,0,0-.45,7.54c1.07,3.06,3.18,5.56,5.32,7.93,2.38,2.64,4.9,5.33,5.91,8.82.12.43.77.21.65-.21-1.76-6.07-7.66-9.52-10.47-15-1.31-2.56-1.86-5.52-.63-8.21,1.07-2.36,3.08-4.12,4.81-6a16.23,16.23,0,0,0,3.92-6.71,24.33,24.33,0,0,0,.62-8.2,59.23,59.23,0,0,0-4.33-18,62.28,62.28,0,0,0-11.18-17.91c-.29-.33-.74.18-.45.51Z"/><path class="cls-1" d="M254.87,132.3l.69.46a67,67,0,0,1,8.74,6.82l.63.58a72,72,0,0,1,15.65,21.42,70,70,0,0,1,3.83,9.91c1.41,4.69,2.57,9.89,5.37,13.73a11.5,11.5,0,0,0,.94,1.15H316l.17-.08,1,.05c0-.18-.09-.37-.13-.55s-.05-.2-.07-.31a1.94,1.94,0,0,1-.05-.2.14.14,0,0,0,0-.06,1,1,0,0,0,0-.18c-.25-1-.51-2.07-.78-3.1h0a102.35,102.35,0,0,0-8.65-22.72c-.12-.22-.23-.44-.36-.65a67,67,0,0,0-6-9.09q-1.86-2.35-3.93-4.5a49.35,49.35,0,0,0-12.28-9.2c-9.07-4.79-19.58-6.62-29.27-3.7Z"/><path class="cls-2" d="M254.93,132.63a61.05,61.05,0,0,1,32.82,18.3,26.11,26.11,0,0,1,4.72,6.76,15.11,15.11,0,0,1,1.22,7.85c-.23,2.5-.76,5-.38,7.55a9.27,9.27,0,0,0,4.18,6.29c2.7,1.8,5.89,2.53,9,3.13,3.48.67,7.12,1.31,10,3.49.35.26.74-.3.38-.56-5.06-3.79-11.84-3-17.38-5.67-2.58-1.25-4.81-3.28-5.45-6.18-.56-2.52,0-5.14.24-7.67a16.05,16.05,0,0,0-.9-7.71,24.31,24.31,0,0,0-4.45-6.92,59.12,59.12,0,0,0-14.3-11.77A62.31,62.31,0,0,0,255,131.94c-.43-.08-.48.6,0,.69Z"/><path class="cls-2" d="M220.08,137.45a5.17,5.17,0,0,1-4.08,2.76c-.44,0-.31.72.12.67a5.81,5.81,0,0,0,4.52-3,.36.36,0,0,0-.09-.48.35.35,0,0,0-.47.09Z"/><path class="cls-1" d="M316.93,187.42H.39a.39.39,0,1,1,0-.77H316.8a.38.38,0,0,1,.39.39C317.19,187.25,317.14,187.42,316.93,187.42Z"/><path id="b901917b-4981-4312-adbf-d5b8f006e98e-8631" class="cls-3" d="M87.4,185.91s3.9-6.41,8.92-2.62,14.31,10.19,14.31,10.19,1.91,4.09-3,2.55-21-4-21-4Z"/><path id="ea820f77-130a-433d-b966-41522e2706cd-8632" class="cls-4" d="M68.2,193.88a38.32,38.32,0,0,1-11.12-1.36c-3.63-1.13-5.92-3-6.78-5.44a6.42,6.42,0,0,1,1-6.36c5.38-7,24-9,26.55-9.22l5.08-9.62c.32-2.29-1.21-4,1.44-4.07l31.44-.43c2.61-.06,1.87,1.56,2.32,3.8l4.78,8.55-20.61,8.7,3.12,7.59-.2.12C99.18,189.64,81.83,193.88,68.2,193.88Z"/><path id="e2cf09bf-0dcf-4d32-bd8b-d83345e69099-8633" class="cls-4" d="M120.06,170.09S148.85,166.8,147,180,123.19,202.49,90,180l3.76-6.59s12.36-.62,19.87-3.91Z"/><path id="e394c6e3-5a9b-4b6a-ab2c-d395b6ec401d-8634" class="cls-3" d="M79.31,110.39s-5.47-1-7,7.47-3.88,28.48-3.88,28.48L61,172.07a5.22,5.22,0,1,0,7.44,3.07l9.93-27.31,1.89-23.51V112A1.8,1.8,0,0,0,79.31,110.39Z"/><path id="bce87157-538b-4a9f-a71d-b40a66ba2871-8635" class="cls-3" d="M117.82,110.39s5.47-1,7,7.47,3.88,28.48,3.88,28.48l7.43,25.73a5.22,5.22,0,1,1-7.44,3.07l-9.93-27.31-1.9-23.51V112A1.81,1.81,0,0,1,117.82,110.39Z"/><path class="cls-5" d="M117.4,103.41l-10.35-3.88L87,99.28l-8.63,4.13,2.42,13.93s-4.89,8.29.5,16.59l1.21,29.54s19.34,11.22,35.66-2.25l-3.69-27.47s6.17-12.75,1.39-17.48Z"/><path class="cls-5" d="M113.19,107.74l4.21-4.33s9.2,4.83,9,21l-11.6-3.58Z"/><path class="cls-5" d="M83,107.74l-4.48-4.48s-7.9,6.11-7.71,22.29l10.57-4.7Z"/><path id="fa495a93-2d48-4158-a295-a9de2db8cd68-8636" class="cls-3" d="M112.23,182.71s-3.22-6.78-8.6-3.53-15.29,8.65-15.29,8.65-2.32,3.87,2.74,2.85,21.31-1.81,21.31-1.81Z"/><path class="cls-4" d="M103.28,61.47a.86.86,0,0,1,.14-.13c2.88-2.88,3.46-7,1.3-9.13s-5.8-1.63-8.64.85c-2.43-2.31-5.7-3-7.81-1.36-2.44,1.84-2.42,6,0,9.22.17.22.35.43.53.63a17,17,0,0,0-11.16,16V93.71a3.61,3.61,0,0,0,3.61,3.62h29.92a3.49,3.49,0,0,0,3.49-3.49V77.53A17,17,0,0,0,103.28,61.47Z"/><circle class="cls-6" cx="96.66" cy="81.52" r="14.2"/><path class="cls-4" d="M81.74,72.59a19.43,19.43,0,0,0,11,3.41,12,12,0,0,1-4.69,1.93A39.07,39.07,0,0,0,104,78a10.29,10.29,0,0,0,3.33-1.15,4.21,4.21,0,0,0,2.06-2.75c.35-2-1.21-3.8-2.82-5a20.76,20.76,0,0,0-17.47-3.49,9.55,9.55,0,0,0-5.18,2.92,4.73,4.73,0,0,0-.43,5.6Z"/><path class="cls-7" d="M62.72,36.09l.45-.6,11.92,8.84c-.65-2-2.94-8.23-6.7-10.73-4.49-3-7.65-2.05-9.37.54S57.67,40,62.16,43c3.8,2.53,10.58,2.18,12.56,2Z"/><path class="cls-7" d="M242.05,7.78l.56.51-10,10.93c2-.44,8.5-2.07,11.37-5.54,3.44-4.16,2.84-7.4.44-9.38s-5.69-1.95-9.12,2.2C232.35,10,232,16.8,232,18.79Z"/><path class="cls-7" d="M26.37,27l.55.51-10,10.94c2-.44,8.49-2.07,11.37-5.55,3.43-4.16,2.84-7.39.44-9.38S23,21.55,19.58,25.71C16.67,29.23,16.31,36,16.27,38Z"/><path class="cls-7" d="M269.94,57.68l.55.5-10,10.94c2-.44,8.49-2.07,11.36-5.55,3.44-4.15,2.84-7.39.45-9.37s-5.69-2-9.13,2.2c-2.91,3.52-3.26,10.3-3.31,12.28Z"/><path class="cls-7" d="M165.09,20.31l.65.38L158.3,33.53c1.89-.87,7.85-3.85,9.9-7.87,2.46-4.8,1.18-7.83-1.59-9.25s-6-.68-8.43,4.12c-2.08,4.07-1,10.76-.58,12.71Z"/><path class="cls-7" d="M102,4.54l.65.38L95.23,17.76c1.89-.86,7.85-3.85,9.9-7.87,2.46-4.8,1.18-7.83-1.59-9.25s-6-.68-8.43,4.12c-2.08,4.07-1,10.77-.58,12.71Z"/><polygon class="cls-8" points="209.87 101.06 211.77 89.18 198.94 83.95 197.03 102.01 209.87 101.06"/><circle class="cls-8" cx="206.63" cy="79.91" r="13.09"/><path class="cls-4" d="M205.58,62.31a.76.76,0,0,0,1-.54,2.19,2.19,0,0,0-.16-1.28c-.23-.7-.47-1.39-.7-2.09a11,11,0,0,0-2.12-4.15c-1.64-1.7-4.24-2.14-6.58-1.82a9.67,9.67,0,0,0-7.38,4.72c-1.4,2.7-.8,6.46,1.73,8.14-3.6,4.12-4.86,8.73-4.66,14.2S192.88,90,196.78,93.86c.87-.52,1.66-3,1.18-3.89s.2-1.93-.39-2.76-1.08.49-.48-.33c.37-.52-1.1-1.71-.54-2,2.72-1.5,3.62-4.89,5.32-7.48a12.76,12.76,0,0,1,9.3-5.59,8.81,8.81,0,0,1,5.9,1.35,5.56,5.56,0,0,1,2.39,5.34,4.74,4.74,0,0,0-1-7.42,7.78,7.78,0,0,0-1.65-7.31c-1.75-1.93-8.87-1.6-11.43-1.09"/><path class="cls-4" d="M205.18,71.86c-3.39.37-5.84,3.31-7.9,6-1.2,1.56-2.44,3.29-2.41,5.26s1.36,3.69,2,5.57a8.4,8.4,0,0,1-2.44,8.85,4.87,4.87,0,0,0,5.5-3.81c.49-2.85-1.67-5.6-1.42-8.49.23-2.54,2.23-4.49,3.93-6.39s3.3-4.42,2.51-6.84"/><path class="cls-8" d="M205.83,191.75s-28.36,2.82-30.47-.46,28.78-6.57,28.78-6.57Z"/><path class="cls-8" d="M187.75,139.17l-.59,3.11a7.83,7.83,0,0,1,.82,7.44l32.35.23c-.35-3.5-.73-7.26.6-10.7Z"/><path class="cls-8" d="M240.73,162.3,229,152.91a7.5,7.5,0,0,1-2.77-5.08L224.42,130l10.77-3.59,2.6,17.7,6.47,14.71-3.53,3.53Z"/><polygon class="cls-9" points="195.84 99.91 211.54 99.21 228.18 107.14 221.38 139.52 186.93 142.1 182.24 106.24 195.84 99.91"/><path class="cls-4" d="M220.93,147c2.36,3.11,3.35,10.59,4.35,18l-43.83-.23c-.23,0,6.67-15.7,6.67-15.7L220.93,147Z"/><path class="cls-4" d="M222.36,163.05l2.93,2s41.48-2.81,38,10.32-14.53,15.23-14.53,15.23l-44.54,2.58-.47-7.27s-42.89,9.61-46.87-10.07,24.61-11,24.61-11l40.9-1.75Z"/><path class="cls-8" d="M204.85,178.63s1-5.16,8-3a41.17,41.17,0,0,1,11,4.92L207,184.72Z"/><path class="cls-9" d="M222.44,106.59s8-2.81,11,6.33a45,45,0,0,1,2.34,16.64l-11.72,3.75-1.64-26.72Z"/><path class="cls-8" d="M167.79,163.73l-2.56-4.51,5.53-13.75,2.6-17.7,10.77,3.59-1.83,18.09a7,7,0,0,1-2.58,4.74l-11.93,9.54Z"/><path class="cls-9" d="M186.11,106.59s-8-2.81-11,6.33a45,45,0,0,0-2.34,16.64l11.72,3.75,1.64-26.72Z"/><ellipse class="cls-8" cx="244.12" cy="156.05" rx="5.63" ry="8.32"/><ellipse class="cls-8" cx="165.13" cy="157.45" rx="5.63" ry="8.32"/><polyline class="cls-4" points="186.61 171.36 207 177.22 210.99 184.25 203.37 185.89"/></g></g></svg>