<svg xmlns="http://www.w3.org/2000/svg" viewBox="0 0 239.51 216.18"><defs><style>.cls-1{fill:#2ec571;}.cls-2{fill:#3f3d56;}.cls-3{fill:#eabd0f;}.cls-4{fill:#c5c5c5;}.cls-5{fill:#99616a;}.cls-6{fill:#3491d4;}.cls-7{fill:#2f2e41;}</style></defs><g id="Layer_2" data-name="Layer 2"><g id="text"><rect class="cls-1" y="30.55" width="97.91" height="55.2"/><path class="cls-2" d="M105.13,80.82H6.57V25h98.56Zm-97.9-.65h97.25V25.63H7.23Z"/><rect class="cls-3" x="134.38" y="5.59" width="97.91" height="55.2"/><path class="cls-2" d="M239.51,55.85H141V0h98.56ZM141.6,55.2h97.25V.66H141.6Z"/><path class="cls-4" d="M168.25,216.18H43.08a.33.33,0,1,1,0-.65H168.25a.33.33,0,1,1,0,.65Z"/><path class="cls-5" d="M121.44,138.56a4.06,4.06,0,0,1,4.26-3.87,3.47,3.47,0,0,1,.71.1l5.38-7.59,5.4,2.15L129.44,140a4.09,4.09,0,0,1-8-1.39Z"/><path class="cls-6" d="M127.34,132,136.91,116,133,105.56l5.31-14.15.19.09c.13,0,3.14,1.4,3.59,6.22l6.1,19.16L131.92,138Z"/><path class="cls-5" d="M75.4,72.91a4.06,4.06,0,0,1,3.53,4.54,4.15,4.15,0,0,1-.15.7l7.14,5.95-2.56,5.22-10-8.54a4.09,4.09,0,0,1,2-7.87Z"/><path class="cls-6" d="M81.44,79.29l15.3,10.78L107.4,87l13.7,6.39-.1.19c-.06.12-1.64,3-6.48,3.09l-19.58,4.6L75.15,83.4Z"/><polygon class="cls-5" points="109.44 210.37 104.12 210.37 101.59 189.85 109.44 189.85 109.44 210.37"/><path class="cls-7" d="M98.75,208.85h11.82v6.46H93.86v-1.57A4.89,4.89,0,0,1,98.75,208.85Z"/><polygon class="cls-5" points="130.69 210.37 125.37 210.37 122.84 189.85 130.69 189.85 130.69 210.37"/><path class="cls-7" d="M120,208.85h11.82v6.46H115.12v-1.57A4.89,4.89,0,0,1,120,208.85Z"/><polygon class="cls-7" points="132.58 135.5 132.15 165.86 131.71 205.77 122.17 204.9 117.4 149.81 111.33 204.9 101.47 204.9 100.48 149.38 103.95 137.23 132.58 135.5"/><path class="cls-6" d="M103,137.42l-1.45-.07,6.75-37.2-2.76-11.24A2.45,2.45,0,0,1,107.06,86l5-1.87,1.75-4.83,13.87,1.49.34,3.78c1.5.48,13.88,4.6,13,9.3s-5.81,19.21-6.07,20l-.87,20.92-.11.05c-.13.06-9.68,4.76-20.07,4.76A26.48,26.48,0,0,1,103,137.42Z"/><circle class="cls-5" cx="120.18" cy="66.94" r="9.98" transform="translate(3.8 140.29) rotate(-61.34)"/><path class="cls-7" d="M128.27,76.61a3.29,3.29,0,0,1-5.68-1.83,3.53,3.53,0,0,1,0-.65c.13-1.23.84-2.34.67-3.63a2,2,0,0,0-.35-.9c-1.52-2-5.08.91-6.51-.93-.88-1.12.16-2.9-.52-4.16-.89-1.66-3.52-.84-5.17-1.75-1.84-1-1.73-3.83-.52-5.55a8.72,8.72,0,0,1,6.61-3.36,17.77,17.77,0,0,1,7.48,1.46c2.7,1,5.39,2.51,7.06,4.89a12,12,0,0,1,1.2,10.18C131.93,72.44,129.82,75,128.27,76.61Z"/></g></g></svg>