<svg xmlns="http://www.w3.org/2000/svg" viewBox="0 0 349.55 177.51"><defs><style>.cls-1{fill:#c3c3c3;}.cls-2{fill:#ffafaf;}.cls-3{fill:#eabd0f;}.cls-4{fill:#2f2e41;}.cls-5{fill:#ffb1b1;}.cls-6{fill:#97616a;}.cls-7{fill:#2ec571;}.cls-8{fill:#3f3d56;}.cls-9{fill:#3491d4;}</style></defs><g id="Layer_2" data-name="Layer 2"><g id="text"><path class="cls-1" d="M45.64,166.84a1.46,1.46,0,0,1-1.53-1.39,1.48,1.48,0,0,1,.47-1.14l.1-.4,0-.09a3.92,3.92,0,0,0-7.23,0c-1.19,2.85-2.69,5.71-3.06,8.72a11.4,11.4,0,0,0,.2,4,46.5,46.5,0,0,1-4.23-19.32,44.15,44.15,0,0,1,.28-5c.15-1.36.36-2.72.64-4.06a47,47,0,0,1,9.33-19.95,12.52,12.52,0,0,0,5.21-5.4,9.78,9.78,0,0,0,.87-2.61l-.77.07h-.27a1.44,1.44,0,0,1-1.51-1.38,1.46,1.46,0,0,1,.32-1l.33-.4c.17-.21.34-.41.5-.62l.06-.06.57-.71a4.25,4.25,0,0,0-1.37-1.33,4.82,4.82,0,0,0-5.94,1.39,7.57,7.57,0,0,0-1.17,6.33,16.67,16.67,0,0,0,2.32,5.18l-.32.39a47.57,47.57,0,0,0-4.94,7.83,19.76,19.76,0,0,0-1.18-9.14c-1.12-2.72-3.23-5-5.09-7.35a4,4,0,0,0-7.2,2v.11c.28.15.55.32.81.49a2,2,0,0,1,.55,2.75,2,2,0,0,1-1.35.86h0a19.46,19.46,0,0,0,.52,2.94,20.24,20.24,0,0,0,10.11,12.72l.48.25a48,48,0,0,0-2.6,12.25,45.71,45.71,0,0,0,0,7.4v-.09a12.09,12.09,0,0,0-4.14-7c-3.18-2.62-7.68-3.58-11.11-5.68a2.27,2.27,0,0,0-3.49,2.21l0,.09a13.62,13.62,0,0,1,1.49.72c.28.16.55.32.81.5a2,2,0,0,1,.55,2.74,2,2,0,0,1-1.35.86h-.12a19.51,19.51,0,0,0,3.63,5.68,20.33,20.33,0,0,0,14.73,6.47h0a48.91,48.91,0,0,0,3.25,9.48h11.6l.12-.39a13.27,13.27,0,0,1-3.21-.2l2.58-3.17,0-.06,1.32-1.62h0a19.41,19.41,0,0,0-.57-4.92Z"/><path class="cls-1" d="M276.91,159.93a1.46,1.46,0,0,0,2.06-.08,1.5,1.5,0,0,0,.38-1.18l.18-.36.09-.05a3.92,3.92,0,0,1,5.52,4.68c-.93,2.94-1.62,6.09-3.27,8.64a11.66,11.66,0,0,1-2.73,2.92,46.49,46.49,0,0,0,15.68-12.06,45.09,45.09,0,0,0,3-4c.76-1.15,1.47-2.32,2.13-3.52a47.12,47.12,0,0,0,5.69-21.28,12.53,12.53,0,0,1-.5-7.49,9.49,9.49,0,0,1,1-2.55q.27.28.54.54l.18.17,0,0a1.45,1.45,0,0,0,2.43-1c0-.17,0-.35,0-.52s0-.53,0-.8v-.08c0-.31,0-.61,0-.91a4.07,4.07,0,0,1,1.9-.13,4.81,4.81,0,0,1,3.65,4.89,7.5,7.5,0,0,1-3.18,5.59,16.74,16.74,0,0,1-5.1,2.47c0,.17,0,.33,0,.5a47.29,47.29,0,0,1-1.26,9.18,19.59,19.59,0,0,1,6.78-6.24c2.61-1.36,5.7-1.75,8.63-2.35A4,4,0,0,1,325,141l-.06.09c-.31-.06-.62-.1-.94-.14a2,2,0,0,0-1.7,3.27l0,0A19.09,19.09,0,0,1,320,146.2a20.29,20.29,0,0,1-15.93,3.23l-.52-.12a48.67,48.67,0,0,1-5.89,11.05,46.13,46.13,0,0,1-4.8,5.64l.07-.06a12.15,12.15,0,0,1,7.67-2.69c4.12.05,8.18,2.21,12.16,2.81A2.28,2.28,0,0,1,314,170l-.07.06a12.51,12.51,0,0,0-1.6-.41c-.31-.06-.63-.11-.94-.15a2,2,0,0,0-1.71,3.28l0,0,.05.06a19.43,19.43,0,0,1-6.43,2,20.3,20.3,0,0,1-15.44-4.53h0a48.92,48.92,0,0,1-8.59,5.16L270.46,168c.05-.12.11-.25.17-.37a12.82,12.82,0,0,0,2.58,1.92l.06-4.09v-.09c0-.69,0-1.39,0-2.08h0a19.33,19.33,0,0,1,3.6-3.4Z"/><path class="cls-2" d="M85.17,97.19a2.28,2.28,0,0,1-1.69-2.75,2.55,2.55,0,0,1,.13-.39l-6-5.51,4.1-1,5,5.39a2.3,2.3,0,0,1-1.61,4.27Z"/><path class="cls-3" d="M67,82.14,60.74,63.91a5.77,5.77,0,0,1,3.58-7.32h0a5.77,5.77,0,0,1,7.32,3.59,6.07,6.07,0,0,1,.25,1l2.49,16.93,10.45,10.7-2.75,3.91Z"/><polygon class="cls-2" points="56.67 168.15 61.13 168.15 63.25 150.96 56.67 150.96 56.67 168.15"/><path class="cls-4" d="M55.16,166l7.05-.42v3l6.7,4.63a1.89,1.89,0,0,1-1.07,3.44H54.27Z"/><path class="cls-4" d="M60.57,87.37s-1.39-1.45-4.06,2c-2.46,3.11-2.33,3.72-2,7.68.26,2.83-2.27,17,.25,19.47l2,45.55s6.18,1.73,6.47-1.18l16-57.92-1.9-14.81Z"/><polygon class="cls-2" points="90.09 167.72 94 165.57 87.57 149.48 81.8 152.65 90.09 167.72"/><path class="cls-4" d="M87.71,166.52l6-3.76,1.45,2.64,8.11.83a1.89,1.89,0,0,1,1.68,2.07,1.86,1.86,0,0,1-1,1.46l-7.35,4-1.76,1-2.77,1.53Z"/><path class="cls-4" d="M54.58,95.06a106.49,106.49,0,0,1-.75,11.63,15.71,15.71,0,0,0,2.37,11.25,12.8,12.8,0,0,0,7.31,5.45l23.74,38.94s6.25-1.46,5.1-4.15L78.43,99.73l-8.81-12Z"/><path class="cls-3" d="M54.39,74.3,53.68,97l23.55-6.52.42-1.12,1-3.83s-2.34-5.51-1.86-18.34l-6-15.86-9.42-.19,0,0A25.5,25.5,0,0,0,54.39,74.3Z"/><path class="cls-2" d="M101.76,83.64a2.28,2.28,0,0,1-2.85-1.52,2.7,2.7,0,0,1-.08-.39L90.9,80l3-2.94,7.07,2.1a2.29,2.29,0,0,1,.77,4.49Z"/><path class="cls-3" d="M78.46,79.89,63.83,67.34a5.76,5.76,0,0,1-.62-8.12h0a5.77,5.77,0,0,1,8.13-.62,5.84,5.84,0,0,1,.73.76L82.81,72.68,97.23,76.6l-.38,4.77Z"/><path class="cls-5" d="M75.92,35.83a10.18,10.18,0,1,1-.36-2.67A10,10,0,0,1,75.92,35.83Z"/><path class="cls-4" d="M72.22,22.45c-.83,0-.54-1.57-1.21-2.07v.05a1.62,1.62,0,0,1-3.09.13,2.44,2.44,0,0,0-1.56-1.64,4,4,0,0,1-2.43,3.31A10.23,10.23,0,0,1,59.7,23a18.73,18.73,0,0,0-4.3.32,4.91,4.91,0,0,0-3.35,2.49,2.89,2.89,0,0,0,1.14,3.73A2.56,2.56,0,0,0,51,31.31a7,7,0,0,0-.22,3C51,38,51.73,42,54.43,44.59a11.36,11.36,0,0,0,7.86,2.73c2.84,0,2.34-.28,5.09-1,0,0,2.61-7.49,2-8.23a3.53,3.53,0,0,1-1.08-2.65A1.7,1.7,0,0,1,70.34,34c-.16-.39-.27-.47-.35-.45a2,2,0,0,0,.12-.34,3.9,3.9,0,0,1,2.43-2.57,3,3,0,0,1,3.3,1C78.85,28.76,77,22.59,72.22,22.45Z"/><path class="cls-6" d="M247,97.19a2.28,2.28,0,0,0,1.68-2.75,1.79,1.79,0,0,0-.13-.39l6-5.51-4.1-1-5,5.39A2.3,2.3,0,0,0,247,97.19Z"/><path class="cls-7" d="M250.05,92.74l-2.74-3.91,10.44-10.7,2.5-16.93a5.75,5.75,0,0,1,6.54-4.85,5.82,5.82,0,0,1,1,.24h0a5.78,5.78,0,0,1,3.59,7.32l-6.25,18.23Z"/><polygon class="cls-6" points="275.46 168.15 271 168.15 268.88 150.96 275.46 150.96 275.46 168.15"/><path class="cls-4" d="M277.86,176.62H264.29a1.89,1.89,0,0,1-1.07-3.44l6.7-4.63v-3L277,166Z"/><path class="cls-4" d="M271.57,87.37a104.26,104.26,0,0,0,6.27,9.83c2.46,3.12,2.14,4.77,1.82,8.73-.26,2.83.26,8.16-2.27,10.58l-2,45.55s-6.18,1.73-6.47-1.18l-16-57.92,1.91-14.81Z"/><polygon class="cls-6" points="242.04 167.72 238.14 165.57 244.56 149.48 250.33 152.65 242.04 167.72"/><path class="cls-4" d="M240.07,176.3l-2.77-1.53-1.77-1-7.35-4a1.89,1.89,0,0,1,.72-3.53l8.1-.83,1.45-2.64,6,3.76Z"/><path class="cls-4" d="M277.55,95.06a104.83,104.83,0,0,0,.76,11.63,15.77,15.77,0,0,1-2.38,11.25,12.76,12.76,0,0,1-7.31,5.45l-23.73,38.94s-6.25-1.46-5.11-4.15L253.7,99.73l8.81-12Z"/><path class="cls-7" d="M270.76,51.23l-.05,0-9.43.19-5.94,15.86c.47,12.83-1.86,18.34-1.86,18.34l1,3.83-3.13,19,30-6.08-3.63-28A25.52,25.52,0,0,0,270.76,51.23Z"/><path class="cls-6" d="M230.37,83.64a2.28,2.28,0,0,0,2.85-1.52,1.8,1.8,0,0,0,.08-.39L241.24,80l-3-2.94-7.08,2.1a2.29,2.29,0,0,0-.77,4.49Z"/><path class="cls-7" d="M235.29,81.37l-.39-4.77,14.43-3.92,10.73-13.32a5.77,5.77,0,0,1,8.1-.88,5.91,5.91,0,0,1,.76.74h0a5.76,5.76,0,0,1-.62,8.12L253.67,79.89Z"/><path class="cls-6" d="M256.57,33.16a10.2,10.2,0,1,1-.35,2.67A9.65,9.65,0,0,1,256.57,33.16Z"/><path class="cls-4" d="M259.92,22.45c.82,0,11.07.5,12.51.53a18.73,18.73,0,0,1,4.3.32,4.89,4.89,0,0,1,3.35,2.49c.6,1.31.73,4.57,1.08,5.52a7,7,0,0,1,.22,3c-.28,3.72-1,7.72-3.68,10.29a11.35,11.35,0,0,1-7.86,2.73c-2.84,0-2.34-.28-5.09-1,0,0-2.61-7.49-1.95-8.23a3.49,3.49,0,0,0,1.08-2.65A1.69,1.69,0,0,0,261.8,34c.15-.39.27-.47.34-.45a2,2,0,0,1-.12-.34,3.87,3.87,0,0,0-2.43-2.57,3,3,0,0,0-3.29,1C253.29,28.76,255.15,22.59,259.92,22.45Z"/><path class="cls-8" d="M101.06,82.9c13.17-1.72,27.87-3.48,39.4,4.64a22.33,22.33,0,0,1,9.38,13.65c.7,3.57.48,7.24.52,10.85a29.36,29.36,0,0,0,1.43,9.54,26.83,26.83,0,0,0,9.93,12.75,29.85,29.85,0,0,0,16.51,5.35c13.09.33,25-6.77,33.35-16.45,8.95-10.4,14.09-23.29,18.57-36.09q.89-2.53,1.75-5.07c.26-.74-.92-1.06-1.17-.32-4.48,13-9.07,26.28-17.41,37.4-7.66,10.2-18.78,18.3-31.83,19.24a29.56,29.56,0,0,1-17.1-3.77,26.44,26.44,0,0,1-10.92-12,24.94,24.94,0,0,1-1.86-9.06c-.13-3.6.13-7.22-.31-10.8a22.64,22.64,0,0,0-8-14.5,33.12,33.12,0,0,0-15.41-7.17c-7.06-1.33-14.3-.87-21.39,0q-2.71.31-5.43.68c-.77.1-.78,1.32,0,1.21Z"/><path class="cls-4" d="M209.34,53.54a13.83,13.83,0,0,1-9,4,17.64,17.64,0,0,1-18.94-16.23c0-.38,0-.76,0-1.14,0-2.71.56-5.41.42-8.11-.33-6.7-5-12.78-4.53-19.46l3.22,1-6.47-2a8.13,8.13,0,0,1-2.11-.88,5,5,0,0,1-1.54-6A7.24,7.24,0,0,1,175.54.75a11.61,11.61,0,0,1,4.55,0,17.36,17.36,0,0,1,2.13.51,14,14,0,0,1,18.34,12.43c.24,4.52-1.68,9.19-1.41,13.55a10.32,10.32,0,0,0,.79,3.46c2.38,5.55,9.88,7.75,11.76,13.49A9.6,9.6,0,0,1,209.34,53.54Z"/><polygon class="cls-6" points="211.1 140.29 208 143.5 194.15 133.08 198.72 128.34 211.1 140.29"/><path class="cls-4" d="M218.85,144.44l-2.19,2.27-1.4,1.45-5.83,6a1.88,1.88,0,0,1-2.66.05,1.85,1.85,0,0,1-.55-1.67l1.32-8-2.18-2.1,5.2-4.78Z"/><polygon class="cls-6" points="181.34 146.4 177.32 148.34 167.93 133.78 173.85 130.92 181.34 146.4"/><path class="cls-4" d="M187.18,153l-2.84,1.37-1.81.88L175,158.88a1.88,1.88,0,0,1-2.46-2.63l4-7.08-1.32-2.72,6.53-2.69Z"/><path class="cls-4" d="M187.89,66a104.26,104.26,0,0,0,6.27,9.83c2.46,3.11,2.14,4.77,1.82,8.72-.26,2.83.26,8.16-2.27,10.58l-1.1,24.69,13.62,15.61s-5.51,7.82-5.8,4.91l-20.17-18.75-11-40,1.91-14.8Z"/><path class="cls-4" d="M193.87,73.63a105.09,105.09,0,0,0,.76,11.64,15.79,15.79,0,0,1-2.38,11.25,12.81,12.81,0,0,1-7.31,5.45l-11.55,19,6.41,18.37s-9.22,5.31-8.07,2.62L160.56,118,170,78.31l8.81-12.06Z"/><path class="cls-9" d="M187.08,29.81l-.05-.06-9.43.2-5.95,15.86c.48,12.82-1.85,18.33-1.85,18.33l1,3.83.41,1.12,26.47,11.77-3.63-28A25.5,25.5,0,0,0,187.08,29.81Z"/><path class="cls-6" d="M146.69,62.22a2.3,2.3,0,0,0,2.85-1.52,1.77,1.77,0,0,0,.08-.4l7.94-1.73-3-3-7.07,2.1a2.3,2.3,0,0,0-.77,4.5Z"/><path class="cls-9" d="M151.61,59.94l-.39-4.76,14.43-3.93,10.73-13.32a5.76,5.76,0,0,1,8.1-.87,5.84,5.84,0,0,1,.76.73h0a5.77,5.77,0,0,1-.62,8.13L170,58.47Z"/><path class="cls-6" d="M207.74,81.55a2.3,2.3,0,0,0-1.23-3,2.4,2.4,0,0,0-.38-.12l-.93-8.07L202,73.08l1.38,7.25a2.3,2.3,0,0,0,4.4,1.22Z"/><path class="cls-9" d="M206,76.43l-4.78-.1-2.45-14.74-12.18-12a5.76,5.76,0,0,1-.05-8.15,5.23,5.23,0,0,1,.8-.68h0a5.77,5.77,0,0,1,8,1.43l11,15.82Z"/><path class="cls-6" d="M172.89,11.74a10.14,10.14,0,1,1-.36,2.67A10,10,0,0,1,172.89,11.74Z"/><path class="cls-4" d="M171.6,70.69a11,11,0,0,1-9-4.74,3.54,3.54,0,0,1-.72-2.92,1.54,1.54,0,0,1,1.65-1.16,3.77,3.77,0,0,1,2,1.28,22.37,22.37,0,0,1,2,2.55c.95,1.34,2.79,3.51,1.37,5.12-1.21,1.35-3.23,1.46-4.84,2s-3.54,1.71-3.7,3.7,1.71,3.25,3.43,3.53a6.36,6.36,0,0,0,5.59-2,8.62,8.62,0,0,0,2.09-5.67.61.61,0,0,0-.62-.6.6.6,0,0,0-.59.58,7.23,7.23,0,0,1-2.06,5.16,4.91,4.91,0,0,1-5.11,1.1,2.16,2.16,0,0,1-1.51-2.12,2.9,2.9,0,0,1,1.64-2c1.74-.93,3.84-.85,5.55-1.92a3.55,3.55,0,0,0,1.53-4.55,14.07,14.07,0,0,0-1.72-2.83,27.21,27.21,0,0,0-2-2.64c-1.1-1.21-2.82-2.37-4.47-1.51-1.88,1-1.75,3.43-.88,5a12.1,12.1,0,0,0,10.39,5.92.61.61,0,0,0,.59-.62.6.6,0,0,0-.57-.6Z"/><path class="cls-4" d="M199.15,27.27,183,24c-.59-3.09,4.82-7.26,6.23-12.34-2.51-.3-5.88-.81-8.8-1.47s-5.38-1.47-6.09-2.4A9.71,9.71,0,0,1,185.83.2l2,.4.2.05a9.63,9.63,0,0,1,5.92,4.06,23.08,23.08,0,0,1,5.47,4.21,14,14,0,0,1,1.16,4.8C200.8,18.24,198.88,22.91,199.15,27.27Z"/><path class="cls-1" d="M349.55,177a.49.49,0,0,1-.48.49H.48a.49.49,0,0,1,0-1H349.06a.5.5,0,0,1,.49.48Z"/></g></g></svg>