<svg xmlns="http://www.w3.org/2000/svg" viewBox="0 0 297.84 198.23"><defs><style>.cls-1{fill:#99616a;}.cls-2{fill:#2f2e41;}.cls-3{fill:#2ec571;}.cls-4{fill:#c3c3c3;}.cls-5{fill:#c08888;}.cls-6{fill:#ffafaf;}.cls-7{fill:#3491d4;}.cls-8{fill:#eabd0f;}</style></defs><g id="Layer_2" data-name="Layer 2"><g id="text"><polygon class="cls-1" points="279.17 188.13 275.82 190.3 265.84 178.43 270.78 175.22 279.17 188.13"/><path class="cls-2" d="M281.56,191.54l-10.29,6.69-.08-.13a4.78,4.78,0,0,1,1.4-6.61h0l1-2.65L278,188l.9-.59Z"/><polygon class="cls-1" points="221.84 193.82 217.85 193.82 215.95 178.43 221.84 178.43 221.84 193.82"/><path class="cls-2" d="M222,198H209.71v-.16a4.77,4.77,0,0,1,4.78-4.77h0l2.24-1.71,4.18,1.71H222Z"/><path class="cls-2" d="M263.14,99.67l-35.78.79-3.55,4.43s.31-1.56,0,.16-7.18,36-5.87,37.09-2.48,9.08-2.76,9.56-3.26,24.35,0,26.31l1.23,8.33h5.72s5.72-6.63,4.57-7.83,2.14-5.19,2.27-7.34,1.33-11.85.4-13.41-2.2-7.4.17-9.66S243,118,243,118s3.2,32.64,3.2,35.2c0,3.33,2.18,1.69,2.18,4.61,0,.59,7.12,15.79,11.91,20.54l9.91,7.61,4.57-3.42v-5s-4.24-9.19-5.71-10.66-6.94-6-6.94-8.07-2.57-2.79-.84-5.54,1.14-3.92.54-5.11.53-49.62.53-49.62Z"/><circle class="cls-1" cx="248.22" cy="17.03" r="10.81"/><path class="cls-1" d="M256.86,103.81l3-9.17,5.48,1-3.56,9.57a3.23,3.23,0,1,1-5-1.41Z"/><path class="cls-1" d="M193.74,86.1,201.19,80l4.1,3.77-8.11,6.2a3.23,3.23,0,1,1-3.44-3.84Z"/><path class="cls-2" d="M235.28,15.14c1.16.36,2.29.58,3-.38s.56-2,1.69-2.51a4,4,0,0,1,2.88.13c.17.06.33.13.48.2l.27-.22a3.45,3.45,0,0,1,2.47-.6,3.38,3.38,0,0,0-1.49,1.43c.31.16.63.31.95.45a9.34,9.34,0,0,0,8.34-.64c-1.25,3.3-.27,4.47,1.56,7.47l.07.18c-.18-.79,2.21-1.7,2.21-.56a13.41,13.41,0,0,1-.76,3.43c2.35-3.54,3.74-7.68,2.83-11.65A6,6,0,0,0,259,9.46a2,2,0,0,0-2.28-.69A7.16,7.16,0,0,0,245.2,3.63a26.79,26.79,0,0,0-2.56,2.55,6,6,0,0,1-3,1.86,4.68,4.68,0,0,0-2.21.53,3,3,0,0,0-.7,2.45,3.48,3.48,0,0,1,1.94.53,3.4,3.4,0,0,0-2,.69l0,0C236.44,13.83,236.52,14.16,235.28,15.14Z"/><path class="cls-3" d="M273.32,50.58a9,9,0,0,0-4.15-5.84c-.07-.4-.21-.66-.43-.73-3.07-1.1-11.65-6.14-11.65-6.14l-.72-5.78-15.53-.74-4,6.52s-10.29,1-10.1,4.8c-2.49,3.11-13.59,17-20.24,26.18-3.17,4.39-5.34,7.71-5.06,8.26.94,1.85-.38.6-1.85.93s-.76,1.21-.72,2.49-5,4-5,4c3.09,1.1,6.95,5.63,6.95,5.63s3.75-3.94,4.43-4.35A9.73,9.73,0,0,1,208.46,84c2.15-.75,1.24-1.32,1.4-2.9s.68-.41,3.7-1.87.57-.9,1.4-2.9.57-.9,3.29-2.55a25.43,25.43,0,0,0,5.52-5c1.49-1.66,3.27-3.8,5.52-6.57l.05-.06c.15,2.25.26,4.5.33,6.63.2,6.06,0,11.17-.87,12.58-1.24,2-3.33,8.58-5,14.38a7.4,7.4,0,0,0,7.36,9.5c10.57-.35,26-1.15,29.05-2.92a33.14,33.14,0,0,1,4.84,1.06s1.07-5.33,1.42-6a10.12,10.12,0,0,1,1.78-3.2c1.42-1.78.36-1.78-.35-3.2s.35-.71,2.13-3.55,0-1.07-.36-3.2,0-1.07,1.43-3.91c1.17-2.36,1.86-5.45,2.67-11.5.17-1.25.34-2.62.53-4.15A45.68,45.68,0,0,0,273.32,50.58Z"/><path class="cls-4" d="M103.48,189.65a1.15,1.15,0,0,1-1.2-1.1,1.14,1.14,0,0,1,.37-.9l.08-.32,0-.07a3.1,3.1,0,0,0-4.07-1.65A3.15,3.15,0,0,0,97,187.28c-.93,2.26-2.13,4.52-2.42,6.9a9.13,9.13,0,0,0,.16,3.17A36.82,36.82,0,0,1,91.35,182a35.21,35.21,0,0,1,.22-4q.18-1.62.51-3.21a37.2,37.2,0,0,1,7.39-15.8,9.9,9.9,0,0,0,4.12-4.28,7.64,7.64,0,0,0,.69-2.07,9.18,9.18,0,0,1-.6-3.22c-.28-.43-.79-.64-1.09-1.05-1.52-2.06-3.62-1.7-4.71,1.1-2.34,1.18-2.36,3.13-.92,5,.91,1.2,1,2.82,1.83,4.1l-.25.31a37.72,37.72,0,0,0-3.91,6.21,15.84,15.84,0,0,0-.93-7.25c-.9-2.15-2.57-4-4-5.82a3.2,3.2,0,0,0-5.7,1.57v.09c.22.12.43.25.64.39a1.56,1.56,0,0,1,.44,2.17A1.54,1.54,0,0,1,84,157h0a15.14,15.14,0,0,0,.41,2.33c-1.89,7.3,2.19,10,8,10.08.12.07.25.13.38.19a38,38,0,0,0-2.06,9.7,37.11,37.11,0,0,0,0,5.87v-.07a9.6,9.6,0,0,0-3.27-5.54c-2.53-2.07-6.09-2.84-8.81-4.5a1.8,1.8,0,0,0-2.49.54,1.84,1.84,0,0,0-.27,1.21v.07a13,13,0,0,1,1.19.57l.64.4a1.56,1.56,0,0,1,.43,2.17,1.52,1.52,0,0,1-1.06.68H77a15.67,15.67,0,0,0,2.87,4.5c1.18,6.37,6.25,7,11.67,5.12h0a37.84,37.84,0,0,0,2.57,7.51h9.18c0-.11.07-.21.1-.31a10.9,10.9,0,0,1-2.55-.15l2-2.52,0,0c.35-.43.7-.85,1-1.28h0a15.12,15.12,0,0,0-.45-3.9Z"/><polygon class="cls-5" points="32.82 175.76 35.36 178.44 47.13 169.72 43.38 165.76 32.82 175.76"/><path class="cls-2" d="M37,177.24l-2.86-2.7-.71-.66-7.31,5.85,1.91,2,2.23-1.43-1,2.71,5,5.33A1.65,1.65,0,0,0,37.07,187l-1.09-7,1.92-1.81Z"/><path class="cls-2" d="M88.53,78.21,87.73,87s-1.41,6.61-.43,6.07-.77,1.88-.32,4-3.91,17.68-1.93,16.07-1.15,9.54-3.13,15.05c-.6,1.7-1.22,3.42-1.85,5.13-.12.35-.25.69-.38,1-.81,2.22-1.62,4.41-2.4,6.48-.11.29-.22.58-.32.86a0,0,0,0,0,0,0c-2.56,6.75-4.76,12-5.64,12.93-.46.46-7.71,5.7-15,10.95-7.68,5.51-15.42,11-15.42,11L33.65,169l.49-.15,3.18-.93c6.08-1.79-1.65-4.58,3.88-6.58A13.19,13.19,0,0,0,44,160.13c1.37-1.34,3.21-4.54,4.08-3.2s4.81-8.61,6-9.6c.61-.53,2.6-3,4.31-5.2,1.47-1.88,2.73-3.54,2.73-3.54s0-.89.06-2.3c.05-2.1.13-5.36.21-8.62h0c0-1.23.06-2.46.09-3.62,0-.9,0-1.77.06-2.58,0-2.4.09-4.23.09-4.68,0-1.49,0-.33,1.18-1.23a4.06,4.06,0,0,0,.49-.44,5.43,5.43,0,0,0,.7-.74c.08-.18-.46.07-1.16-.07a2.13,2.13,0,0,1-1-.52c-1.48-1.33.11-5.41.11-5.41-3.35-6.71-3.11-12.21-1.54-16.45a21.26,21.26,0,0,1,5.45-8,19.26,19.26,0,0,1,3-2.33l.1-.56L70,74.92a13.26,13.26,0,0,1,1.88-.86,13,13,0,0,1,6.29-.62,18.57,18.57,0,0,1,6,2A22.3,22.3,0,0,1,88.53,78.21Z"/><polygon class="cls-5" points="56.88 189.43 60.55 189.77 63.65 175.45 58.23 174.95 56.88 189.43"/><path class="cls-2" d="M67.46,195,62,190.47l.25-2.63-1.27,0-3.93-.13h0l-1,0-1.64,9.21,2.76.25.73-2.55,1,2.72,1.45.13,5.84.55h.16a1.62,1.62,0,0,0,1.22-.55,1.59,1.59,0,0,0,.42-1A1.66,1.66,0,0,0,67.46,195Z"/><path class="cls-2" d="M77.29,140.8C75.9,148.41,70,166.23,66.4,176.67c-1.62,4.77-2.76,8-2.76,8l-1.86-.58h0l-3.14-1-1.14-.36h0l-1.39-.44s.16-8.52.18-16.73c0-3.44,0-6.83-.07-9.52a26.75,26.75,0,0,0-.41-5.44c-.87-1.71.58-1.89,2.12-2.32s.34-1.08-.26-2.47c-.4-.92.39-2.15,1-2.85a5.37,5.37,0,0,1,.5-.57l-.76-.26c1.47-1.88,2.73-3.54,2.73-3.54s0-.89.06-2.3c.05-2.1.13-5.36.21-8.63h0c0-1.23.06-2.46.09-3.62,2.36,1.81,4.65,3.58,6.72,5.22,0,0,0,0,0,0,5,3.94,8.74,7.11,9.27,8.11C77.7,137.84,77.61,139.06,77.29,140.8Z"/><path class="cls-4" d="M297.43,198.23H.41a.42.42,0,0,1,0-.83h297a.42.42,0,0,1,0,.83Z"/><polygon class="cls-6" points="67.96 63.38 68.73 70.54 68.28 79.94 89.09 77.47 91.04 63.38 88.55 63.41 67.96 63.38"/><path class="cls-7" d="M85.66,40.24l-7.83-6.18h0l-4.11-.24-6.1,3.91-1.49,7.62L62.6,53.93l5.18,23.15s.48,1.66-.79,1.86-1.12,2.65-1.12,2.65.26,2.12-1,2.31-4.53.19-1.65,3.9,25.7-10.32,25.7-10.32l3.32-17.39s6.42-8.63-.5-13.58Z"/><path class="cls-5" d="M51.48,92.81a3.77,3.77,0,0,1,.58-5.3,4.17,4.17,0,0,1,.56-.37l9.85-33,6.15,3.1L57.9,88.87a3.79,3.79,0,0,1-6.42,3.94Z"/><path class="cls-7" d="M69,37.43s-1.76-.94-3,3.11c-1,3.24-8.79,22.55-8.89,27.24a3,3,0,0,0-2.34,2.77l9.67,1.3c1.69-1.42,2.13-3.35,1.48-3.92l2.1-5.74L76.85,44l-6.53-5.87Z"/><path class="cls-5" d="M120.71,82a3.77,3.77,0,0,0-2.82-4.53,4.55,4.55,0,0,0-.66-.1L94.64,51.52l-4.79,5.72,23.37,23.93a3.79,3.79,0,0,0,7.49.78Z"/><path class="cls-7" d="M80.93,39.6s1.18-1.61,4,1.52c2.27,2.51,17.67,16.54,19.79,20.72a3,3,0,0,1,3.32,1.49L99.9,68.68c-2.14-.55-3.37-2.1-3-2.89L92.5,61.52,76.71,48.86l3.35-8.12Z"/><path class="cls-6" d="M189.73,93.6a2.65,2.65,0,0,1-1.67-3.3,2.3,2.3,0,0,1,.17-.39L182,83.09l2.34-4.38L191.87,89A2.64,2.64,0,0,1,193,92a2.53,2.53,0,0,1-3.19,1.62h0Z"/><path class="cls-8" d="M149.72,41.83a7.55,7.55,0,0,0-.06,2.92,7.45,7.45,0,0,0,.17.82c.28,1,.55,1.92.81,2.75.15.52.3,1,.45,1.45.85,2.64,1.52,4.13,2,4.45l.68.43c1.15.7,2,1.21,1.42,2.5a3.84,3.84,0,0,1-.28.53,9.53,9.53,0,0,1-.61.81,4,4,0,0,0-.35.46c-.14.2-.2.37-.12.53s.35.29.91.31h.65a5.38,5.38,0,0,1,2.53.91,38,38,0,0,1,6.16,5l20.68,21.14.4-.27,1-.65.33-.22.37-.25,1.65-1.1.83-.56L184,74l-.58-1.06-.5-.92L172.7,53.3l-4-6.42-.9-1.44-3.84-6.1a7.78,7.78,0,0,0-10.72-2.45h0L153,37A7.76,7.76,0,0,0,149.72,41.83Z"/><polygon class="cls-6" points="151.09 189.56 147.31 189.53 145.63 174.58 151.22 174.62 151.09 189.56"/><path class="cls-2" d="M152.1,187.81l-1-.06-4-.28-1.29-.09,0,2.71-6.05,4.11a1.69,1.69,0,0,0,.94,3.09l7.53.06,1.32-2.67.48,2.69,2.84,0Z"/><polygon class="cls-6" points="190.97 186.79 187.35 187.91 181.24 174.16 186.59 172.51 190.97 186.79"/><path class="cls-2" d="M191.4,184.82l-1,.24-3.93.95-1.26.31.79,2.59-4.53,5.74a1.7,1.7,0,0,0,.28,2.38,1.73,1.73,0,0,0,1.55.29l7.2-2.21.45-3,1.27,2.41,2.72-.83Z"/><path class="cls-2" d="M143.47,63.84l-7.22,21L136,86.53c-1.82,1.73.46,2.3-.39,2.76s-1.44,1.73-.28,2,4.88,82.16,9.8,85.34,7.91,5.49,7,.83c-.36-1.88.15-11.94.9-23.29.08-1.28,1.42-2.65.26-3.9s.14-2.07.21-3.11c1-14.82,2.24-29.44,2.24-29.44S163.41,144,165.4,142s1.2,3,1.81,4.48c.51,1.25-1.66,3.71,1.53,3.75s10.67,25.62,11.43,25.59c1.5-.06,5.73.1,8.24-.41,1.24-.26-4.26-19.62-8.86-36.35-.37-1.33-2.36-1.36-1.08-3.94s-5.1-19.23-4.55-20c1.45-2,2-2.94.57-3.07s-1.85.65-1.93-1.33-.33-6.88-.33-6.88-1-19.34-8.31-30l-.62-6.36Z"/><path class="cls-8" d="M161.53,23.74,152,25.1,151.37,32l-4.73,7.4s-10.52,7.4-3.18,19.09c-2.79,10.07-5.57,19.73-8.21,26.16-2.06,12.78,16.4,14,37.5,9.48,0,0-.29-5.46-2.21-8.09s-.87-3.2-.87-3.2L168.33,78c.76-7.09-1.8-7.73-3-11L169,33Z"/><path class="cls-6" d="M115.52,83.16a2.64,2.64,0,0,1,2.93-2.24,2.71,2.71,0,0,1,.41.09l5.56-7.39,4.74,1.5-8.7,9.3a2.65,2.65,0,0,1-2.78,1.64,2.52,2.52,0,0,1-2.17-2.83h0A.17.17,0,0,1,115.52,83.16Z"/><path class="cls-8" d="M164.84,37.17c-.14-.17-.29-.33-.44-.49a7.77,7.77,0,0,0-8.59-1.75l-.42.19c-4.92,2.42-7.58,4-7.9,4.78q-.17.39-.3.75c-.09.24-.18.47-.27.67-.38.89-.81,1.43-1.93,1.19a4.56,4.56,0,0,1-1.06-.41,4.16,4.16,0,0,1-.42-.23c-.48-.26-.82-.45-1.06-.28s-.23.6,0,1.59a3.28,3.28,0,0,1,0,1.25,13.94,13.94,0,0,1-1.27,3.44,44.19,44.19,0,0,1-2.88,4.94l-9.8,14-.66.94-.73,1L121.26,77l.35.35L123,78.83l.32.33.29.29.74.76.7.72,15.63-12.74,1.75-1.42,3.12-2.54L152,59,164.1,47.8a7.7,7.7,0,0,0,2.5-5.5v-.2A7.77,7.77,0,0,0,164.84,37.17Z"/><circle class="cls-6" cx="155.78" cy="12.77" r="10.71"/><path class="cls-2" d="M170,27.63a16.91,16.91,0,0,1,2.82,6.88,7.13,7.13,0,0,1-3.88,1.12l-.15-.54a15.39,15.39,0,0,0-1.76-4,9.42,9.42,0,0,1-.53,3.9,6.79,6.79,0,0,0-2.3-.59,4.18,4.18,0,0,0-1.87.44l-1.73-5.76c0,3.69-5.43,6.91-11.34,6.45-.22-.14,1.92-6.21,1.72-6.35-.48-.32-.94-.66-1.4-1,1.94-3,4-6.19,3.68-6.67,0,.59-2.1,3.45-4.4,6.14-1.28-.94,6-16.24,2.4-17.48-.06.54-.86.54-1.82.43a9.93,9.93,0,0,0-1.13-2.53,6,6,0,0,1-.28,2.34,13.49,13.49,0,0,0-2.84.3,8.7,8.7,0,0,0-.72-1,5.25,5.25,0,0,1,0,1.12,4.58,4.58,0,0,0-1.85.64c-.75-.27.52-1.5.06-2.14-1.19-1.61.57-3.94,1.68-5.59A8.49,8.49,0,0,1,155.17,1.3c.16-.56,1-.92,2-1.17A5.61,5.61,0,0,1,158.57,0c4.53.08,10.83,3.83,11.08,8.35,0,.46,0,1,.08,1.48.32,5.07-.07,9.74,3.39,13.45,1.26,1.34,1.27,7.7.79,11C172.66,32.93,171.77,27.82,170,27.63Z"/><path class="cls-2" d="M66.6,17.23c-.94,2.34-3.59,7-3.95,9.46l.16-.16a11.2,11.2,0,0,0,1,1.5,7.38,7.38,0,0,1,2.47-1.7,8.89,8.89,0,0,0-.87,3.35c1,3.14,5.64,1.74,8.35,1.4,2.71,3.1,6.32,3.91,11,2.12,1.32.14,2.79.22,3.72-.56s.37-2.22.87-3.31c3.55-7.79.27-10.6-2.51-14.13-.61-.77-.6-1.93-1.35-2.67a7.41,7.41,0,0,0-4.08-1.6,2.21,2.21,0,0,0,2-1,2,2,0,0,0,0-2.08,3.6,3.6,0,0,0-2.65-1.5,9.91,9.91,0,0,0-3.07.27,5.32,5.32,0,0,0-1.86.59,1.51,1.51,0,0,0-.79,1.54,1.94,1.94,0,0,0,1.16,1.26,5.07,5.07,0,0,0,1.32.36,10.38,10.38,0,0,0-6.07,1.06A11.1,11.1,0,0,0,66.6,17.23Z"/><circle class="cls-5" cx="79.27" cy="22" r="8.36"/><path class="cls-2" d="M71.22,17.52c.49,1.46,1.87,1.94,3.15,2.23l1.22.26.48-.55a7.42,7.42,0,0,1,2.48-1.7,8.94,8.94,0,0,0-.8,2.62c.78.12,1.56.21,2.34.28a2.64,2.64,0,0,0,3.1-1.9,6.24,6.24,0,0,0,2.71,2.72,3.27,3.27,0,0,0,3.73-1.11A8.06,8.06,0,0,0,91,17.3c.33-1.3.51-2.79-.14-3.61a2.4,2.4,0,0,0-2.22-.62,26.86,26.86,0,0,0-5.33,1l-.15.34c.3-1.8-.35-3.53-1.55-4.15A5,5,0,0,0,78.86,10a12.09,12.09,0,0,0-3.57.69,6.82,6.82,0,0,0-3.23,2.58A5.35,5.35,0,0,0,71.22,17.52Z"/><path class="cls-2" d="M83.14,9.7c-.08,0,.14,0,.06,0h.15a.66.66,0,0,0,.31-.21,2.61,2.61,0,0,0,.46-.81,2.89,2.89,0,0,1,.63-1,.71.71,0,0,1,1,0,.59.59,0,0,1,.13.18A1.64,1.64,0,0,1,85.79,9a3.59,3.59,0,0,1-.53,1,3.28,3.28,0,0,1-1.51,1.11,3.47,3.47,0,0,1-2.16.06.52.52,0,0,1-.28-.68.55.55,0,0,1,.26-.28l1.18-.48a.51.51,0,0,1,.68.26.52.52,0,0,1-.26.69h0L82,11.14l0-1a2.32,2.32,0,0,0,.46.07,1.63,1.63,0,0,0,.49,0,2.46,2.46,0,0,0,.45-.11,1.59,1.59,0,0,0,.27-.12l.1,0,.08-.05a3.28,3.28,0,0,0,.43-.33l.12-.14.19-.26a2.37,2.37,0,0,0,.27-.61,2.76,2.76,0,0,0,.08-.27l0-.15c0-.12,0,.07,0,.12l.22.16a.29.29,0,0,0,.24,0s0,0,0,0a1,1,0,0,0-.11.17c-.08.15-.15.3-.22.45a4.59,4.59,0,0,1-.49.93,1.67,1.67,0,0,1-1.82.7.52.52,0,0,1-.29-.67A.51.51,0,0,1,83.14,9.7Z"/></g></g></svg>