<svg xmlns="http://www.w3.org/2000/svg" viewBox="0 0 265.79 222.58"><defs><style>.cls-1{fill:#c3c3c3;}.cls-2{fill:#ffb1b1;}.cls-3{fill:#2f2e41;}.cls-4{fill:#3491d4;}.cls-5{fill:#98616a;}.cls-6{fill:#ddd;}.cls-7{fill:#eabd0f;}</style></defs><g id="Layer_2" data-name="Layer 2"><g id="text"><path class="cls-1" d="M265.79,60.47c0,1.33-.05,2.66-.13,4A60.25,60.25,0,0,1,260,86.27a.89.89,0,0,1-.08.17c-.15.32-.3.63-.46,1A60.58,60.58,0,0,1,206.68,121l.6,34.4,7.8-4.11,1.39,2.65-9.13,4.81,1.06,60.68,0,3.2h-6l.06-3.2L204.35,121a60.34,60.34,0,0,1-42.67-18.56c-.38-.4-.76-.8-1.13-1.21l0,0a60.76,60.76,0,0,1-11-17l.18.19a60.5,60.5,0,0,1,28.69-78L179,6a60.55,60.55,0,0,1,78.45,23.82c.37.61.73,1.25,1.07,1.88A60.19,60.19,0,0,1,265.79,60.47Z"/><path class="cls-1" d="M14.3,213.14c-4.38,3.26-5.62,9-5.62,9s5.86.45,10.23-2.81,5.62-9,5.62-9S18.68,209.87,14.3,213.14Z"/><path class="cls-1" d="M16.12,214.67c-2.1,5-7.37,7.63-7.37,7.63s-1.86-5.57.25-10.61,7.37-7.63,7.37-7.63S18.23,209.63,16.12,214.67Z"/><ellipse class="cls-1" cx="108.11" cy="160.34" rx="37.38" ry="7.78"/><rect class="cls-1" x="105.91" y="164.16" width="4.4" height="58.18"/><path class="cls-2" d="M133.81,156.66a3.73,3.73,0,0,1,5-1.63,3.35,3.35,0,0,1,.36.21,3,3,0,0,1,.39.31l16.15-3.83,1.19-3.95,6.44,1.06L162,155.47a3.76,3.76,0,0,1-3.35,3l-18.26,1.61a3.37,3.37,0,0,1-.19.32,3.72,3.72,0,0,1-5.15,1l-.34-.25a3.34,3.34,0,0,1-.33-.32A3.72,3.72,0,0,1,133.81,156.66Z"/><path class="cls-1" d="M168.81,184.76H152.58c0,.47-16.74.85-16.74.85a4.54,4.54,0,0,0-.72.67,4.25,4.25,0,0,0-1,2.71v.68a4.23,4.23,0,0,0,4.23,4.22h30.44a4.22,4.22,0,0,0,4.23-4.22V189A4.23,4.23,0,0,0,168.81,184.76Z"/><rect class="cls-1" x="151.15" y="193.73" width="4.4" height="28.41"/><path class="cls-1" d="M138.63,222c0,.48,6.67.19,14.89.19s14.88.29,14.88-.19-6.66-4.24-14.88-4.24S138.63,221.51,138.63,222Z"/><polygon class="cls-2" points="142.94 218.31 138.8 218.31 136.82 207.56 142.94 207.56 142.94 218.31"/><path class="cls-3" d="M144,222.34H130.63v-.16a5.2,5.2,0,0,1,5.2-5.21H144Z"/><path class="cls-3" d="M136.74,211.65l-8.27-18.54a6.79,6.79,0,0,1,3-8.72l17.93-9.62,8.18-.7,7.55-.68,0,.09a7.61,7.61,0,0,1,.6,6c-.83,2.34-3,4.16-6.43,5.42-8,2.94-17.29,5.45-20.9,6.4a1.15,1.15,0,0,0-.75.59,1.17,1.17,0,0,0-.07,1l7.68,17.25a1.53,1.53,0,0,1-.9,2,1.8,1.8,0,0,1-.39.08l-5.74.42h-.14A1.53,1.53,0,0,1,136.74,211.65Z"/><polygon class="cls-2" points="145.65 218.31 141.5 218.31 139.53 207.56 145.65 207.56 145.65 218.31"/><path class="cls-3" d="M146.71,222.34H133.33v-.16a5.21,5.21,0,0,1,5.21-5.21h8.17Z"/><path class="cls-3" d="M139.78,212.66l-8.26-18.54a6.79,6.79,0,0,1,3-8.72l17.93-9.62,8.18-.69,5.92-.51v-.09a7.66,7.66,0,0,1,.59,6c-.83,2.33-1.3,4.15-4.74,5.41-8,2.94-17.29,5.46-20.9,6.4a1.18,1.18,0,0,0-.75.6,1.14,1.14,0,0,0-.06.94l7.68,17.26a1.52,1.52,0,0,1-.91,2,1.24,1.24,0,0,1-.38.09l-5.74.42h-.15A1.52,1.52,0,0,1,139.78,212.66Z"/><path class="cls-4" d="M155.36,174.91c-.39-.28-6.08,2.71-7.1.34,4.74-11.84,1.47-16.95,4.37-23.74a8.44,8.44,0,0,1,5.61-4.79l7.52-.38,0,0a8.79,8.79,0,0,1,4.81,9.33c0,7.39-4.45,13-2.9,18.38a1.77,1.77,0,0,1-.16,1.35,1.69,1.69,0,0,1-1.06.78l-9.93-1.33a1.68,1.68,0,0,1-1.36-.26Z"/><circle class="cls-2" cx="163.25" cy="135.22" r="8.31"/><path class="cls-3" d="M165.9,142.84c-.44.2-1.35-3.32-.94-4,.6-1,.56-1,1-1.74a2,2,0,0,0,0-2.24,1.19,1.19,0,0,0-2,.23c.16-1.45-1.28-2.61-2.7-2.94s-2.92-.13-4.35-.42c-1.66-.34-3.38-1.73-2.72-3.55a2.48,2.48,0,0,1,.5-.82,6.24,6.24,0,0,1,2.88-1.58,19,19,0,0,1,6.7-1.41,9.72,9.72,0,0,1,8.61,6.3,8.79,8.79,0,0,1,.37,1.36,9.14,9.14,0,0,1-5.67,10Z"/><path class="cls-1" d="M43.18,182.31h12.7c0,.55,13.88,1,13.88,1a5.15,5.15,0,0,1,.83.79,4.9,4.9,0,0,1,1.14,3.15V188A4.93,4.93,0,0,1,66.8,193H43.18A4.92,4.92,0,0,1,38.26,188v-.79A4.93,4.93,0,0,1,43.18,182.31Z"/><rect class="cls-1" x="52.42" y="192.76" width="5.12" height="29.58"/><path class="cls-1" d="M72.49,221.79c0,.55-7.76.21-17.34.21s-17.35.34-17.35-.21,7.77-4.95,17.35-4.95S72.49,221.23,72.49,221.79Z"/><polygon class="cls-5" points="75.93 218.41 79.75 218.41 81.56 203.7 75.93 203.7 75.93 218.41"/><path class="cls-3" d="M75,217.16h7.51A4.8,4.8,0,0,1,87.26,222v.15H75Z"/><polygon class="cls-5" points="87.2 218.41 91.02 218.41 92.83 203.7 87.2 203.7 87.2 218.41"/><path class="cls-3" d="M86.23,217.16h7.51A4.79,4.79,0,0,1,98.53,222v.15H86.23Z"/><path class="cls-5" d="M73.93,171.85a2.9,2.9,0,0,0-3.24-2.51,3,3,0,0,0-.5.11L66,164.36l-3.72,1.83,6.09,7.1a2.92,2.92,0,0,0,5.61-1.44Z"/><polygon class="cls-6" points="59.66 141.68 62.15 142.7 62.75 149.73 69.42 167.97 63.76 169.85 57.46 157.62 59.66 141.68"/><circle class="cls-5" cx="53.19" cy="126.92" r="6.63"/><path class="cls-3" d="M52.17,123.83s.3-4,3.89-2.39,3.35-2.88,2.27-3.68-1-1-5-.46-11.67,1.44-9.18,9.42,6.16,5.9,6.16,5.9-3.4-7.16-1.39-5.79l2,1.37L52,128Z"/><path class="cls-3" d="M42.31,172.52s-2.22,11.77,6.24,13.27,20.69,2.55,20.69,2.55l5.48,25.6,7.38-.66s-1-30.82-3.4-33.23-13.87-9.47-13.87-9.47Z"/><path class="cls-3" d="M58.84,167.59l3.71,3.72s26.73,4.3,27.76,10.48c1.56,9.32,3.4,29.59,3.4,29.59l-8-.6-3.15-23-12.86-2.93-14.63-8Z"/><path class="cls-7" d="M58.64,139.11l-2.15-2.85-7-.11h0a13.59,13.59,0,0,0-7.2,12v18a67.11,67.11,0,0,1-.42,7.92c-.46,4.75,24.86-2.79,24.86-2.79l-3.29-26.77S63.73,140.27,58.64,139.11Z"/><path class="cls-1" d="M254.7,222.58H.34a.34.34,0,0,1,0-.68H254.7a.34.34,0,0,1,0,.68Z"/><path class="cls-2" d="M147.56,163.37,133.13,152l-.35.11a3.73,3.73,0,0,1-3-.58,3.72,3.72,0,0,1,1.7-6.74,3.73,3.73,0,0,1,4.06,2.84,4.13,4.13,0,0,1,.07.49L150,156.39l3.58-2.06,4,5.19-5.55,4A3.71,3.71,0,0,1,147.56,163.37Z"/><path class="cls-4" d="M159.29,161.14l-8.23-5.6,3.87-5.49a3.78,3.78,0,0,1,4.71-1.23h0a3.78,3.78,0,0,1,2,4.49Z"/><path class="cls-5" d="M85.2,150.42a2.9,2.9,0,0,0-3.92,1.22,2.72,2.72,0,0,0-.19.47l-6.6.58-.63,4.09,9.31-.94a2.91,2.91,0,0,0,2-5.42Z"/><path class="cls-7" d="M45.77,144.41,43.9,145.8s-1,2.51,1,5.84S59.79,162,59.79,162l20.83-5.32-3-5.82-15.18.42S53.89,140.57,45.77,144.41Z"/></g></g></svg>