<svg xmlns="http://www.w3.org/2000/svg" viewBox="0 0 209.46 34.91"><defs><style>.cls-1{fill:#eabd0f;}</style></defs><g id="Layer_2" data-name="Layer 2"><g id="text"><polygon class="cls-1" points="23.9 11.53 36.46 13.62 27.17 22.32 29.06 34.91 17.92 28.75 6.53 34.45 8.94 21.95 0 12.88 12.63 11.3 18.5 0 23.9 11.53"/><polygon class="cls-1" points="67.9 11.53 80.46 13.62 71.17 22.32 73.06 34.91 61.92 28.75 50.53 34.45 52.94 21.95 44 12.88 56.63 11.3 62.5 0 67.9 11.53"/><polygon class="cls-1" points="109.9 11.53 122.46 13.62 113.17 22.32 115.06 34.91 103.92 28.75 92.53 34.45 94.94 21.95 86 12.88 98.64 11.3 104.5 0 109.9 11.53"/><polygon class="cls-1" points="152.9 11.53 165.46 13.62 156.17 22.32 158.06 34.91 146.92 28.75 135.53 34.45 137.94 21.95 129 12.88 141.63 11.3 147.5 0 152.9 11.53"/><polygon class="cls-1" points="196.9 11.53 209.46 13.62 200.17 22.32 202.06 34.91 190.92 28.75 179.53 34.45 181.94 21.95 173 12.88 185.63 11.3 191.5 0 196.9 11.53"/></g></g></svg>