<svg xmlns="http://www.w3.org/2000/svg" viewBox="0 0 223.7 171.03"><defs><style>.cls-1{fill:#c3c3c3;}.cls-2{fill:#ebebeb;}.cls-3{fill:#c5c5c5;}.cls-4{fill:#dfdfdf;}.cls-5{fill:#ffafaf;}.cls-6{fill:#2f2e41;}.cls-7{fill:#97616a;}.cls-8{fill:#3491d4;}.cls-9{fill:#eabd0f;}.cls-10{fill:#fff;}.cls-11{fill:#3f3d56;}.cls-12{fill:#ff6580;}.cls-13{fill:#2ec571;}</style></defs><g id="Layer_2" data-name="Layer 2"><g id="main"><path class="cls-1" d="M208.57,147.44l.38-8.6a27.72,27.72,0,0,1,13-3.28c-6.22,5.09-5.44,14.89-9.66,21.73A16.73,16.73,0,0,1,200,165l-5.21,3.19a28,28,0,0,1,5.9-22.68,26.86,26.86,0,0,1,5-4.62C206.9,144.19,208.57,147.44,208.57,147.44Z"/><path class="cls-2" d="M129.63,170.34c-2.66-.19-3.35.33-7.36,0h-7.35l1-17.6,11.58,4.64L185,158.79l0,.1c0,.07-2.58,7.54-.58,10.37l.08.12h-.16l-52.78.48C130.93,169.87,130.2,170.38,129.63,170.34Z"/><path class="cls-3" d="M132.61,170.57c-5.12-.37-10.43,1.62-14.85-.63l-3.54.22v0c0-.08-1.7-13.23,1.68-18.33l.15-.23.11,1.21L115,169.16l2.47-.82c6,2.82,13.13,1,20,.93l46.71-.17a1.7,1.7,0,0,1,1.81,1.49v.08h-50.6C134.49,170.67,133.55,170.63,132.61,170.57Z"/><polygon class="cls-4" points="181.74 162.34 129.18 161.29 129.13 161.27 116.71 156.62 116.95 155.99 129.31 160.63 181.76 161.67 181.74 162.34"/><polygon class="cls-4" points="181.46 165.15 128.9 164.11 128.85 164.09 116.43 159.43 116.67 158.81 129.03 163.44 181.48 164.48 181.46 165.15"/><polygon class="cls-4" points="181.18 167.97 128.62 166.92 128.57 166.9 116.15 162.25 116.39 161.62 128.75 166.26 181.2 167.3 181.18 167.97"/><path class="cls-1" d="M133,159A35.16,35.16,0,0,1,119,155l-3.64-1.93.09-.95a.58.58,0,0,1,.62-.47h.32l49,.72a28.76,28.76,0,0,1,9.4,1.71L185.51,158v0a2,2,0,0,1-2.07,1.59l-48.28-.57Q134.07,159,133,159Z"/><polygon class="cls-3" points="185.41 158.19 185.4 158.19 126.62 156.85 126.58 156.83 115.98 151.92 116.09 151.75 116.41 151.76 126.72 156.53 184.95 157.87 185.42 157.88 185.41 158.19"/><path class="cls-3" d="M139.71,152.1H139l-16.85-.25h-.8c3.85,4.1,12.36,5.12,24.84,3.54Z"/><polygon class="cls-5" points="187.07 54.09 188.1 56.48 186.42 64.97 169.29 62.59 169.43 52.24 169.77 49.97 187.07 54.09"/><polygon class="cls-5" points="195.93 164.12 192.15 164.12 190.35 149.54 195.93 149.54 195.93 164.12"/><path class="cls-6" d="M184.68,169.05a1.63,1.63,0,0,0,1.62,1.62h7.19l1.24-2.56.48,2.56h2.71l-.76-9.14-1.23-.07-4.14-.25-.67,0v2.59l-5.74,4A1.61,1.61,0,0,0,184.68,169.05Z"/><polygon class="cls-5" points="160.99 147.4 157.21 147.4 154.98 125.94 162.09 125.51 160.99 147.4"/><path class="cls-6" d="M149.74,152.34a1.62,1.62,0,0,0,1.62,1.61h7.19l1.24-2.56.48,2.56H163l-.76-9.14-1.1-.06-4.21-.26-.73,0V147l-5.74,4A1.61,1.61,0,0,0,149.74,152.34Z"/><path class="cls-6" d="M197.53,151.54h0l-.73-23.7a6.24,6.24,0,0,0-.08-5.86l-.11-.19.27-1.25a8,8,0,0,0-.45-4.8l-.68-22.11c2.42-15.7-9.12-25.94-9.12-25.94l1.06-8.24L169,59.88l.32,7.81L165.6,80.44c-1.95,19-15.1,31-13.1,49.22a.41.41,0,0,1,0,.16,4.65,4.65,0,0,0,.38,3.75,1.5,1.5,0,0,1,.17.46c.41,3.2.46-.84,1,2.32l-.11.06a.89.89,0,0,0-.36,1.18c.18.52.63.84,1,.7l10,.11a.88.88,0,0,0,.36-1.18c-.18-.52-.63-.84-1-.71l-.62.32,1-3.4.37-.34a1.59,1.59,0,0,0,.08-2.24,2.09,2.09,0,0,0-.28-.24h0l1-5.52-.14-4.18.3-4.74,13.1-19,5.3,26.23,5.41,28.4a1,1,0,0,0-.31.92,1,1,0,0,0,1,.81h7.35a1,1,0,0,0,1-1,.75.75,0,0,0,0-.26A1,1,0,0,0,197.53,151.54Z"/><path class="cls-6" d="M191,13.75a9.25,9.25,0,1,1-15.91-6.41l0,0,.23-.22h0a1.87,1.87,0,0,0,.3-.26c1.24-1.75,2.66-3.21,6.09-2.29C186.68,5.82,191,8.64,191,13.75Z"/><path class="cls-7" d="M140.2,9.79a3.39,3.39,0,0,0,3.24,3.53,3,3,0,0,0,.6,0l23.84,19.58,3.65-6.41L146.94,9.24a3.41,3.41,0,0,0-6.74.55Z"/><path class="cls-8" d="M178,38.64s0-.71-3.79-.68c-4.71,0-17.67-6.72-16.54-13.08a2.66,2.66,0,0,1-3.17-.77L160.76,18c2,.13,2,1.46,1.83,2.22l5.07,2,13.21,7.59-2.33,7.62Z"/><circle class="cls-7" cx="179.47" cy="15.89" r="7.75"/><path class="cls-8" d="M168.81,54.46a3.12,3.12,0,0,0,.15,3.92,3.6,3.6,0,0,0,.36,1.26l.15.23,0,.05a2.63,2.63,0,0,0,1.34.9l14.2,4,1.87.53.33.09.18-2.57a2.28,2.28,0,0,0,.51-2.94l-.26-.43,1.52-4.1.15-.41,3.88-10.46V43.08l0-5a10.23,10.23,0,0,0-4.05-8.18,10.07,10.07,0,0,0-3.89-1.82h0L183.78,26l-6.23.62L177,27.66l-.62,1.27-4.52,2.69-1.54,3.59-1,2.42a6.61,6.61,0,0,0-2.86,4.43c-.59,3.76,2.05,7.54,2.36,8l.08,4.32Z"/><path class="cls-6" d="M187.58,17.93l-.21,0-3.62-.65-.11-2.73L182.18,17a12.26,12.26,0,0,1-9.39-.9A28.52,28.52,0,0,1,170,14.51c-.3-4.62,1.57-7.58,5.05-7.27.13,0,.22-.12.33-.17h0l.58-.25a8.54,8.54,0,0,1,9,1.74A10.17,10.17,0,0,1,187.58,17.93Z"/><path class="cls-9" d="M187.37,17.89A15.74,15.74,0,0,0,175.23,7.34l-.1,0-.1,0,.33-.17h0l.3-.26h.28S185.82,5.25,187.37,17.89Z"/><path class="cls-6" d="M191.16,71.94a1.31,1.31,0,0,1-1.34.21,3,3,0,0,1-1.15-.84A10.93,10.93,0,0,1,186,66.54l.43-.75a4.17,4.17,0,0,1,2.5-4.58,2.59,2.59,0,0,1,1.58-.13,1.49,1.49,0,0,1,1.09,1.08c.16.8-.51,1.54-1.19,2a8.48,8.48,0,0,1-4,1.43,13.85,13.85,0,0,1,4.43,4,3.15,3.15,0,0,1,.59,1.15A1.3,1.3,0,0,1,191.16,71.94Z"/><path id="be339808-9edc-488a-82d9-9b8c80f783b0-7001" class="cls-1" d="M93.15,170.94H223.28a.41.41,0,0,0,.42-.41.42.42,0,0,0-.42-.42H93.15a.42.42,0,0,0-.42.42.41.41,0,0,0,.42.41Z"/><path class="cls-10" d="M127.71,63.77V64l-1.42-1.64-.6-.68c-.84-1-1.69-1.91-2.54-2.86L120.57,56l-.63-.68a5.49,5.49,0,0,0-.55-.53,2.14,2.14,0,0,0-.68-.37,1.71,1.71,0,0,0-.87,0c-.33.07-.64.19-1,.29l-1,.32-2,.64a.06.06,0,0,1-.08,0h0a.07.07,0,0,1,0-.09h0l.49-.16,2-.64,1-.32a3.15,3.15,0,0,1,1-.19,2.1,2.1,0,0,1,1.39.66c.21.19.39.39.58.59s.43.47.65.71q1.32,1.44,2.61,2.88c.87,1,1.72,1.93,2.57,2.9l.19.21C126.77,62.68,127.24,63.23,127.71,63.77Z"/><path class="cls-10" d="M119.31,55.63a1.6,1.6,0,0,0-.69-.51h-.27a28.54,28.54,0,0,0,8.14,8.28Q122.91,59.53,119.31,55.63Z"/><path class="cls-1" d="M163.42,89.81,152.69,32.37a4.26,4.26,0,0,0-4-3.44h-.26l-7.31.26-.79,0-3.64.13-.79,0-2.34.09L86.21,31.16H86l-10.6-.23-3.92-.08h-.13l-2.89-.06-25.23-.52-6.69-.15-3.3-.06-.79,0L28.69,30H27.9l-3.84-.08-.79,0L19,29.77h-.66l-3.77-.08h-.69a4.23,4.23,0,0,0-4.16,3.54L.06,92.81a4.21,4.21,0,0,0,3.48,4.84,3.91,3.91,0,0,0,.68.06H59.93a3.82,3.82,0,0,1,2.28.75l1.06.78a4.22,4.22,0,0,0,2.51.83,64.32,64.32,0,0,1,32.83,0,4.2,4.2,0,0,0,3-1.24,3.87,3.87,0,0,1,2.51-1.11l55.38-2.92a4.23,4.23,0,0,0,4-4.44,5.14,5.14,0,0,0-.06-.55Z"/><path class="cls-2" d="M148.24,80.85a7.35,7.35,0,0,1-7.61,7.08c-3.21-.12-7-.17-11.22-.09-13.6.29-30.69,2.17-41,8.9a7.23,7.23,0,0,1-4.36,1.19l-.34,0A7.26,7.26,0,0,1,79.45,96c-5.66-5.18-18.65-11.46-48.38-11.9h-.36a7.35,7.35,0,0,1-6.87-7.79h0l2.92-46.37L27.2,23,28,10.83A4.83,4.83,0,0,1,32.78,6.3h0l17.72.11A72.16,72.16,0,0,1,69.06,9.26a31.17,31.17,0,0,1,4.87,2,18.66,18.66,0,0,1,5.67,4.23,6.35,6.35,0,0,0,3.84,2.07,4,4,0,0,0,.69.06A6.38,6.38,0,0,0,88,16.48c11.57-7.75,35.15-8.34,48.17-8a7.32,7.32,0,0,1,7.14,6.78l.53,6.92.52,6.9,3,39.86L148.22,80A7.73,7.73,0,0,1,148.24,80.85Z"/><path class="cls-11" d="M35.48,22.62a45.09,45.09,0,0,1,32.69,2.29,42.67,42.67,0,0,1,8.12,5c.72.55,1.73-.44,1-1a46.59,46.59,0,0,0-32.66-9.58,45,45,0,0,0-9.54,1.92c-.87.28-.5,1.65.38,1.37Z"/><path class="cls-11" d="M94.21,30.47a45,45,0,0,1,32.59-3.4,43.53,43.53,0,0,1,8.87,3.53c.8.43,1.52-.8.71-1.23a46.59,46.59,0,0,0-33.85-3.69,45.31,45.31,0,0,0-9,3.56C92.68,29.67,93.4,30.89,94.21,30.47Z"/><path class="cls-11" d="M94.21,39.94a45,45,0,0,1,32.59-3.4,43.53,43.53,0,0,1,8.87,3.53c.8.43,1.52-.8.71-1.23a46.59,46.59,0,0,0-33.85-3.69,45.31,45.31,0,0,0-9,3.56c-.81.43-.09,1.65.72,1.23Z"/><path class="cls-9" d="M136.73,48.9a.6.6,0,0,0-.35-.59,46.62,46.62,0,0,0-26.82-5l-.17,0h0l-.17,0a44.86,44.86,0,0,0-15.73,4.85.71.71,0,0,0-.35.61V66.46a.72.72,0,0,0,.73.71.86.86,0,0,0,.17,0L94.7,67a70.62,70.62,0,0,1,15.16-2.37h.33A79.23,79.23,0,0,1,122.7,65l.26,0,.64.08.25,0c.83.11,1.65.22,2.47.35,1.2.19,2.39.4,3.58.64l.23,0q2.87.57,5.71,1.31a.71.71,0,0,0,.87-.52.44.44,0,0,0,0-.16V48.93S136.73,48.91,136.73,48.9Z"/><path class="cls-12" d="M110.68,44.25A2.38,2.38,0,0,0,109,44.1a2,2,0,0,0-1.11,1,4.85,4.85,0,0,0-.37,1.44c0,.2,0,.45.17.54a.41.41,0,0,0,.42-.09,1.16,1.16,0,0,0,.24-.34A3.74,3.74,0,0,1,111.52,45l.53.21A6.3,6.3,0,0,0,110.68,44.25Z"/><path class="cls-10" d="M116.35,48.32a3,3,0,0,0-1.64-1.43,3.47,3.47,0,0,0-2.54.67,70.7,70.7,0,0,0-6.57,4.31v0l4.91-.3a9.39,9.39,0,0,0,3.44-.65,3.27,3.27,0,0,1,1.24-.46,2,2,0,0,1,1.42.68c2.26,2.15,2.92,5.43,5.45,7.31A68.37,68.37,0,0,0,116.35,48.32Z"/><path class="cls-10" d="M110.19,64.58h-.33c-.79-.28-1.6-.54-2.42-.75-.53-.15-1.07-.27-1.61-.38s-1.23-.24-1.84-.33a29.82,29.82,0,0,0-3.54-.3s-.06,0-.07,0,0-.07.06-.07h.46a27.92,27.92,0,0,1,3.54.35c.61.09,1.23.21,1.83.35s1.1.26,1.64.41C108.68,64.05,109.44,64.29,110.19,64.58Z"/><path class="cls-10" d="M123.85,65.16l-.25,0c-.33-.27-.66-.53-1-.78s-.88-.6-1.33-.88a24.51,24.51,0,0,0-3.15-1.6,31.48,31.48,0,0,0-5.31-1.67,51.27,51.27,0,0,0-6.28-1c-2.11-.22-4.24-.35-6.36-.48-.09,0-.09-.14,0-.13l.8,0c2.15.13,4.29.28,6.42.52a49.37,49.37,0,0,1,6.28,1.09A31.21,31.21,0,0,1,118.81,62a23.51,23.51,0,0,1,2.76,1.47,19,19,0,0,1,1.63,1.14C123.42,64.81,123.64,65,123.85,65.16Z"/><path class="cls-10" d="M123,65.05l-.26,0c-.1-.09-.21-.16-.31-.24a22.26,22.26,0,0,0-2.28-1.42c-.71-.39-1.45-.74-2.2-1.06a30.28,30.28,0,0,0-5.31-1.67,51.42,51.42,0,0,0-6.29-1c-2.11-.22-4.23-.35-6.35-.48-.09,0-.09-.14,0-.13l.8.05c2.14.13,4.29.28,6.42.52a49.22,49.22,0,0,1,6.27,1.09,31,31,0,0,1,5.15,1.77q.93.42,1.83.93A20,20,0,0,1,123,65.05Z"/><path class="cls-10" d="M130.13,66.19l-.23,0c-.09-.09-.17-.19-.25-.28-.4-.47-.81-.94-1.21-1.42-1.56-1.87-3-3.79-4.45-5.75q-1.8-2.52-3.42-5.13c-.52-.82-1-1.66-1.5-2.5-.38-.65-.75-1.31-1.11-2-.11-.19-.21-.38-.31-.57-.23-.45-.46-.9-.71-1.34a3.75,3.75,0,0,0-1.14-1.36,1.71,1.71,0,0,0-.82-.28,2.51,2.51,0,0,0-1.17.3,38.68,38.68,0,0,0-7.45,4.57,36,36,0,0,0-6,6c-.06.07-.18,0-.13-.06l.65-.79a35.54,35.54,0,0,1,5.73-5.44v0l.56-.43a39.5,39.5,0,0,1,3.66-2.38c.64-.38,1.3-.73,2-1.07l.51-.25.51-.24a2.61,2.61,0,0,1,1.09-.3c1.31,0,2,1.3,2.46,2.2.14.28.3.56.44.84.57,1.05,1.16,2.1,1.78,3.14.37.65.76,1.28,1.15,1.92.57.9,1.14,1.8,1.75,2.69h0c.7,1.05,1.42,2.09,2.17,3.11,1.28,1.76,2.63,3.48,4,5.16C129.14,65.06,129.63,65.63,130.13,66.19Z"/><path class="cls-12" d="M113.23,45.28l-.13.06a3.59,3.59,0,0,0-2.88-1.75,3.43,3.43,0,0,0-3.8,2.88,2.86,2.86,0,0,0,.58,2l-.13.07a3,3,0,0,1-.6-2.07,3.59,3.59,0,0,1,4-3A3.72,3.72,0,0,1,113.23,45.28Z"/><path class="cls-10" d="M103.65,48.77a3.51,3.51,0,0,0-3.18.21,48.39,48.39,0,0,1,5.17,1.07C104.93,49.68,104.38,49.11,103.65,48.77Z"/><path class="cls-10" d="M100.46,49l-.19.13.2-.13Z"/><path class="cls-10" d="M106.23,49.78l-.23-.23A6.72,6.72,0,0,0,103.91,48a3.24,3.24,0,0,0-1.27-.26,4,4,0,0,0-1.32.26l-.58.23-.65.31c-.4.2-.79.4-1.18.62-.78.43-1.53.89-2.26,1.38-.38.25-.75.52-1.11.79s-.67.51-1,.78c-.07.06-.17,0-.1-.09l.25-.21.75-.58q.67-.51,1.41-1c.74-.49,1.52-.95,2.32-1.38.4-.21.8-.42,1.21-.61l.38-.17a6.9,6.9,0,0,1,.9-.33,3.81,3.81,0,0,1,1.35-.12,4,4,0,0,1,1.25.39,8,8,0,0,1,2.06,1.65C106.4,49.75,106.29,49.84,106.23,49.78Z"/><path class="cls-11" d="M35.48,32.09a45.09,45.09,0,0,1,32.69,2.29,42.67,42.67,0,0,1,8.12,5c.72.55,1.73-.44,1-1A46.59,46.59,0,0,0,44.64,28.8a45,45,0,0,0-9.54,1.92c-.87.28-.5,1.65.38,1.37Z"/><path class="cls-11" d="M35.48,41.56a45.09,45.09,0,0,1,32.69,2.29,42.67,42.67,0,0,1,8.12,5c.72.55,1.73-.44,1-1a46.59,46.59,0,0,0-32.66-9.58,45,45,0,0,0-9.54,1.92c-.87.28-.5,1.65.38,1.37Z"/><path class="cls-11" d="M35.48,51a45.09,45.09,0,0,1,32.69,2.29,42.67,42.67,0,0,1,8.12,5c.72.55,1.73-.44,1-1a46.59,46.59,0,0,0-32.66-9.58,45,45,0,0,0-9.54,1.92c-.87.28-.5,1.65.38,1.37Z"/><path class="cls-11" d="M35.48,60.5a45,45,0,0,1,32.69,2.29,42.67,42.67,0,0,1,8.12,5c.72.55,1.73-.44,1-1a46.59,46.59,0,0,0-32.66-9.58,45,45,0,0,0-9.54,1.92c-.87.28-.5,1.65.38,1.37Z"/><path class="cls-11" d="M35.48,70a45,45,0,0,1,32.69,2.29,42.67,42.67,0,0,1,8.12,5c.72.55,1.73-.44,1-1a46.59,46.59,0,0,0-32.66-9.58A45,45,0,0,0,35.1,68.6c-.87.28-.5,1.65.38,1.37Z"/><path class="cls-13" d="M73.93,11.22v22.7c0,.46-.79.83-1.85.94h0l-.55,0a4.57,4.57,0,0,1-1.72-.28l-.15-.06-.15-.08c-.26-.15-.42-.34-.42-.54V9.26A31.17,31.17,0,0,1,73.93,11.22Z"/><rect class="cls-4" x="83.44" y="16.48" width="0.7" height="80.98"/><path class="cls-7" d="M159.76,71.92a3.39,3.39,0,0,0,3.06-3.68,3.83,3.83,0,0,0-.1-.59l14.43-6.74,8.69-14.06L179,44.1l-5.86,11.32-14.84,9.89a3.41,3.41,0,0,0,1.45,6.61Z"/><path class="cls-8" d="M191.2,33.39s1.7.55-.17,3.85c-1.49,2.64-8.77,17.86-11.74,20.85a2.66,2.66,0,0,1-.34,3.24l-6.86-5.44c-.13-2,1.18-2.18,2-2.11l1.58-5.59,5.5-13.8L190,33Z"/><path class="cls-6" d="M191.35,7.52c.32-1.31,2.68-2.28-1.36-4.11-1-.44-.93-2-1.76-2.66a2.87,2.87,0,0,0-3-.52,3,3,0,0,0-1.45,2.35,8.51,8.51,0,0,0,.33,2.84l-.08.12,4.79,3.66c.59.45,1.36.92,2,.59S191.15,8.34,191.35,7.52Z"/></g></g></svg>