<svg xmlns="http://www.w3.org/2000/svg" viewBox="0 0 212.48 176.38"><defs><style>.cls-1{fill:#3f3d56;}.cls-2{fill:#fff;}.cls-3,.cls-4{fill:none;stroke:#2ec571;stroke-miterlimit:10;}.cls-3{stroke-width:2px;}.cls-5{fill:#2ec571;}.cls-6{fill:#eabd0f;}.cls-7{fill:#dfdfdf;}.cls-8{fill:#99616a;}.cls-9{fill:#3491d4;}.cls-10{opacity:0.1;isolation:isolate;}.cls-11{fill:#2f2e41;}.cls-12{fill:#c3c3c3;}</style></defs><g id="Layer_2" data-name="Layer 2"><g id="main"><g id="a21d7543-5d63-4074-9205-f06443f25821"><path id="e7fbd27d-1c9f-4a62-8148-82b039061e33-3317" class="cls-1" d="M101.37,41.91h1V15.37A15.37,15.37,0,0,1,117.7,0H174a15.36,15.36,0,0,1,15.36,15.37V161A15.36,15.36,0,0,1,174,176.38H117.7A15.37,15.37,0,0,1,102.34,161V60.81h-1Z"/><path id="f17a8b50-0b0b-47cc-a298-09bd9c200760-3318" class="cls-2" d="M117.08,4h7.35a5.46,5.46,0,0,0,5,7.51H161.7a5.45,5.45,0,0,0,5.45-5.45A5.37,5.37,0,0,0,166.74,4h6.86a11.48,11.48,0,0,1,11.48,11.47V160.91a11.48,11.48,0,0,1-11.48,11.47H117.08a11.48,11.48,0,0,1-11.47-11.47h0V15.47A11.48,11.48,0,0,1,117.08,4Z"/><circle id="b774a52b-05ed-4103-aa7f-8d237ff42447" class="cls-3" cx="145.34" cy="121.29" r="13.03"/><circle id="fbab1c94-d57e-450f-bea0-7a43d993a063" class="cls-4" cx="145.34" cy="121.29" r="12.38"/><path id="b77f917d-34fd-4c03-b75e-73ab726170c9-3319" class="cls-5" d="M143.27,126.71l-3.9-5,2.27-1.76,1.85,2.37,6.24-6.58,2.08,2Z"/><path id="e471b633-d198-47ad-a91d-7bccaed22689-3320" class="cls-5" d="M114,146.63l7.53-3.51v2h17.58v3H121.48v2Z"/><path id="bad1768d-f28d-4d6c-9720-78225c848e2e-3321" class="cls-5" d="M175,146.63l-7.53-3.51v2H149.87v3h17.58v2Z"/><rect id="a0757271-aa13-4c39-883b-681fb07b8358" class="cls-6" x="114.73" y="27.23" width="61.03" height="64.1"/><g id="bd4436a9-ab86-4abe-9bd7-11c3c7af63e2"><path id="b3e8bf17-9a50-43a4-bd93-c09f4fce21e6-3322" class="cls-7" d="M136.94,81.41l-4.63,7.2h3.34Z"/><circle id="bfa771e6-4776-4e65-99f0-8c22976fc45f" class="cls-8" cx="142.34" cy="41.56" r="6.69"/><path id="bc00fcfd-5730-439e-98b0-f69b404d7a35-3323" class="cls-9" d="M149.8,48.76a12.26,12.26,0,0,0-4.63,2.83c-1.54,1.8-5.14,2-5.14,2a10.91,10.91,0,0,0-4.38,4.89,14.92,14.92,0,0,0,0,9c1,2.06,1,7.2,1,7.2L135.4,86.56s-4.63,4.37-1,4.88,10-.26,13.88,0,8.23.77,6.95-1.8-2.83-4.37-1.29-9.51c1.21-4,1.16-19.07,1.08-25.43a5.14,5.14,0,0,0-2.49-4.32Z"/><path id="e078b431-7fa2-4ffb-9128-b5cbabb89faa-3324" class="cls-8" d="M139.77,88.1a16.69,16.69,0,0,0-1.29,4.11c-.9,12,5.66,0,5.66,0v-2Z"/><path id="a9e0b218-7fb2-4594-9961-d5df86528afc-3325" class="cls-10" d="M146.07,56.86l.77,15.68-7.48,15.14-1.26-.48,7.71-14.14Z"/><path id="a63b4032-c365-49f7-ae5c-3b8abdfa447a-3326" class="cls-9" d="M152.11,52.1l1.93-.39s5.79,4.25,4,12.73-9.77,21.34-9.77,21.34-1.8,2.32-2.31,2.83-1.54,0-1,.77-.77,1.29-.77,1.29-5.66,0-5.14-2.06,9.25-16.71,9.25-16.71L147,58.27S145.94,51.59,152.11,52.1Z"/><path id="a4f11c4e-c37a-4dd8-a35d-ae47dc8b8240-3327" class="cls-10" d="M154.55,75.88v-1.8l-8.74,14.4Z"/><path id="a203bd83-525b-4951-b824-caeea29adbfe-3328" class="cls-11" d="M137.6,35.36l-1.11-.44A7.55,7.55,0,0,1,142,32.6l-.91-1A3.85,3.85,0,0,1,145.33,33a19.54,19.54,0,0,1,3,4.27h1.19l-.5,1.09,1.73,1.09-1.77-.2a6.12,6.12,0,0,1-.17,2.82l.05.86a26.06,26.06,0,0,1-2.06-3.63v1.11s-1.11-1-1.11-1.66l-.6.78-.3-1.22-3.72,1.22.61-1-2.32.33.91-1.21s-2.61,1.43-2.71,2.65a6.52,6.52,0,0,1-1.41,2.77l-.6-1.11S134.68,37,137.6,35.36Z"/></g><g id="a0d1e1aa-6ffe-40d9-a9d3-85056dcc97e2"><path id="b29d9842-97e3-494c-ae66-73d780169e6a-3329" class="cls-11" d="M58.63,65.72a9.24,9.24,0,0,0-5.44-6.09c-2.67-.91-7.32-.06-8.57,2.48-1.81,3.65-1,8.12,0,12.09l1.51-.07.72-2.39v2.37c4-.12,8.08,0,12.2,0A19.58,19.58,0,0,0,58.63,65.72Z"/><path id="a2d5c4ab-10e8-4119-8285-6e98d5f2924d-3330" class="cls-8" d="M22.27,168.64,25.6,170l7-12.17-4.91-2.06Z"/><path id="b5ab1e96-94a7-45b9-ab1b-fa72a3320944-3331" class="cls-11" d="M20.07,171.51,30.8,176l.06-.14a4.54,4.54,0,0,0-2.43-5.93h0l-6.55-2.75Z"/><path id="a7fb9385-bd6a-4542-80c3-fc955e859ae8-3332" class="cls-8" d="M71.08,111.13a2.49,2.49,0,0,0-.63-3.48c-.12-.08-.25-.15-.38-.22L62.92,85.85l-4.8,2.55,8.54,20.42a2.51,2.51,0,0,0,4.42,2.31Z"/><path id="ac8b856a-5bfa-484c-b494-50247cbd55c2-3333" class="cls-8" d="M62.26,172.51h3.61l1.72-13.92H62.26Z"/><path id="bf312fd5-7892-49a0-80f0-ca7b5de9c452-3334" class="cls-11" d="M61.34,176H73v-.15a4.53,4.53,0,0,0-4.53-4.53H61.34Z"/><path id="b136a9ae-9224-457c-984e-a201d5628fb8-3335" class="cls-8" d="M47.79,93.33,47,95.46l.17,2.12,15.7-2-.49-1.8-1.8-2.12Z"/><circle id="f094d8dd-8e3f-4b13-becb-dde723bd08d3" class="cls-8" cx="52.85" cy="68.48" r="5.72"/><path id="b5e48a2a-ea39-41a2-9198-5a39e8551573-3336" class="cls-9" d="M46.89,95.61,62.46,94l.67-2.2c.21-.29,2.19-3.09,1.75-5.89a4.92,4.92,0,0,0-2.11-3.27L59,78.16l-3.33-2-6.57-.66h0l-5.9,1.33.08,10.81Z"/><path id="a6ca4a7f-9bf0-4dac-91b0-cdfc1c7b9469-3337" class="cls-9" d="M62.06,96.75l4.37-.51,0-.14c0-.48-1-11.83-2-14.43s-5.32-3.49-5.5-3.53h0l-1,.58L60.58,87Z"/><path id="ab12339c-732c-43c0-9daa-a7ea979cb3b7-3338" class="cls-11" d="M46.71,97.55v3.59s-4.2,5.46-1.94,9.67c0,0-4.85,9-5.17,12.29L35.07,138s-11.32,11.32-10.35,19.41L24.08,160l7.44,3.24,1.61-2.27,12.61-21.66,10.68-19.73,1.94,23.28s-1.3,18.11,2.26,20.05l.32,2.91h7.55V163s2.8-9.85,1.19-17.29l.64-31.36s-2.91-13.26-6.47-15.53l-1.29-3.23Z"/><path id="be13f11d-97fc-491e-ab8f-21e9fef4281a-3339" class="cls-8" d="M52.41,104.28a2.91,2.91,0,0,0-.39.12L42,97.53l.23-2.94-4.38-.92L37,98.83A2,2,0,0,0,38,100.92L50.4,107a2.57,2.57,0,1,0,2.33-2.78,1.64,1.64,0,0,0-.32,0Z"/><path id="a464f869-97dd-44e8-a8d0-b87fc98c85b8-3340" class="cls-9" d="M42.14,97.91l2-13.55,1.67-7-2.49-.52a4.58,4.58,0,0,0-3.74.39c-1.18.8-1.83,2.3-1.94,4.48L37,97.22Z"/><path id="a303ed3a-027a-4219-a7cd-863d3eefc723-3341" class="cls-11" d="M56.78,61A7.18,7.18,0,0,0,45.86,67.3c3.2.15,6.56.19,10,.2l.8-2,.48,2h3.11A7.31,7.31,0,0,0,56.78,61Z"/></g><path id="fe23b7bc-1ca6-4ec5-9f56-67afc1ee089a-3342" class="cls-12" d="M.55,176.38H211.92c.31,0,.56-.14.56-.31s-.25-.3-.56-.3H.55c-.3,0-.55.13-.55.3S.25,176.38.55,176.38Z"/></g></g></g></svg>