<svg xmlns="http://www.w3.org/2000/svg" viewBox="0 0 221 59.36"><defs><style>.cls-1{fill:#eabd0f;}.cls-2{fill:none;stroke:#eabd0f;stroke-linecap:round;stroke-linejoin:round;stroke-width:2px;}</style></defs><g id="Layer_2" data-name="Layer 2"><g id="main"><path class="cls-1" d="M90.67,41.27a1.2,1.2,0,0,1-.51.38.42.42,0,0,1-.53-.23.56.56,0,0,1,0-.34,8.49,8.49,0,0,1,.86-1.86l.14-.23a4.57,4.57,0,0,1-.45-.43,6,6,0,0,1-.57-.76,16.34,16.34,0,0,1-1.37,1.82c-.17.21-.45.42-.68.29s-.2-.34-.2-.54,0-.58,0-.87l.21-1.23a2.76,2.76,0,0,0,0-1.37c-.09-.25-.31-.49-.57-.45s-.39.36-.46.62c-.52,2.08-.64,4.25-1.17,6.33a25.08,25.08,0,0,0-.63,2.52,4.25,4.25,0,0,0,.3,2.54,5.83,5.83,0,0,0,2.22,2.07,71.65,71.65,0,0,0,6.29,3.52c.38.19.87.37,1.21.11A.93.93,0,0,0,94.92,52a3.42,3.42,0,0,0-1.71-1.53,12.34,12.34,0,0,1-2.07-1.08,1.18,1.18,0,0,1-.43-.53c-.18-.55.35-1.06.83-1.38,1.77-1.16,3.77-2,5.47-3.24.46-.34.95-.91.71-1.43a.92.92,0,0,0-.9-.47,2.85,2.85,0,0,0-1,.3c-1.08.47-2.18.88-3.3,1.25a1.4,1.4,0,0,1-.73.09.5.5,0,0,1-.4-.54.7.7,0,0,1,.19-.28l2.15-2.34A17.41,17.41,0,0,1,92,39.93Z"/><path class="cls-1" d="M88.43,32.31a2,2,0,0,1-1.21.17,1,1,0,0,1-.77-.86,1.58,1.58,0,0,1,.37-.86,41.37,41.37,0,0,0,3.38-5.65,3.6,3.6,0,0,0,.47-1.51.73.73,0,0,0-.13-.46A.59.59,0,0,0,89.9,23a1.36,1.36,0,0,0-.53.42c-1.06,1.24-1.48,3-2.73,4a.56.56,0,0,1-.24.13c-.33.05-.45-.43-.38-.76a8.87,8.87,0,0,1,.6-1.55,16.35,16.35,0,0,0,1.26-4.21.91.91,0,0,0-.1-.74.63.63,0,0,0-.8,0,1.59,1.59,0,0,0-.52.71c-.83,1.89-1,4.1-2.21,5.75a.35.35,0,0,1-.19.17c-.25.08-.39-.3-.36-.57.1-1.26.68-2.44.87-3.69.06-.37.05-.82-.27-1a.7.7,0,0,0-.83.17,1.91,1.91,0,0,0-.41.8,27.2,27.2,0,0,0-1,4.08,1.22,1.22,0,0,1-.17.56.42.42,0,0,1-.52.17.56.56,0,0,1-.23-.46,4.84,4.84,0,0,1,0-1.14,4.53,4.53,0,0,0,0-1,.91.91,0,0,0-.62-.76c-1.06-.24-.77,1.83-.79,2.33l-.12,3.85c-.06,1.84,0,3.89,1.18,5.27a1.82,1.82,0,0,0,.76.55,2.5,2.5,0,0,0,1.6-.21l5.3-1.95a5.12,5.12,0,0,1,.28-1.69Z"/><path class="cls-1" d="M125.57,50.75A9.44,9.44,0,0,0,123.75,52a9.81,9.81,0,0,1-4,1.77c-.19,0-.43,0-.52-.14a.45.45,0,0,1,0-.28,5.85,5.85,0,0,1,.75-1.6,3.88,3.88,0,0,0,.76-1.41.53.53,0,0,0-.12-.47.54.54,0,0,0-.34-.12,2.17,2.17,0,0,0-1.56.73,8.66,8.66,0,0,0-1,1.45,15.38,15.38,0,0,1-4.28,4.45c-.61.41-1.77.87-1.82,1.72-.07,1.18,1.19,1.3,2,1.22l2.32-.22a16.79,16.79,0,0,0,3.53-.58,9.72,9.72,0,0,0,5-3.9,2.68,2.68,0,0,0,.54-1.36,3.36,3.36,0,0,1,0-1.05c.16-.47.72-.74.83-1.22a.27.27,0,0,0,0-.26C125.81,50.67,125.68,50.7,125.57,50.75Z"/><path class="cls-1" d="M109.51,46.7a1.66,1.66,0,0,0-.58.36c-1.52,1.27-2.64,3-4.12,4.29a.7.7,0,0,1-.62.24.48.48,0,0,1-.3-.5,1.41,1.41,0,0,1,.22-.59c.7-1.28,1.4-2.56,2.11-3.84a14,14,0,0,0,.88-1.83c-.53-.23-1.07-.44-1.61-.63l-3.39,5.55c-.11.17-.27.37-.46.32s-.26-.28-.26-.47a6.07,6.07,0,0,1,.6-2.18,13.69,13.69,0,0,0,.6-2,2.11,2.11,0,0,0,0-1,.79.79,0,0,0-.65-.63c-.41,0-.73.35-.93.71a7.78,7.78,0,0,0-.85,2.17,5.79,5.79,0,0,1-.87,2.51.43.43,0,0,1-.2.15c-.24.08-.43-.2-.5-.44-.19-.72,0-1.5-.19-2.23-.09-.43-.64-1.3-1.16-.77-.3.31-.12,1.39-.13,1.78-.07,1.8-.13,3.61-.2,5.41A10.88,10.88,0,0,0,97,55.41a3.62,3.62,0,0,0,1,2,3.76,3.76,0,0,0,2.66.85,21.07,21.07,0,0,0,2.84-.39,15.77,15.77,0,0,1,4.34-.06,1.75,1.75,0,0,0,1.51-.25,1.11,1.11,0,0,0-.3-1.59,2.85,2.85,0,0,0-1.76-.36,4.31,4.31,0,0,1-1.19,0,1.21,1.21,0,0,1-.89-.73,1.71,1.71,0,0,1,.43-1.44,26.46,26.46,0,0,1,2.86-3.48,11,11,0,0,0,1.16-1.3c0-.22-.07-.44-.1-.65Q109.53,47.33,109.51,46.7Z"/><path class="cls-1" d="M130.68,26a2.72,2.72,0,0,0,.49-.05c0-.06,0-.11,0-.17a9.41,9.41,0,0,0-.43-1.89,9,9,0,0,0-.55-1.27,1.58,1.58,0,0,1-.52.57.59.59,0,0,1-.79-.17.77.77,0,0,1,0-.52,7.6,7.6,0,0,1,.46-1.2,8.2,8.2,0,0,0-1.19-1.24L128,20l-1.83,1.48a.71.71,0,0,1-.49.21.45.45,0,0,1-.34-.48,1.21,1.21,0,0,1,.24-.6c.29-.47.6-.92.93-1.36a18.46,18.46,0,0,0-2.13-.73c-3.16-.89-6.5-1.32-9.49-2.6l0,.05c-.2.37-.5.79-.91.73a.71.71,0,0,1-.55-.68,1.6,1.6,0,0,1,.14-.72v0l-.28-.15a3.55,3.55,0,0,0-1.07-.48,1,1,0,0,0-1,.39,1.34,1.34,0,0,0,.3,1.39A7.82,7.82,0,0,0,115,19.14c1,.36,2.14.7,2.38,1.69a1.51,1.51,0,0,1,0,.6,2.21,2.21,0,0,1-.15.48,4.86,4.86,0,0,1-2,2,30.93,30.93,0,0,1-6,2.85L105,29.87l0,0a1.15,1.15,0,0,0,.26.5,2.25,2.25,0,0,0,2.18.34l.64-.16a23.3,23.3,0,0,1,3.47-1.27,16.49,16.49,0,0,0,1.54-.84h0l.16-.09a3.42,3.42,0,0,1,1.65-.71,1.47,1.47,0,0,1,.42.06,1,1,0,0,1,.77,1,1.45,1.45,0,0,1-.47.76,9.11,9.11,0,0,1-.79.73,1.47,1.47,0,0,1,0,.29,1.57,1.57,0,0,1-.18.42,3.33,3.33,0,0,1-1.19,1c-1.14.68-2.34,1.27-3.54,1.84l-.32.15c-.25.21-.51.42-.75.64l-.32.32a2.53,2.53,0,0,0-.85,1.92,1.1,1.1,0,0,0,.26.65h0a.7.7,0,0,0,.17.13.9.9,0,0,0,.48.14,2.09,2.09,0,0,0,.91-.27l.55-.28a47.23,47.23,0,0,0,5.36-3.69h0c.57-.42,1.15-.83,1.75-1.22l.44-.31c.4-.28,1-.52,1.28-.11a.79.79,0,0,1,.08.26,1,1,0,0,1-.13.81,2.75,2.75,0,0,1-.17.29c-1.48,2.11-3.6,3.71-5.12,5.8a1.3,1.3,0,0,0-.32,1.26l0,0c.25.45.87.42,1.41.21a2.09,2.09,0,0,0,.4-.19,14.7,14.7,0,0,0,2.38-1.77,25.55,25.55,0,0,0,3.07-3.34,1.52,1.52,0,0,1,.83-.64h.16a1,1,0,0,1,.78.51,1.93,1.93,0,0,1,.18,1.11c-.14,1.89-1.44,3.48-1.95,5.31l.2-.21,1.06-1.06c.34-.34.8-.71,1.26-.56a1.09,1.09,0,0,1,0,.26c.25-.47.49-.94.73-1.41.63-1.22,1.31-2.4,2-3.56l.52-.8c.27-.44.55-.86.86-1.28s.51-.65.78-1c.6-.78,1.2-1.55,1.79-2.35a7.12,7.12,0,0,0,1-1.87,7,7,0,0,1-.79,0,.8.8,0,0,1-.48-.1.64.64,0,0,1-.08-.85A2.11,2.11,0,0,1,130.68,26Z"/><path class="cls-1" d="M131.35,40.7a20.59,20.59,0,0,1-5.49,2.21,2.5,2.5,0,0,0-.85.28.8.8,0,0,0-.41.75c.08.51.73.66,1.24.67a13.05,13.05,0,0,0,2.5-.21c.32-.06.78,0,.8.3a.73.73,0,0,1-.07.24c-1,2.19-3.28,3.46-4.87,5.28a.76.76,0,0,0-.17.32.44.44,0,0,0,.38.43,1.1,1.1,0,0,0,.62-.12,12.43,12.43,0,0,0,3-1.67c.13.36-.24.69-.53.94a4.44,4.44,0,0,0-1,1.11.33.33,0,0,0-.06.29c0,.13.22.15.36.15a9,9,0,0,0,3.61-.51A9,9,0,0,0,134,47.5a24.37,24.37,0,0,0,1.88-3.24,3.42,3.42,0,0,0,.18-3.1C135.07,39.56,132.72,40,131.35,40.7Z"/><path class="cls-1" d="M128,19.93l1.61-1.31a1,1,0,0,1,.83-.32,7.39,7.39,0,0,1-1,2.82,1.47,1.47,0,0,0-.1.22,8.11,8.11,0,0,1,.84,1.31l.06-.11.15-.23A16.82,16.82,0,0,1,132.17,20c.11-.12.29-.25.42-.15s.1.23.08.36l-.45,2.58a1.8,1.8,0,0,0,0,1.08.63.63,0,0,0,.89.34.93.93,0,0,0,.28-.49c.48-1.52,1-3,1.45-4.56.27-.86.55-1.7.77-2.56a8.24,8.24,0,0,0,.34-2.32,3.43,3.43,0,0,0-.77-2.17,5.23,5.23,0,0,0-1.23-1,47,47,0,0,0-8.09-4.41,1.13,1.13,0,0,0-.78-.1.72.72,0,0,0-.44.73,1.37,1.37,0,0,0,.36.82,7.75,7.75,0,0,0,2.54,1.59c.61.33,1.24.84,1.24,1.54a1.5,1.5,0,0,1-.68,1.17,4.93,4.93,0,0,1-1.27.6,18.81,18.81,0,0,0-3.47,1.75A4.22,4.22,0,0,0,122.11,16a1,1,0,0,0,0,1.26,1.18,1.18,0,0,0,1.1,0l3.31-1.05c.49-.16,2-.9,2.08,0,.08.68-.9,1.45-1.28,1.89s-.51.61-.75.93l-.12.17A10.28,10.28,0,0,1,128,20Z"/><path class="cls-1" d="M125.3,21.16a.46.46,0,0,0,.34.48.65.65,0,0,0,.49-.21L128,20a13,13,0,0,0-1.49-.75c-.33.44-.64.9-.93,1.37A1.23,1.23,0,0,0,125.3,21.16Z"/><path class="cls-1" d="M128.91,22.52a.77.77,0,0,0,0,.52.58.58,0,0,0,.79.18,1.53,1.53,0,0,0,.52-.58,8.57,8.57,0,0,0-.84-1.31A7.89,7.89,0,0,0,128.91,22.52Z"/><path class="cls-1" d="M140.12,25.91a2.87,2.87,0,0,0-1.1-2.23,3,3,0,0,0-2.62.31,20.19,20.19,0,0,1-2.7,1.17,26,26,0,0,1-2.49.81h0a2.73,2.73,0,0,1-.49.06,2.08,2.08,0,0,0-1.28.74.65.65,0,0,0,.08.85.89.89,0,0,0,.48.11,7,7,0,0,0,.79-.05l.27,0a7.48,7.48,0,0,0,1-.23,1.58,1.58,0,0,1,.88-.09.94.94,0,0,1,.58,1,2.88,2.88,0,0,1-.43,1.15,25.85,25.85,0,0,1-2.37,3.73,12,12,0,0,0-1.14,1.51,4.34,4.34,0,0,0-.49,1.43c0,.23,0,.52.22.59a.53.53,0,0,0,.25,0,2.93,2.93,0,0,0,1.36-1.25c.71-1,1.44-1.94,2.2-2.9.14-.18.39-.38.58-.25a.46.46,0,0,1,.13.43,7.15,7.15,0,0,1-.4,1.64c-.4,1.25-.79,2.5-1.19,3.75a1.72,1.72,0,0,0-.12.81.6.6,0,0,0,.53.53c.31,0,.52-.3.65-.57,1-1.92,1.32-4.2,2.71-5.86a11.32,11.32,0,0,1-.29,4.45,1.11,1.11,0,0,0,0,.48.32.32,0,0,0,.36.25.37.37,0,0,0,.17-.13,4.91,4.91,0,0,0,.95-2.34,28.4,28.4,0,0,1,1-3.29c.06-.15.14-.32.3-.35a.33.33,0,0,1,.27.08,1.18,1.18,0,0,1,.3.86l.18,2.84c.42.05.65-.47.73-.89A28.35,28.35,0,0,0,140.12,25.91Z"/><path class="cls-1" d="M115.52,8.25a.63.63,0,0,1,.42-.17.43.43,0,0,1,.33.41,1.18,1.18,0,0,1-.14.55c-.75,1.82-1.79,4.19-2.54,6l-.07.18v0l.23.1c.36.19.73.37,1.11.53l0-.1c.91-1.66,2.07-3.81,3-5.45.15-.26.37-.56.66-.5s.35.61.24,1l-1.12,3.82a1.94,1.94,0,0,0-.12.75A.65.65,0,0,0,118,16c.43.11.76-.38.94-.79l2.1-4.82a1.66,1.66,0,0,1,.56,1.34c0,.5-.09,1,0,1.5,0,.32.17.69.48.77a.65.65,0,0,0,.68-.38,1.9,1.9,0,0,0,.14-.81l.1-5.57a11,11,0,0,0-.29-3.34,3.7,3.7,0,0,0-2.13-2.46A4.1,4.1,0,0,0,119,1.21a25,25,0,0,0-3.07.47A24.63,24.63,0,0,1,112,2a3,3,0,0,0-1,.1,1,1,0,0,0-.68.66,1,1,0,0,0,.52,1,2.87,2.87,0,0,0,1.2.3l1.79.21a1.92,1.92,0,0,1,.79.31c.17.15.47.23.44.46-.22,1.51-1.4,2.68-2.51,3.74a9.76,9.76,0,0,0-2.12,2.6c.1.41.21.82.3,1.22A39.27,39.27,0,0,1,115.52,8.25Z"/><path class="cls-1" d="M113.51,15.25a1.79,1.79,0,0,0-.15.72.69.69,0,0,0,.55.68c.41.06.71-.36.91-.73l0-.05c-.38-.16-.75-.34-1.11-.52Z"/><path class="cls-1" d="M99.41,18.8c.39-.48.8-.93,1.23-1.37a1,1,0,0,1,.38-.26.34.34,0,0,1,.39.18.46.46,0,0,1,0,.26c-.47,1.64-2,3-1.85,4.7a.75.75,0,0,0,.1.33c.22.32.72.09,1-.17a16.94,16.94,0,0,0,2.62-3.68,9,9,0,0,1,3-3.32,1.49,1.49,0,0,1,1.39-.19,1.26,1.26,0,0,1,.58,1,6.54,6.54,0,0,1,0,1.17,4.34,4.34,0,0,0,.91,3.1,1.76,1.76,0,0,0,.81.59.93.93,0,0,0,.94-.22,1.51,1.51,0,0,0,.1-1.35,12.81,12.81,0,0,1-.29-4.14,12.7,12.7,0,0,0,.15-1.85,5.31,5.31,0,0,0-.13-.89c-.09-.41-.21-.82-.3-1.23a4,4,0,0,1-.07-2.08c.32-1.13,2.38-2,1.22-3.26a2.78,2.78,0,0,0-1-.64,4.26,4.26,0,0,0-3.16-.31,6.42,6.42,0,0,0-1.7,1.14c-2.62,2.16-5.67,3.72-8.5,5.6a1.76,1.76,0,0,0-.84,1c0,.19,0,.45.24.48a.54.54,0,0,0,.22-.05c1-.41,1.78-1.32,2.84-1.43.06.49-.38.88-.75,1.21a10.15,10.15,0,0,0-2.26,2.83,2.31,2.31,0,0,0-.35,1.58,2.18,2.18,0,0,0,1-.77,19.31,19.31,0,0,1,2.35-2.17c.28-.22.77-.38.92-.06s0,.41-.17.58c-.57.76-1.18,1.49-1.73,2.27a.6.6,0,0,1,.27.06C99.5,17.58,99.53,18.26,99.41,18.8Z"/><path class="cls-1" d="M85.64,19.39c1.9.1,3.56-1.17,5.32-1.87a9.26,9.26,0,0,1,3.2-.64A3,3,0,0,0,95,16.8a.76.76,0,0,0,.52-.54.72.72,0,0,0-.38-.71,2,2,0,0,0-.83-.21,12.8,12.8,0,0,0-3.09.16.58.58,0,0,1-.48-.06c-.18-.17-.07-.47.06-.68a16.92,16.92,0,0,1,4-4.54,1.87,1.87,0,0,0,.5-.51.62.62,0,0,0,0-.69.54.54,0,0,0-.48-.17l-.35.29c-.12.1-.28.22-.42.16a.18.18,0,0,1-.07-.05c-.3.2-.68.37-.94.57s-.73.64-1.09,1a9.47,9.47,0,0,1,1.26-2.14.75.75,0,0,0,.15-.57c-.07-.24-.36-.33-.61-.36a6,6,0,0,0-3.62,1,10.53,10.53,0,0,0-5.46,8.14,2.66,2.66,0,0,0,.41,1.8A2.27,2.27,0,0,0,85.64,19.39Z"/><path class="cls-1" d="M94.38,9.16c.11-.1.24-.2.36-.29a17,17,0,0,1,5.79-3.1.51.51,0,0,1,.4,0c.3.14.14.6-.08.85-.74.83-1.77,1.57-1.88,2.68a.49.49,0,0,0,.07.36c.17.23.53.11.76,0,2.63-1.67,3.83-5.07,6.57-6.55a5,5,0,0,0,1.58-1,1.2,1.2,0,0,0-.73-2,16.36,16.36,0,0,0-9,2.16,3.85,3.85,0,0,0-1.55,1.24c-.25.38-.36.85-.63,1.21s-.42.44-.61.68a1,1,0,0,0-.22.86c.07.21.26.42.2.64a.49.49,0,0,1-.16.24c-.52.56-1.21,1-1.4,1.76a.47.47,0,0,0,.07.43.18.18,0,0,0,.07.05C94.11,9.37,94.26,9.26,94.38,9.16Z"/><path class="cls-1" d="M107.47,45c.35.17.85.31,1.06,0a.72.72,0,0,0,.09-.45,4.65,4.65,0,0,0-2-3.42,10.06,10.06,0,0,0-3.37-1.43,1.33,1.33,0,0,1-.8-.35c-.39-.48.08-1.18.55-1.58A29.26,29.26,0,0,1,109.54,34l.31-.15c1.19-.58,2.4-1.17,3.54-1.84a3.43,3.43,0,0,0,1.19-1,1.36,1.36,0,0,0,.18-.43,1.37,1.37,0,0,0,0-.28,1,1,0,0,0-.23-.76,1.7,1.7,0,0,0-1.46-.41,9.42,9.42,0,0,0-1.59.26,23,23,0,0,0-3.47,1.27,27,27,0,0,1-3.18,1.21,1,1,0,0,1-1-.08.71.71,0,0,1-.06-.82,2,2,0,0,1,.62-.62l.51-.38,0,0,4.23-3.15.51-.38h0A9.69,9.69,0,0,0,112,24.26c.45-.64.7-1.61.12-2.14a1.32,1.32,0,0,0-1.24-.22,4,4,0,0,0-1.15.62l-7,4.84a2.15,2.15,0,0,1-.9.43.74.74,0,0,1-.81-.44,1,1,0,0,1,.27-.83c1.5-2.13,3.54-3.82,5.21-5.81.35-.42.7-1,.42-1.48a1,1,0,0,0-1.07-.33,2.7,2.7,0,0,0-1,.65L98.5,25.2c-.19.17-.44.36-.69.29s-.39-.47-.38-.78c0-2.06,1.45-3.82,2-5.82,0,0,0-.06,0-.09.12-.54.09-1.22-.41-1.43a.6.6,0,0,0-.27-.06,1,1,0,0,0-.68.27,2.71,2.71,0,0,0-.57.84A78.92,78.92,0,0,1,89.38,31a4.07,4.07,0,0,0-.64,1.15,4.88,4.88,0,0,0-.28,1.69,7.53,7.53,0,0,0,.8,3.29,6.38,6.38,0,0,0,.38.67,5.29,5.29,0,0,0,.57.75,6.25,6.25,0,0,0,.45.44c.26.22.54.43.82.63l.46.3a14.79,14.79,0,0,0,1.76.93c3.66,1.66,7.92,2,11.78,3.35a14.93,14.93,0,0,1,1.61.63Z"/><path class="cls-1" d="M121.29,42.49a.42.42,0,0,1-.15,0,.88.88,0,0,1-.5-.64,1.4,1.4,0,0,1,0-.5l-.2.2L119,43c-.4.4-.93.83-1.46.63L120,39.36a2.7,2.7,0,0,0,.47-1.17,1,1,0,0,0-.57-1c-.57-.18-1.1.36-1.39.89-.52.94-.81,2-1.33,3a7.09,7.09,0,0,1-4.93,3.52.54.54,0,0,1-.28,0,.44.44,0,0,1-.18-.32,20.43,20.43,0,0,1-.08-2.35,4.89,4.89,0,0,0-1-2.64c-.28-.35-.74-.69-1.15-.51a.82.82,0,0,0-.41.75,3,3,0,0,0,.19.87c.6,2.06.15,4.26.19,6.41a10.49,10.49,0,0,0,.08,1.25c0,.21.07.43.1.65a4.12,4.12,0,0,1,0,2.18,9.7,9.7,0,0,1-1,1.49,1.63,1.63,0,0,0-.17,1.68,1.79,1.79,0,0,0,1.12.64c1.54.37,3.43.39,4.61-.76a25.71,25.71,0,0,1,4.2-3.52c1.66-1,3.6-1.8,4.69-3.41a.27.27,0,0,0,.06-.17c0-.16-.25-.16-.41-.1l-1.41.51a.42.42,0,0,1-.31,0c-.23-.1-.1-.46.07-.64.51-.58,1.11-1.09,1.61-1.69a3.76,3.76,0,0,0,1-2.07.42.42,0,0,0-.07-.31c-.13-.14-.36-.05-.51.06-1.28.86-2.06,2.35-3.42,3.07-.1,0-.25.09-.32,0a.26.26,0,0,1,0-.23,5.86,5.86,0,0,1,1-1.32q.73-.81,1.38-1.68A.72.72,0,0,1,121.29,42.49Z"/><path class="cls-1" d="M121.7,40.25l-1.06,1.06a1.4,1.4,0,0,0,0,.5.88.88,0,0,0,.5.64.42.42,0,0,0,.15,0,.71.71,0,0,0,.49-.12c.23-.3.45-.61.65-.92a2.56,2.56,0,0,0,.56-1.51,1.09,1.09,0,0,0,0-.25C122.49,39.53,122,39.91,121.7,40.25Z"/><line class="cls-2" x1="1" y1="30.36" x2="65" y2="30.36"/><line class="cls-2" x1="156" y1="30.36" x2="220" y2="30.36"/></g></g></svg>