<svg xmlns="http://www.w3.org/2000/svg" viewBox="0 0 33.33 33.52"><defs><style>.cls-1{fill:none;stroke:#fff;stroke-miterlimit:10;stroke-width:2px;}.cls-2{fill:#efefef;}.cls-3{fill:#2ec571;}</style></defs><g id="Layer_2" data-name="Layer 2"><g id="main"><path class="cls-1" d="M32.33,16.67A15.67,15.67,0,1,0,1,16.67v.19a15.67,15.67,0,0,0,31.33,0v-.19Z"/><path class="cls-2" d="M23.64,13.62a3.5,3.5,0,0,0-.57-1.53,2,2,0,0,0-1.45-.65c-2-.15-2.72-.15-2.72-.15H16.56c-1.26,0-3,0-5,.15a2,2,0,0,0-1.44.65,3.5,3.5,0,0,0-.57,1.53,24,24,0,0,0-.15,2.49v1.17a23.73,23.73,0,0,0,.15,2.49,3.46,3.46,0,0,0,.57,1.53,2.36,2.36,0,0,0,1.59.66c1.15.12,4.91.15,4.91.15s3,0,5.05-.15a2,2,0,0,0,1.45-.66,3.46,3.46,0,0,0,.57-1.53s.14-1.24.14-2.49V16.11C23.78,14.87,23.64,13.62,23.64,13.62Z"/><polygon class="cls-3" points="14.3 19.97 20.06 16.52 14.3 13.06 14.3 19.97"/></g></g></svg>